<svg width="1024" height="860" viewBox="0 0 1024 860" fill="none" xmlns="http://www.w3.org/2000/svg">
<path d="M446 606.5C443 620 433.904 629 427 629C420.096 629 417.5 624.046 417.5 613C417.5 601.954 429.596 588 436.5 588C443.404 588 448 595.5 446 606.5Z" fill="#95A0B8"/>
<path d="M567.012 538.996C564.828 538.59 562.644 538.184 560.567 536.935C560.834 530.497 560.588 524.852 561.285 519.326C561.804 515.209 560.822 512.294 556.793 512.146C553.559 512.026 551.948 510.669 551.184 507.662C581.904 492.122 612.392 476.807 642.93 461.593C658.705 453.734 674.58 446.078 690.37 438.249C691.745 437.567 692.817 436.274 694.029 435.265C694.495 435.419 694.972 435.546 695.425 435.731C702.937 438.804 707.631 443.198 706.246 452.532C705.233 459.358 706.078 466.457 706.062 473.434C706.048 480.263 704.807 481.278 697.846 479.948C696.962 490.674 694.51 501.09 688.159 509.838C684.142 515.371 679.148 520.468 673.731 524.645C666.9 529.914 659.069 530.471 651.439 525.094C651.282 523.895 651.331 522.949 650.882 522.475C646.924 518.299 645.2 513.371 644.954 507.638C644.217 490.4 651.135 476.5 663.996 465.727C673.266 457.961 688.788 456.123 696.146 471.349C696.478 472.036 697.562 472.359 698.295 472.851C698.858 471.984 699.874 471.135 699.908 470.248C700.078 465.76 700.065 461.26 699.982 456.767C699.866 450.458 692.451 446.559 686.515 448.55C680.187 450.671 677.843 459.753 669.486 457.859C669.19 457.792 668.76 458.477 668.346 458.738C667.082 459.533 665.854 460.419 664.508 461.043C657.045 464.506 649.551 467.902 641.786 471.449C643.93 474.336 645.585 476.565 647.239 478.793C646.952 479.169 646.665 479.545 646.378 479.92C643.455 479.045 640.43 478.415 637.632 477.242C632.585 475.127 629.353 476.119 626.144 481.225C623.819 484.925 624.591 489.269 627.634 492.274C629.356 493.974 631.369 496.079 631.778 498.276C632.916 504.385 633.284 510.637 633.956 516.833C631.447 529.482 626.231 540.739 616.594 549.561C606.998 558.344 599.899 559.281 588.239 553.236C586.869 550.246 584.653 547.862 584.186 545.175C583.273 539.914 582.809 534.456 583.093 529.129C583.951 513.046 592.274 501.134 605.267 492.344C608.277 490.307 612.119 489.501 615.578 488.129C614.177 486.759 612.27 485.7 611.155 486.249C601.052 491.223 590.604 495.87 583.189 504.778C577.368 511.771 576.444 520.751 575.347 529.265C574.611 534.972 571.642 537.344 567.012 538.996ZM678.076 507.569C683.542 501.3 686.504 494.1 686.234 485.689C686.084 481.024 684.328 477.201 680.066 475.029C675.852 472.882 671.909 474.24 668.387 476.823C662.054 481.467 658.609 488.036 656.672 495.449C654.742 502.834 656.801 510.72 661.58 512.955C668.161 516.034 673.006 512.248 678.076 507.569ZM605.844 542.495C617.354 538.456 625.965 522.493 622.896 510.884C620.982 503.648 614.295 500.708 607.67 504.189C598.679 508.913 592.244 522.447 593.914 533.121C594.913 539.509 598.434 542.526 605.844 542.495Z" fill="#2A3344"/>
<path d="M693.762 435.022C692.817 436.274 691.745 437.567 690.37 438.249C674.58 446.078 658.705 453.734 642.93 461.593C612.392 476.807 581.904 492.121 550.829 507.721C547.511 509.367 544.76 510.685 541.648 512.039C537.525 514.059 533.763 516.044 529.641 518.064C511.58 526.709 493.803 535.168 476.221 544.015C470.739 546.773 465.799 547.637 460.361 544.292C458.919 543.405 456.917 543.427 455.009 542.83C454.587 542.406 454.327 542.183 454.049 541.494C454.034 534.068 454.038 527.107 454.362 520.259C461.761 523.942 468.841 527.512 476.201 531.35C478.258 531.589 480.232 532.051 481.774 531.434C485.469 529.954 488.854 527.687 492.565 526.262C496.426 524.78 497.253 522.211 496.956 518.463C496.472 512.349 496.323 506.207 496.407 500.001C506.987 497.285 517.178 494.581 527.405 492.022C538.565 489.229 549.758 486.571 561.255 483.87C562.387 483.309 563.202 482.731 564.248 482.023C564.667 481.603 564.855 481.314 565.038 481.042C565.033 481.06 565.068 481.08 565.42 481.041C566.522 480.65 567.348 480.405 568.014 479.934C586.987 466.514 606.018 453.173 624.832 439.534C627.996 437.24 630.532 436.878 633.864 438.486C637.435 440.21 641.147 441.64 644.973 443.434C646.108 443.802 647.068 443.934 648.386 444.014C657.343 439.866 666.005 435.893 674.484 431.562C676.047 430.764 676.871 428.519 678.036 426.942C683.189 429.555 688.342 432.167 693.762 435.022Z" fill="#3E4C61"/>
<path d="M283.704 429.837C288.732 426.656 293.595 423.167 298.82 420.351C313.751 412.304 328.867 404.604 343.823 396.604C347.886 394.431 351.625 394.453 355.694 396.383C368.157 402.294 380.676 408.085 393.852 414.09C398.783 416.489 403.012 418.768 407.293 420.943C419.856 427.325 432.439 433.665 444.803 440.288C429.879 448.312 415.106 455.96 400.48 463.879C393.509 467.653 387.695 472.951 380.5 477C372.197 473.241 363.349 468.572 355.475 464.713C332.922 453.66 310.411 442.521 287.872 431.442C286.541 430.788 285.096 430.367 283.704 429.837ZM325.376 423.25C324.177 426.198 325.931 427.434 328.267 428.54C343.271 435.643 358.168 442.98 373.308 449.775C375.973 450.971 380.027 450.946 382.732 449.806C389.439 446.98 395.745 443.197 402.196 439.769C404.743 438.415 406.024 436.59 403.931 433.125C402.705 432.316 401.556 431.348 400.243 430.722C387.379 424.598 374.302 418.888 361.675 412.313C354.128 408.384 347.582 408.044 340.596 413.143C337.283 415.561 333.284 417.017 329.73 419.136C328.262 420.011 327.148 421.48 325.376 423.25Z" fill="#97D282"/>
<path d="M211.992 460.075C211.982 475.409 211.972 490.743 211.487 506.541C204.633 507.002 198.251 507.127 191.875 506.964C184.374 506.772 176.881 506.294 169.382 506.008C161.92 505.724 154.302 508.981 147.005 505C147.004 476.355 146.99 447.711 147.01 419.066C147.016 410.324 151.416 406.032 160.302 406.02C172.126 406.005 183.966 406.389 195.77 405.908C207.13 405.445 211.657 411.19 211.901 421.889C212.089 430.129 211.72 438.381 211.797 447.323C211.995 452.037 211.993 456.056 211.992 460.075ZM199.541 431.325C199.906 419.172 199.084 418.371 186.07 419.006C178.976 419.009 171.882 419.046 164.789 419.003C160.898 418.979 158.959 420.832 158.992 424.706C159.038 430.145 159.121 435.583 159.039 441.94C159.045 445.721 158.956 449.505 159.086 453.282C159.191 456.301 160.44 458.348 164.887 457.995C170.263 457.964 175.639 457.933 181.931 458.087C185.422 458.091 188.913 458.126 192.404 458.091C197.899 458.037 199.481 456.538 199.489 450.942C199.499 444.629 199.283 438.316 199.541 431.325ZM166.238 482.335C163.754 485.048 165.23 486.838 168.002 486.849C175.298 486.877 182.601 486.424 189.887 485.949C190.965 485.878 191.966 484.644 193.003 483.948C191.861 483.34 190.729 482.226 189.576 482.205C182.088 482.066 174.597 482.165 166.238 482.335ZM186.36 472.983C187.354 472.979 188.402 473.176 189.328 472.923C190.571 472.584 191.719 471.897 192.908 471.36C191.668 470.669 190.446 469.42 189.185 469.38C182.4 469.164 175.604 469.144 168.818 469.323C167.547 469.356 166.308 470.597 165.054 471.281C166.368 471.868 167.666 472.917 168.996 472.96C174.456 473.135 179.925 473.003 186.36 472.983ZM190.196 479.22C191.078 478.567 191.96 477.914 192.842 477.262C191.948 476.79 191.06 475.923 190.159 475.91C182.882 475.809 175.602 475.808 168.326 475.946C167.256 475.966 166.203 476.876 165.142 477.375C166.231 477.996 167.308 479.129 168.411 479.155C175.355 479.314 182.304 479.226 190.196 479.22Z" fill="#E7E6D8"/>
<path d="M391.708 630.018C387.902 631.562 384.128 633.193 380.28 634.625C376.41 636.064 372.467 637.304 368.132 638.128C367.711 628.002 367.777 618.379 367.668 608.758C367.647 606.839 366.957 604.927 366.771 602.722C369.165 601.075 371.191 599.985 373.39 598.628C373.227 598.222 373.163 597.533 373 597.128C371.564 597.423 369.963 598.795 368.5 598.628C368.465 594.711 368.129 591.079 368 587.628C367.78 581.755 367.302 576.449 367 570.128C366.969 566.967 366.825 563.111 366.799 560C366.776 558.522 366.807 557.536 366.799 555.997C366.814 551.102 366.812 546.672 366.771 542C366.703 541.43 367.552 540.71 367.782 540.078C369.092 539.524 370.209 539.273 371.411 539.438C371.948 546.513 371.948 546.508 378.981 546.175C379.466 546.152 379.963 546.283 380.448 546.377C388.567 547.946 388.566 547.947 388.707 539.77C388.716 539.271 388.768 538.773 389.202 538.232C393.623 538.395 395.951 536.866 395.856 532.464C395.833 531.398 396.566 530.315 397.301 529.197C402.775 526.544 407.95 524.023 413.004 521.279C415.093 520.146 416.923 518.536 419.073 517.148C419.277 517.153 419.683 517.117 420.057 517.102C423.517 515.733 426.604 514.378 429.694 513.5C429.7 516.453 429.787 518.933 429.688 521.405C429.452 527.267 429.127 533.125 428.597 538.704C419.454 538.464 415.635 542.809 417.795 551.587C421.434 549.97 424.942 548.412 428.755 547.103C429.652 548.983 430.244 550.613 430.595 552.49C426.629 554.526 423.017 556.632 419.149 558.023C414.51 559.691 411.266 562.585 408.847 566.779C405.052 573.356 401.184 579.896 397.135 586.318C393.717 591.737 391.046 597.284 391.446 604.02C386.761 606.332 381.909 607.781 379.044 612.252C383.537 611.082 387.668 609.277 391.644 607.177C392.31 606.825 392.302 605.195 392.886 603.907C395.656 591.957 403.608 583.11 409.029 572.933C412.711 566.021 418.04 561.812 424.991 558.834C430.791 556.349 436.253 553.085 442.021 550.514C446.065 548.711 450.37 547.494 454.709 546.267C454.944 546.697 455.029 546.873 455 547.427C453.801 549.264 453.03 551.301 451.58 552.088C442.136 557.211 432.405 561.819 423.076 567.136C419.818 568.993 417.434 572.381 414.387 575.276C405.833 588.225 395.83 600.352 398.718 617.203C399.779 623.395 398.479 628.17 391.708 630.018ZM380.591 629.929C385.24 628.729 389.43 626.806 392.85 623.674C392.418 622.975 391.985 622.275 391.553 621.576C387.722 624.203 383.891 626.829 380.591 629.929Z" fill="#589A5A"/>
<path d="M146.997 505.469C154.302 508.981 161.921 505.724 169.382 506.009C176.881 506.294 184.375 506.772 191.876 506.964C198.251 507.127 204.634 507.003 211.463 507.01C211.618 517.962 211.268 528.909 211.072 539.858C211.034 541.974 211.593 544.102 211.444 546.621C198.588 546.677 186.166 546.292 173.742 546.015C168.349 545.895 162.938 545.76 157.562 546.085C154.008 546.299 150.503 547.32 146.976 547.979C146.98 533.965 146.985 519.951 146.997 505.469Z" fill="#E3E2D3"/>
<path d="M366.87 602.915C367.252 604.83 367.942 606.741 367.963 608.661C368.072 618.281 368.006 627.904 368.005 638.039C366.463 638.257 364.775 638.265 363.393 637.619C355.369 633.872 347.418 629.972 339.176 625.462C340.255 618.954 337.672 615.929 332.311 613.512C318.593 607.326 305.18 600.467 291.604 593.964C289.498 592.956 287.174 592.404 284.425 591.46C284.171 594.67 283.992 596.948 283.812 599.226C277.394 596.428 270.977 593.628 264.558 590.834C262.915 590.119 261.262 589.427 259.31 588.23C259.276 586.143 259.547 584.552 259.818 582.961C259.674 577.299 259.53 571.637 259.67 565.503C259.954 565.03 260.344 564.987 260.528 565.227C261.418 566.367 262.124 567.266 262.971 568.379C263.426 568.709 263.739 568.826 264.223 569.24C267.025 570.566 269.655 571.596 272.325 572.979C273.784 573.244 275.203 573.153 276.623 573.063C275.765 570.058 279.367 565.715 273.958 563.732C270.427 561.494 266.923 559.488 263.257 557.84C262.602 557.546 261.278 558.738 260.182 558.956C259.86 558.138 259.618 557.608 259.377 557.078C259.4 556.011 259.423 554.945 259.93 553.461C262.299 553.545 264.338 553.738 266.042 554.597C277.115 560.174 288.005 566.123 299.165 571.518C317.023 580.151 335.068 588.395 352.945 596.991C354.285 597.635 354.907 599.775 355.505 601.131C353.502 601.099 351.856 601.156 349.813 601.172C347.803 604.468 346.056 607.831 351.125 610.273C351.837 610.691 352.463 610.789 353.146 611.21C353.823 611.661 354.443 611.789 355.153 612.272C356.341 613.084 357.438 613.541 358.515 614.005C358.495 614.012 358.485 613.97 358.755 614.248C363.559 617.827 362.909 614.21 362.944 611.208C362.909 609.913 362.914 608.969 362.935 607.655C362.925 606.547 362.899 605.809 363.204 605.004C364.647 604.263 365.758 603.589 366.87 602.915ZM319.465 594.015C324.863 596.618 330.317 599.114 335.637 601.866C338.576 603.387 341.017 603.81 342.66 600.329C344.268 596.92 342.019 595.581 339.391 594.345C327.642 588.82 315.925 583.223 304.189 577.67C296.736 574.142 289.269 570.644 281.256 566.873C281.459 572.782 282.834 576.743 288.123 579.102C298.458 583.711 308.568 588.823 319.465 594.015Z" fill="#79B471"/>
<path d="M677.959 426.502C676.871 428.519 676.047 430.764 674.484 431.563C666.005 435.893 657.343 439.867 648.387 443.615C653.677 427.358 659.369 411.464 664.903 395.515C665.478 393.857 665.113 391.872 665.286 389.721C675.159 376.388 677.066 361.824 673.155 346.458C670.956 337.82 667.765 329.435 665.151 320.639C666.595 319.52 667.911 318.698 669.561 317.667C669.419 317.129 669.275 315.981 668.817 314.977C667.659 312.441 665.164 309.809 665.472 307.52C665.751 305.455 666.536 305.817 668.5 304C668.506 304.023 670.961 301.979 671.268 301.967C672.048 301.622 670.5 302 672.5 301C674.5 300 673.5 299.5 675 299C675.779 298.656 676.023 299.311 676.5 299C676.505 299.022 678.597 297.486 679 297.5C683.669 296.49 684.503 299.259 686.5 294.022C686.513 294.038 686.971 293.965 687.366 293.987C688.552 294.014 689.709 293.496 690.5 293.5C687.608 300.747 684.241 308.476 681.532 315.791C680.791 317.793 680.927 320.12 680.843 323.09C681.018 328.313 681.01 332.744 680.862 337.447C679.873 338.769 679.023 339.819 678.173 340.868C678.371 341.091 678.57 341.313 678.769 341.535C684.199 338.331 689.63 335.126 695.061 331.922C694.38 340.193 693.804 348.475 692.916 356.724C692.768 358.097 691.404 359.451 690.356 360.587C689.162 361.881 687.692 362.92 686.082 364.777C685.025 371.039 684.195 376.59 683.439 382.151C681.947 393.135 680.496 404.124 679.027 415.111C678.645 418.761 678.263 422.411 677.959 426.502Z" fill="#65A363"/>
<path d="M445.014 440.022C432.439 433.666 419.856 427.325 407.293 420.943C403.012 418.768 398.783 416.489 394.212 414.109C392.436 405.991 391.647 398.065 396.015 390.236C411.328 397.073 426.038 404.016 440.656 411.149C449.88 415.649 458.966 420.434 468.079 425.471C467.016 431.33 465.474 436.773 465.102 442.296C464.693 448.376 468.718 451.886 474.706 452.324C471.64 453.081 468.82 453.569 465.854 453.745C461.136 450.292 456.564 447.15 451.695 443.851C449.27 442.471 447.142 441.247 445.014 440.022Z" fill="#81C176"/>
<path d="M457.953 593.108C456.65 600.076 456.497 607.543 453.748 613.884C450.457 621.472 445.715 628.783 440.205 634.969C433.139 642.902 422.567 648.101 409.163 639.242C408.908 637.727 409.145 636.675 408.726 636.114C406.317 632.893 406.426 630.198 409.708 627.575C410.651 626.822 411.416 625.265 411.42 624.073C411.424 622.757 410.461 621.438 409.919 620.12C409.447 620.319 408.975 620.519 408.503 620.719C408.14 622.369 407.777 624.019 407.384 625.805C406.772 625.413 406.386 625.304 406.294 625.076C406.113 624.631 406.031 624.12 406.021 623.634C405.799 612.994 407.271 602.577 413.458 593.74C418.858 586.027 423.709 577.523 434.528 575.45C448.935 572.689 458.117 583.138 457.953 593.108ZM419.718 603.653C418.727 608.295 416.99 614.751 417.49 618.751C417.99 622.751 417.835 626.309 422.496 628.366C427.419 630.537 431.689 628.671 435.346 625.473C443.248 618.565 446.76 609.625 446.089 599.254C445.546 590.854 437.569 586.598 430.656 591.415C426.466 594.334 423.532 599.055 419.718 603.653Z" fill="#2A3344"/>
<path d="M146.972 548.431C150.503 547.32 154.008 546.3 157.562 546.085C162.938 545.761 168.349 545.896 173.742 546.016C186.166 546.292 198.588 546.677 211.448 547.042C211.95 555.281 212.014 563.496 211.622 572.236C189.415 572.706 167.665 572.652 145.914 572.598C146.265 564.693 146.616 556.788 146.972 548.431Z" fill="#CDCDBF"/>
<path d="M265.991 502.034C266.611 502.255 267.179 502.535 267.735 502.836C268.453 503.225 269.201 503.682 269.958 504.043C297.349 517.123 324.815 530.029 352.099 543.314C355.016 544.735 357.818 545.722 360.537 545.601C362.966 545.492 365.27 544.499 367.497 542.274C367.49 546.384 367.455 550.976 367.5 555.505C367.51 556.415 367.514 557.059 367.517 557.505L367.5 557.506V557.541C367.501 557.562 367.502 557.592 367.502 557.628C367.504 557.7 367.505 557.798 367.507 557.9C367.508 557.923 367.509 557.946 367.509 557.97C367.556 560.558 367.751 565.004 367.569 567.992C366.928 567.402 366.304 566.699 365.669 565.964C364.813 564.973 363.931 563.919 363.001 563.112C362.134 562.359 361.153 561.753 360.151 561.166C359.141 560.574 358.115 560.003 357.095 559.299C354.945 557.651 352.988 555.945 350.747 554.856C331.343 545.431 311.896 536.097 292.446 526.771C286.913 524.119 281.368 521.449 275.719 519.023C273.679 518.147 271.849 518.034 270.571 518.729C269.24 519.452 268.696 520.937 269.015 522.797C270.707 532.649 272.591 542.436 274.066 552.226C273.279 551.968 272.473 551.724 271.75 551.48C270.753 551.144 269.832 550.785 269.038 550.314C268.248 549.847 267.592 549.275 267.117 548.521C266.643 547.769 266.327 546.806 266.259 545.523C266.028 531.139 265.797 516.764 265.991 502.034Z" stroke="black"/>
<path d="M283.419 429.998C285.095 430.367 286.54 430.789 287.871 431.443C310.411 442.521 332.922 453.66 355.474 464.713C363.348 468.572 371.689 471.837 380 476C379.673 479.778 378.592 483.541 377.605 487.062C376.185 487.795 375.876 489.415 374.5 490C374.267 490.006 372.969 489.016 372.629 488.909C370.173 487.839 368.037 486.918 365.946 485.905C344.262 475.405 322.558 464.946 300.919 454.352C292.441 450.201 284.114 445.74 275.718 441.421C278.19 437.666 280.662 433.912 283.419 429.998Z" fill="#81C176"/>
<path d="M428.73 377.827C438.016 366.569 447.324 355.329 456.578 344.046C460.264 339.552 463.832 334.963 468.135 330.207C474.165 329.309 479.574 327.772 484.846 328.149C491.63 328.635 498.304 330.657 505.013 332.009C505 332 504.976 331.984 505.08 332.216C505.439 332.669 505.695 332.89 505.73 333.358C503.05 335.495 500.458 337.237 498.151 339.297C483.732 352.17 469.377 365.115 454.604 378.017C445.737 374.739 437.246 374.385 428.73 377.827Z" fill="#97D282"/>
<path d="M476.713 325.736C479.037 324.527 481.347 323.292 483.687 322.115C504.24 311.778 524.798 301.452 546.008 291.4C555.111 292.789 561.589 293.894 570.033 295C570.027 294.996 573 295.5 573 295.5C573 295.5 576.318 295.717 577 296.5C575.284 297.443 571.498 298.861 570.033 299.615C550.603 309.617 531.172 319.617 511.793 329.717C510.637 330.32 509.922 331.769 508.667 332.843C507.888 332.899 507.444 332.936 507 332.988C507 333.004 507.025 332.986 506.897 332.698C506.17 332.269 505.573 332.126 504.976 331.984C504.976 331.984 505 332.001 504.868 331.679C503.735 330.838 502.785 330.027 501.727 329.845C493.4 328.407 485.054 327.09 476.713 325.736Z" fill="#97D282"/>
<path d="M468 427.5C458.852 422.843 448.589 417.151 439.365 412.651C424.747 405.518 410.037 398.575 395 391.5C399.661 387.628 405.842 382.097 411.117 378.658C412.201 377.952 414.73 379.431 416.582 379.942C419.143 380.649 421.693 381.392 424.623 382.336C426.588 383.664 428.062 385.015 429.786 385.851C447.148 394.277 464.57 402.576 481.907 411.053C483.466 411.815 484.543 413.564 485.442 414.866C482.173 415.834 479.004 416.308 476.516 417.868C473.422 419.807 470.775 425.052 468 427.5Z" fill="#97D282"/>
<path d="M455.409 546.953C455.324 546.776 455.24 546.6 455.082 545.816C455.063 544.484 455.118 543.758 455.172 543.033C456.917 543.428 458.919 543.406 460.361 544.293C465.799 547.638 470.739 546.774 476.221 544.015C493.803 535.169 511.58 526.709 529.722 518.438C534.132 520.683 539.971 519.661 541.931 516.348C542.572 515.265 542.017 513.473 542.009 512.005C544.76 510.686 547.511 509.367 550.617 507.989C551.948 510.669 553.56 512.027 556.793 512.146C560.822 512.294 561.804 515.21 561.285 519.327C560.588 524.853 560.834 530.498 560.406 536.619C558.353 536.245 556.57 535.342 554.416 533.903C554.004 529.899 553.963 526.43 553.841 522.622C549.816 517.346 546.557 522.292 542.966 522.668C539.988 517.033 537.642 522.919 534.975 522.729C535.503 523.917 536.031 525.105 536.288 526.54C527.776 530.95 519.57 535.184 511.287 539.26C498.034 545.781 484.737 552.213 471.439 558.643C469.095 559.777 466.842 560.843 467.584 564.488C467.26 568.367 467.049 571.867 466.838 575.367C466.142 575.597 465.446 575.827 464.378 575.6C464.811 566.739 461.771 560.268 453.939 556.317C455.174 553.652 456.346 551.467 457.129 549.151C457.292 548.667 456.02 547.698 455.409 546.953Z" fill="#222B3A"/>
<path d="M145.508 572.663C167.664 572.652 189.415 572.706 211.635 572.678C218.626 573.44 219.522 574.473 219.558 581.234C219.571 583.693 219.56 586.153 219.56 588.848C192.557 588.848 166.109 588.848 139.668 588.848C137.648 576.814 138.551 572.097 145.508 572.663Z" fill="#3E4C61"/>
<path d="M634.325 516.864C633.284 510.637 632.916 504.384 631.778 498.276C631.369 496.079 629.356 493.974 627.634 492.274C624.591 489.268 623.819 484.925 626.144 481.224C629.353 476.119 632.585 475.127 637.632 477.242C640.43 478.414 643.455 479.045 646.378 479.92C646.665 479.544 646.952 479.169 647.239 478.793C645.585 476.565 643.93 474.336 641.786 471.449C649.551 467.902 657.045 464.506 664.508 461.043C665.854 460.419 667.082 459.533 668.346 458.738C668.76 458.477 669.19 457.792 669.486 457.859C677.843 459.753 680.187 450.671 686.515 448.549C692.451 446.559 699.866 450.458 699.982 456.767C700.065 461.26 700.078 465.759 699.908 470.248C699.874 471.135 698.858 471.984 698.295 472.851C697.562 472.358 696.478 472.035 696.146 471.349C688.788 456.123 673.266 457.961 663.996 465.727C651.135 476.5 644.217 490.4 644.954 507.638C645.2 513.371 646.924 518.299 650.882 522.475C651.331 522.948 651.282 523.894 651.219 524.817C645.547 522.308 640.121 519.602 634.325 516.864Z" fill="#222B3A"/>
<path d="M519.009 563.807C517.784 562.965 516.558 562.123 515.333 561.28C514.576 562.675 513.139 564.1 513.2 565.458C513.341 568.621 512.063 570.278 509.344 571.593C498.261 576.953 487.276 582.513 476.185 587.856C474.856 588.497 473.103 588.261 471.458 587.798C471.57 579.435 471.771 571.705 472.173 563.705C487.881 555.582 503.387 547.73 518.914 540.354C518.96 548.489 518.985 556.148 519.009 563.807Z" fill="#5B9E5B"/>
<path d="M639.058 275.657C653.922 271.085 668.594 271.423 682.877 277.793C689.938 280.942 692.021 284.698 691 291C689.213 292.258 688.19 293.053 686.971 293.964C686.971 293.964 686.991 293.991 686.618 294.005C682.484 296.004 678.724 297.989 674.964 299.975C674.964 299.975 675.001 300.001 674.694 300.001C673.912 300.326 673.437 300.652 672.961 300.979C672.961 300.979 673.001 301.002 672.696 301.003C671.915 301.329 671.438 301.654 670.961 301.979C670.961 301.979 671.004 302 670.623 301.987C666.572 302.385 662.883 307.197 659.127 301.599C653.417 293.3 645.055 288.917 636.819 284.459C634.456 283.18 631.602 282.808 628.988 282.01C629.003 282.001 628.989 282.034 628.956 281.743C630.648 280.094 632.372 278.736 634.096 277.378C634.249 277.303 634.403 277.228 635.096 277.145C636.114 276.864 636.591 276.59 637.069 276.316C637.069 276.316 637.506 276.087 637.948 276.075C638.678 276.035 638.901 275.899 639.058 275.657Z" fill="#4E8350"/>
<path d="M458.366 592.983C458.128 582.887 448.946 572.438 434.538 575.199C423.72 577.272 418.868 585.776 413.469 593.489C407.281 602.326 405.81 612.743 406.031 623.384C406.042 623.869 406.123 624.38 406.304 624.825C406.397 625.053 406.782 625.162 407.395 625.554C407.788 623.768 408.151 622.118 408.514 620.468C408.986 620.268 409.457 620.068 409.929 619.869C410.471 621.187 411.435 622.506 411.431 623.822C411.426 625.014 410.661 626.571 409.718 627.324C406.436 629.947 406.327 632.643 408.736 635.863C409.156 636.424 408.919 637.476 408.972 638.708C403.471 636.211 397.982 633.306 392.249 630.162C398.774 628.074 400.074 623.298 399.013 617.106C396.125 600.255 406.128 588.129 415.036 575.22C419.828 577.318 420.242 572.602 422.542 571.395C429.254 567.875 436.048 564.509 442.861 561.187C445.364 559.967 447.428 560.227 449.998 562.157C454.93 565.862 458.143 570.186 458.318 576.714C460.037 576.814 461.483 576.899 462.929 576.983C462.929 582.586 462.929 588.188 462.929 594.706C461.216 594.048 459.992 593.578 458.366 592.983Z" fill="#222B3A"/>
<path d="M259.371 583.017C259.547 584.553 259.276 586.144 258.953 588.072C254.74 588.528 250.581 588.723 246.42 588.75C234.324 588.831 226.2 581.088 226.132 568.949C225.99 543.63 226.088 518.311 226.086 492.991C226.085 484.163 226.306 475.325 225.934 466.512C225.826 463.948 224.583 460.917 222.833 459.075C220.939 457.081 217.698 453.511 215.513 459.434C215.329 459.933 213.758 459.92 212.412 460.11C211.993 456.056 211.995 452.037 212.107 447.575C212.883 447.16 213.986 446.953 214.148 447.253C216.467 451.555 221.547 451.116 224.889 453.628C229.712 457.253 231.357 462.141 231.349 468.015C231.302 501.151 231.369 534.286 231.413 567.422C231.427 577.986 236.514 583.133 246.939 583.157C250.934 583.167 254.929 583.103 259.371 583.017Z" fill="#3A4C4F"/>
<path d="M485.844 414.855C484.543 413.564 483.466 411.815 481.907 411.053C464.57 402.577 447.148 394.277 429.786 385.851C428.062 385.015 426.588 383.664 424.924 382.194C425.975 380.616 427.098 379.397 428.476 378.002C437.246 374.385 445.737 374.739 454.807 378.285C470.05 386.481 481.121 398.095 490.115 412.232C490.476 413.003 490.737 413.507 490.624 414.05C488.782 414.344 487.313 414.599 485.844 414.855Z" fill="#69AC67"/>
<path d="M553.921 522.961C553.963 526.43 554.004 529.898 554.075 533.847C554.038 549.301 554.039 549.303 540.748 556.095C535.745 558.652 530.737 561.199 525.39 563.411C524.69 554.984 524.331 546.896 524.017 538.479C534.014 533.087 543.968 528.024 553.921 522.961Z" fill="#589A5A"/>
<path d="M275.723 442.263C284.264 446.387 292.356 450.716 300.7 454.801C322.339 465.395 344.045 475.856 365.728 486.355C367.846 487.381 369.686 488.011 372.106 489.354C372.283 489.774 372.515 490.244 372.69 490.624C372.792 490.846 372.876 491.041 372.932 491.201C372.377 491.421 371.727 491.584 371 491.729C370.559 491.816 370.1 491.897 369.623 491.981C369.201 492.056 368.767 492.135 368.33 492.224C361.074 488.733 354.372 485.522 347.702 482.248C326.032 471.612 304.358 460.938 282.687 450.303C281.228 449.587 279.673 449.013 277.392 448.048L276.817 447.805L276.705 448.419C275.429 455.396 274.238 462.211 273.061 468.942C271.909 475.535 270.77 482.048 269.582 488.559C269.214 488.558 268.806 488.559 268.378 488.561C267.925 488.562 267.448 488.56 266.97 488.559C266.9 486.876 267.204 485.13 267.481 482.647C269.534 471.763 271.518 461.644 273.365 451.506L275.723 442.263Z" stroke="black"/>
<path d="M265.147 546.831C265.358 547.745 265.704 548.516 266.168 549.173C266.796 550.06 267.617 550.712 268.541 551.231C269.46 551.748 270.495 552.139 271.559 552.497C272.634 552.858 273.702 553.175 274.799 553.566C289.584 560.953 303.648 568.401 317.888 575.39C322.789 577.795 327.764 580.046 332.761 582.292C337.744 584.532 342.748 586.767 347.736 589.15C354.062 594.262 360.826 598.031 369.037 598.438L369.1 598.441L369.162 598.429C369.893 598.279 370.53 598.114 371.155 597.953C371.643 597.827 372.125 597.704 372.647 597.587C372.682 597.735 372.721 597.911 372.761 598.104C372.805 598.308 372.853 598.538 372.904 598.745C370.984 599.739 368.968 601.038 366.716 602.588L366.709 602.593L366.704 602.598C365.476 603.503 364.608 603.845 362.905 604.5C362.421 604.506 362.053 604.502 361.753 604.497C361.514 604.493 361.307 604.493 361.122 604.497L356.362 601.634L353.372 596.739L353.294 596.613L353.162 596.55L349.802 594.939C333.001 586.908 316.147 579.182 299.382 571.077C288.222 565.682 277.366 559.749 266.267 554.159C265.359 553.702 264.375 553.429 263.357 553.212C262.848 553.104 262.323 553.008 261.793 552.912C261.35 552.832 260.902 552.749 260.447 552.658C260.096 551.64 260.117 550.943 260.308 550.43C260.518 549.868 260.964 549.43 261.598 549.012C261.914 548.804 262.263 548.608 262.636 548.406C263.003 548.208 263.399 548.001 263.781 547.78C264.25 547.509 264.723 547.203 265.147 546.831Z" stroke="black"/>
<path d="M567.082 539.338C571.642 537.343 574.611 534.972 575.347 529.264C576.444 520.751 577.368 511.771 583.189 504.777C590.604 495.87 601.052 491.223 611.155 486.248C612.27 485.699 614.177 486.759 615.579 488.128C612.119 489.5 608.278 490.307 605.268 492.343C592.274 501.133 583.951 513.045 583.093 529.129C582.809 534.455 583.273 539.914 584.186 545.175C584.653 547.862 586.869 550.245 588.019 552.955C582.672 550.745 577.426 548.645 572.607 545.816C570.362 544.498 568.945 541.769 567.082 539.338Z" fill="#222B3A"/>
<path d="M284.06 599.457C283.992 596.949 283.247 593.21 283.5 590C286.249 590.944 299.834 597.448 301.94 598.456C315.516 604.959 323.283 609.314 337 615.5C342.361 617.918 340.255 618.955 338.897 625.222C320.691 616.991 302.5 608.339 284.06 599.457Z" fill="#3A4C4F"/>
<path d="M679.359 415.222C680.496 404.124 681.947 393.135 683.439 382.151C684.195 376.59 685.025 371.038 685.998 365.091C687.493 365.403 688.783 366.165 690.134 366.8C693.938 368.586 695.095 370.947 694.288 375.531C692.185 387.476 690.866 399.567 689.474 411.628C688.673 418.58 688.115 419.048 681.494 416.187C680.885 415.923 680.292 415.619 679.359 415.222Z" fill="#556780"/>
<path d="M553 290C553 290 576.534 286.618 587.356 285.124C591.304 284.579 595.291 284.315 600.119 283.844C609.941 282.176 618.547 282.802 625.964 287.907C614.597 289.818 603.693 291.621 592.819 293.587C587.851 294.486 582.941 295.707 577.676 296.666C575.561 296.03 573.774 295.511 571.987 294.992C571.987 294.992 572 295 571.875 294.661C569.784 293.536 567.876 292.524 565.842 292.015C562.241 291.114 553 290 553 290Z" fill="#97D282"/>
<path d="M463.144 576.868C461.483 576.898 460.037 576.814 458.318 576.714C458.143 570.185 454.93 565.861 449.998 562.157C447.428 560.227 445.363 559.966 442.861 561.187C436.048 564.509 429.254 567.875 422.542 571.395C420.242 572.601 419.828 577.318 415.299 575.014C417.729 572.284 420.113 568.896 423.371 567.039C432.7 561.721 442.431 557.114 451.875 551.991C453.325 551.204 454.096 549.167 455.295 547.33C456.02 547.698 457.292 548.667 457.129 549.15C456.346 551.467 455.174 553.652 453.939 556.317C461.771 560.268 464.81 566.739 464.009 575.591C463.864 576.341 463.646 576.579 463.144 576.868Z" fill="#2A3344"/>
<path d="M626.439 287.866C618.547 282.802 609.941 282.176 600.577 283.812C607.367 276.615 615.695 277.627 624.908 280.856C626.684 281.458 627.836 281.746 628.989 282.034C628.989 282.034 629.003 282.001 629.135 282.321C639.417 287.869 647.436 295.608 654.789 304.528C655.234 305.553 657.116 308.882 657.086 309.609C655.222 309.961 653.745 310.317 652 310.5C650.499 308.984 647.807 304.974 646.497 303.712C640.331 297.775 634.967 290.813 626.439 287.866Z" fill="#3E4C61"/>
<path d="M269.771 442.591C270.264 442.427 270.753 442.514 271.249 442.789C271.753 443.068 272.235 443.529 272.662 444.045C273.084 444.558 273.432 445.102 273.675 445.52C273.796 445.728 273.891 445.904 273.955 446.027C273.958 446.033 273.96 446.039 273.963 446.045L272.396 451.259L272.388 451.287L272.383 451.314C270.6 461.109 268.688 470.881 266.692 481.042C266.534 480.841 266.372 480.638 266.212 480.435C265.809 479.923 265.407 479.402 265.046 478.87C264.318 477.795 263.795 476.732 263.74 475.687C263.279 466.977 263.352 458.222 263.627 449.486C263.652 448.707 263.68 448.043 263.899 447.324C264.116 446.612 264.533 445.816 265.38 444.825C266.244 443.814 266.67 443.516 267.154 443.333C267.42 443.233 267.713 443.164 268.145 443.057C268.569 442.952 269.092 442.818 269.771 442.591Z" stroke="black"/>
<path d="M471.971 563.977C471.771 571.706 471.57 579.436 471.206 587.544C470.001 586.377 468.494 584.958 468.032 583.256C467.412 580.968 467.598 578.461 467.138 575.708C467.049 571.867 467.26 568.367 468.017 564.458C469.699 564.024 470.835 564.001 471.971 563.977Z" fill="#6CB069"/>
<path d="M681.001 337.176C681.01 332.744 681.018 328.313 681.026 323.411C685.171 325.162 689.316 327.382 693.523 330.074C689.39 332.756 685.196 334.966 681.001 337.176Z" fill="#4E8350"/>
<path d="M519.353 563.952C518.985 556.148 518.96 548.489 519.144 540.114C520.198 539.219 521.044 539.039 521.901 539.337C521.913 547.951 521.915 556.087 521.917 564.224C521.177 564.181 520.437 564.138 519.353 563.952Z" fill="#4E8350"/>
<path d="M476.432 325.803C485.053 327.09 493.4 328.407 501.726 329.845C502.785 330.027 503.735 330.838 504.88 331.688C498.304 330.657 491.63 328.636 484.846 328.15C479.574 327.772 474.164 329.309 468.405 330.009C469.699 328.983 471.403 327.944 473.691 326.861C474.629 326.769 474.893 326.587 475.066 326.273C475.427 326.139 475.789 326.004 476.432 325.803Z" fill="#5B9E5B"/>
<path d="M522.135 564.423C521.915 556.087 521.913 547.95 522.248 539.319C523.048 538.818 523.51 538.813 523.972 538.808C524.331 546.896 524.69 554.984 525.055 563.495C524.158 564.152 523.256 564.387 522.135 564.423Z" fill="#3A4C4F"/>
<path d="M554.505 289.799C558.563 290.519 562.241 291.114 565.842 292.015C567.876 292.524 574.904 295.371 577 296.5C568.681 295.733 555.111 292.788 546.362 291.399C548.74 290.681 551.416 290.242 554.505 289.799Z" fill="#65A363"/>
<path d="M680.862 337.448C685.196 334.966 689.39 332.756 693.793 330.278C694.378 330.439 694.754 330.868 695.095 331.609C689.63 335.126 684.199 338.331 678.769 341.535C678.57 341.313 678.371 341.091 678.173 340.869C679.023 339.819 679.873 338.769 680.862 337.448Z" fill="#97D282"/>
<path d="M628.956 281.742C627.836 281.746 626.684 281.458 625.321 280.958C627.849 279.572 630.588 278.399 633.711 277.302C632.372 278.736 630.648 280.094 628.956 281.742Z" fill="#81C176"/>
<path d="M259.255 557.507C259.619 557.609 259.86 558.139 260.161 559.361C260.262 561.698 260.303 563.343 260.344 564.988C260.344 564.988 259.954 565.031 259.76 565.058C259.422 562.702 259.278 560.318 259.255 557.507Z" fill="#97D282"/>
<path d="M687 294C687.825 293.066 689.441 291.45 691 290.5C691.116 291.284 690.862 292.801 690.387 293.823C689.343 294.018 688.186 294.027 687 294Z" fill="#79B471"/>
<path d="M636.784 276.249C636.591 276.59 636.113 276.863 635.348 277.102C635.54 276.772 636.019 276.477 636.784 276.249Z" fill="#81C176"/>
<path d="M474.819 326.233C474.893 326.587 474.629 326.768 474.028 326.787C473.956 326.443 474.22 326.256 474.819 326.233Z" fill="#97D282"/>
<path d="M638.856 275.568C638.901 275.899 638.678 276.035 638.191 276.033C638.102 275.686 638.322 275.512 638.856 275.568Z" fill="#81C176"/>
<path d="M677.824 507.825C673.007 512.247 668.161 516.033 661.58 512.955C656.801 510.719 654.743 502.833 656.672 495.449C658.609 488.035 662.054 481.466 668.387 476.822C671.91 474.239 675.852 472.881 680.066 475.028C684.329 477.2 686.084 481.023 686.234 485.688C686.504 494.099 683.542 501.299 677.824 507.825ZM675.959 492.504C675.201 491.056 674.76 488.929 673.582 488.377C672.666 487.949 670.566 489.203 669.481 490.227C668.486 491.165 667.646 492.797 667.646 494.123C667.645 495.686 668.541 498.528 669.19 498.569C671.047 498.687 673.169 497.978 674.795 496.964C675.615 496.453 675.587 494.58 675.959 492.504Z" fill="#95A0B8"/>
<path d="M605.469 542.598C598.434 542.525 594.913 539.508 593.914 533.121C592.244 522.446 598.679 508.912 607.67 504.188C614.295 500.707 620.982 503.648 622.896 510.884C625.966 522.492 617.354 538.455 605.469 542.598ZM605.364 526.628C606.8 529.005 609.219 529.47 610.551 527.418C611.992 525.198 612.358 522.181 612.743 519.449C612.831 518.819 610.486 517.134 610.283 517.287C608.446 518.677 606.599 520.195 605.264 522.043C604.636 522.912 605.122 524.585 605.364 526.628Z" fill="#95A0B8"/>
<path d="M490.509 414.859C499.691 428.398 504.486 443.164 507.055 458.701L507.153 459.295L507.719 459.09C528.62 451.493 549.04 444.071 569.476 437.11C569.549 440.26 569.761 443.04 569.982 445.608C570.22 448.367 570.463 450.868 570.557 453.34C570.742 458.261 570.327 463.049 568.03 469.328L568.023 469.348L568.018 469.367V469.368C568.017 469.369 568.017 469.37 568.017 469.371C568.016 469.374 568.014 469.379 568.013 469.385C568.009 469.397 568.004 469.414 567.998 469.438C567.985 469.484 567.967 469.552 567.942 469.639C567.894 469.812 567.825 470.06 567.741 470.357C567.573 470.953 567.347 471.749 567.113 472.549C566.879 473.35 566.638 474.153 566.441 474.763C566.343 475.069 566.258 475.32 566.19 475.497C566.166 475.56 566.144 475.608 566.128 475.645L566.127 475.646L566.067 475.75C565.618 476.528 565.644 476.948 565.521 477.356L565.525 477.357C565.514 477.388 565.508 477.412 565.507 477.42C565.506 477.427 565.503 477.439 565.503 477.443C565.502 477.45 565.502 477.456 565.502 477.457C565.502 477.461 565.501 477.464 565.501 477.466C565.501 477.469 565.5 477.473 565.5 477.477C565.5 477.484 565.499 477.494 565.498 477.506C565.496 477.531 565.494 477.567 565.491 477.612C565.485 477.704 565.476 477.834 565.465 477.991C565.442 478.306 565.408 478.725 565.365 479.146C565.322 479.571 565.27 479.989 565.213 480.304C565.184 480.463 565.157 480.581 565.133 480.654L565.096 480.706C564.719 481.224 564.496 481.552 564.292 481.812C564.101 482.055 563.955 482.198 563.764 482.325C563.561 482.46 563.288 482.59 562.817 482.776C562.351 482.961 561.737 483.185 560.853 483.521C549.701 486.23 538.43 488.748 527.283 491.537C522.15 492.822 517.054 494.502 511.938 496.14C506.982 497.726 502.002 499.271 496.912 500.396C496.415 497.195 496.063 493.749 495.697 490.335C495.312 486.742 494.91 483.184 494.301 480.025C493.322 474.951 492.158 469.916 490.979 464.892C489.801 459.865 488.609 454.851 487.571 449.807C487.424 449.091 487.244 448.479 487.007 447.987C486.77 447.494 486.461 447.091 486.044 446.835C485.186 446.309 484.121 446.543 482.923 447.143C480.173 448.518 477.502 450.081 474.832 451.549C471.863 451.444 469.477 450.557 467.881 449.03C466.27 447.49 465.404 445.245 465.601 442.329C465.967 436.889 467.468 431.577 468.541 425.713C471.336 422.894 473.789 420.166 476.781 418.291C477.966 417.548 479.328 417.055 480.824 416.625C481.572 416.41 482.344 416.213 483.143 416.008C483.925 415.806 484.731 415.596 485.544 415.356C487.328 415.101 488.704 414.869 490.509 414.859Z" fill="#589A5A" stroke="#589A5A"/>
<path d="M644.797 443.198C641.147 441.64 637.435 440.21 633.864 438.486C630.532 436.878 627.996 437.24 624.832 439.534C606.018 453.173 586.987 466.514 568.014 479.934C567.348 480.405 566.38 481.335 565.253 481.34C564.87 480.226 565.004 478.773 564.996 478.005C564.996 478.005 565 478 565.253 477.838C565.67 477.118 565.834 476.56 565.998 476.002C565.998 476.002 566 476 566.321 475.836C573.156 462.303 570.525 452.732 569 438.486C570.281 438.161 572 435.5 574.492 432.97C593.538 421.534 612.606 410.134 631.527 398.495C633.312 397.397 635.426 394.59 635.199 392.863C634.321 386.175 632.615 379.59 631.101 372.993C630.179 368.974 629.045 365.004 628.294 361.219C631.805 371.549 635.028 381.673 638.139 391.441C646.027 382.557 654.364 373.117 662.769 363.738C664.603 361.692 666.678 359.864 668.728 358.361C668.342 367.75 667.609 376.675 662.71 384.559C658.515 391.31 654.146 397.954 649.86 404.648C647.85 407.787 645.853 410.933 643.81 414.138C651.258 417.633 652.292 411.451 655.144 408.315C655.206 410.209 655.45 411.881 654.975 413.315C651.665 423.303 648.207 433.243 644.797 443.198Z" fill="#589A5A"/>
<path d="M377 488C377.711 484.634 379.303 480.175 380.006 476.404C386.817 471.943 393.509 467.653 400.48 463.879C415.105 455.96 429.878 448.312 444.802 440.288C447.142 441.246 449.27 442.471 451.701 444.249C452.671 447.127 453.855 449.436 453.921 451.777C454.415 469.435 454.689 487.1 454.756 505.071C454.32 507.59 454.159 509.801 453.964 512.376C453.967 515.209 454.004 517.678 454.042 520.146C454.038 527.107 454.034 534.068 453.666 541.504C451.792 542.581 450.265 543.138 448.78 543.792C443.236 546.234 437.706 548.708 432.115 550.686C432.041 539.159 432.068 528.115 431.958 517.072C431.941 515.37 431.297 513.674 430.943 511.508C430.944 497.149 430.944 483.257 430.944 468.894C429.023 469.226 427.988 469.182 427.168 469.581C417.153 474.457 407.239 479.547 397.147 484.257C392.254 486.541 385.019 489.441 380.006 491C381.51 489.621 384.877 487.091 386.445 486.3C401.27 478.828 416.132 471.431 430.984 464.012C437.069 460.973 443.17 457.965 449.227 454.871C450.562 454.189 451.74 453.201 452.991 452.354C452.762 451.897 452.534 451.441 452.305 450.985C450.89 451.479 449.394 451.815 448.074 452.495C443.941 454.627 439.923 456.985 435.772 459.081C422.546 465.757 409.326 472.446 396.011 478.939C390.082 481.83 383.05 485.358 377 488Z" fill="#5B9E5B"/>
<path d="M474.706 452.324C477.679 450.559 480.366 448.981 483.147 447.59C485.502 446.411 486.508 447.12 487.082 449.908C489.16 460.013 491.857 469.994 493.81 480.12C495.019 486.389 495.306 492.837 496.02 499.641C496.323 506.207 496.472 512.348 496.956 518.463C497.253 522.211 496.426 524.78 492.565 526.262C488.854 527.687 485.469 529.954 481.774 531.434C480.232 532.051 478.258 531.589 476.51 531.052C476.539 516.459 476.539 502.432 476.539 488.468C472.048 491.159 468.057 493.549 464.11 495.53C464.435 493.003 464.941 490.886 464.962 488.765C465.053 479.128 464.954 469.489 465.055 459.853C465.076 457.917 465.671 455.988 466.001 454.057C468.82 453.569 471.64 453.081 474.706 452.324Z" fill="#5B9E5B"/>
<path d="M464.067 495.94C468.057 493.549 472.048 491.159 476.539 488.469C476.539 502.433 476.539 516.46 476.23 530.785C468.842 527.513 461.762 523.942 454.362 520.259C454.005 517.678 453.967 515.209 454.283 512.243C457.067 509.435 459.308 507.266 463.36 508.646C464.384 508.994 467.301 506.591 467.869 504.942C469.583 499.965 465.381 499.173 462.303 497.863C463.069 497.138 463.568 496.539 464.067 495.94Z" fill="#69AC67"/>
<path d="M432.17 551.169C437.706 548.708 443.236 546.234 448.78 543.792C450.265 543.138 451.793 542.581 453.684 541.97C454.327 542.183 454.587 542.406 455.009 542.83C455.118 543.758 455.063 544.483 454.931 545.563C450.665 547.397 446.36 548.614 442.316 550.417C436.548 552.987 431.086 556.251 425.286 558.736C418.335 561.714 413.006 565.924 409.324 572.836C403.903 583.013 395.951 591.86 392.977 603.766C392.492 603.972 392.101 603.825 392.101 603.825C391.341 597.187 394.012 591.64 397.43 586.221C401.479 579.799 405.347 573.259 409.142 566.681C411.561 562.488 414.805 559.594 419.444 557.926C423.312 556.535 426.924 554.429 431.097 552.268C431.815 551.707 432.024 551.465 432.17 551.169Z" fill="#81C176"/>
<path d="M644.973 443.434C648.207 433.243 651.665 423.303 654.975 413.315C655.45 411.881 655.206 410.208 655.209 407.967C658.476 401.538 661.83 395.788 665.184 390.039C665.113 391.872 665.478 393.857 664.903 395.515C659.369 411.464 653.677 427.357 648.029 443.666C647.068 443.934 646.108 443.802 644.973 443.434Z" fill="#79B471"/>
<path d="M541.648 512.039C542.017 513.472 542.572 515.264 541.931 516.348C539.971 519.66 534.132 520.682 530.082 518.401C533.763 516.044 537.525 514.059 541.648 512.039Z" fill="#2A3344"/>
<path d="M325.873 422.679C327.148 421.48 328.262 420.011 329.73 419.136C333.284 417.017 337.283 415.561 340.596 413.143C347.582 408.044 354.128 408.384 361.675 412.313C374.302 418.888 387.379 424.598 400.243 430.723C401.556 431.348 402.705 432.316 403.867 433.778C397.769 437.857 391.577 441.037 385.749 444.783C380.52 448.143 375.93 447.763 370.538 444.945C361.145 440.038 351.329 435.95 341.798 431.297C336.379 428.652 331.174 425.566 325.873 422.679Z" fill="#556780"/>
<path d="M325 422.5C330.549 425.102 337.581 427.854 343 430.5C352.531 435.153 360.608 438.093 370 443C375.392 445.818 380.521 448.143 385.749 444.783C391.578 441.037 398.806 437.254 405 433.5C407.06 435.988 404.743 438.415 402.196 439.769C395.745 443.197 389.439 446.98 382.732 449.806C380.027 450.946 375.973 450.971 373.308 449.775C358.168 442.98 343.271 435.643 328.268 428.54C325.931 427.434 323.553 425.734 325 422.5Z" fill="#3A4C4F"/>
<path d="M181.015 457.902C175.639 457.933 170.263 457.964 164.436 457.525C167.024 452.023 170.063 446.991 173.668 441.022C168.013 441.022 163.601 441.022 159.189 441.022C159.122 435.583 159.038 430.145 158.992 424.706C158.959 420.832 160.898 418.979 164.789 419.003C171.883 419.046 178.977 419.009 186.547 419.42C183.068 426.624 179.114 433.413 174.664 441.053C180.879 441.053 185.961 441.053 191.035 441.417C190.461 442.922 189.994 444.129 189.311 445.196C186.582 449.454 183.786 453.67 181.015 457.902Z" fill="#3A4C4F"/>
<path d="M191.043 441.053C185.961 441.053 180.878 441.053 174.664 441.053C179.114 433.413 183.068 426.624 187.013 419.47C199.084 418.371 199.906 419.172 199.043 431.816C196.045 435.223 193.544 438.138 191.043 441.053Z" fill="#556780"/>
<path d="M191.034 441.417C193.543 438.138 196.044 435.223 198.856 432.155C199.283 438.316 199.499 444.629 199.489 450.941C199.48 456.538 197.899 458.037 192.404 458.091C188.913 458.126 185.422 458.091 181.473 457.994C183.786 453.67 186.582 449.455 189.31 445.196C189.994 444.129 190.46 442.923 191.034 441.417Z" fill="#2A3344"/>
<path d="M159.114 441.481C163.601 441.022 168.013 441.022 173.668 441.022C170.063 446.991 167.024 452.023 163.979 457.408C160.44 458.348 159.191 456.301 159.086 453.282C158.956 449.505 159.045 445.721 159.114 441.481Z" fill="#2A3344"/>
<path d="M166.672 482.26C174.597 482.165 182.089 482.066 189.576 482.204C190.729 482.226 191.861 483.339 193.003 483.948C191.966 484.644 190.965 485.878 189.887 485.948C182.601 486.424 175.298 486.876 168.002 486.848C165.23 486.838 163.754 485.048 166.672 482.26Z" fill="#556780"/>
<path d="M185.875 472.983C179.925 473.003 174.456 473.135 168.996 472.96C167.666 472.917 166.367 471.868 165.054 471.281C166.308 470.597 167.547 469.356 168.818 469.323C175.604 469.144 182.4 469.164 189.185 469.38C190.445 469.42 191.668 470.669 192.908 471.36C191.719 471.897 190.571 472.584 189.328 472.923C188.402 473.176 187.353 472.979 185.875 472.983Z" fill="#556780"/>
<path d="M189.724 479.22C182.304 479.226 175.355 479.313 168.411 479.154C167.308 479.129 166.231 477.996 165.142 477.375C166.202 476.876 167.256 475.966 168.326 475.946C175.602 475.808 182.882 475.809 190.159 475.91C191.06 475.922 191.948 476.79 192.842 477.261C191.96 477.914 191.078 478.567 189.724 479.22Z" fill="#3E4C61"/>
<path d="M389.336 498.5C390.399 499.519 391.003 499.636 392.235 499.92C396.09 500.81 397.153 503.036 397.014 506.744C396.786 512.862 396.963 518.996 396.843 525.876C396.894 527.466 396.667 527.162 396.843 528C396.458 529.075 396.128 531.301 396.151 532.367C396.246 536.77 393.918 538.298 389.336 537.875C387.85 537.771 386.928 537.885 385.688 537.841C383.903 535.714 381.351 533.844 381.16 531.758C380.378 523.211 380.043 516.853 380 508C380.503 503.744 380.439 497.913 385.688 498.5C386.335 498.572 388.611 499.121 389.336 498.5Z" fill="#222B3A"/>
<path d="M386.006 537.999C386.928 537.885 387.85 537.771 388.933 537.917C389.063 538.676 389.011 539.174 389.002 539.673C388.861 547.85 388.862 547.849 380.743 546.28C380.258 546.186 379.761 546.056 379.276 546.078C372.243 546.411 372.243 546.416 371.807 538.922C372.034 536.449 372.237 534.808 372.456 533.17C374.339 519.098 376.224 505.026 378.341 490.7C379.706 490.315 380.84 490.184 381.973 490.053C387.041 488.143 392.254 486.541 397.148 484.258C407.239 479.548 417.153 474.457 427.169 469.581C427.988 469.182 429.023 469.226 430.944 468.894C430.944 483.257 431.152 495.535 430.944 510C430.473 510.759 430.834 513.193 430.736 513.5C427.65 514.854 423.812 515.636 420.352 517.005C420.056 516.873 420.099 516.645 420.219 516.592C428.237 513.031 428.523 506.225 428.082 498.797C427.698 492.327 428.058 485.816 427.959 479.325C427.93 477.414 427.459 475.509 427.026 472.43C421.802 474.881 417.363 476.9 412.98 479.034C406.567 482.158 398.15 487.583 391.5 490.053C387.217 491.644 390.98 495.211 391.5 499.5C390.772 500.549 387.505 498.818 386.858 498.746C381.609 498.159 381.526 501.482 380.743 506C379.831 508.124 378.655 509.716 378.395 511.328C376.908 520.562 375.435 529.798 374.011 539.041C373.549 542.039 374.905 543.242 377.953 543.015C380.675 542.811 383.425 542.972 386.453 542.972C386.347 541.796 386.177 539.897 386.006 537.999Z" fill="#2A3344"/>
<path d="M370 598.5C361.946 598.562 353.96 594.763 348 589.5C349.355 587.844 351.444 585.884 351.761 584.537C353.678 576.403 354.801 567.186 356.5 559C358.421 560.14 361.014 562.049 362.674 563.49C364.465 565.044 366.096 567.116 368 569C368.659 574.916 368.741 580.769 368.96 586.642C369.089 590.093 369.965 594.583 370 598.5Z" fill="#79B471"/>
<path d="M378.5 490.5C376.615 504.572 374.338 519.098 372.456 533.17C372.237 534.808 372.034 536.449 371.722 538.507C370.503 539.176 367.31 542.445 366 543C365.985 537.971 367.878 529.576 368.495 524.293C369.758 513.478 371.452 502.712 372.957 491.472C372.5 491.472 372.507 489.279 372.5 488.501C372.455 488.167 373.433 488.966 373.83 489.284C375.521 490.053 377.206 490.049 378.5 490.5Z" fill="#69AC67"/>
<path d="M428.745 546.757C425.237 548.315 421.729 549.873 418.09 551.49C415.93 542.713 419.749 538.368 428.844 539.055C428.94 542.109 428.843 544.433 428.745 546.757Z" fill="#2A3344"/>
<path d="M429.05 547.006C428.842 544.433 428.939 542.109 429.085 539.336C429.422 533.029 429.747 527.17 429.983 521.308C430.082 518.836 429.995 516.356 429.989 513.403C430.084 512.62 430.265 512.373 430.736 512.081C431.297 513.674 431.941 515.37 431.958 517.072C432.068 528.115 432.042 539.159 432.115 550.686C432.024 551.465 431.815 551.708 431.338 552.022C430.539 550.516 429.947 548.886 429.05 547.006Z" fill="#4E8350"/>
<path d="M396.5 531.5C395.975 530.705 396.559 526.618 396.5 525.5C402.099 522.966 407.92 521.569 413.395 519.299C415.081 518.6 418.451 516.762 420.5 516C418.931 517.367 415.387 520.049 413.299 521.182C408.245 523.925 401.975 528.847 396.5 531.5Z" fill="#2A3344"/>
<path d="M391.741 603.922C392.101 603.825 392.492 603.972 392.696 604.015C392.597 605.098 392.605 606.728 391.939 607.08C387.963 609.18 383.832 610.985 379.339 612.154C382.204 607.684 387.056 606.235 391.741 603.922Z" fill="#2A3344"/>
<path d="M380.62 629.595C384.186 626.732 388.017 624.105 391.848 621.479C392.28 622.178 392.713 622.877 393.145 623.576C389.725 626.709 385.535 628.631 380.62 629.595Z" fill="#3A4C4F"/>
<path d="M319.118 593.872C308.568 588.823 298.458 583.712 288.124 579.103C282.834 576.744 281.46 572.782 281.256 566.874C289.269 570.645 296.736 574.143 304.189 577.67C315.925 583.224 327.642 588.82 339.391 594.345C342.02 595.581 344.269 596.92 342.66 600.33C341.017 603.811 338.576 603.388 335.637 601.867C330.317 599.114 324.863 596.619 319.118 593.872Z" fill="#2A3344"/>
<path d="M260.528 565.227C260.303 563.342 260.262 561.697 260.242 559.648C261.278 558.739 262.601 557.546 263.257 557.841C266.923 559.488 270.427 561.494 273.966 563.725C273.945 564.071 273.931 564.087 273.57 564.061C271.646 563.446 270.084 562.856 268.424 562.229C267.44 567.016 267.716 570.695 272.307 572.605C272.299 572.617 272.286 572.625 272.286 572.625C269.655 571.596 267.025 570.567 264.231 569.231C264.068 568.925 264.087 568.905 264.484 568.895C265.547 567.047 266.655 565.222 266.713 563.364C266.75 562.196 265.211 560.978 264.379 559.782C263.936 560.003 263.493 560.224 263.05 560.445C263.163 562.865 263.275 565.285 263.247 567.819C263.106 567.932 262.83 568.165 262.83 568.165C262.124 567.266 261.418 566.367 260.528 565.227Z" fill="#3A4C4F"/>
<path d="M358.485 613.971C358.485 613.971 358.495 614.013 358.435 613.559C358.235 611.344 357.683 609.477 358.098 607.857C358.385 606.735 360.004 605.953 361.028 605.02C361.028 605.02 361.001 605.001 361.003 605.306C361.644 606.416 362.282 607.221 362.92 608.026C362.914 608.97 362.909 609.913 362.7 611.538C361.16 612.803 359.823 613.387 358.485 613.971Z" fill="#97D282"/>
<path d="M360.934 604.699C360.004 605.953 358.385 606.734 358.098 607.856C357.683 609.476 358.235 611.343 358.455 613.551C357.438 613.541 356.341 613.084 355.146 612.278C355.049 611.93 355.061 611.915 355.437 611.831C358.497 605.034 357.74 603.609 350.218 601.226C350.21 601.218 350.211 601.213 350.211 601.213C351.856 601.156 353.502 601.099 355.505 601.131C357.522 602.273 359.181 603.326 360.934 604.699Z" fill="#3E4C61"/>
<path d="M273.937 564.078C279.367 565.715 275.765 570.058 276.623 573.063C275.203 573.153 273.784 573.244 272.326 572.979C272.286 572.625 272.299 572.617 272.677 572.675C276.748 571.329 277.007 568.774 273.932 564.086C273.932 564.086 273.945 564.071 273.937 564.078Z" fill="#3A4C4F"/>
<path d="M351.04 609.953C346.056 607.831 347.803 604.469 349.813 601.173C350.211 601.214 350.21 601.218 350.182 601.635C350.498 604.629 350.842 607.206 351.15 609.825C351.113 609.868 351.04 609.953 351.04 609.953Z" fill="#3E4C61"/>
<path d="M358.755 614.249C359.822 613.387 361.16 612.803 362.74 611.89C362.909 614.211 363.558 617.828 358.755 614.249Z" fill="#3E4C61"/>
<path d="M362.935 607.655C362.281 607.221 361.643 606.415 360.99 605.296C361.397 604.968 361.819 604.956 362.557 605.007C362.899 605.809 362.925 606.547 362.935 607.655Z" fill="#3E4C61"/>
<path d="M353.089 610.887C352.463 610.789 351.837 610.691 351.125 610.273C351.04 609.953 351.113 609.868 351.434 609.874C352.2 610.216 352.646 610.551 353.087 610.892C353.081 610.9 353.089 610.887 353.089 610.887Z" fill="#3E4C61"/>
<path d="M355.056 611.924C354.443 611.789 353.823 611.661 353.146 611.21C353.089 610.887 353.081 610.9 353.38 610.916C354.139 611.26 354.6 611.588 355.061 611.916C355.061 611.916 355.048 611.93 355.056 611.924Z" fill="#3E4C61"/>
<path d="M264.06 568.934C263.739 568.826 263.426 568.709 262.971 568.379C262.83 568.165 263.106 567.932 263.438 567.971C264.037 568.252 264.143 568.55 264.087 568.905C264.087 568.905 264.069 568.925 264.06 568.934Z" fill="#3A4C4F"/>
<path d="M665.286 389.721C661.83 395.788 658.476 401.538 655.058 407.635C652.292 411.451 651.258 417.633 643.811 414.138C645.853 410.933 647.85 407.787 649.86 404.648C654.146 397.954 658.515 391.31 662.71 384.559C667.609 376.675 668.342 367.75 668.798 357.961C667.51 343.596 663.894 330.774 657.006 318.589C654.835 314.869 652.789 311.472 650.742 308.075C652.219 307.718 653.696 307.362 655.832 307.208C659.335 311.919 662.178 316.428 665.021 320.936C667.765 329.435 670.956 337.82 673.155 346.457C677.066 361.824 675.159 376.388 665.286 389.721Z" fill="#3A4C4F"/>
<path d="M667 326.5C664.027 322.289 662.353 316.707 659.237 312C658.608 311.071 654.626 305.743 654.5 304.5C656.03 303.364 657.937 301.623 659.237 301C662.883 306.27 669.455 301.42 673.5 301C671.917 302.829 665.751 305.454 665.472 307.52C665.164 309.809 667.66 312.441 668.817 314.977C669.275 315.981 669.419 317.129 669.562 317.667C667.911 318.698 668.445 325.381 667 326.5Z" fill="#79B471"/>
<path d="M675.366 299.989C678.724 297.99 682.484 296.004 686.604 293.989C684.981 299.212 680.036 298.979 675.366 299.989Z" fill="#79B471"/>
<path d="M671.268 301.967C671.438 301.654 671.915 301.329 672.693 300.98C672.522 301.289 672.048 301.622 671.268 301.967Z" fill="#79B471"/>
<path d="M464.11 495.531C463.568 496.539 463.069 497.138 461.929 497.881C460.525 499.315 459.95 500.783 458.948 501.847C457.848 503.013 456.354 503.807 455.031 504.763C454.689 487.1 454.415 469.435 453.921 451.777C453.855 449.436 452.671 447.127 451.999 444.406C456.564 447.15 461.136 450.292 465.854 453.746C465.671 455.989 465.076 457.918 465.055 459.853C464.954 469.49 465.053 479.129 464.962 488.766C464.941 490.887 464.435 493.003 464.11 495.531Z" fill="#6CB069"/>
<path d="M356.5 559C354.962 567.484 353.678 576.403 351.761 584.537C351.444 585.885 349.463 588.171 348.036 589.5C337.744 585.199 327.894 579.734 318.109 574.932C303.853 567.936 288.865 560.382 274.42 553C272.242 542.779 271.244 532.822 269.508 522.712C268.916 519.264 271.565 517.784 275.522 519.484C281.159 521.904 286.695 524.569 292.23 527.223C311.68 536.548 331.126 545.882 350.528 555.306C352.715 556.369 354.307 557.32 356.5 559ZM298.676 537.817C316.178 546.153 333.679 554.49 351.181 562.826C351.498 562.156 351.816 561.485 352.133 560.814C326.979 547.713 300.97 536.367 275.49 523.936C275.133 524.63 274.777 525.324 274.42 526.019C282.286 529.834 290.152 533.65 298.676 537.817ZM323.303 561.166C308.197 554.024 293.091 546.882 277.984 539.74C277.639 540.479 277.294 541.219 276.949 541.958C300.645 553.369 324.341 564.781 348.036 576.193C348.352 575.589 348.668 574.985 348.984 574.382C341.496 568.582 332.122 566.135 323.303 561.166ZM295.699 540.814C289.032 537.674 282.364 534.533 275.317 531.213C277.245 535.276 345.166 568.689 350.32 566.968C332.345 558.346 314.37 549.724 295.699 540.814ZM282.479 549.163C281.456 548.865 280.433 548.568 278.979 548.146C281.616 552.448 342.666 581.767 347.725 580.844C345.744 579.637 344.483 578.72 343.101 578.053C335.605 574.436 328.077 570.882 320.563 567.304C308.091 561.364 295.62 555.421 282.479 549.163Z" fill="#3A4C4F"/>
<path d="M378.341 490.7C376.815 490.503 375.521 490.052 374.064 489.277C375.043 488.374 376.186 487.795 377.605 487.062C383.932 484.265 390.082 481.83 396.011 478.939C409.326 472.446 422.547 465.757 435.772 459.081C439.923 456.985 443.941 454.627 448.075 452.495C449.394 451.815 450.89 451.479 452.305 450.985C452.534 451.441 452.762 451.898 452.991 452.354C451.74 453.201 450.562 454.189 449.227 454.871C443.17 457.965 437.069 460.973 430.984 464.012C416.132 471.431 401.27 478.828 386.445 486.301C384.877 487.091 383.533 488.323 382.029 489.702C380.84 490.184 379.706 490.315 378.341 490.7Z" fill="#4E8350"/>
<path d="M650.474 307.901C652.789 311.472 654.835 314.869 656.767 318.872C652.278 321.392 647.834 323.164 643.544 325.253C634.971 329.43 626.482 333.781 617.716 337.883C616.856 337.251 616.238 336.796 614.699 335.662C615.443 337.542 615.73 338.267 615.8 339.261C596.594 349.989 577.59 360.422 558.631 370.935C555.311 372.775 552.18 374.955 548.651 377.127C534.885 385.39 521.451 393.537 507.965 401.599C502.035 405.144 496.001 408.515 490.014 411.965C481.121 398.095 470.05 386.481 455.203 378.304C469.377 365.115 483.732 352.17 498.151 339.296C500.458 337.236 503.05 335.494 505.998 333.322C506.666 333.021 506.846 333.003 507.025 332.985C507.025 332.985 506.999 333.003 507.158 333.241C507.869 333.664 508.422 333.849 509.137 334.331C510.517 335.104 511.734 335.581 513.053 336.28C513.365 336.768 513.634 336.944 514.106 337.317C515.155 338.083 516.061 338.563 517.134 339.288C517.85 339.705 518.4 339.879 518.984 340.387C520.003 341.493 520.988 342.264 522.042 343.188C522.221 343.384 522.331 343.428 522.44 343.472C522.308 343.303 522.175 343.133 522.009 342.628C520.992 341.516 520.009 340.739 518.861 339.719C518.148 339.299 517.6 339.123 516.992 338.608C515.967 337.832 515.002 337.394 513.941 336.731C513.641 336.234 513.376 336.052 512.883 335.66C511.492 334.893 510.266 334.425 509.045 333.674C509.034 333.202 509.018 333.013 509.001 332.824C509.922 331.769 510.637 330.319 511.793 329.717C531.172 319.616 550.603 309.616 570.033 299.615C571.498 298.861 573.044 298.265 575.055 297.421C576.373 297.092 577.189 296.937 578.004 296.782C582.941 295.707 587.851 294.486 592.819 293.587C603.693 291.62 614.597 289.818 625.964 287.907C634.967 290.813 640.331 297.775 646.496 303.712C647.807 304.974 648.973 306.385 650.474 307.901ZM525.894 345.658C525.786 345.615 525.678 345.572 525.57 345.53C525.696 345.7 525.823 345.871 526.142 346.496C526.342 346.776 526.607 346.961 527.02 347.734C529.001 349.505 530.981 351.276 533.159 353.494C533.353 353.778 533.617 353.96 533.975 354.64C534.304 355.109 534.632 355.579 535.182 356.477C535.381 356.746 535.639 356.932 536.046 357.68C536.719 358.384 537.393 359.087 538.066 359.79C538.365 359.39 538.663 358.99 538.962 358.589C537.989 358.042 537.017 357.494 535.848 356.499C535.659 356.214 535.398 356.029 535.042 355.346C534.705 354.884 534.369 354.422 533.819 353.525C533.622 353.251 533.362 353.065 532.944 352.289C530.977 350.508 529.01 348.728 526.825 346.509C526.627 346.232 526.363 346.048 525.894 345.658ZM597.198 313.453C597.395 313.729 597.655 313.917 598.18 314.469C598.377 314.752 598.642 314.94 599.182 315.472C599.379 315.747 599.638 315.933 600.17 316.478C600.37 316.758 600.636 316.94 601.163 317.483C601.356 317.774 601.622 317.962 602.163 318.497C602.355 318.789 602.622 318.972 603.158 319.499C603.352 319.791 603.623 319.966 603.985 320.627C604.316 321.094 604.647 321.56 605.179 322.47C605.37 322.75 605.627 322.94 606.142 323.496C606.331 323.785 606.593 323.974 607.133 324.514C607.333 324.8 607.604 324.977 607.967 325.646C608.298 326.113 608.63 326.579 609.141 327.505C609.329 327.8 609.594 327.983 610.065 328.392C610.184 328.44 610.303 328.488 610.421 328.535C610.298 328.337 610.174 328.139 609.859 327.485C609.668 327.19 609.398 327.013 609.022 326.358C608.692 325.892 608.362 325.426 607.829 324.513C607.642 324.225 607.384 324.032 606.849 323.486C606.657 323.192 606.39 323.012 605.841 322.497C605.646 322.208 605.377 322.033 605.017 321.371C604.685 320.905 604.353 320.44 603.821 319.528C603.631 319.244 603.37 319.057 602.843 318.515C602.65 318.228 602.386 318.042 601.852 317.497C601.578 317.32 601.302 317.143 600.842 316.504C600.655 316.203 600.387 316.019 599.848 315.498C599.651 315.212 599.382 315.035 598.856 314.496C598.578 314.322 598.299 314.148 597.833 313.513C597.634 313.223 597.36 313.048 596.838 312.519C596.563 312.342 596.289 312.165 595.84 311.519C595.642 311.227 595.369 311.048 594.849 310.512C594.652 310.22 594.38 310.04 593.853 309.509C593.652 309.227 593.383 309.044 592.862 308.501C592.664 308.218 592.397 308.033 591.932 307.617C591.813 307.573 591.694 307.529 591.575 307.485C591.701 307.675 591.828 307.864 592.167 308.496C592.366 308.778 592.633 308.959 593.18 309.481C593.383 309.756 593.649 309.938 594.188 310.471C594.387 310.75 594.653 310.933 595.196 311.461C595.397 311.738 595.661 311.921 596.199 312.456C596.397 312.735 596.662 312.92 597.198 313.453ZM613.922 333.586C613.803 333.544 613.684 333.501 613.565 333.459C613.676 333.668 613.788 333.877 614.062 334.42C614.19 334.462 614.318 334.504 614.446 334.545C614.327 334.328 614.209 334.111 613.922 333.586ZM582.916 300.6C582.797 300.562 582.678 300.525 582.56 300.488C582.675 300.685 582.79 300.882 583.252 301.55C583.789 301.75 584.326 301.949 584.982 302.7C585.326 302.983 585.67 303.267 586.014 303.551C586.191 303.335 586.368 303.12 586.544 302.904C586.057 302.567 585.57 302.23 584.719 301.438C584.175 301.257 583.632 301.075 582.916 300.6ZM539.924 361.635C539.819 361.588 539.714 361.541 539.609 361.494C539.723 361.676 539.837 361.858 540.037 362.593C540.351 362.899 540.665 363.205 540.979 363.51C541.156 363.304 541.333 363.097 541.51 362.89C541.024 362.572 540.539 362.254 539.924 361.635ZM611.714 331.586C612.004 331.374 612.294 331.162 612.584 330.95C612.396 330.75 612.207 330.55 612.019 330.35C611.798 330.635 611.577 330.921 611.714 331.586ZM580.301 298.416C580.008 298.626 579.715 298.836 579.422 299.046C579.609 299.238 579.796 299.429 579.983 299.621C580.209 299.341 580.435 299.062 580.301 298.416Z" fill="#81C176"/>
<path d="M506.897 332.698C506.846 333.003 506.666 333.021 506.218 333.075C505.695 332.89 505.439 332.669 505.08 332.216C505.573 332.126 506.17 332.269 506.897 332.698Z" fill="#5B9E5B"/>
<path d="M524.016 538.478C523.51 538.813 523.048 538.818 522.238 538.841C521.044 539.039 520.198 539.219 519.122 539.639C503.387 547.73 487.881 555.582 472.173 563.705C470.835 564 469.699 564.024 468.131 564.078C466.842 560.843 469.095 559.777 471.439 558.643C484.737 552.213 498.034 545.781 511.287 539.259C519.57 535.184 527.776 530.95 536.601 526.466C539.126 525.106 541.066 524.066 543.007 523.027C546.557 522.291 549.816 517.346 553.84 522.621C543.968 528.024 534.014 533.086 524.016 538.478Z" fill="#81C176"/>
<path d="M542.965 522.668C541.066 524.067 539.126 525.106 536.872 526.219C536.031 525.105 535.503 523.917 534.975 522.729C537.642 522.92 539.988 517.034 542.965 522.668Z" fill="#2A3344"/>
<path d="M659.127 301.599C657.937 302.55 656.618 304.158 655 305C647.416 296.593 639.417 287.869 629.12 282.33C631.602 282.808 634.456 283.18 636.819 284.459C645.055 288.917 653.417 293.3 659.127 301.599Z" fill="#81C176"/>
<path d="M561.009 400.284C560.999 400.162 560.996 400.092 560.997 400.053L561.946 399.669C561.94 399.654 561.93 399.632 561.917 399.604H561.919C561.573 398.829 561.233 398.066 560.84 396.972L560.819 396.914L560.791 396.857C557.293 389.982 553.838 383.425 549.785 376.808L549.278 375.98L548.435 376.463C534.378 384.529 520.931 392.683 507.453 400.741C501.559 404.264 495.477 407.663 489.581 411.386L488.835 411.857L489.209 412.656C489.579 413.444 489.847 413.965 490.255 414.771L490.28 414.82L490.31 414.866C499.174 428.434 503.986 443.211 506.561 458.783L506.758 459.971L507.89 459.56C529.011 451.884 549.645 444.383 570.28 436.883L571.078 436.593L570.921 435.759C569.61 428.743 568.3 421.732 566.988 414.313C566.988 414.173 566.991 414.135 566.99 414.143C566.989 414.148 566.987 414.178 566.979 414.218C566.978 414.223 566.976 414.228 566.974 414.235C566.973 414.231 566.973 414.227 566.972 414.223L565.988 414.397M561.009 400.284L561.139 400.564C561.206 400.701 561.274 400.827 561.339 400.947C561.381 400.932 561.423 400.915 561.464 400.893C561.717 400.761 561.837 400.562 561.881 400.48C561.932 400.385 561.956 400.303 561.966 400.262C561.972 400.24 561.972 400.217 561.976 400.198L561.009 400.284ZM561.009 400.284L561.921 399.875C562.236 400.573 562.519 400.993 562.83 401.444H562.829C562.914 401.569 562.95 401.679 562.961 401.715L561.99 402.186C561.989 402.223 561.987 402.269 561.988 402.323M561.988 402.323L562.116 402.73C562.144 402.817 562.173 402.901 562.202 402.984C562.374 402.948 562.522 402.871 562.631 402.783C562.789 402.655 562.866 402.512 562.895 402.454C562.924 402.395 562.941 402.344 562.952 402.31L561.988 402.323ZM561.988 402.323L562.944 402.031C563.27 403.102 563.59 403.846 563.923 404.614H563.921C563.943 404.663 563.957 404.704 563.965 404.731L562.996 405.081C562.996 405.123 562.996 405.188 563.002 405.287M563.002 405.287L563.133 405.566C563.2 405.703 563.266 405.829 563.331 405.948C563.388 405.928 563.445 405.905 563.5 405.874C563.729 405.742 563.839 405.558 563.879 405.483C563.927 405.394 563.951 405.318 563.961 405.279C563.967 405.257 563.968 405.237 563.972 405.218L563.002 405.287ZM563.002 405.287L563.916 404.878C564.222 405.564 564.504 405.977 564.813 406.419C564.916 406.561 564.954 406.69 564.96 406.71L563.988 407.189C563.986 407.237 563.981 407.297 563.981 407.372M563.981 407.372L564.946 407.109C564.955 407.144 564.965 407.18 564.975 407.215C564.98 407.191 564.984 407.174 564.985 407.168C564.987 407.151 564.985 407.164 564.983 407.245C565.638 409.638 566.296 411.666 566.958 413.705L566.954 413.706C566.961 413.728 566.97 413.746 566.974 413.763L565.994 414.047C565.989 414.094 565.987 414.193 565.988 414.397M563.981 407.372L564.927 407.377C564.925 407.383 564.925 407.389 564.922 407.395C564.903 407.441 564.853 407.553 564.75 407.669C564.659 407.772 564.46 407.948 564.154 407.994C564.097 407.789 564.038 407.582 563.981 407.372ZM565.988 414.397L566.095 415C566.122 414.998 566.15 414.999 566.178 414.994C566.587 414.921 566.787 414.636 566.838 414.557C566.879 414.495 566.906 414.437 566.924 414.392L565.988 414.397Z" fill="#6CB069" stroke="#6CB069" stroke-width="2"/>
<path d="M277.577 449.208C279.591 450.049 280.94 450.56 282.247 451.201C303.929 461.842 325.579 472.503 347.261 483.146C350.633 484.8 354.532 486.498 358.447 488.218C362.247 489.888 366.063 491.581 369.454 493.286C368.355 501.204 366.705 509.007 365.003 516.909C363.322 524.718 361.592 532.625 360.309 540.808C354.73 538.305 349.681 536.132 344.711 533.772C321.748 522.871 298.789 511.962 275.879 500.95C274.118 500.104 272.815 499.434 271.859 498.785C270.909 498.141 270.341 497.542 270.012 496.854C269.682 496.164 269.566 495.326 269.632 494.147C269.699 492.964 269.947 491.487 270.308 489.54L270.309 489.535C272.673 476.047 275.067 462.937 277.577 449.208Z" fill="#556D8D" stroke="#556D8D"/>
<path d="M271.453 445.42C271.389 445.469 271.517 445.37 271.453 445.42V445.42Z" fill="#222B3A"/>
<path d="M675.951 492.913C675.587 494.58 675.615 496.453 674.794 496.964C673.169 497.978 671.047 498.687 669.19 498.569C668.541 498.528 667.645 495.686 667.646 494.123C667.646 492.797 668.486 491.165 669.481 490.227C670.566 489.203 672.666 487.949 673.582 488.377C674.76 488.929 675.2 491.056 675.951 492.913Z" fill="#556D8D"/>
<path d="M605.234 526.261C605.122 524.585 604.636 522.912 605.264 522.043C606.599 520.195 608.446 518.676 610.283 517.287C610.486 517.134 612.832 518.819 612.743 519.448C612.358 522.181 611.993 525.198 610.551 527.417C609.219 529.469 606.8 529.004 605.234 526.261Z" fill="#556D8D"/>
<path d="M569.96 436.417C568.622 428.899 567.306 421.855 566.285 414.61C568.064 420.931 569.546 427.451 571.029 433.972C572.921 448.224 573.156 462.303 566.322 475.834C570.646 463.3 570.185 450.082 569.96 436.417Z" fill="#4E8350"/>
<path d="M565 439.5C563.15 432.972 567.28 421.234 565.5 414.5C565.202 414.286 564.991 411.386 565 411C564.33 408.531 564.679 410.583 564 408.5C564 408.5 564.002 406.999 563.988 406.704C563.644 405.934 563.339 405.977 563.008 405.5C563.008 405.5 562.494 403.831 562.5 403.5C562 402 562.344 403.285 562 402.5C562 402.5 561.513 401.794 561.5 401.5C561.156 400.729 560.832 400.477 560.5 400C560.5 400 561.002 399.999 561.003 399.66C560.619 398.537 560.232 397.754 559.846 396.971C556.405 390.442 552.964 383.913 549.243 377.181C552.18 374.955 555.312 372.776 558.631 370.935C577.59 360.422 596.594 349.99 616.04 339.419C616.997 339.872 617.497 340.434 617.999 340.998C618 341 618.003 341.003 618.036 341.364C620.378 346.147 622.687 350.57 624.998 354.997C625 355 625.006 355.006 625.104 355.23C625.394 355.739 625.658 355.919 625.997 355.997C626 356 626.005 356.008 625.994 356.377C626.652 358.16 627.322 359.574 627.995 360.994C627.999 360.999 628.007 361.012 628.007 361.012C629.045 365.004 630.179 368.974 631.101 372.993C632.615 379.59 634.321 386.175 635.199 392.863C635.426 394.59 633.312 397.397 631.527 398.495C612.606 410.134 593.046 425.065 574 436.5C573.182 436.991 566.281 439.175 565 439.5Z" fill="#69AC67"/>
<path d="M617.958 338.061C626.482 333.782 634.971 329.43 643.544 325.254C647.834 323.164 652.278 321.393 656.891 319.195C663.894 330.774 667.51 343.597 668.712 357.534C666.678 359.864 664.603 361.692 662.769 363.738C654.364 373.117 646.027 382.557 638.139 391.442C635.028 381.673 631.805 371.55 628.294 361.219C628.007 361.012 627.999 360.999 628.001 360.638C627.337 358.854 626.671 357.431 626.005 356.008C626.005 356.008 626 356 625.898 355.773C625.604 355.263 625.341 355.082 625.006 355.006C625.006 355.006 625 355 625.007 354.604C622.677 349.806 620.34 345.405 618.003 341.003C618.003 341.003 618 341 618.008 340.631C617.997 339.528 617.978 338.794 617.958 338.061Z" fill="#69AC67"/>
<path d="M454.756 505.071C456.354 503.806 457.848 503.012 458.948 501.846C459.95 500.782 460.525 499.315 461.662 498.007C465.381 499.173 469.583 499.964 467.869 504.942C467.301 506.59 464.384 508.994 463.36 508.645C459.308 507.266 457.067 509.434 454.317 511.878C454.16 509.801 454.321 507.59 454.756 505.071Z" fill="#3A4C4F"/>
<path d="M385.688 537.84C386.177 539.897 386.347 541.796 386.453 542.972C383.425 542.972 380.675 542.811 377.953 543.014C374.905 543.242 373.549 542.039 374.011 539.041C375.435 529.798 376.908 520.562 378.395 511.328C378.655 509.715 379.081 508.129 379.709 506.27C380.315 514.597 380.378 523.21 381.16 531.758C381.351 533.844 383.903 535.713 385.688 537.84Z" fill="#3E4C61"/>
<path d="M273.57 564.061C277.007 568.774 276.749 571.329 272.686 572.663C267.716 570.695 267.44 567.016 268.424 562.229C270.084 562.856 271.646 563.446 273.57 564.061Z" fill="#E3E2D3"/>
<path d="M264.485 568.896C264.143 568.55 264.037 568.252 263.579 567.859C263.276 565.286 263.163 562.865 263.05 560.445C263.493 560.224 263.936 560.003 264.38 559.782C265.211 560.978 266.75 562.196 266.714 563.365C266.656 565.222 265.547 567.047 264.485 568.896Z" fill="#97D282"/>
<path d="M355.437 611.831C354.6 611.587 354.139 611.259 353.385 610.908C352.646 610.55 352.2 610.216 351.47 609.832C350.842 607.205 350.498 604.628 350.19 601.643C357.739 603.609 358.496 605.034 355.437 611.831Z" fill="#E3E2D3"/>
<path d="M432.843 603C437.176 603.246 436.502 612.148 432.843 614.115C431.906 614.618 429.043 613.488 428.492 612.392C426.825 609.075 428.807 602.771 432.843 603Z" fill="#556D8D"/>
<path d="M298.347 537.641C290.152 533.65 282.286 529.834 274.42 526.018C274.777 525.324 275.133 524.63 275.49 523.936C300.97 536.367 326.979 547.712 352.133 560.814C351.816 561.485 351.498 562.155 351.181 562.826C333.679 554.489 316.178 546.153 298.347 537.641Z" fill="#79B471"/>
<path d="M323.633 561.347C332.122 566.135 341.496 568.582 348.984 574.382C348.668 574.986 348.352 575.589 348.036 576.193C324.341 564.781 300.645 553.37 276.949 541.958C277.294 541.219 277.639 540.48 277.984 539.74C293.091 546.882 308.197 554.024 323.633 561.347Z" fill="#6CB069"/>
<path d="M296.047 540.958C314.37 549.724 332.345 558.345 350.32 566.967C345.165 568.689 277.245 535.276 275.317 531.213C282.364 534.533 289.032 537.673 296.047 540.958Z" fill="#6CB069"/>
<path d="M282.813 549.321C295.619 555.421 308.09 561.364 320.563 567.303C328.077 570.882 335.604 574.436 343.101 578.053C344.483 578.72 345.744 579.637 347.725 580.844C342.666 581.767 281.616 552.447 278.979 548.146C280.433 548.568 281.456 548.865 282.813 549.321Z" fill="#6CB069"/>
<path d="M617.716 337.883C617.978 338.794 617.997 339.527 618.007 340.628C617.497 340.434 616.997 339.871 616.257 339.15C615.73 338.267 615.443 337.542 614.699 335.662C616.239 336.796 616.856 337.251 617.716 337.883Z" fill="#589A5A"/>
<path d="M611.535 331.396C611.577 330.921 611.798 330.635 612.019 330.35C612.207 330.55 612.396 330.75 612.584 330.951C612.294 331.162 612.004 331.374 611.535 331.396Z" fill="#589A5A"/>
<path d="M580.481 298.6C580.435 299.062 580.209 299.342 579.983 299.621C579.796 299.43 579.609 299.238 579.422 299.047C579.715 298.837 580.008 298.627 580.481 298.6Z" fill="#65A363"/>
<path d="M585.083 301.893C585.57 302.23 586.057 302.567 586.544 302.905C586.368 303.12 586.191 303.336 586.014 303.551C585.67 303.267 585.327 302.984 584.979 302.361C584.975 302.023 585.083 301.893 585.083 301.893Z" fill="#65A363"/>
<path d="M604.02 319.975C604.353 320.44 604.685 320.906 605.011 321.684C605.004 321.997 604.979 322.027 604.979 322.027C604.647 321.561 604.316 321.094 603.991 320.315C603.997 320.002 604.02 319.975 604.02 319.975Z" fill="#589A5A"/>
<path d="M584.919 302.085C584.326 301.949 583.789 301.75 583.126 301.271C583.001 300.991 583.088 300.894 583.088 300.894C583.632 301.075 584.176 301.257 584.901 301.666C585.083 301.893 584.975 302.022 584.919 302.085Z" fill="#65A363"/>
<path d="M608.961 327.046C608.63 326.579 608.298 326.113 607.979 325.325C607.992 325.005 608.033 324.959 608.033 324.959C608.362 325.426 608.692 325.892 609.013 326.678C609.004 326.999 608.961 327.046 608.961 327.046Z" fill="#589A5A"/>
<path d="M614.091 333.894C614.209 334.111 614.327 334.328 614.446 334.546C614.318 334.504 614.19 334.462 614.031 334.207C613.999 333.994 614.091 333.894 614.091 333.894Z" fill="#589A5A"/>
<path d="M601.96 318.048C601.622 317.962 601.356 317.774 601.082 317.24C601.001 316.998 601.028 316.966 601.028 316.966C601.303 317.143 601.578 317.321 601.928 317.749C602.003 318.001 601.96 318.048 601.96 318.048Z" fill="#589A5A"/>
<path d="M613.949 334.04C613.788 333.877 613.676 333.668 613.565 333.459C613.684 333.501 613.803 333.544 614.007 333.74C614.091 333.894 613.999 333.994 613.949 334.04Z" fill="#589A5A"/>
<path d="M600.985 317.011C600.636 316.94 600.37 316.758 600.087 316.236C600.003 315.994 600.039 315.952 600.039 315.952C600.387 316.019 600.655 316.203 600.935 316.735C601.027 316.966 601.001 316.998 600.985 317.011Z" fill="#589A5A"/>
<path d="M610.05 327.941C610.174 328.139 610.298 328.337 610.421 328.536C610.303 328.488 610.184 328.44 610.031 328.196C609.997 328 610.05 327.941 610.05 327.941Z" fill="#589A5A"/>
<path d="M602.963 319.045C602.622 318.972 602.355 318.789 602.062 318.273C601.96 318.048 602.003 318.001 602.027 317.979C602.386 318.042 602.65 318.228 602.921 318.759C602.999 319.004 602.963 319.045 602.963 319.045Z" fill="#589A5A"/>
<path d="M609.027 326.978C609.398 327.014 609.668 327.19 609.955 327.713C610.05 327.941 609.997 328 609.967 328.027C609.594 327.983 609.329 327.8 609.051 327.276C608.961 327.046 609.004 326.999 609.027 326.978Z" fill="#589A5A"/>
<path d="M607.97 325.025C607.604 324.978 607.333 324.801 607.064 324.257C606.995 324 607.055 323.935 607.055 323.935C607.385 324.032 607.642 324.225 607.931 324.737C608.033 324.96 607.992 325.005 607.97 325.025Z" fill="#589A5A"/>
<path d="M606.046 322.944C606.39 323.012 606.657 323.193 606.952 323.71C607.055 323.934 606.995 324 606.961 324.031C606.593 323.974 606.331 323.785 606.072 323.245C606.002 322.995 606.046 322.944 606.046 322.944Z" fill="#589A5A"/>
<path d="M605.019 321.984C605.377 322.033 605.646 322.208 605.943 322.721C606.046 322.944 606.002 322.995 605.976 323.018C605.627 322.94 605.37 322.75 605.079 322.249C604.979 322.027 605.004 321.997 605.019 321.984Z" fill="#589A5A"/>
<path d="M603.02 318.985C603.37 319.057 603.631 319.244 603.921 319.751C604.02 319.975 603.997 320.002 603.983 320.014C603.623 319.967 603.353 319.791 603.06 319.272C602.963 319.046 602.999 319.004 603.02 318.985Z" fill="#589A5A"/>
<path d="M598.021 313.974C598.299 314.148 598.578 314.322 598.93 314.747C599.005 314.997 598.975 315.032 598.975 315.032C598.642 314.94 598.377 314.752 598.091 314.233C598.002 313.997 598.021 313.974 598.021 313.974Z" fill="#589A5A"/>
<path d="M591.955 308.054C591.828 307.864 591.701 307.675 591.575 307.485C591.694 307.529 591.813 307.573 591.968 307.808C592.005 307.999 591.955 308.054 591.955 308.054Z" fill="#589A5A"/>
<path d="M592.968 309.04C592.633 308.959 592.366 308.778 592.061 308.275C591.955 308.054 592.005 307.999 592.034 307.973C592.397 308.034 592.664 308.218 592.933 308.75C593.004 308.999 592.968 309.04 592.968 309.04Z" fill="#589A5A"/>
<path d="M593.978 310.027C593.649 309.938 593.383 309.756 593.074 309.261C592.968 309.04 593.004 308.999 593.025 308.98C593.383 309.044 593.652 309.227 593.929 309.753C594.004 309.997 593.978 310.027 593.978 310.027Z" fill="#589A5A"/>
<path d="M594.019 309.985C594.38 310.04 594.652 310.22 594.925 310.756C595.002 310.999 594.985 311.018 594.985 311.018C594.653 310.933 594.387 310.751 594.083 310.25C593.978 310.028 594.004 309.998 594.019 309.985Z" fill="#589A5A"/>
<path d="M595.013 310.99C595.369 311.048 595.642 311.228 595.92 311.759C596.001 311.999 595.991 312.012 595.991 312.012C595.662 311.921 595.397 311.738 595.091 311.24C594.986 311.018 595.002 310.998 595.013 310.99Z" fill="#589A5A"/>
<path d="M596.008 311.994C596.289 312.165 596.564 312.342 596.919 312.759C597.001 312.999 596.992 313.011 596.992 313.011C596.662 312.92 596.398 312.735 596.095 312.234C595.991 312.012 596.001 311.999 596.008 311.994Z" fill="#589A5A"/>
<path d="M597.007 312.994C597.361 313.048 597.634 313.223 597.927 313.744C598.021 313.974 598.002 313.997 597.991 314.007C597.655 313.917 597.395 313.729 597.095 313.232C596.992 313.011 597.001 312.999 597.007 312.994Z" fill="#589A5A"/>
<path d="M599.983 316.012C599.639 315.933 599.379 315.747 599.079 315.252C598.975 315.032 599.005 314.997 599.023 314.981C599.382 315.035 599.651 315.212 599.944 315.725C600.039 315.952 600.003 315.994 599.983 316.012Z" fill="#589A5A"/>
<path d="M539.978 362.015C539.837 361.858 539.723 361.676 539.609 361.494C539.714 361.541 539.819 361.588 539.989 361.785C540.053 361.936 540.005 361.991 539.978 362.015Z" fill="#5B9E5B"/>
<path d="M582.953 301.036C582.79 300.883 582.675 300.685 582.56 300.488C582.678 300.525 582.797 300.563 583.002 300.747C583.088 300.894 583.001 300.991 582.953 301.036Z" fill="#65A363"/>
<path d="M563.981 407.371C564.663 409.064 565.342 411.147 566.015 413.627C565.332 411.937 564.655 409.849 563.981 407.371Z" fill="#4E8350"/>
<path d="M559.899 397.311C560.232 397.754 560.619 398.537 561.008 399.672C560.659 399.233 560.306 398.442 559.899 397.311Z" fill="#4E8350"/>
<path d="M561.987 402.322C562.327 402.765 562.671 403.551 563.012 404.68C562.67 404.238 562.331 403.451 561.987 402.322Z" fill="#4E8350"/>
<path d="M561.009 400.284C561.314 400.457 561.645 400.934 561.994 401.717C561.685 401.545 561.361 401.067 561.009 400.284Z" fill="#4E8350"/>
<path d="M563.003 405.286C563.313 405.457 563.644 405.933 563.992 406.716C563.682 406.546 563.353 406.069 563.003 405.286Z" fill="#4E8350"/>
<path d="M618.036 341.364C620.34 345.405 622.677 349.806 625.005 354.601C622.687 350.57 620.378 346.147 618.036 341.364Z" fill="#589A5A"/>
<path d="M625.994 356.377C626.671 357.431 627.337 358.854 627.998 360.632C627.322 359.574 626.652 358.16 625.994 356.377Z" fill="#589A5A"/>
<path d="M625.104 355.229C625.341 355.082 625.604 355.262 625.895 355.77C625.658 355.918 625.394 355.738 625.104 355.229Z" fill="#589A5A"/>
<path d="M489.5 411C476.544 392.703 469.025 385.295 455 378.5L507.5 333C525.98 341.817 535.172 352.702 551 375L489.5 411Z" stroke="#0A0808"/>
<path d="M551 375C536.873 353.564 527.727 343.702 507.5 333L577 297C593.056 305.815 601.793 315.384 617 339L551 375Z" stroke="#0A0808"/>
<path d="M657 319L616.5 339C604.128 318.46 596.452 307.945 577 297L626.5 288C641.138 295.325 647.38 302.877 657 319Z" stroke="#0A0808"/>
<path d="M489.5 415V411L550 375.5C563.725 398.021 569.096 411.8 566 439L506 461C502.245 441.255 499.088 430.886 489.5 415Z" stroke="#0A0808"/>
<path d="M573.5 436.5L566.5 439C569.728 418.89 566.824 405.156 551 375L616.5 339.5C633.06 364.416 634.769 377.736 635 396L573.5 436.5Z" stroke="#0A0808"/>
<path d="M669.5 357.5L635.5 396C634.781 375.042 631.503 362.783 617.5 339.5L657.5 319.5C665.443 332.803 667.582 341.357 669.5 357.5Z" stroke="#0A0808"/>
<path d="M326 422.5L378.5 447.5L405 433.5C407.094 435.846 356 407.5 350 408.5C344 409.5 326 422.5 326 422.5Z" stroke="#0A0808"/>
<path d="M426.63 473.166C426.817 474.413 427.003 475.468 427.15 476.394C427.325 477.488 427.445 478.414 427.459 479.332C427.557 485.767 427.198 492.352 427.583 498.827C427.804 502.541 427.833 506.013 426.848 508.987C425.905 511.834 424.021 514.254 420.374 515.971L420.016 516.135C419.874 516.198 419.785 516.298 419.733 516.371C419.69 516.432 419.658 516.494 419.636 516.543C419.468 516.554 419.239 516.568 418.972 516.578L418.899 516.581L418.831 516.604C416.558 517.367 414.871 518.146 413.204 518.837C407.946 521.017 402.694 523.166 397.458 524.904C397.449 518.55 397.294 512.656 397.514 506.763C397.584 504.87 397.355 503.263 396.542 502.004C395.719 500.728 394.355 499.896 392.348 499.433C391.902 499.33 391.455 498.964 390.951 498.354C390.469 497.769 390.029 497.089 389.507 496.367C389.27 494.318 389.399 492.829 390.02 491.675C390.646 490.51 391.826 489.592 393.91 488.818C400.588 486.338 406.843 482.579 413.199 479.483C417.407 477.434 421.662 475.492 426.63 473.166Z" fill="#3E4C61" stroke="black"/>
<path d="M270.173 503.592C297.561 516.67 325.032 529.579 352.319 542.866C361.511 547.947 365.072 548.688 366 542.866C366.929 537.043 368.495 524.293 368.495 524.293C369.759 513.478 371.452 502.712 372.958 491.472C371.578 491.679 370.209 492.34 368.495 493.018C365.716 508.885 363.282 524.738 360.703 541.528L360.702 541.531C354.896 538.92 349.65 536.671 344.497 534.224C321.533 523.323 298.574 512.412 275.663 501.401C268.626 498.018 268.559 496.27 270 488.5H266.5L265.5 501.401C267.235 502.375 268.687 502.882 270.173 503.592Z" fill="#1A2A3F"/>
</svg>
