<?xml version="1.0" encoding="UTF-8"?>
<svg id="Layer_2" data-name="Layer 2" xmlns="http://www.w3.org/2000/svg" viewBox="0 0 1166.99 274.22">
  <defs>
    <style>
      .cls-1 {
        fill: #20ac65;
      }

      .cls-2 {
        fill: #1b9457;
      }

      .cls-3 {
        stroke: #000;
        stroke-miterlimit: 10;
        stroke-width: .45px;
      }
    </style>
  </defs>
  <g id="Layer_1-2" data-name="Layer 1">
    <g>
      <polygon class="cls-3" points=".41 209.01 133.96 .22 191.03 .22 211.95 209.01 139.2 209.01 184.04 131.77 141.75 130.88 159.55 21.37 60.73 179.85 98.31 179.8 92.59 209.28 .41 209.01"/>
      <polygon class="cls-1" points="146.2 57.87 74.08 172.28 108.4 172.28 90.55 274.22 169.66 138.89 132.84 138.89 146.2 57.87"/>
      <polygon class="cls-2" points="146.2 57.87 108.4 156.79 137.38 156.79 90.55 274.22 108.4 172.28 74.08 172.28 146.2 57.87"/>
    </g>
    <g>
      <path d="m400.39,209.11l9.98-65.71c3.02-19.72,7.12-44.39,12.95-74.64h-.83c-10.69,27.13-22.1,53.56-30.89,72.26l-29.21,64.13h-35.57l-3.03-63.99c-.88-17.82-2.16-44.68-2.5-72.41h-.57c-5.83,28.17-11.21,55.08-15.78,74.64l-15.31,65.71h-41.55l47.71-190.51h58.79l2.13,64.16c.58,17.11,2.18,40.19,1.92,61.05h1.01c6.82-20.87,16.81-44.7,24.11-61.35l27.06-63.87h59.11l-25.93,190.51h-43.6Z"/>
      <path d="m509.36,22.17c12.87-3,32.23-4.71,49.85-4.71,15.52,0,36.14,2.11,50.63,13,12.78,8.9,20.17,23.45,20.17,40.31,0,26.16-12.05,45.16-27,56.52-15.2,11.63-36.78,17.02-58.38,17.02-5.23,0-9.85-.59-12.99-.74l-12.57,65.55h-45.15l35.45-186.94Zm29.35,83.78c2.88.45,6.21.89,11.48.89,22.08,0,33.38-16.9,33.38-32.21s-9.97-20.29-22.48-20.29c-5.78,0-10.09.3-12.68.86l-9.7,50.74Z"/>
      <path d="m652.11,209.11l-2.04-190.51h47.09l-3.33,72.44c-1.07,22.34-2.13,46.75-3.49,67.14h.56c7-21.72,14.53-43.3,22.47-65.43l26.63-74.14h48.71l-3.05,74.1c-.83,21.66-1.94,42.61-3.59,64.59h.57c6.41-21.57,13.67-44.21,20.66-65.48l23.99-73.2h47.68l-77.14,190.51h-50.45l.28-59.04c.13-22.85,1.1-46.39,2.76-67.36h-.57c-7.08,20.97-14.55,44.51-25.62,71.67l-21.71,54.74h-50.41Z"/>
      <path d="m900.54,166.22l-17.41,42.89h-48.29l86.26-190.51h58.83l14.25,190.51h-47.69l-1.11-42.89h-44.84Zm44.02-34.55l-.97-36.19c-.33-10.61-.4-28.35-.87-40.85h-.57c-4.69,12.5-10.44,30.51-14.88,40.86l-14.31,36.17h31.59Z"/>
      <path d="m1029.16,209.11l14.17-74.73-31.61-115.78h49.56l7.17,42.17c2.47,17.7,3.68,28.05,5.03,37.9h.57c5.44-11.56,10.57-22.92,17.68-37.02l21.92-43.06h53.34l-77.34,115.01-14.2,75.5h-46.28Z"/>
    </g>
  </g>
</svg>