<svg width="1920" height="1080" viewBox="0 0 1920 1080" fill="none" xmlns="http://www.w3.org/2000/svg">
<g clip-path="url(#clip0_33_54)">
<rect width="1920" height="1080" fill="white"/>
<g clip-path="url(#clip1_33_54)">
<path d="M663.34 781.51L663.23 782.64L661.62 800.01L654.8 873.1L654.71 874.12L653.62 885.82L652.59 896.86L650.11 923.43C650.11 923.43 618.47 923.01 567.17 922.3C519.17 921.64 453.94 920.72 381.34 919.66C259.53 917.87 116.94 915.66 0 913.54V781.75L619.5 781.53H643.7L663.34 781.51Z" fill="#348052"/>
<path d="M1137.06 900.37V900.36" stroke="black" stroke-width="2.72" stroke-miterlimit="10"/>
<path d="M1141.23 923.43V923.42" stroke="black" stroke-miterlimit="10"/>
<path d="M1130.17 942.2V942.19" stroke="black" stroke-miterlimit="10"/>
<path d="M1134.93 959.41V959.4" stroke="black" stroke-miterlimit="10"/>
<path d="M790.4 926.52V926.51" stroke="black" stroke-width="0.91" stroke-miterlimit="10"/>
<path d="M790.17 910.51V910.5" stroke="black" stroke-width="0.91" stroke-miterlimit="10"/>
<path d="M709.22 905.65V905.64" stroke="black" stroke-width="0.91" stroke-miterlimit="10"/>
<path d="M1477.77 710.5L1465.01 760.7L1463.78 765.53L1461.5 774.5L1452.01 775.56L1311.5 791.28L1272.5 795.64L1270.42 795.88H1270.28L1246.96 798.5H1245.12L1236.12 798.53H1232.57L1210.27 798.59L1148.28 798.75L1131.82 798.8H1131.48L1118.18 798.83L1112.59 798.85H1110.19L1099.28 798.88H1098.51L1093.04 798.9H1091.12L1079.3 798.93L1063.94 798.97L1053.9 799L1019.89 799.09L990.08 799.16L960.5 799.24H960.31L680.44 799.96L666 800H661.62L619.5 800.12L0 801.72V717.1L68.57 714.5C68.57 714.5 117.03 710.52 138.77 748.51C138.77 748.51 525.88 761.5 554.19 747C578.6 734.5 611.02 742.81 619.5 745.34C620.86 745.74 621.6 746 621.6 746L662.36 740.04L677.41 737.84L758.17 726.03L960.12 717.51L960.5 717.49L993.11 716.12L1003.71 715.67L1084.95 712.24L1126.23 710.5L1146.45 711.11L1216.03 713.22L1258.08 714.5C1258.08 714.5 1311.92 640.69 1407.01 671.47C1410.39 672.56 1413.83 673.79 1417.32 675.16C1419.83 676.14 1422.37 677.2 1424.93 678.34C1441.27 685.55 1458.69 695.86 1477.14 710.02C1477.35 710.18 1477.56 710.34 1477.77 710.5Z" fill="#418171"/>
<path d="M939.84 922.77V922.76" stroke="black" stroke-width="0.91" stroke-miterlimit="10"/>
<path d="M939.61 906.76V906.75" stroke="black" stroke-width="0.91" stroke-miterlimit="10"/>
<path d="M858.84 918.77V918.76" stroke="black" stroke-width="0.91" stroke-miterlimit="10"/>
<path d="M858.61 902.76V902.75" stroke="black" stroke-width="0.91" stroke-miterlimit="10"/>
<path d="M1287.14 943.45V943.44" stroke="black" stroke-width="0.93" stroke-miterlimit="10"/>
<path d="M1286.89 927.44V927.43" stroke="black" stroke-width="0.93" stroke-miterlimit="10"/>
<path d="M1286.2 980.03L1306.79 980.93" stroke="black" stroke-width="0.93" stroke-miterlimit="10"/>
<path d="M1920 773.43V1007.1L1832.47 1008.23L1711.66 1009.79L1191.85 1016.5C1191.85 1016.5 1192.26 1002.48 1194.07 980.86C1194.33 977.72 1194.63 974.43 1194.96 970.98C1194.96 970.96 1194.96 970.93 1194.97 970.9C1195.55 964.69 1196.25 958.01 1197.07 951C1197.46 947.62 1197.89 944.16 1198.35 940.63C1198.61 938.61 1198.88 936.56 1199.16 934.5C1199.36 933.05 1199.56 931.58 1199.78 930.11C1200.61 924.2 1201.54 918.14 1202.57 911.99C1202.68 911.3 1202.8 910.6 1202.92 909.9C1203.16 908.47 1203.41 907.03 1203.67 905.59C1205.2 896.85 1206.94 887.99 1208.89 879.15C1210.1 873.71 1211.39 868.28 1212.76 862.9C1212.87 862.48 1212.97 862.07 1213.08 861.65C1213.32 860.71 1213.57 859.78 1213.82 858.84C1216.13 850.13 1218.68 841.57 1221.49 833.32C1221.55 833.14 1221.61 832.97 1221.67 832.8C1225.74 820.93 1230.35 809.7 1235.58 799.57C1235.74 799.27 1235.9 798.96 1236.06 798.66C1236.08 798.62 1236.1 798.57 1236.13 798.53C1236.16 798.46 1236.19 798.4 1236.24 798.33C1236.26 798.28 1236.28 798.23 1236.31 798.18C1236.35 798.1 1236.4 798.02 1236.44 797.94C1242.11 787.22 1248.5 777.8 1255.69 770.25C1255.69 770.25 1255.7 770.25 1255.7 770.24C1258.02 767.81 1260.41 765.58 1262.9 763.56C1267.5 759.8 1272.4 756.79 1277.61 754.62C1314.16 739.42 1361.54 742.3 1401.93 749.8C1402.7 749.94 1403.46 750.08 1404.22 750.23C1405.94 750.55 1407.64 750.89 1409.32 751.24C1414.88 752.36 1420.27 753.56 1425.45 754.81C1426.48 755.05 1427.49 755.29 1428.5 755.54C1442.16 758.9 1454.24 762.47 1463.79 765.53C1477.91 770.07 1486.51 773.5 1486.51 773.5C1486.51 773.5 1487.75 772.87 1490.07 771.63C1501.8 765.31 1541.1 743.15 1586.82 706.37C1593.65 700.87 1600.62 695.05 1607.68 688.89H1607.69C1608.01 688.61 1608.33 688.33 1608.66 688.04C1611.26 685.77 1613.86 683.45 1616.48 681.09C1622.54 675.61 1628.63 669.9 1634.71 663.96C1707.91 592.42 1782.51 661.5 1782.51 661.5C1782.51 661.5 1873.07 735.39 1920.01 773.43H1920Z" fill="#348052"/>
<path d="M1409.34 589.2L1403.42 572.25C1403.42 572.25 1417.13 509.4 1422.42 500.82C1425.99 495.03 1424.31 540.25 1422.84 570.33C1422.13 584.88 1421.47 595.89 1421.47 595.89L1415.46 597.13L1412.33 597.77L1411.33 594.91L1409.34 589.19V589.2Z" fill="#D1CFBA"/>
<path d="M1409.34 589.2L1422.84 570.33C1422.13 584.88 1421.47 595.89 1421.47 595.89L1415.46 597.13L1411.34 594.92L1409.35 589.2H1409.34Z" fill="#B4B4AC"/>
<path d="M1430.9 599.14L1448.78 600.84C1448.78 600.84 1500.17 639.53 1505.76 647.92C1509.53 653.58 1469.14 633.18 1442.42 619.28C1429.49 612.56 1419.77 607.37 1419.77 607.37L1421.15 601.39L1421.87 598.28L1424.88 598.57L1430.91 599.14H1430.9Z" fill="#D1CFBA"/>
<path d="M1430.9 599.14L1442.41 619.28C1429.48 612.56 1419.76 607.37 1419.76 607.37L1421.14 601.39L1424.87 598.57L1430.9 599.14Z" fill="#B4B4AC"/>
<path d="M1406.51 600.66L1409.52 600.37L1410.24 603.48L1411.62 609.46C1411.62 609.46 1401.9 614.65 1388.97 621.37C1362.25 635.27 1321.86 655.66 1325.63 650.01C1331.22 641.62 1382.61 602.93 1382.61 602.93L1400.49 601.23L1406.52 600.66H1406.51Z" fill="#D1CFBA"/>
<path d="M1406.51 600.66L1410.24 603.48L1411.62 609.46C1411.62 609.46 1401.9 614.65 1388.97 621.37L1400.48 601.23L1406.51 600.66Z" fill="#B4B4AC"/>
<path d="M1428.78 761.88L1426.16 761.9L1403.79 762.05L1409.01 615.3L1409.15 611.56H1421.86L1422 614.62L1422.07 616.27L1428.78 761.88Z" fill="#D1CFBA"/>
<path d="M1428.78 761.88L1426.16 761.9L1411.37 616.75L1422 614.62L1424.03 614.86C1423.42 615.39 1422.76 615.86 1422.07 616.26L1428.77 761.88H1428.78Z" fill="#B4B4AC"/>
<path d="M1428.85 603.87C1428.85 608.33 1426.97 612.31 1424.04 614.87C1423.43 615.4 1422.77 615.87 1422.08 616.27C1420.79 617.02 1419.37 617.52 1417.88 617.74C1417.36 617.82 1416.82 617.86 1416.27 617.86C1414.73 617.86 1413.26 617.55 1411.9 616.99C1411.73 616.92 1411.55 616.84 1411.38 616.76C1410.55 616.37 1409.76 615.88 1409.02 615.3C1405.79 612.78 1403.69 608.6 1403.69 603.88C1403.69 596.15 1409.33 589.9 1416.27 589.9C1418.69 589.9 1420.95 590.66 1422.86 591.97C1423.61 592.48 1424.31 593.08 1424.94 593.75C1425.46 594.3 1425.95 594.91 1426.37 595.56C1427.94 597.88 1428.85 600.76 1428.85 603.88V603.87Z" fill="#D1CFBA"/>
<path d="M1428.85 603.871C1428.85 610.991 1424.07 616.861 1417.87 617.731C1417.35 617.811 1416.81 617.851 1416.26 617.851C1414.72 617.851 1413.25 617.541 1411.89 616.981C1417.46 612.441 1425.87 604.211 1426.36 595.541C1427.93 597.861 1428.84 600.741 1428.84 603.861L1428.85 603.871Z" fill="#9DA1A2"/>
<path d="M1920 791.03V854.22L1632.99 805.98L1452.01 775.56H1452L1379.62 763.39L1377.03 762.96L1401.92 749.8L1404.27 748.55L1423.75 738.25L1427.6 736.22L1477.14 710.02L1523.5 685.5C1523.5 685.5 1545.48 667.64 1587.72 680.88C1593.93 682.82 1600.58 685.44 1607.67 688.89H1607.68C1608.05 689.08 1608.42 689.26 1608.8 689.45C1611.31 690.69 1613.88 692.04 1616.5 693.5C1616.68 693.6 1616.87 693.7 1617.05 693.81C1677.86 727.63 1737.17 748.51 1737.17 748.51L1806.39 760.37L1865.5 770.5L1890.86 780.05L1920 791.03Z" fill="#498D50"/>
<path opacity="0.62" d="M1165 529.342H1335.8C1335.8 529.342 1327 489.342 1289 502.342C1289 502.342 1245.4 438.742 1205.2 505.542C1205.2 505.542 1170 495.342 1165 529.342Z" fill="#006C73"/>
<path opacity="0.62" d="M717 508.333H893.46C893.46 508.333 848 405.333 775 488.333C775 488.333 734 468.333 717 508.333Z" fill="#006C73"/>
<path d="M1489.5 771.2C1489.5 771.2 1502.5 783.2 1557.5 777.2C1612.5 771.2 1575.5 738.2 1675.5 757.2C1775.5 776.2 1792.5 767.2 1792.5 767.2C1792.5 767.2 1832.93 745.54 1842.21 751.37C1851.49 757.2 1890.5 770.2 1890.5 770.2L1891.5 797.2L1876.5 812.2L1868.77 806.5L1277.5 805.2L1426.5 744.2L1489.5 771.2Z" fill="#438C61"/>
<path d="M1592.59 519.51L1584.13 495.26C1584.13 495.26 1603.74 405.37 1611.31 393.09C1616.41 384.82 1614.02 449.49 1611.9 492.52C1610.88 513.33 1609.94 529.08 1609.94 529.08L1601.35 530.86L1596.88 531.78L1595.45 527.69L1592.6 519.51H1592.59Z" fill="#D1CFBA"/>
<path d="M1592.59 519.51L1611.9 492.52C1610.88 513.33 1609.94 529.08 1609.94 529.08L1601.35 530.86L1595.45 527.69L1592.6 519.51H1592.59Z" fill="#B4B4AC"/>
<path d="M1623.43 533.73L1649 536.16C1649 536.16 1722.5 591.5 1730.5 603.5C1735.89 611.59 1678.12 582.42 1639.9 562.54C1621.41 552.93 1607.5 545.5 1607.5 545.5L1609.47 536.95L1610.5 532.5L1614.81 532.91L1623.43 533.73Z" fill="#D1CFBA"/>
<path d="M1623.43 533.73L1639.9 562.54C1621.41 552.93 1607.5 545.5 1607.5 545.5L1609.47 536.95L1614.81 532.91L1623.43 533.73Z" fill="#B4B4AC"/>
<path d="M1588.54 535.91L1592.85 535.5L1593.88 539.95L1595.85 548.5C1595.85 548.5 1581.94 555.93 1563.45 565.54C1525.23 585.42 1467.46 614.59 1472.85 606.5C1480.85 594.5 1554.35 539.16 1554.35 539.16L1579.92 536.73L1588.54 535.91Z" fill="#D1CFBA"/>
<path d="M1588.54 535.91L1593.88 539.95L1595.85 548.5C1595.85 548.5 1581.94 555.93 1563.45 565.54L1579.92 536.73L1588.54 535.91Z" fill="#B4B4AC"/>
<path d="M1620.4 766.51L1616.65 766.54L1584.66 766.75L1592.13 556.84L1592.32 551.5H1610.5L1610.7 555.88L1610.81 558.23L1620.4 766.51Z" fill="#D1CFBA"/>
<path d="M1620.4 766.51L1616.65 766.54L1595.5 558.93L1610.7 555.88L1613.61 556.23C1612.74 556.99 1611.8 557.66 1610.81 558.23L1620.4 766.51Z" fill="#B4B4AC"/>
<path d="M1620.5 540.5C1620.5 546.88 1617.81 552.57 1613.62 556.23H1613.61C1612.74 556.99 1611.8 557.66 1610.81 558.23C1608.97 559.3 1606.94 560.02 1604.8 560.33C1604.05 560.44 1603.28 560.5 1602.5 560.5C1600.3 560.5 1598.2 560.06 1596.25 559.26C1596 559.16 1595.75 559.05 1595.5 558.93C1594.31 558.37 1593.18 557.67 1592.13 556.84C1587.51 553.23 1584.5 547.26 1584.5 540.5C1584.5 529.45 1592.56 520.5 1602.5 520.5C1605.96 520.5 1609.19 521.58 1611.93 523.46C1613 524.19 1614 525.05 1614.9 526.01C1615.65 526.8 1616.34 527.67 1616.95 528.6C1619.19 531.92 1620.5 536.04 1620.5 540.5Z" fill="#D1CFBA"/>
<path d="M1620.5 540.5C1620.5 550.68 1613.66 559.08 1604.8 560.33C1604.05 560.44 1603.28 560.5 1602.5 560.5C1600.3 560.5 1598.2 560.06 1596.25 559.26C1604.22 552.77 1616.25 540.99 1616.95 528.6C1619.19 531.92 1620.5 536.04 1620.5 540.5Z" fill="#9DA1A2"/>
<path d="M1920 941.33V1080H0V857.16L637.27 885.1L653.62 885.82L681.84 887.05L696.34 887.69L706.1 888.12L725.76 888.98L769.55 890.9L779.64 891.34L787.18 891.67L806.8 892.53L818.91 893.06L850.95 894.47L864.4 895.06L884.1 895.92L900.54 896.64L935.34 898.17L938.23 898.3H938.34L948.64 898.75L960.49 899.27L966.96 899.55L968.36 899.61L985.35 900.36L996.04 900.83H996.39L997.52 900.89H997.71L1023.56 902.03H1023.63L1077.83 904.41L1088.05 904.86L1090.93 904.99L1112.9 905.95L1119.11 906.22L1151.44 907.64L1155.48 907.82L1157.47 907.9L1162.97 908.14L1173.27 908.6L1202.9 909.9L1248.07 911.88L1251.12 912.01L1259.04 912.36L1283.26 913.42L1297.22 914.03L1317.66 914.93H1317.67L1333.88 915.64H1333.89L1343.47 916.06L1363.59 916.94L1919.99 941.33H1920Z" fill="#333F4D"/>
<path d="M1736.5 997.5L1897.5 1015.5L1849.5 1035.5L1698.09 1016.5L1736.5 997.5Z" fill="#5A5A62"/>
<path d="M1415.23 976.25L1577.14 981.73L1530.84 1005.39L1378.41 998.17L1415.23 976.25Z" fill="#5A5A62"/>
<path d="M419.52 909L580.52 919.16L532.52 930.45L381.11 919.72L419.52 909Z" fill="#5A5A62"/>
<path d="M77.4701 878.72L238.47 888.88L190.47 900.17L39.0601 889.45L77.4701 878.72Z" fill="#5A5A62"/>
<path d="M1633.65 729C1633.65 719.611 1641.26 712 1650.65 712H1714.05V914.52H1633.65V729Z" fill="#3B9F76"/>
<path d="M1714.05 712H1737.77C1747.71 712 1755.77 720.059 1755.77 730V915.279H1714.05V712Z" fill="#246C4A"/>
<rect x="1723.92" y="742.34" width="21.2381" height="78.1258" rx="9" fill="#123233"/>
<path d="M1627 914.262H1717.67C1721.26 914.262 1724.17 917.172 1724.17 920.762V934.5H1620.5V920.762C1620.5 917.172 1623.41 914.262 1627 914.262Z" fill="#1A4A4C" stroke="#184E4F"/>
<path d="M1757.15 914.262C1762.4 914.262 1766.65 918.515 1766.65 923.762V934.5H1716.07V914.262H1757.15Z" fill="#153537" stroke="#184E4F"/>
<rect x="1647.31" y="735.514" width="52.3367" height="48.5442" rx="6" fill="#1A4A4C"/>
<ellipse cx="1673.47" cy="834.119" rx="24.6514" ry="28.8231" fill="#207A5E"/>
<path d="M1668.75 857.069L1671.72 840.187H1662.71C1661.95 840.187 1661.48 839.276 1661.85 838.54L1674.86 812.69C1675.41 811.597 1676.9 812.212 1676.69 813.445L1673.71 830.327H1682.73C1683.48 830.327 1683.96 831.237 1683.59 831.973L1670.58 857.824C1670.03 858.917 1668.53 858.302 1668.75 857.069Z" fill="white"/>
<path d="M1732.78 767.222C1760.52 760.553 1798 853.5 1732.78 919C1667.56 984.5 1589.32 962.056 1556 951C1522.68 939.944 1418.5 916.097 1418.5 881C1418.5 843.5 1322 843.5 1322 843.5" stroke="#184E4F" stroke-width="12"/>
<path d="M1119 893L1168 899L1179 919H1159.68L1129 915L1111 910L1119 893Z" fill="#12252B"/>
<path d="M974.5 640.89C966.48 643.9 960.5 663.91 960.5 663.91V881.5C960.5 881.5 933.19 880.88 894.41 879.99C891.96 879.93 889.46 879.87 886.91 879.81C885.22 879.77 883.5 879.73 881.77 879.69C879.17 879.63 876.53 879.57 873.86 879.51C781.25 877.36 646.29 874.15 636.5 873.5C621.5 872.5 619.5 854.64 619.5 854.64V697.5C618.5 681.5 641.5 678.5 641.5 678.5C641.5 678.5 647.43 677.85 657.72 676.7C665.08 675.89 674.67 674.83 685.91 673.59C771.46 664.1 952.66 643.93 974.5 640.89Z" fill="#DBDBDB"/>
<path d="M974.53 640.88C975.17 640.63 975.83 640.5 976.5 640.5C977.03 640.5 976.33 640.63 974.53 640.88Z" fill="#7868AF"/>
<path d="M1149.32 848.66L1149.09 838.05L1149.07 837.07L1148.41 805.1V804.83L1148.28 798.75L1148.21 795.55V795.3L1148.2 794.98L1148.01 786.2L1147.04 739.69L1146.9 732.66L1146.8 728.07V728.01L1146.45 711.11L1146.09 693.98L1145.5 665.5C1145.5 665.5 1139.5 643.5 1125.5 646.5L976.66 640.51H976.5C976.5 640.51 976.39 640.54 976.17 640.63H976.16C976.16 640.63 976.14 640.64 976.13 640.65C976.13 640.65 976.01 640.67 975.83 640.69C975.82 640.7 975.81 640.7 975.79 640.7C975.74 640.7 975.69 640.72 975.64 640.72C975.27 640.79 974.76 640.87 974.41 640.93H974.39C974.16 640.97 974 641 974 641C972.18 641.81 966.12 642.7 960 663L960.12 717.51L960.31 799.24L960.5 879.64V881.5L966.6 881.89L990.25 883.42L991.5 883.5L992 883.42L1022.28 878.42H1022.35L1053.05 873.37L1076.8 869.46L1086.12 867.93L1088.93 867.47L1149.5 857.5L1149.32 848.66ZM994.61 709.76C994.68 709.5 994.75 709.25 994.83 709C994.9 708.76 994.97 708.51 995.05 708.27C995.12 708.03 995.2 707.79 995.28 707.56C995.35 707.33 995.43 707.1 995.51 706.88C995.83 705.99 996.16 705.19 996.5 704.5C999.5 698.5 1009.5 689.5 1016.5 690.5L1034.36 690.98L1003.71 715.67L991.5 725.5C991.5 725.5 991.5 725.48 991.51 725.45C991.51 725.42 991.52 725.37 991.53 725.3C991.55 725.14 991.59 724.88 991.64 724.54C991.65 724.46 991.66 724.38 991.67 724.29C991.71 724.01 991.76 723.69 991.82 723.34C991.83 723.25 991.85 723.15 991.86 723.06C991.95 722.5 992.05 721.86 992.17 721.16C992.25 720.69 992.33 720.2 992.43 719.69C992.47 719.41 992.52 719.12 992.58 718.83C992.63 718.58 992.68 718.33 992.72 718.08C992.82 717.53 992.93 716.97 993.05 716.4C993.07 716.31 993.09 716.21 993.11 716.12C993.54 714.01 994.04 711.79 994.61 709.76ZM989.3 824.01C989.3 824.01 989.42 824 989.67 823.97C989.65 825.61 989.62 827.24 989.6 828.85C985.24 829.67 981.95 830.93 979.96 832.69L989.3 824.01Z" fill="#ADADAD"/>
<path d="M989.67 823.97C989.65 825.61 989.62 827.24 989.6 828.85C985.24 829.67 981.95 830.93 979.96 832.69L989.3 824.01C989.3 824.01 989.42 824 989.67 823.97Z" fill="#ADADAD"/>
<path d="M859.16 973.21L859.38 973.23C859.87 973.27 860.36 973.29 860.85 973.29C861.34 973.29 861.83 973.27 862.31 973.24C866.32 972.93 870.12 971.37 873.56 968.79C877.53 965.82 881.02 961.5 883.8 956.2C885.04 953.84 886.14 951.28 887.06 948.57C889.41 941.8 890.74 934.02 890.74 925.75C890.74 912.73 887.45 900.94 882.12 892.35C878.98 887.27 875.11 883.31 870.79 880.89C867.68 879.15 864.34 878.2 860.86 878.2C860.35 878.2 859.85 878.22 859.34 878.26L842.1 877.32L866.08 923.64L840.08 969.64L839.28 972.38L859.18 973.2L859.16 973.21Z" fill="#132229"/>
<path d="M867.69 903.1C866.95 900.78 866.08 898.58 865.1 896.5C864.87 896.01 864.64 895.53 864.4 895.06C863.77 893.8 863.09 892.6 862.38 891.45C859.24 886.37 855.37 882.41 851.05 879.99C850.34 879.59 849.62 879.23 848.88 878.93C846.91 878.08 844.83 877.54 842.72 877.36H842.65L842.08 877.33C841.77 877.33 841.45 877.3 841.13 877.3H841.12C838.75 877.3 836.43 877.74 834.22 878.58L834.21 878.59C828.2 880.84 822.89 886 818.92 893.06C818.49 893.8 818.09 894.56 817.7 895.34C816.94 896.84 816.25 898.42 815.62 900.06C815.46 900.47 815.31 900.88 815.17 901.3C812.67 908.24 811.24 916.28 811.24 924.85C811.24 927.23 811.35 929.57 811.56 931.86C812.71 944.24 816.86 955.06 822.79 962.4C827.41 968.11 833.1 971.71 839.3 972.3C839.9 972.36 840.52 972.39 841.13 972.39C841.62 972.39 842.11 972.37 842.58 972.33C845.22 972.13 847.77 971.39 850.18 970.17C851.43 969.54 852.65 968.77 853.83 967.89C857.8 964.92 861.29 960.6 864.07 955.3C867.4 948.96 869.72 941.21 870.6 932.69C870.87 930.14 871.01 927.52 871.01 924.85C871.01 917.01 869.82 909.62 867.7 903.1H867.69ZM827 942.62C825.52 939.55 824.44 935.95 823.89 932.04C823.61 930.09 823.46 928.06 823.46 925.98C823.46 922.97 823.77 920.07 824.33 917.36C825.71 910.68 828.67 905.15 832.5 901.87C834.18 900.42 836.04 899.41 838 898.92C838.87 898.69 839.76 898.58 840.66 898.58C843.88 898.58 846.89 899.99 849.47 902.44C854.5 907.22 857.87 915.97 857.87 925.98C857.87 928.23 857.7 930.42 857.38 932.51C855.53 944.49 848.75 953.37 840.66 953.37C839.08 953.37 837.54 953.03 836.07 952.38C832.41 950.77 829.25 947.29 827 942.62Z" fill="#152F3C"/>
<path d="M840.55 954.15C850.491 954.15 858.55 941.39 858.55 925.65C858.55 909.91 850.491 897.15 840.55 897.15C830.609 897.15 822.55 909.91 822.55 925.65C822.55 941.39 830.609 954.15 840.55 954.15Z" fill="#394040"/>
<path d="M849.02 917.16C850.41 919.49 851.28 922.68 851.28 926.2C851.28 929.49 850.52 932.49 849.28 934.77C847.83 937.46 845.69 939.15 843.31 939.15C841.28 939.15 839.41 937.9 838 935.86C836.37 933.48 835.34 930.03 835.34 926.2C835.34 919.05 838.91 913.25 843.31 913.25C845.54 913.25 847.56 914.74 849.02 917.16Z" fill="#1D313C"/>
<path d="M942.16 974.21L942.38 974.23C942.87 974.27 943.36 974.29 943.85 974.29C944.34 974.29 944.83 974.27 945.31 974.24C949.32 973.93 953.12 972.37 956.56 969.79C960.53 966.82 964.02 962.5 966.8 957.2C968.04 954.84 969.14 952.28 970.06 949.57C972.41 942.8 973.74 935.02 973.74 926.75C973.74 913.73 970.45 901.94 965.12 893.35C961.98 888.27 958.11 884.31 953.79 881.89C950.68 880.15 947.34 879.2 943.86 879.2C943.35 879.2 942.85 879.22 942.34 879.26L925.1 878.32L949.08 924.64L923.08 970.64L922.28 973.38L942.18 974.2L942.16 974.21Z" fill="#132229"/>
<path d="M951.62 907.22C950.82 904.22 949.83 901.39 948.65 898.75C948.63 898.68 948.6 898.62 948.57 898.55C947.62 896.38 946.55 894.34 945.38 892.45C942.24 887.37 938.37 883.41 934.05 880.99C933.99 880.96 933.94 880.92 933.88 880.9H933.87C932.18 879.97 930.42 879.28 928.61 878.84H928.57C927.64 878.61 926.7 878.46 925.75 878.38C925.73 878.37 925.7 878.37 925.68 878.37H925.65L925.08 878.34C924.77 878.34 924.45 878.31 924.13 878.31H924.12C922.96 878.31 921.8 878.42 920.67 878.64H920.63C918.76 878.98 916.94 879.6 915.19 880.47H915.18C909.31 883.39 904.23 889.11 900.54 896.65C900.42 896.88 900.3 897.13 900.19 897.37C899.16 899.54 898.26 901.85 897.49 904.29C895.4 910.76 894.23 918.09 894.23 925.86C894.23 928.3 894.35 930.7 894.57 933.04C896.66 954.95 908.14 971.95 922.29 973.31C922.89 973.37 923.51 973.4 924.12 973.4C924.61 973.4 925.1 973.38 925.57 973.34C928.21 973.14 930.76 972.4 933.17 971.18C934.42 970.55 935.64 969.78 936.82 968.9C940.79 965.93 944.28 961.61 947.06 956.31C950.37 950.01 952.67 942.32 953.57 933.87C953.86 931.26 954 928.59 954 925.86C954 919.24 953.15 912.95 951.62 907.23V907.22ZM906.46 926.98C906.46 917.96 909.19 909.98 913.41 904.99C915.59 902.4 918.18 900.62 921 899.92C921.87 899.69 922.76 899.58 923.66 899.58C927.91 899.58 931.8 902.03 934.81 906.1C938.51 911.12 940.87 918.61 940.87 926.98C940.87 929.29 940.69 931.53 940.35 933.67C938.47 945.57 931.71 954.37 923.66 954.37C922.08 954.37 920.54 954.03 919.07 953.38C913.04 950.73 908.33 942.96 906.91 933.2C906.61 931.2 906.46 929.12 906.46 926.98Z" fill="#152F3C"/>
<path d="M923.55 955.15C933.491 955.15 941.55 942.39 941.55 926.65C941.55 910.91 933.491 898.15 923.55 898.15C913.609 898.15 905.55 910.91 905.55 926.65C905.55 942.39 913.609 955.15 923.55 955.15Z" fill="#394040"/>
<path d="M932.02 918.16C933.41 920.49 934.28 923.68 934.28 927.2C934.28 930.49 933.52 933.49 932.28 935.77C930.83 938.46 928.69 940.15 926.31 940.15C924.28 940.15 922.41 938.9 921 936.86C919.37 934.48 918.34 931.03 918.34 927.2C918.34 920.05 921.91 914.25 926.31 914.25C928.54 914.25 930.56 915.74 932.02 918.16Z" fill="#172830"/>
<path d="M980.62 908.5L960.5 909.79V881.5L991.5 883.5L999.43 897.5L991.32 912L980.62 908.5Z" fill="#12232B"/>
<path d="M658.91 892.04L658.5 928.5L629.04 929.87V941.64L671.17 943.49V887.2L658.91 892.04Z" fill="#121F25"/>
<path d="M711 930.45L999.43 934.5L984.98 899.44L711 892.73V930.45Z" fill="#142634"/>
<path d="M638.84 896.54C638.84 896.54 634.78 875.39 638.84 873.4C642.9 871.41 966.55 879.79 966.55 879.79C966.55 879.79 967.57 914.95 966.55 909.41C965.53 903.87 638.84 896.54 638.84 896.54Z" fill="#0E202A"/>
<path d="M795.6 985.06L795.82 985.08C796.31 985.12 796.8 985.14 797.29 985.14C797.78 985.14 798.27 985.12 798.75 985.09C802.76 984.78 806.56 983.22 810 980.64C813.97 977.67 817.46 973.35 820.24 968.05C821.48 965.69 822.58 963.13 823.5 960.42C825.85 953.65 827.18 945.87 827.18 937.6C827.18 924.58 823.89 912.79 818.56 904.2C815.42 899.12 811.55 895.16 807.23 892.74C804.12 891 800.78 890.05 797.3 890.05C796.79 890.05 796.29 890.07 795.78 890.11L778.54 889.17L802.52 935.49L776.52 981.49L775.72 984.23L795.62 985.05L795.6 985.06Z" fill="#132229"/>
<path d="M807.29 931.8C806.58 920.73 803.48 910.8 798.83 903.3C798.28 902.41 797.71 901.56 797.12 900.74C795.43 898.42 793.58 896.39 791.59 894.7C790.29 893.59 788.92 892.63 787.5 891.84C787.39 891.78 787.29 891.72 787.18 891.67C784.55 890.26 781.76 889.4 778.87 889.2C778.75 889.2 778.64 889.19 778.52 889.18C778.2 889.17 777.89 889.16 777.57 889.16H777.56C774.78 889.16 772.1 889.76 769.55 890.9C767.75 891.69 766.02 892.75 764.37 894.04C762.4 895.58 760.56 897.45 758.86 899.62C752.93 907.2 748.85 918.32 747.9 930.97C747.75 932.85 747.68 934.76 747.68 936.7C747.68 961.97 760.08 982.65 775.73 984.15C776.34 984.21 776.95 984.24 777.56 984.24C778.05 984.24 778.54 984.22 779.02 984.19C781.66 983.99 784.21 983.24 786.62 982.02C787.87 981.39 789.09 980.63 790.27 979.74C794.24 976.77 797.73 972.45 800.51 967.15C804.84 958.91 807.45 948.29 807.45 936.7C807.45 935.04 807.4 933.41 807.29 931.8ZM759.91 937.83C759.91 935.52 760.09 933.28 760.42 931.14C762.09 920.58 767.6 912.46 774.45 910.77C775.32 910.54 776.21 910.44 777.11 910.44C785.27 910.44 792.1 919.48 793.87 931.61C794.17 933.61 794.32 935.69 794.32 937.83C794.32 952.96 786.61 965.22 777.11 965.22C775.53 965.22 773.99 964.88 772.52 964.24C765.25 961.04 759.91 950.43 759.91 937.83Z" fill="#152F3C"/>
<path d="M777 966C786.941 966 795 953.24 795 937.5C795 921.76 786.941 909 777 909C767.059 909 759 921.76 759 937.5C759 953.24 767.059 966 777 966Z" fill="#636F6F"/>
<path d="M785.47 929.01C786.86 931.34 787.73 934.53 787.73 938.05C787.73 941.34 786.97 944.34 785.73 946.62C784.28 949.31 782.14 951 779.76 951C777.73 951 775.86 949.75 774.45 947.71C772.82 945.33 771.79 941.88 771.79 938.05C771.79 930.9 775.36 925.1 779.76 925.1C781.99 925.1 784.01 926.59 785.47 929.01Z" fill="#1D313C"/>
<path d="M711.26 979.4L711.48 979.42C711.97 979.46 712.46 979.48 712.95 979.48C713.44 979.48 713.93 979.46 714.41 979.43C718.42 979.12 722.22 977.56 725.66 974.98C729.63 972.01 733.12 967.69 735.9 962.39C737.14 960.03 738.24 957.47 739.16 954.76C741.51 947.99 742.84 940.21 742.84 931.94C742.84 918.92 739.55 907.13 734.22 898.54C731.08 893.46 727.21 889.5 722.89 887.08C719.78 885.34 716.44 884.39 712.96 884.39C712.45 884.39 711.95 884.41 711.44 884.45L694.2 883.51L718.18 929.83L692.18 975.83L691.38 978.57L711.28 979.39L711.26 979.4Z" fill="#132229"/>
<path d="M723.1 930.62C723.04 918.15 719.96 906.83 714.95 898.42C714.81 898.16 714.65 897.9 714.49 897.64C713.41 895.9 712.24 894.28 711 892.82C709.48 891.01 707.83 889.43 706.1 888.12C705.15 887.39 704.17 886.74 703.16 886.18C700.54 884.72 697.75 883.81 694.85 883.56C694.83 883.55 694.81 883.55 694.79 883.55H694.76L694.18 883.52C693.87 883.52 693.55 883.49 693.23 883.49H693.22C689.18 883.49 685.35 884.76 681.84 887.05C678.19 889.45 674.91 892.96 672.15 897.33C671.81 897.85 671.49 898.39 671.17 898.95C666.3 907.4 663.34 918.67 663.34 931.04C663.34 935.24 663.68 939.31 664.33 943.19C667.55 962.66 678.34 977.24 691.39 978.49C691.99 978.55 692.61 978.58 693.22 978.58C693.71 978.58 694.2 978.56 694.68 978.52C697.32 978.33 699.87 977.58 702.28 976.36C703.53 975.73 704.75 974.97 705.93 974.08C709.89 971.11 713.39 966.79 716.17 961.49C720.5 953.25 723.11 942.63 723.11 931.04C723.11 930.9 723.11 930.76 723.1 930.62ZM675.56 932.17C675.56 918.48 681.87 907.14 690.11 905.11C690.98 904.88 691.87 904.77 692.77 904.77C702.27 904.77 709.98 917.04 709.98 932.17C709.98 947.3 702.27 959.56 692.77 959.56C691.19 959.56 689.65 959.22 688.18 958.58C680.91 955.38 675.56 944.77 675.56 932.17Z" fill="#152F3C"/>
<path d="M692.66 960.34C702.601 960.34 710.66 947.58 710.66 931.84C710.66 916.1 702.601 903.34 692.66 903.34C682.719 903.34 674.66 916.1 674.66 931.84C674.66 947.58 682.719 960.34 692.66 960.34Z" fill="#636F6F"/>
<path d="M701.13 923.35C702.52 925.68 703.39 928.87 703.39 932.39C703.39 935.68 702.63 938.68 701.39 940.96C699.94 943.65 697.8 945.34 695.42 945.34C693.39 945.34 691.52 944.09 690.11 942.05C688.48 939.67 687.45 936.22 687.45 932.39C687.45 925.24 691.02 919.44 695.42 919.44C697.65 919.44 699.67 920.93 701.13 923.35Z" fill="#1D313C"/>
<path d="M1089.6 964H1095.08C1095.08 964 1110.27 889.62 1137.63 900.62C1164.99 911.62 1165.48 924.93 1165.48 924.93L1159.07 882.1L1126.48 877.7L1093.02 887.16L1077.36 942.84L1085.3 960.96C1086.12 962.82 1087.77 964 1089.57 964H1089.6Z" fill="#162A33"/>
<path d="M1140.99 1006.92L1141.22 1006.94C1141.73 1006.98 1142.24 1007.01 1142.74 1007.01C1143.24 1007.01 1143.76 1006.99 1144.25 1006.95C1148.41 1006.63 1152.35 1005.01 1155.93 1002.33C1160.05 999.25 1163.68 994.76 1166.56 989.26C1167.85 986.81 1168.99 984.16 1169.94 981.33C1172.37 974.3 1173.76 966.22 1173.76 957.64C1173.76 944.12 1170.35 931.88 1164.81 922.97C1161.55 917.7 1157.53 913.59 1153.05 911.08C1149.83 909.27 1146.36 908.29 1142.75 908.29C1142.22 908.29 1141.7 908.31 1141.17 908.36L1123.27 907.38L1148.16 955.46L1121.17 1003.22L1120.34 1006.06L1141 1006.92H1140.99Z" fill="#132229"/>
<path d="M1144.33 922.03C1143.07 920 1141.69 918.13 1140.23 916.46C1137.9 913.82 1135.32 911.68 1132.57 910.14C1129.79 908.57 1126.79 907.61 1123.7 907.39H1123.63C1123.5 907.38 1123.37 907.37 1123.25 907.37C1122.92 907.35 1122.6 907.34 1122.27 907.34H1122.26C1120.69 907.34 1119.16 907.52 1117.65 907.88C1115.63 908.36 1113.67 909.15 1111.8 910.22C1099.81 917.05 1091.23 935.29 1091.23 956.7C1091.23 959.18 1091.34 961.62 1091.57 964C1093.69 986.82 1105.64 1004.55 1120.35 1005.97C1120.98 1006.03 1121.62 1006.06 1122.26 1006.06C1122.77 1006.06 1123.27 1006.04 1123.77 1006C1126.51 1005.8 1129.16 1005.03 1131.66 1003.76C1132.96 1003.1 1134.23 1002.31 1135.45 1001.39C1139.57 998.3 1143.19 993.82 1146.08 988.32C1150.57 979.76 1153.28 968.74 1153.28 956.7C1153.28 943.18 1149.87 930.94 1144.33 922.03ZM1103.93 957.88C1103.93 943.66 1110.47 931.89 1119.02 929.79C1119.93 929.55 1120.85 929.44 1121.79 929.44C1131.65 929.44 1139.65 942.17 1139.65 957.88C1139.65 973.59 1131.65 986.32 1121.79 986.32C1120.14 986.32 1118.54 985.96 1117.02 985.29C1109.47 981.97 1103.93 970.95 1103.93 957.88Z" fill="#152F3C"/>
<path d="M1121.67 987.13C1131.99 987.13 1140.36 973.882 1140.36 957.54C1140.36 941.198 1131.99 927.95 1121.67 927.95C1111.35 927.95 1102.98 941.198 1102.98 957.54C1102.98 973.882 1111.35 987.13 1121.67 987.13Z" fill="#636F6F"/>
<path d="M1130.47 948.72C1131.92 951.14 1132.82 954.45 1132.82 958.1C1132.82 961.51 1132.03 964.63 1130.74 967C1129.23 969.79 1127.02 971.55 1124.54 971.55C1122.43 971.55 1120.5 970.26 1119.03 968.14C1117.33 965.67 1116.27 962.09 1116.27 958.11C1116.27 950.68 1119.97 944.66 1124.55 944.66C1126.87 944.66 1128.97 946.21 1130.48 948.71L1130.47 948.72Z" fill="#1D313C"/>
<path d="M1292.34 996.23L1292.57 996.25C1293.08 996.29 1293.59 996.32 1294.09 996.32C1294.59 996.32 1295.11 996.3 1295.6 996.26C1299.76 995.94 1303.7 994.32 1307.28 991.64C1311.4 988.56 1315.03 984.07 1317.91 978.57C1319.2 976.12 1320.34 973.47 1321.29 970.64C1323.72 963.61 1325.11 955.53 1325.11 946.95C1325.11 933.43 1321.7 921.19 1316.16 912.28C1312.9 907.01 1308.88 902.9 1304.4 900.39C1301.18 898.58 1297.71 897.6 1294.1 897.6C1293.57 897.6 1293.05 897.62 1292.52 897.67L1274.62 896.69L1299.51 944.77L1272.52 992.53L1271.69 995.37L1292.35 996.23H1292.34Z" fill="#132229"/>
<path d="M1304.63 945.26C1304.59 940.84 1304.18 936.56 1303.46 932.5C1303.03 930.1 1302.49 927.79 1301.85 925.56C1301.15 923.09 1300.31 920.73 1299.37 918.5C1298.72 916.94 1298 915.45 1297.23 914.03C1296.74 913.11 1296.23 912.21 1295.69 911.35C1292.43 906.07 1288.41 901.96 1283.93 899.45C1281.1 897.88 1278.09 896.92 1274.97 896.71C1274.85 896.71 1274.73 896.69 1274.61 896.69C1274.28 896.67 1273.95 896.66 1273.62 896.66H1273.61C1266.95 896.66 1260.77 900 1255.72 905.69C1254.06 907.55 1252.52 909.67 1251.13 912.01C1251.03 912.16 1250.94 912.31 1250.85 912.47C1250.33 913.37 1249.82 914.3 1249.34 915.27C1247.1 919.74 1245.34 924.84 1244.18 930.38C1243.9 931.73 1243.65 933.1 1243.44 934.5C1242.88 938.2 1242.59 942.05 1242.59 946.02C1242.59 949.99 1242.89 953.98 1243.46 957.73C1243.49 957.84 1243.5 957.95 1243.52 958.06C1244.1 961.77 1244.95 965.31 1246.03 968.63C1246.05 968.7 1246.07 968.76 1246.1 968.83C1247.31 972.55 1248.82 975.99 1250.58 979.08C1255.85 988.39 1263.33 994.48 1271.71 995.29C1272.34 995.35 1272.97 995.38 1273.61 995.38C1274.12 995.38 1274.63 995.36 1275.13 995.32C1277.86 995.11 1280.51 994.34 1283.01 993.07C1284.31 992.42 1285.58 991.63 1286.8 990.7C1290.19 988.16 1293.25 984.68 1295.84 980.45C1296.39 979.56 1296.92 978.62 1297.43 977.66C1297.43 977.65 1297.44 977.65 1297.44 977.64C1299.2 974.28 1300.69 970.54 1301.84 966.5C1301.84 966.45 1301.87 966.41 1301.88 966.36C1302.56 963.99 1303.12 961.52 1303.56 958.96C1303.86 957.18 1304.11 955.37 1304.28 953.51C1304.52 951.07 1304.64 948.56 1304.64 946.02C1304.64 945.77 1304.64 945.51 1304.63 945.26ZM1260.98 968.01C1259.51 965.85 1258.28 963.3 1257.34 960.47C1257.03 959.51 1256.74 958.53 1256.49 957.52C1255.71 954.32 1255.28 950.83 1255.28 947.19C1255.28 945.44 1255.38 943.72 1255.57 942.06C1255.93 938.94 1256.61 935.99 1257.55 933.32C1258.75 929.9 1260.38 926.91 1262.34 924.55C1264.64 921.76 1267.39 919.84 1270.38 919.1C1271.28 918.87 1272.2 918.76 1273.14 918.76C1277.41 918.76 1281.33 921.14 1284.39 925.11C1286 927.18 1287.37 929.68 1288.44 932.5C1289.95 936.47 1290.87 941.07 1290.99 945.99C1291 946.39 1291.01 946.79 1291.01 947.19C1291.01 949.87 1290.78 952.47 1290.34 954.93C1290.03 956.69 1289.61 958.38 1289.1 959.98C1288.28 962.58 1287.21 964.94 1285.95 967C1285.91 967.06 1285.88 967.12 1285.84 967.17C1282.61 972.39 1278.11 975.63 1273.14 975.63C1271.5 975.63 1269.9 975.28 1268.38 974.61C1265.63 973.4 1263.16 971.18 1261.11 968.2C1261.07 968.14 1261.02 968.07 1260.98 968.01Z" fill="#152F3C"/>
<path d="M1273.03 976.44C1283.35 976.44 1291.72 963.192 1291.72 946.85C1291.72 930.508 1283.35 917.26 1273.03 917.26C1262.71 917.26 1254.34 930.508 1254.34 946.85C1254.34 963.192 1262.71 976.44 1273.03 976.44Z" fill="#394040"/>
<path d="M1281.82 938.04C1283.27 940.46 1284.17 943.77 1284.17 947.42C1284.17 950.83 1283.38 953.95 1282.09 956.32C1280.58 959.11 1278.37 960.87 1275.89 960.87C1273.78 960.87 1271.85 959.58 1270.38 957.46C1268.68 954.99 1267.62 951.41 1267.62 947.43C1267.62 940 1271.32 933.98 1275.9 933.98C1278.22 933.98 1280.32 935.53 1281.83 938.03L1281.82 938.04Z" fill="#1D313C"/>
<path d="M1101.5 787.67C1101.5 787.67 1099.72 796.39 1097.83 806.52C1097.75 806.97 1097.67 807.41 1097.59 807.85C1096.4 814.24 1095.21 821.05 1094.4 826.51C1093.65 831.61 1093.24 835.52 1093.5 836.82C1093.56 837.1 1093.6 837.44 1093.64 837.83C1094.16 843.26 1092.76 858.32 1088.93 867.47C1088.21 869.2 1087.4 870.72 1086.5 871.92L1085.13 877.89L1080.61 897.51L1080.5 898H999.43C999.43 898 999.38 897.93 999.3 897.8C999.29 897.79 999.28 897.78 999.28 897.77C998.59 896.74 995.78 892.37 993.33 886.73C992.87 885.67 992.42 884.56 992 883.42C991.48 882 991 880.53 990.6 879.04C990.06 877.02 989.67 874.96 989.5 872.93C989.16 868.82 989.28 850.8 989.6 828.85C989.62 827.24 989.65 825.61 989.67 823.97C990.15 792.09 990.96 753.76 991.32 737.46C991.43 732.43 991.5 729.5 991.5 729.5H1079.43L1082.81 738.4L1082.95 738.77L1101.5 787.67Z" fill="#299E72"/>
<path d="M1232.96 729.5L1146.8 728.01L1101.5 727.23L991.5 725.5C991.5 725.5 993.5 710.5 996.5 704.5C999.5 698.5 1009.5 689.5 1016.5 690.5L1034.36 690.98L1146.09 693.98L1165.5 694.5C1165.5 694.5 1208.41 697.5 1232.96 729.5Z" fill="#3FB67E"/>
<path d="M1101.5 727.23L991.5 725.5C991.5 725.5 993.5 710.5 996.5 704.5C999.5 698.5 1009.5 689.5 1016.5 690.5L1034.36 690.98C1054.71 697.79 1096.96 713.43 1101.5 727.23Z" fill="#299E72"/>
<path d="M1232.96 729.5L1240.21 741.03L991.32 737.46L991.5 725.5L1232.96 729.5Z" fill="#299E72"/>
<path d="M1272.5 799.5C1272.88 799.88 1252.35 799.25 1226.69 798.33C1184.53 796.82 1128.5 794.5 1128.5 794.5C1128.5 794.5 1107.5 796.5 1108.5 783.5L1091.5 736.5C1091.5 736.5 1093.5 731.5 1098.5 731.5L1232.96 734.72C1232.96 734.72 1240.5 739.5 1241.5 743.5C1242.5 747.5 1271.5 798.5 1272.5 799.5Z" fill="#214859"/>
<path d="M1026.5 785.5V744.94C1026.5 744.94 1027.16 737.69 1035.83 738.1L1070.24 738.59C1070.24 738.59 1076.5 738.5 1079.5 747.5C1082.5 756.5 1093.04 785.5 1093.04 785.5V801.79C1093.04 801.79 1036.5 796.5 1033.5 795.5C1030.5 794.5 1026.5 792.5 1026.5 785.5Z" fill="#1A3644"/>
<path d="M1086.5 815.5C1086.5 815.5 1088.35 801.07 1079.43 801.79C1079.43 801.79 1078.5 778.5 1076.5 773.5C1074.5 768.5 1055 769.93 1055 769.93L1053.5 809.5C1053.5 809.5 1067.24 820.5 1084.87 815.5H1086.5Z" fill="#162A33"/>
<path d="M1349.5 964.5C1349.5 964.5 1193.5 970.5 1185.5 971.5C1182.61 971.86 1180.5 971.57 1178.99 971.05C1176.32 970.13 1175.5 968.5 1175.5 968.5C1168.5 964.5 1158.5 915.5 1158.5 915.5C1158.14 914.46 1157.64 913.09 1157.01 911.5C1156.48 910.16 1155.56 907.83 1154.24 905.09C1153.31 903.15 1151.93 900.33 1149.71 896.89C1148.13 894.44 1146.51 892.34 1144.87 890.56C1144.47 890.12 1144.06 889.7 1143.65 889.29C1121.79 867.73 1096.5 899.5 1096.5 899.5L1080.5 897.5L1097.79 806.55L1118.18 793.89C1118.18 793.89 1266.5 802.5 1272.5 799.5C1278.5 796.5 1324.5 828.5 1329.64 832.69C1334.78 836.89 1339.22 851.91 1339.22 851.91C1339.22 851.91 1341.5 863.5 1352.5 873.5C1363.5 883.5 1364.02 926.72 1364.02 926.72C1367.54 947.95 1349.5 964.5 1349.5 964.5Z" fill="#279E74"/>
<path d="M1118.18 793.89V830.39C1118.18 830.39 1212.5 851.51 1237.5 871.51C1237.5 871.51 1231.5 842.51 1234.5 839.51C1237.5 836.51 1118.18 793.9 1118.18 793.9V793.89Z" fill="#259A70"/>
<path d="M1329.64 832.69C1329.64 832.69 1280.5 795.5 1272.5 799.5L1118.18 793.89C1118.18 793.89 1231.5 835.5 1234.5 839.5C1234.5 839.5 1239.01 830.89 1247.26 832.69H1329.64Z" fill="#3FB67E"/>
<path d="M1242.5 890.5L1248.5 913.5C1248.5 913.5 1253.5 925.5 1260.5 924.5L1338.5 926.5C1338.5 926.5 1343.5 921.5 1343.5 917.5C1343.5 913.5 1341.5 861.5 1341.5 861.5C1341.5 861.5 1335.78 832.89 1329.64 832.69C1323.5 832.49 1247.26 832.69 1247.26 832.69C1247.26 832.69 1235.5 832.5 1234.5 839.5C1233.5 846.5 1237.5 871.5 1237.5 871.5L1242.5 890.5Z" fill="#E5E6E0"/>
<path d="M1251.5 841.5H1319.43C1319.43 841.5 1334.5 842.5 1332.5 853.5C1332.5 853.5 1337.5 909.5 1335.5 913.5C1333.5 917.5 1328.5 918.5 1326.5 918.5H1266.32C1266.32 918.5 1255.5 912.5 1255.5 903.5L1244.5 853.5C1244.5 853.5 1241.5 839.5 1251.5 841.5Z" fill="#1D3541"/>
<path d="M1029.38 832.69H1039.6V856.6L1029.38 855.23V832.69Z" fill="#0F262E"/>
<path d="M1006.02 959.47L1089.99 963.4C1089.99 963.4 1078.44 918.91 1095 898.38L999.74 896.99C999.74 896.99 974.99 939.31 1006.02 959.46V959.47Z" fill="#214859"/>
<path d="M1231.85 904.5C1231.85 904.5 1209.38 907.79 1190.28 903.93L1181.32 873.56C1190.41 874.07 1203.07 876.26 1218.32 882.77C1218.32 882.77 1230.2 892.5 1231.85 904.5Z" fill="#E2E1DD"/>
<path d="M1190.28 903.93C1188.31 903.54 1186.37 903.06 1184.5 902.5C1164.5 896.5 1165.5 874.5 1165.5 874.5C1165.5 874.5 1171.21 872.99 1181.32 873.56L1190.28 903.93Z" fill="#E2B500"/>
<path d="M1346.47 878.34C1346.49 877.83 1346.81 877.37 1347.28 877.18C1349.07 876.46 1354.07 875.28 1354.99 876C1356.12 876.88 1363.1 895.55 1362.7 904.74C1362.67 905.36 1362.22 905.86 1361.61 905.96L1347.04 908.25C1346.24 908.38 1345.52 907.74 1345.55 906.93L1346.47 878.33V878.34Z" fill="#E2E1DD"/>
<path d="M1258.5 932.5H1339.34C1339.34 932.5 1345.44 941.46 1335.97 942.98C1326.5 944.5 1259.9 947.5 1260.7 947.5C1261.5 947.5 1248.5 940.5 1258.5 932.5Z" fill="#12252B"/>
<path d="M1254.7 768.51C1254.7 768.51 1264.51 756.36 1272.5 769.93V799.5L1254.7 768.51Z" fill="#162A33"/>
<path d="M1075.47 739.08L1092.57 737.5L1119 795L1091.5 811.5L1090.5 778.5L1075.47 739.08Z" fill="#299E72"/>
<path d="M1075.62 962.91L1075.64 963L1002.47 959.25C998.2 956.21 995.14 952.64 993.01 948.79C981.7 928.28 996.99 899.66 996.99 899.66L1080 900.98C1070.8 913.47 1071.56 935.25 1073.32 949.39V949.46C1074.25 956.86 1075.44 962.15 1075.62 962.91Z" fill="#299E72"/>
<path d="M988.8 879.08C988.8 879.08 1104.79 876.36 1111.73 879.07C1118.67 881.78 1116 883.04 1116 883.04L1097.73 901L996.58 902.41L988.8 879.08Z" fill="#218964"/>
<path d="M1075.64 963L1002.47 959.25C998.2 956.21 995.14 952.64 993.01 948.79L1073.32 949.39V949.46L1075.62 962.91L1075.64 963Z" fill="#218964"/>
<path d="M1240.21 798.33H1226.69C1184.53 796.82 1128.5 794.5 1128.5 794.5C1128.5 794.5 1107.5 796.5 1108.5 783.5L1091.5 736.5C1091.5 736.5 1126.63 775.49 1132.82 781.75C1139 788 1240.21 798.33 1240.21 798.33Z" fill="#15313D"/>
<path d="M1019.89 739.02V873.09L1075.47 873.56L1098.72 801.8L1097.23 781.51L1075.47 731.5H1019.89V739.02Z" stroke="black" stroke-width="0.25" stroke-miterlimit="10"/>
<path d="M1217.48 864.05C1216.47 863.8 1187.14 856.6 1149.32 848.66C1131.92 845 1112.71 841.19 1093.64 837.83C1093.06 837.73 1092.48 837.63 1091.9 837.53C1050.03 830.22 1009.1 825.18 989.6 828.85C989.62 827.24 989.65 825.61 989.67 823.97C994.16 823.53 1038.92 819.48 1094 826.46C1094.13 826.48 1094.27 826.5 1094.4 826.51C1102.15 827.51 1110.11 828.72 1118.18 830.19C1128.34 832.04 1138.7 834.3 1149.07 837.07C1159.67 839.87 1170.29 843.2 1180.75 847.14H1180.76C1193.33 851.85 1205.66 857.44 1217.48 864.05Z" fill="#19865C"/>
<path d="M1159.65 920.85C1159.65 920.85 1229.21 960.73 1263.61 960.87C1298.01 961.01 1358.23 953.34 1358.23 953.34L1349.51 964.51L1181.24 971.56C1181.24 971.56 1174.41 969.01 1172.21 964.01C1170.01 959.01 1159.65 920.86 1159.65 920.86V920.85Z" fill="#1E8D63"/>
<g opacity="0.29">
<path d="M894.41 879.99C887.87 879.83 880.99 879.68 873.86 879.51Z" fill="#D5ADFF"/>
<path d="M894.41 879.99C887.87 879.83 880.99 879.68 873.86 879.51" stroke="#D9A3FF" stroke-width="2.19" stroke-miterlimit="10"/>
</g>
<path d="M729.81 814.084L726.737 814.33L735.23 744.484L738.255 744.241L747.538 812.664L744.465 812.91L736.899 755.292L736.71 755.307L729.81 814.084ZM730.79 786.987L743.176 785.995L743.219 793.422L730.832 794.414L730.79 786.987Z" fill="black"/>
<path d="M751.386 812.356L751.037 751.249L754.212 750.995L754.267 760.543L754.546 760.52C754.973 757.222 755.678 754.632 756.661 752.749C757.644 750.839 758.832 749.829 760.225 749.717C761.637 749.604 762.816 750.425 763.765 752.18C764.722 753.907 765.475 756.381 766.023 759.601L766.246 759.583C766.776 756.383 767.583 753.811 768.668 751.867C769.753 749.896 771.062 748.849 772.594 748.726C774.507 748.573 776.081 750.159 777.317 753.482C778.553 756.78 779.191 762.022 779.233 769.21L779.466 810.107L776.179 810.37L775.945 769.473C775.92 764.964 775.469 761.776 774.595 759.909C773.72 758.043 772.698 757.156 771.528 757.25C770.023 757.37 768.865 758.763 768.054 761.428C767.242 764.067 766.848 767.362 766.87 771.314L767.098 811.097L763.755 811.365L763.515 769.513C763.496 766.039 763.085 763.272 762.284 761.214C761.482 759.129 760.459 758.136 759.215 758.236C758.36 758.304 757.566 759.018 756.83 760.377C756.104 761.735 755.52 763.587 755.078 765.93C754.645 768.247 754.438 770.904 754.455 773.901L754.673 812.092L751.386 812.356Z" fill="black"/>
<path d="M785.607 832.54L785.127 748.519L788.303 748.264L788.358 757.971L788.748 757.94C788.984 756.86 789.31 755.48 789.728 753.802C790.155 752.096 790.769 750.561 791.569 749.197C792.379 747.805 793.48 747.053 794.873 746.942C796.674 746.798 798.269 747.957 799.658 750.419C801.048 752.882 802.141 756.443 802.939 761.102C803.736 765.761 804.153 771.3 804.19 777.718C804.227 784.19 803.874 789.83 803.13 794.639C802.387 799.422 801.34 803.167 799.989 805.876C798.639 808.558 797.072 809.97 795.29 810.113C793.915 810.223 792.811 809.661 791.977 808.428C791.143 807.168 790.499 805.72 790.043 804.085C789.588 802.423 789.236 801.045 788.989 799.951L788.71 799.973L788.895 832.277L785.607 832.54ZM788.533 778.813C788.56 783.428 788.82 787.48 789.314 790.969C789.807 794.432 790.515 797.122 791.436 799.038C792.357 800.928 793.477 801.82 794.796 801.714C796.17 801.604 797.311 800.478 798.218 798.336C799.135 796.166 799.815 793.299 800.259 789.735C800.713 786.143 800.927 782.172 800.902 777.822C800.878 773.526 800.623 769.672 800.139 766.261C799.664 762.824 798.957 760.134 798.017 758.193C797.086 756.224 795.924 755.296 794.531 755.407C793.194 755.514 792.076 756.572 791.177 758.581C790.278 760.564 789.606 763.298 789.161 766.783C788.717 770.241 788.507 774.251 788.533 778.813Z" fill="black"/>
<path d="M813.498 807.381L806.63 746.796L810.084 746.52L814.976 792.934L815.199 792.916L819.5 745.765L823.01 745.484L827.789 791.748L828.012 791.731L832.37 744.735L835.824 744.458L829.655 806.087L826.424 806.345L821.475 759.776L821.141 759.803L816.729 807.122L813.498 807.381Z" fill="black"/>
<path d="M846.823 806.144C845.468 806.253 844.233 805.622 843.12 804.252C842.006 802.855 841.117 800.79 840.451 798.058C839.785 795.298 839.44 791.93 839.417 787.951C839.397 784.451 839.623 781.593 840.093 779.38C840.563 777.14 841.199 775.364 842 774.053C842.8 772.742 843.686 771.742 844.658 771.054C845.639 770.339 846.625 769.756 847.616 769.305C848.913 768.723 849.965 768.281 850.772 767.977C851.587 767.647 852.179 767.161 852.547 766.522C852.924 765.881 853.109 764.805 853.1 763.293L853.098 762.975C853.076 759.05 852.682 756.03 851.918 753.915C851.162 751.8 850.028 750.803 848.514 750.924C846.945 751.05 845.72 752.13 844.84 754.164C843.96 756.198 843.345 758.343 842.996 760.6L839.857 757.667C840.393 753.91 841.12 750.959 842.036 748.816C842.962 746.646 843.975 745.105 845.076 744.195C846.185 743.257 847.279 742.744 848.356 742.658C849.043 742.603 849.834 742.779 850.728 743.185C851.631 743.563 852.505 744.435 853.348 745.801C854.202 747.165 854.915 749.271 855.489 752.117C856.062 754.963 856.363 758.813 856.391 763.666L856.621 803.927L853.334 804.19L853.287 795.915L853.119 795.929C852.904 797.273 852.541 798.721 852.029 800.275C851.518 801.828 850.834 803.17 849.976 804.3C849.119 805.43 848.068 806.045 846.823 806.144ZM847.277 797.67C848.577 797.566 849.668 796.749 850.551 795.219C851.444 793.688 852.111 791.751 852.553 789.407C853.004 787.062 853.222 784.617 853.207 782.071L853.158 773.478C853.022 773.966 852.718 774.428 852.247 774.864C851.784 775.273 851.248 775.647 850.636 775.988C850.034 776.302 849.446 776.588 848.872 776.846C848.306 777.077 847.847 777.273 847.495 777.434C846.643 777.82 845.847 778.402 845.109 779.177C844.379 779.925 843.791 781.021 843.344 782.463C842.906 783.878 842.694 785.779 842.707 788.166C842.726 791.428 843.163 793.86 844.017 795.464C844.881 797.04 845.967 797.775 847.277 797.67Z" fill="black"/>
<path d="M864.103 826.253C863.546 826.298 863.048 826.205 862.61 825.975C862.172 825.771 861.869 825.556 861.701 825.331L862.489 816.989C863.291 817.509 863.998 817.664 864.61 817.456C865.222 817.248 865.761 816.422 866.226 814.978C866.701 813.561 867.13 811.284 867.511 808.149L868.097 803.326L859.834 742.535L863.4 742.249L869.584 790.471L869.807 790.453L875.434 741.285L879 741L870.319 811.745C869.928 814.934 869.437 817.587 868.845 819.704C868.254 821.848 867.561 823.455 866.769 824.527C865.985 825.598 865.096 826.173 864.103 826.253Z" fill="black"/>
<path d="M637.728 815.678L675.069 714.644L693.122 713.749L704.646 812.36L681.632 813.501L694.002 776.196L680.603 776.438L683.661 724.265L656.124 800.914L668.011 800.301L666.894 814.36L637.728 815.678Z" fill="black"/>
<path d="M680.295 741.771L660.169 797.117L671.026 796.579L667.774 845.165L689.62 779.796L677.973 780.373L680.295 741.771Z" fill="#20AC65"/>
<path d="M680.295 741.771L670.662 789.239L679.829 788.784L667.774 845.165L671.026 796.579L660.169 797.117L680.295 741.771Z" fill="#1B9457"/>
<g opacity="0.65">
<path d="M220 270.5L286.268 308.76C287.154 309.271 286.791 310.626 285.768 310.626H209M220 270.5L183.5 234M220 270.5L209 310.626M183.5 234L147 270.5M183.5 234L158.5 310.626M183.5 234L209 310.626M147 270.5L80.732 308.76C79.846 309.271 80.2089 310.626 81.2321 310.626H158.5M147 270.5L158.5 310.626M158.5 310.626H209M158.5 310.626L215.882 369.126M158.5 310.626L153.211 360.126M209 310.626L152.33 368.376M209 310.626L214.824 360.126M215.882 369.126L147 431.126M215.882 369.126L214.824 360.126M215.882 369.126L223.176 431.126M147 431.126L230.471 493.126M147 431.126L152.33 368.376M147 431.126L139.001 493.126M230.471 493.126L129.172 585.126M230.471 493.126L240 585.126M230.471 493.126L223.176 431.126M129.172 585.126L249 663.126M129.172 585.126L139.001 493.126M129.172 585.126L121.5 663.126M249 663.126L240 585.126M249 663.126L110.5 763.126L121.5 663.126M249 663.126L263 763.126L121.5 663.126M152.33 368.376L223.176 431.126M152.33 368.376L153.211 360.126M223.176 431.126L139.001 493.126M139.001 493.126L240 585.126M240 585.126L121.5 663.126M153.211 360.126L66.9129 414.781C66.0668 415.317 66.4464 416.626 67.4479 416.626H298.135C299.129 416.626 299.514 415.331 298.681 414.788L214.824 360.126" stroke="#505050" stroke-width="4"/>
<path d="M81.5 422.126C81.5 419.365 83.7386 417.126 86.5 417.126V417.126C89.2614 417.126 91.5 419.365 91.5 422.126V457.126C91.5 459.887 89.2614 462.126 86.5 462.126V462.126C83.7386 462.126 81.5 459.887 81.5 457.126V422.126Z" fill="#505050"/>
<path d="M276.5 422.126C276.5 419.365 278.739 417.126 281.5 417.126V417.126C284.261 417.126 286.5 419.365 286.5 422.126V457.126C286.5 459.887 284.261 462.126 281.5 462.126V462.126C278.739 462.126 276.5 459.887 276.5 457.126V422.126Z" fill="#505050"/>
<path d="M264.5 315.126C264.5 312.365 266.739 310.126 269.5 310.126V310.126C272.261 310.126 274.5 312.365 274.5 315.126V350.126C274.5 352.887 272.261 355.126 269.5 355.126V355.126C266.739 355.126 264.5 352.887 264.5 350.126V315.126Z" fill="#505050"/>
<path d="M92.5 315.126C92.5 312.365 94.7386 310.126 97.5 310.126V310.126C100.261 310.126 102.5 312.365 102.5 315.126V350.126C102.5 352.887 100.261 355.126 97.5 355.126V355.126C94.7386 355.126 92.5 352.887 92.5 350.126V315.126Z" fill="#505050"/>
<path d="M87 457.5C271.2 546.631 371.11 570.923 555.5 553" stroke="#505050" stroke-width="4"/>
<path d="M282.5 454.5C396.288 506.258 446.924 524.353 548.5 511.5" stroke="#505050" stroke-width="4"/>
<path d="M270 349.5C376.332 447.53 441.904 475.787 585.5 495.5" stroke="#505050" stroke-width="4"/>
<path d="M98.5 349C279.14 497.403 375.715 546.946 555.5 551" stroke="#505050" stroke-width="4"/>
</g>
<g opacity="0.45">
<path d="M485.288 614.83L502.677 624.87C503.563 625.382 503.2 626.736 502.177 626.736H482.024M485.288 614.83L474.458 604M485.288 614.83L482.024 626.736M474.458 604L463.627 614.83M474.458 604L467.04 626.736M474.458 604L482.024 626.736M463.627 614.83L446.238 624.87C445.352 625.382 445.715 626.736 446.738 626.736H467.04M463.627 614.83L467.04 626.736M467.04 626.736H482.024M467.04 626.736L484.066 644.094M467.04 626.736L465.47 641.424M482.024 626.736L465.209 643.871M482.024 626.736L483.752 641.424M484.066 644.094L463.627 662.49M484.066 644.094L483.752 641.424M484.066 644.094L486.23 662.49M463.627 662.49L488.394 680.887M463.627 662.49L465.209 643.871M463.627 662.49L461.254 680.887M488.394 680.887L458.337 708.185M488.394 680.887L491.222 708.185M488.394 680.887L486.23 662.49M458.337 708.185L493.892 731.328M458.337 708.185L461.254 680.887M458.337 708.185L456.061 731.328M493.892 731.328L491.222 708.185M493.892 731.328L452.797 761L456.061 731.328M493.892 731.328L498.046 761L456.061 731.328M465.209 643.871L486.23 662.49M465.209 643.871L465.47 641.424M486.23 662.49L461.254 680.887M461.254 680.887L491.222 708.185M491.222 708.185L456.061 731.328M465.47 641.424L441.913 656.343C441.067 656.879 441.446 658.188 442.448 658.188H506.105C507.099 658.188 507.484 656.893 506.651 656.35L483.752 641.424" stroke="#505050" stroke-width="4"/>
<path d="M444.193 659.82C444.193 659.001 444.857 658.336 445.676 658.336V658.336C446.496 658.336 447.16 659.001 447.16 659.82V670.205C447.16 671.024 446.496 671.689 445.676 671.689V671.689C444.857 671.689 444.193 671.024 444.193 670.205V659.82Z" fill="#505050"/>
<path d="M502.052 659.82C502.052 659.001 502.716 658.336 503.536 658.336V658.336C504.355 658.336 505.019 659.001 505.019 659.82V670.205C505.019 671.024 504.355 671.689 503.536 671.689V671.689C502.716 671.689 502.052 671.024 502.052 670.205V659.82Z" fill="#505050"/>
<path d="M498.491 628.071C498.491 627.252 499.156 626.588 499.975 626.588V626.588C500.794 626.588 501.459 627.252 501.459 628.071V638.457C501.459 639.276 500.794 639.94 499.975 639.94V639.94C499.156 639.94 498.491 639.276 498.491 638.457V628.071Z" fill="#505050"/>
<path d="M447.456 628.071C447.456 627.252 448.121 626.588 448.94 626.588V626.588C449.759 626.588 450.423 627.252 450.423 628.071V638.457C450.423 639.276 449.759 639.94 448.94 639.94V639.94C448.121 639.94 447.456 639.276 447.456 638.457V628.071Z" fill="#505050"/>
</g>
<g opacity="0.72">
<path d="M585.474 491.974C585.488 490.88 586.38 490 587.474 490H595.023C596.118 490 597.01 490.882 597.022 491.977L599.98 753.19C599.991 754.217 599.222 755.086 598.2 755.2L584.25 756.75C583.055 756.883 582.014 755.938 582.03 754.736L585.474 491.974Z" fill="#362C29"/>
<rect x="548" y="504.5" width="83" height="12" rx="4" fill="#362C29"/>
<rect x="555" y="546" width="70" height="12" rx="4" fill="#323131"/>
<path d="M624 514H556L591 554L624 514Z" stroke="#362C29" stroke-width="4"/>
</g>
<ellipse cx="244.886" cy="763.462" rx="38.4181" ry="1.79339" fill="#A6DDD6"/>
<rect x="242.522" y="716.578" width="10.6389" height="39.9669" fill="#4C687C"/>
<path d="M223.017 762.033C223.017 758.719 225.704 756.033 229.017 756.033H266.202C268.466 756.033 270.301 757.868 270.301 760.132V760.132V764.231H223.017V762.033Z" fill="#4D6D80"/>
<path d="M275.989 714.697L308.462 654.322" stroke="white" stroke-width="3"/>
<path d="M186.477 709.344C181.728 708.744 179.245 704.095 181.5 700.026L210.114 648.389C211.582 645.739 214.682 644.14 217.796 644.424L331.483 654.824C336.298 655.265 338.968 659.869 336.811 664.011L309.301 716.842C306.991 721.278 301.799 723.926 296.678 723.278L186.477 709.344Z" fill="#BABEBF"/>
<path d="M190.944 706.812C184.766 706.096 181.51 700.058 184.46 694.787L209.666 649.734C211.562 646.346 215.536 644.304 219.525 644.669L334.268 655.167C335.646 655.293 336.409 656.612 335.789 657.796L304.018 718.473C303.601 719.27 302.671 719.749 301.748 719.642L190.944 706.812Z" fill="#DFE2E4"/>
<path d="M187.233 703.319C185.85 703.162 185.125 701.805 185.796 700.63L215.877 648.008C216.304 647.26 217.187 646.814 218.071 646.9L328.644 657.636C330.017 657.77 330.771 659.087 330.151 660.267L301.44 714.848C301.023 715.642 300.097 716.119 299.177 716.014L187.233 703.319Z" fill="#0D2E44"/>
<path d="M275.167 713.217L307.163 655.478L309.965 655.795L278.342 713.403L275.167 713.217Z" fill="#325970"/>
<path d="M251.062 710.568L282.802 653.291L285.604 653.608L253.865 710.883L251.062 710.568Z" fill="#325970"/>
<path d="M227.746 707.679L259.233 650.858L262.032 651.181L230.547 708L227.746 707.679Z" fill="#325970"/>
<path d="M205.495 705.234L236.848 648.656L239.651 648.971L208.296 705.554L205.495 705.234Z" fill="#325970"/>
<path d="M308.123 702.157L192.599 688.914L194.013 686.375L309.408 699.848L308.123 702.157Z" fill="#325970"/>
<path d="M315.786 687.283L200.789 674.135L202.199 671.595L317.068 684.974L315.786 687.283Z" fill="#325970"/>
<path d="M323.759 672.465L209.275 659.408L210.681 656.867L325.038 670.155L323.759 672.465Z" fill="#325970"/>
<ellipse cx="291.175" cy="822.574" rx="57.8228" ry="2.42574" fill="#A6DDD6"/>
<rect x="287.616" y="759.158" width="16.0125" height="54.0592" fill="#4C687C"/>
<path d="M258.26 818.524C258.26 815.211 260.947 812.524 264.26 812.524H323.882C326.945 812.524 329.427 815.007 329.427 818.069V818.069V823.613H258.26V818.524Z" fill="#4D6D80"/>
<path d="M337.988 756.613L386.863 674.95" stroke="white" stroke-width="3"/>
<path d="M198.493 748.831C193.704 748.287 191.373 743.905 193.789 739.987L239.826 665.325C241.442 662.706 244.75 661.098 247.978 661.363L426.397 676.031C431.247 676.43 433.762 680.755 431.456 684.734L386.551 762.233C384.011 766.616 378.481 769.283 373.182 768.681L198.493 748.831Z" fill="#BABEBF"/>
<path d="M203.74 745.298C197.508 744.649 194.453 738.958 197.613 733.882L239.44 666.699C241.525 663.349 245.764 661.299 249.9 661.639L427.102 676.208C428.49 676.322 429.208 677.561 428.545 678.699L379.891 762.207C379.432 762.995 378.441 763.477 377.485 763.378L203.74 745.298Z" fill="#DFE2E4"/>
<path d="M202.997 741.08C201.601 740.938 200.921 739.658 201.641 738.526L247.8 665.958C248.27 665.219 249.211 664.771 250.126 664.851L418.629 679.555C420.012 679.675 420.722 680.914 420.058 682.048L376.01 757.302C375.551 758.086 374.564 758.567 373.611 758.469L202.997 741.08Z" fill="#0D2E44"/>
<path d="M336.75 754.612L384.908 676.513L389.125 676.943L341.53 754.863L336.75 754.612Z" fill="#325970"/>
<path d="M300.47 751.028L348.242 673.554L352.46 673.984L304.69 751.454L300.47 751.028Z" fill="#325970"/>
<path d="M265.378 747.121L312.769 670.264L316.982 670.702L269.593 747.555L265.378 747.121Z" fill="#325970"/>
<path d="M231.888 743.813L279.077 667.286L283.297 667.712L236.103 744.247L231.888 743.813Z" fill="#325970"/>
<path d="M386.353 739.651L212.479 721.74L214.606 718.305L388.287 736.529L386.353 739.651Z" fill="#325970"/>
<path d="M397.887 719.534L224.805 701.749L226.927 698.314L399.816 716.41L397.887 719.534Z" fill="#325970"/>
<path d="M409.886 699.49L237.577 681.829L239.693 678.393L411.81 696.366L409.886 699.49Z" fill="#325970"/>
<ellipse cx="126.874" cy="845.239" rx="58.7843" ry="2.76073" fill="#A6DDD6"/>
<rect x="123.257" y="773.066" width="16.2787" height="61.5247" fill="#4C687C"/>
<path d="M93.4124 839.802C93.4124 836.489 96.0986 833.802 99.4124 833.802H159.762C163.076 833.802 165.762 836.489 165.762 839.802V840.112V846.423H93.4124V839.802Z" fill="#4D6D80"/>
<path d="M174.465 770.169L224.153 677.228" stroke="white" stroke-width="3"/>
<path d="M32.4753 761.291C27.7294 760.687 25.2378 756.023 27.4834 751.946L74.9876 665.701C76.4476 663.05 79.5358 661.451 82.6428 661.737L264.495 678.474C269.307 678.916 271.986 683.537 269.838 687.688L223.334 777.535C221.037 781.973 215.864 784.619 210.753 783.969L32.4753 761.291Z" fill="#BABEBF"/>
<path d="M37.7563 757.265C31.582 756.545 28.3151 750.487 31.2528 745.205L74.6851 667.106C76.5704 663.716 80.529 661.676 84.5097 662.042L265.105 678.665C266.482 678.791 267.247 680.115 266.63 681.301L216.974 776.71C216.559 777.507 215.633 777.986 214.712 777.879L37.7563 757.265Z" fill="#DFE2E4"/>
<path d="M37.177 752.486C35.7942 752.328 35.0666 750.967 35.7357 749.789L82.869 666.835C83.2941 666.087 84.1742 665.641 85.0555 665.727L256.492 682.474C257.864 682.608 258.621 683.93 258.002 685.113L213.03 771.127C212.614 771.921 211.692 772.398 210.774 772.293L37.177 752.486Z" fill="#0D2E44"/>
<path d="M173.207 767.892L222.165 679.008L226.453 679.497L178.066 768.178L173.207 767.892Z" fill="#325970"/>
<path d="M136.324 763.814L184.89 675.641L189.178 676.13L140.614 764.299L136.324 763.814Z" fill="#325970"/>
<path d="M100.647 759.367L148.826 671.896L153.11 672.394L104.933 759.86L100.647 759.367Z" fill="#325970"/>
<path d="M66.6011 755.603L114.574 668.506L118.864 668.991L70.8864 756.096L66.6011 755.603Z" fill="#325970"/>
<path d="M223.634 750.866L46.8688 730.481L49.0313 726.572L225.6 747.312L223.634 750.866Z" fill="#325970"/>
<path d="M235.36 727.969L59.4001 707.729L61.5571 703.819L237.321 724.415L235.36 727.969Z" fill="#325970"/>
<path d="M247.559 705.158L72.3844 685.058L74.536 681.147L249.515 701.602L247.559 705.158Z" fill="#325970"/>
</g>
<path opacity="0.43" d="M1796 515.661H1930.81C1930.81 515.661 1930.8 480.661 1903.24 484.661C1903.24 484.661 1881.21 429.601 1853.94 452.631C1826.67 475.661 1825.11 496.38 1825.11 496.38C1825.11 496.38 1799.33 496.661 1796 515.661Z" fill="#006C73"/>
</g>
<defs>
<clipPath id="clip0_33_54">
<rect width="1920" height="1080" fill="white"/>
</clipPath>
<clipPath id="clip1_33_54">
<rect width="1920" height="1080" fill="white"/>
</clipPath>
</defs>
</svg>
