<?xml version="1.0" encoding="UTF-8"?>
<svg id="Layer_2" data-name="Layer 2" xmlns="http://www.w3.org/2000/svg" viewBox="0 0 1920 1080">
  <defs>
    <style>
      .cls-1 {
        fill: #1d3541;
      }

      .cls-2 {
        fill: #0e202a;
      }

      .cls-3 {
        fill: #19865c;
      }

      .cls-4 {
        fill: #121f25;
      }

      .cls-5 {
        fill: #e5e6e0;
      }

      .cls-6 {
        fill: #333f4d;
      }

      .cls-7 {
        fill: #dbdbdb;
      }

      .cls-8, .cls-9, .cls-10, .cls-11, .cls-12, .cls-13 {
        stroke-miterlimit: 10;
      }

      .cls-8, .cls-10, .cls-11, .cls-14, .cls-12, .cls-13 {
        fill: none;
      }

      .cls-8, .cls-10, .cls-11, .cls-12, .cls-13 {
        stroke: #000;
      }

      .cls-15 {
        fill: #418171;
      }

      .cls-16 {
        fill: #172830;
      }

      .cls-17 {
        fill: #152f3c;
      }

      .cls-18 {
        fill: #498d50;
      }

      .cls-19 {
        fill: #348052;
      }

      .cls-20 {
        fill: #636f6f;
      }

      .cls-21 {
        fill: #142634;
      }

      .cls-22 {
        fill: #1d313c;
      }

      .cls-23 {
        fill: #394040;
      }

      .cls-24 {
        fill: #006c73;
      }

      .cls-9 {
        fill: #d5adff;
        opacity: .29;
        stroke: #d9a3ff;
        stroke-width: 2.19px;
      }

      .cls-25 {
        fill: #259a70;
      }

      .cls-10 {
        stroke-width: .93px;
      }

      .cls-26 {
        fill: #3fb67e;
      }

      .cls-27 {
        fill: #5a5a62;
      }

      .cls-28 {
        fill: #0f262e;
      }

      .cls-29 {
        fill: #34a97c;
      }

      .cls-11 {
        stroke-width: .25px;
      }

      .cls-30 {
        fill: #1a3644;
      }

      .cls-31 {
        fill: #214859;
      }

      .cls-32 {
        fill: #b4b4ac;
      }

      .cls-33 {
        fill: #7868af;
      }

      .cls-34 {
        fill: #15313d;
      }

      .cls-35 {
        letter-spacing: 0em;
      }

      .cls-36 {
        font-family: MyriadPro-Regular, 'Myriad Pro';
        font-size: 83.91px;
      }

      .cls-37 {
        letter-spacing: 0em;
      }

      .cls-38 {
        letter-spacing: 0em;
      }

      .cls-39 {
        fill: #adadad;
      }

      .cls-40 {
        fill: #e2e1dd;
      }

      .cls-41 {
        fill: #162a33;
      }

      .cls-42 {
        fill: #e2b500;
      }

      .cls-43 {
        fill: #1e8d63;
      }

      .cls-44 {
        fill: #299e72;
      }

      .cls-45 {
        fill: #12232b;
      }

      .cls-12 {
        stroke-width: .91px;
      }

      .cls-46 {
        fill: #132229;
      }

      .cls-47 {
        fill: #12252b;
      }

      .cls-48 {
        letter-spacing: 0em;
      }

      .cls-49 {
        fill: #438c61;
      }

      .cls-50 {
        fill: #218964;
      }

      .cls-51 {
        fill: #d1cfba;
      }

      .cls-52 {
        letter-spacing: 0em;
      }

      .cls-53 {
        fill: #9da1a2;
      }

      .cls-13 {
        stroke-width: 2.72px;
      }

      .cls-54 {
        fill: #279e74;
      }
    </style>
  </defs>
  <g id="Layer_1-2" data-name="Layer 1">
    <path class="cls-19" d="m663.34,781.51l-.11,1.13-1.61,17.37-6.82,73.09-.09,1.02-1.09,11.7-1.03,11.04-2.48,26.57s-31.64-.42-82.94-1.13c-48-.66-113.23-1.58-185.83-2.64-121.81-1.79-264.4-4-381.34-6.12v-131.79l619.5-.22h24.2s19.64-.02,19.64-.02Z"/>
    <line class="cls-13" x1="1137.06" y1="900.37" x2="1137.06" y2="900.36"/>
    <line class="cls-8" x1="1141.23" y1="923.43" x2="1141.23" y2="923.42"/>
    <line class="cls-8" x1="1130.17" y1="942.2" x2="1130.17" y2="942.19"/>
    <line class="cls-8" x1="1134.93" y1="959.41" x2="1134.93" y2="959.4"/>
    <line class="cls-12" x1="790.4" y1="926.52" x2="790.4" y2="926.51"/>
    <line class="cls-12" x1="790.17" y1="910.51" x2="790.17" y2="910.5"/>
    <line class="cls-12" x1="709.46" y1="921.66" x2="709.46" y2="921.66"/>
    <line class="cls-12" x1="709.22" y1="905.65" x2="709.22" y2="905.64"/>
    <line class="cls-12" x1="939.84" y1="922.77" x2="939.84" y2="922.76"/>
    <line class="cls-12" x1="939.61" y1="906.76" x2="939.61" y2="906.75"/>
    <line class="cls-12" x1="858.84" y1="918.77" x2="858.84" y2="918.76"/>
    <line class="cls-12" x1="858.61" y1="902.76" x2="858.61" y2="902.75"/>
    <line class="cls-10" x1="1287.14" y1="943.45" x2="1287.14" y2="943.44"/>
    <line class="cls-10" x1="1286.89" y1="927.44" x2="1286.89" y2="927.43"/>
    <line class="cls-10" x1="1286.2" y1="980.03" x2="1306.79" y2="980.93"/>
    <path class="cls-15" d="m1477.77,710.5l-12.76,50.2-1.23,4.83-2.28,8.97-9.49,1.06-140.51,15.72-39,4.36-2.08.24h-.14s-23.32,2.62-23.32,2.62h-1.84l-9,.03h-3.55s-22.3.06-22.3.06l-61.99.16-16.46.05h-.34l-13.3.03-5.59.02h-2.4l-10.91.03h-.77l-5.47.02h-1.92l-11.82.03-15.36.04-10.04.03-34.01.09-29.81.07-29.58.08h-.19l-279.87.72-14.44.04h-4.38s-42.12.12-42.12.12L0,801.72v-84.62l68.57-2.6s48.46-3.98,70.2,34.01c0,0,387.11,12.99,415.42-1.51,24.41-12.5,56.83-4.19,65.31-1.66,1.36.4,2.1.66,2.1.66l40.76-5.96,15.05-2.2,80.76-11.81,201.95-8.52.38-.02,32.61-1.37,10.6-.45,81.24-3.43,41.28-1.74,20.22.61,69.58,2.11,42.05,1.28s53.84-73.81,148.93-43.03c3.38,1.09,6.82,2.32,10.31,3.69,2.51.98,5.05,2.04,7.61,3.18,16.34,7.21,33.76,17.52,52.21,31.68.21.16.42.32.63.48Z"/>
    <path class="cls-19" d="m1920,773.43v233.67l-87.53,1.13-120.81,1.56h0l-519.81,6.71s.41-14.02,2.22-35.64c.26-3.14.56-6.43.89-9.88,0-.02,0-.05.01-.08.58-6.21,1.28-12.89,2.1-19.9.39-3.38.82-6.84,1.28-10.37.26-2.02.53-4.07.81-6.13.2-1.45.4-2.92.62-4.39.83-5.91,1.76-11.97,2.79-18.12.11-.69.23-1.39.35-2.09.24-1.43.49-2.87.75-4.31,1.53-8.74,3.27-17.6,5.22-26.44,1.21-5.44,2.5-10.87,3.87-16.25.11-.42.21-.83.32-1.25.24-.94.49-1.87.74-2.81,2.31-8.71,4.86-17.27,7.67-25.52.06-.18.12-.35.18-.52,4.07-11.87,8.68-23.1,13.91-33.23.16-.3.32-.61.48-.91.02-.04.04-.09.07-.13.03-.07.06-.13.11-.2.02-.05.04-.1.07-.15.04-.08.09-.16.13-.24,5.67-10.72,12.06-20.14,19.25-27.69,0,0,.01,0,.01-.01,2.32-2.43,4.71-4.66,7.2-6.68,4.6-3.76,9.5-6.77,14.71-8.94,36.55-15.2,83.93-12.32,124.32-4.82.77.14,1.53.28,2.29.43,1.72.32,3.42.66,5.1,1.01,5.56,1.12,10.95,2.32,16.13,3.57,1.03.24,2.04.48,3.05.73,13.66,3.36,25.74,6.93,35.29,9.99,14.12,4.54,22.72,7.97,22.72,7.97,0,0,1.24-.63,3.56-1.87,11.73-6.32,51.03-28.48,96.75-65.26,6.83-5.5,13.8-11.32,20.86-17.48h.01c.32-.28.64-.56.97-.85,2.6-2.27,5.2-4.59,7.82-6.95,6.06-5.48,12.15-11.19,18.23-17.13,73.2-71.54,147.8-2.46,147.8-2.46,0,0,90.56,73.89,137.5,111.93Z"/>
    <g>
      <g>
        <path class="cls-51" d="m1409.34,589.2l-5.92-16.95s13.71-62.85,19-71.43c3.57-5.79,1.89,39.43.42,69.51-.71,14.55-1.37,25.56-1.37,25.56l-6.01,1.24-3.13.64-1-2.86-1.99-5.72Z"/>
        <path class="cls-32" d="m1409.34,589.2l13.5-18.87c-.71,14.55-1.37,25.56-1.37,25.56l-6.01,1.24-4.12-2.21-1.99-5.72Z"/>
      </g>
      <g>
        <path class="cls-51" d="m1430.9,599.14l17.88,1.7s51.39,38.69,56.98,47.08c3.77,5.66-36.62-14.74-63.34-28.64-12.93-6.72-22.65-11.91-22.65-11.91l1.38-5.98.72-3.11,3.01.29,6.03.57Z"/>
        <path class="cls-32" d="m1430.9,599.14l11.51,20.14c-12.93-6.72-22.65-11.91-22.65-11.91l1.38-5.98,3.73-2.82,6.03.57Z"/>
      </g>
      <g>
        <path class="cls-51" d="m1406.51,600.66l3.01-.29.72,3.11,1.38,5.98s-9.72,5.19-22.65,11.91c-26.72,13.9-67.11,34.29-63.34,28.64,5.59-8.39,56.98-47.08,56.98-47.08l17.88-1.7,6.03-.57Z"/>
        <path class="cls-32" d="m1406.51,600.66l3.73,2.82,1.38,5.98s-9.72,5.19-22.65,11.91l11.51-20.14,6.03-.57Z"/>
      </g>
      <g>
        <polygon class="cls-51" points="1428.78 761.88 1426.16 761.9 1403.79 762.05 1409.01 615.3 1409.15 611.56 1421.86 611.56 1422 614.62 1422.07 616.27 1428.78 761.88"/>
        <path class="cls-32" d="m1428.78,761.88l-2.62.02-14.79-145.15,10.63-2.13,2.03.24c-.61.53-1.27,1-1.96,1.4l6.7,145.62Z"/>
      </g>
      <g>
        <path class="cls-51" d="m1428.85,603.87c0,4.46-1.88,8.44-4.81,11h0c-.61.53-1.27,1-1.96,1.4-1.29.75-2.71,1.25-4.2,1.47-.52.08-1.06.12-1.61.12-1.54,0-3.01-.31-4.37-.87-.17-.07-.35-.15-.52-.23-.83-.39-1.62-.88-2.36-1.46-3.23-2.52-5.33-6.7-5.33-11.42,0-7.73,5.64-13.98,12.58-13.98,2.42,0,4.68.76,6.59,2.07.75.51,1.45,1.11,2.08,1.78.52.55,1.01,1.16,1.43,1.81,1.57,2.32,2.48,5.2,2.48,8.32Z"/>
        <path class="cls-53" d="m1428.85,603.87c0,7.12-4.78,12.99-10.98,13.86-.52.08-1.06.12-1.61.12-1.54,0-3.01-.31-4.37-.87,5.57-4.54,13.98-12.77,14.47-21.44,1.57,2.32,2.48,5.2,2.48,8.32Z"/>
      </g>
    </g>
    <path class="cls-18" d="m1920,791.03v63.19l-287.01-48.24-180.98-30.42h-.01l-72.38-12.17-2.59-.43,24.89-13.16,2.35-1.25,19.48-10.3,3.85-2.03,49.54-26.2,46.36-24.52s21.98-17.86,64.22-4.62c6.21,1.94,12.86,4.56,19.95,8.01h.01c.37.19.74.37,1.12.56,2.51,1.24,5.08,2.59,7.7,4.05.18.1.37.2.55.31,60.81,33.82,120.12,54.7,120.12,54.7l69.22,11.86,59.11,10.13,25.36,9.55,29.14,10.98Z"/>
    <path class="cls-24" d="m1152.5,578.5h170.8s-8.8-40-46.8-27c0,0-43.6-63.6-83.8,3.2,0,0-35.2-10.2-40.2,23.8Z"/>
    <path class="cls-24" d="m702.5,590.5h176.46s-45.46-103-118.46-20c0,0-41-20-58,20Z"/>
    <path class="cls-49" d="m1489.5,771.2s13,12,68,6,18-39,118-20,117,10,117,10c0,0,40.43-21.66,49.71-15.83s48.29,18.83,48.29,18.83l1,27-15,15-7.73-5.7-591.27-1.3,149-61,63,27Z"/>
    <path class="cls-24" d="m80.83,551.5h134.81s-.01-35-27.57-31c0,0-22.03-55.06-49.3-32.03s-28.83,43.75-28.83,43.75c0,0-25.78.28-29.11,19.28Z"/>
    <g>
      <g>
        <path class="cls-51" d="m1592.59,519.51l-8.46-24.25s19.61-89.89,27.18-102.17c5.1-8.27,2.71,56.4.59,99.43-1.02,20.81-1.96,36.56-1.96,36.56l-8.59,1.78-4.47.92-1.43-4.09-2.85-8.18Z"/>
        <path class="cls-32" d="m1592.59,519.51l19.31-26.99c-1.02,20.81-1.96,36.56-1.96,36.56l-8.59,1.78-5.9-3.17-2.85-8.18Z"/>
      </g>
      <g>
        <path class="cls-51" d="m1623.43,533.73l25.57,2.43s73.5,55.34,81.5,67.34c5.39,8.09-52.38-21.08-90.6-40.96-18.49-9.61-32.4-17.04-32.4-17.04l1.97-8.55,1.03-4.45,4.31.41,8.62.82Z"/>
        <path class="cls-32" d="m1623.43,533.73l16.47,28.81c-18.49-9.61-32.4-17.04-32.4-17.04l1.97-8.55,5.34-4.04,8.62.82Z"/>
      </g>
      <g>
        <path class="cls-51" d="m1588.54,535.91l4.31-.41,1.03,4.45,1.97,8.55s-13.91,7.43-32.4,17.04c-38.22,19.88-95.99,49.05-90.6,40.96,8-12,81.5-67.34,81.5-67.34l25.57-2.43,8.62-.82Z"/>
        <path class="cls-32" d="m1588.54,535.91l5.34,4.04,1.97,8.55s-13.91,7.43-32.4,17.04l16.47-28.81,8.62-.82Z"/>
      </g>
      <g>
        <polygon class="cls-51" points="1620.4 766.51 1616.65 766.54 1584.66 766.75 1592.13 556.84 1592.32 551.5 1610.5 551.5 1610.7 555.88 1610.81 558.23 1620.4 766.51"/>
        <path class="cls-32" d="m1620.4,766.51l-3.75.03-21.15-207.61,15.2-3.05,2.91.35c-.87.76-1.81,1.43-2.8,2l9.59,208.28Z"/>
      </g>
      <g>
        <path class="cls-51" d="m1620.5,540.5c0,6.38-2.69,12.07-6.88,15.73h-.01c-.87.76-1.81,1.43-2.8,2-1.84,1.07-3.87,1.79-6.01,2.1-.75.11-1.52.17-2.3.17-2.2,0-4.3-.44-6.25-1.24-.25-.1-.5-.21-.75-.33-1.19-.56-2.32-1.26-3.37-2.09-4.62-3.61-7.63-9.58-7.63-16.34,0-11.05,8.06-20,18-20,3.46,0,6.69,1.08,9.43,2.96,1.07.73,2.07,1.59,2.97,2.55.75.79,1.44,1.66,2.05,2.59,2.24,3.32,3.55,7.44,3.55,11.9Z"/>
        <path class="cls-53" d="m1620.5,540.5c0,10.18-6.84,18.58-15.7,19.83-.75.11-1.52.17-2.3.17-2.2,0-4.3-.44-6.25-1.24,7.97-6.49,20-18.27,20.7-30.66,2.24,3.32,3.55,7.44,3.55,11.9Z"/>
      </g>
    </g>
    <g id="road">
      <path class="cls-6" d="m1920,941.33v138.67H0v-222.84l637.27,27.94,16.35.72,28.22,1.23,14.5.64,9.76.43,19.66.86,43.79,1.92,10.09.44,7.54.33,19.62.86,12.11.53,32.04,1.41,13.45.59,19.7.86,16.44.72,34.8,1.53h0l2.89.13h.11l10.3.45,11.85.52,6.47.28,1.4.06,16.99.75,10.69.47h.35s1.13.06,1.13.06h.19s25.85,1.14,25.85,1.14h.07l54.2,2.38,10.22.45,2.88.13,21.97.96,6.21.27,32.33,1.42,4.04.18,1.99.08,5.5.24,10.3.46,29.63,1.3,45.17,1.98,3.05.13,7.92.35,24.22,1.06,13.96.61,20.44.9h.01l16.21.71h.01l9.58.42,20.12.88,556.4,24.39Z"/>
      <polygon class="cls-27" points="1736.5 997.5 1897.5 1015.5 1849.5 1035.5 1698.09 1016.5 1736.5 997.5"/>
      <polygon class="cls-27" points="1415.23 976.25 1577.14 981.73 1530.84 1005.39 1378.41 998.17 1415.23 976.25"/>
      <polygon class="cls-27" points="419.52 909 580.52 919.16 532.52 930.45 381.11 919.72 419.52 909"/>
      <polygon class="cls-27" points="77.47 878.72 238.47 888.88 190.47 900.17 39.06 889.45 77.47 878.72"/>
    </g>
    <g id="Layer_4" data-name="Layer 4">
      <g>
        <polygon class="cls-47" points="1119 893 1168 899 1179 919 1159.68 919 1129 915 1111 910 1119 893 1119 893"/>
        <path class="cls-7" d="m974.5,640.89c-8.02,3.01-14,23.02-14,23.02v217.59s-27.31-.62-66.09-1.51c-2.45-.06-4.95-.12-7.5-.18-1.69-.04-3.41-.08-5.14-.12-2.6-.06-5.24-.12-7.91-.18-92.61-2.15-227.57-5.36-237.36-6.01-15-1-17-18.86-17-18.86v-157.14c-1-16,22-19,22-19,0,0,5.93-.65,16.22-1.8,7.36-.81,16.95-1.87,28.19-3.11,85.55-9.49,266.75-29.66,288.59-32.7Z"/>
        <path class="cls-33" d="m974.53,640.88c.64-.25,1.3-.38,1.97-.38.53,0-.17.13-1.97.38Z"/>
        <path class="cls-39" d="m1149.32,848.66l-.23-10.61-.02-.98-.66-31.97v-.27s-.13-6.08-.13-6.08l-.07-3.2v-.25s-.01-.32-.01-.32l-.19-8.78-.97-46.51-.14-7.03-.1-4.59v-.06l-.35-16.9-.36-17.13-.59-28.48s-6-22-20-19l-148.84-5.99h-.16s-.11.03-.33.12h-.01s-.02.01-.03.02c0,0-.12.02-.3.04-.01.01-.02.01-.04.01-.05,0-.1.02-.15.02-.37.07-.88.15-1.23.21h-.02c-.23.04-.39.07-.39.07-1.82.81-7.88,1.7-14,22l.12,54.51.19,81.73.19,80.4v1.86l6.1.39,23.65,1.53,1.25.08.5-.08,30.28-5h.07l30.7-5.05,23.75-3.91,9.32-1.53,2.81-.46,60.57-9.97-.18-8.84Zm-154.71-138.9c.07-.26.14-.51.22-.76.07-.24.14-.49.22-.73.07-.24.15-.48.23-.71.07-.23.15-.46.23-.68.32-.89.65-1.69.99-2.38,3-6,13-15,20-14l17.86.48-30.65,24.69-12.21,9.83s0-.02.01-.05c0-.03.01-.08.02-.15.02-.16.06-.42.11-.76.01-.08.02-.16.03-.25.04-.28.09-.6.15-.95.01-.09.03-.19.04-.28.09-.56.19-1.2.31-1.9.08-.47.16-.96.26-1.47.04-.28.09-.57.15-.86.05-.25.1-.5.14-.75.1-.55.21-1.11.33-1.68.02-.09.04-.19.06-.28.43-2.11.93-4.33,1.5-6.36Zm-5.31,114.25s.12-.01.37-.04c-.02,1.64-.05,3.27-.07,4.88-4.36.82-7.65,2.08-9.64,3.84l9.34-8.68Z"/>
        <path class="cls-39" d="m989.67,823.97c-.02,1.64-.05,3.27-.07,4.88-4.36.82-7.65,2.08-9.64,3.84l9.34-8.68s.12-.01.37-.04Z"/>
        <g>
          <path class="cls-46" d="m859.16,973.21l.22.02c.49.04.98.06,1.47.06s.98-.02,1.46-.05c4.01-.31,7.81-1.87,11.25-4.45,3.97-2.97,7.46-7.29,10.24-12.59,1.24-2.36,2.34-4.92,3.26-7.63,2.35-6.77,3.68-14.55,3.68-22.82,0-13.02-3.29-24.81-8.62-33.4-3.14-5.08-7.01-9.04-11.33-11.46-3.11-1.74-6.45-2.69-9.93-2.69h0c-.51,0-1.01.02-1.52.06l-17.24-.94,23.98,46.32-26,46-.8,2.74,19.9.82Z"/>
          <path class="cls-17" d="m867.69,903.1c-.74-2.32-1.61-4.52-2.59-6.6-.23-.49-.46-.97-.7-1.44-.63-1.26-1.31-2.46-2.02-3.61-3.14-5.08-7.01-9.04-11.33-11.46-.71-.4-1.43-.76-2.17-1.06-1.97-.85-4.05-1.39-6.16-1.57h-.07l-.57-.03h0c-.31,0-.63-.03-.95-.03h-.01c-2.37,0-4.69.44-6.9,1.28h0s-.01.01-.01.01c-6.01,2.25-11.32,7.41-15.29,14.47-.43.74-.83,1.5-1.22,2.28-.76,1.5-1.45,3.08-2.08,4.72-.16.41-.31.82-.45,1.24-2.5,6.94-3.93,14.98-3.93,23.55,0,2.38.11,4.72.32,7.01,1.15,12.38,5.3,23.2,11.23,30.54,4.62,5.71,10.31,9.31,16.51,9.9.6.06,1.22.09,1.83.09.49,0,.98-.02,1.45-.06,2.64-.2,5.19-.94,7.6-2.16,1.25-.63,2.47-1.4,3.65-2.28,3.97-2.97,7.46-7.29,10.24-12.59,3.33-6.34,5.65-14.09,6.53-22.61.27-2.55.41-5.17.41-7.84,0-7.84-1.19-15.23-3.31-21.75Zm-40.69,39.52c-1.48-3.07-2.56-6.67-3.11-10.58-.28-1.95-.43-3.98-.43-6.06,0-3.01.31-5.91.87-8.62,1.38-6.68,4.34-12.21,8.17-15.49,1.68-1.45,3.54-2.46,5.5-2.95h0c.87-.23,1.76-.34,2.66-.34,3.22,0,6.23,1.41,8.81,3.86,5.03,4.78,8.4,13.53,8.4,23.54,0,2.25-.17,4.44-.49,6.53-1.85,11.98-8.63,20.86-16.72,20.86-1.58,0-3.12-.34-4.59-.99h0c-3.66-1.61-6.82-5.09-9.07-9.76Z"/>
          <ellipse class="cls-23" cx="840.55" cy="925.65" rx="18" ry="28.5"/>
          <path class="cls-22" d="m849.02,917.16c1.39,2.33,2.26,5.52,2.26,9.04,0,3.29-.76,6.29-2,8.57h0c-1.45,2.69-3.59,4.38-5.97,4.38-2.03,0-3.9-1.25-5.31-3.29h0c-1.63-2.38-2.66-5.83-2.66-9.66,0-7.15,3.57-12.95,7.97-12.95,2.23,0,4.25,1.49,5.71,3.91h0Z"/>
        </g>
        <g>
          <path class="cls-46" d="m942.16,974.21l.22.02c.49.04.98.06,1.47.06s.98-.02,1.46-.05c4.01-.31,7.81-1.87,11.25-4.45,3.97-2.97,7.46-7.29,10.24-12.59,1.24-2.36,2.34-4.92,3.26-7.63,2.35-6.77,3.68-14.55,3.68-22.82,0-13.02-3.29-24.81-8.62-33.4-3.14-5.08-7.01-9.04-11.33-11.46-3.11-1.74-6.45-2.69-9.93-2.69h0c-.51,0-1.01.02-1.52.06l-17.24-.94,23.98,46.32-26,46-.8,2.74,19.9.82Z"/>
          <path class="cls-17" d="m951.62,907.22c-.8-3-1.79-5.83-2.97-8.47-.02-.07-.05-.13-.08-.2-.95-2.17-2.02-4.21-3.19-6.1-3.14-5.08-7.01-9.04-11.33-11.46-.06-.03-.11-.07-.17-.09,0,0-.01,0-.01,0-1.69-.93-3.45-1.62-5.26-2.06h-.04c-.93-.23-1.87-.38-2.82-.46-.02-.01-.05-.01-.07-.01h-.03l-.57-.03h0c-.31,0-.63-.03-.95-.03h-.01c-1.16,0-2.32.11-3.45.33h-.04c-1.87.34-3.69.96-5.44,1.83h-.01c-5.87,2.92-10.95,8.64-14.64,16.18-.12.23-.24.48-.35.72-1.03,2.17-1.93,4.48-2.7,6.92-2.09,6.47-3.26,13.8-3.26,21.57,0,2.44.12,4.84.34,7.18,2.09,21.91,13.57,38.91,27.72,40.27.6.06,1.22.09,1.83.09.49,0,.98-.02,1.45-.06,2.64-.2,5.19-.94,7.6-2.16,1.25-.63,2.47-1.4,3.65-2.28,3.97-2.97,7.46-7.29,10.24-12.59,3.31-6.3,5.61-13.99,6.51-22.44.29-2.61.43-5.28.43-8.01,0-6.62-.85-12.91-2.38-18.63Zm-45.16,19.76c0-9.02,2.73-17,6.95-21.99,2.18-2.59,4.77-4.37,7.59-5.07h0c.87-.23,1.76-.34,2.66-.34,4.25,0,8.14,2.45,11.15,6.52,3.7,5.02,6.06,12.51,6.06,20.88,0,2.31-.18,4.55-.52,6.69-1.88,11.9-8.64,20.7-16.69,20.7-1.58,0-3.12-.34-4.59-.99h0c-6.03-2.65-10.74-10.42-12.16-20.18-.3-2-.45-4.08-.45-6.22Z"/>
          <ellipse class="cls-23" cx="923.55" cy="926.65" rx="18" ry="28.5"/>
          <path class="cls-16" d="m932.02,918.16c1.39,2.33,2.26,5.52,2.26,9.04,0,3.29-.76,6.29-2,8.57h0c-1.45,2.69-3.59,4.38-5.97,4.38-2.03,0-3.9-1.25-5.31-3.29h0c-1.63-2.38-2.66-5.83-2.66-9.66,0-7.15,3.57-12.95,7.97-12.95,2.23,0,4.25,1.49,5.71,3.91h0Z"/>
        </g>
        <polygon class="cls-45" points="980.62 908.5 960.5 909.79 960.5 881.5 991.5 883.5 999.43 897.5 991.32 912 980.62 908.5"/>
        <polygon class="cls-4" points="658.91 892.04 658.5 928.5 629.04 929.87 629.04 941.64 671.17 943.49 671.17 887.2 658.91 892.04"/>
        <polygon class="cls-21" points="711 930.45 999.43 934.5 984.98 899.44 711 892.73 711 930.45"/>
        <path class="cls-2" d="m638.84,896.54s-4.06-21.15,0-23.14c4.06-1.99,327.71,6.39,327.71,6.39,0,0,1.02,35.16,0,29.62s-327.71-12.87-327.71-12.87Z"/>
        <g>
          <path class="cls-46" d="m795.6,985.06l.22.02c.49.04.98.06,1.47.06s.98-.02,1.46-.05c4.01-.31,7.81-1.87,11.25-4.45,3.97-2.97,7.46-7.29,10.24-12.59,1.24-2.36,2.34-4.92,3.26-7.63,2.35-6.77,3.68-14.55,3.68-22.82,0-13.02-3.29-24.81-8.62-33.4-3.14-5.08-7.01-9.04-11.33-11.46-3.11-1.74-6.45-2.69-9.93-2.69h0c-.51,0-1.01.02-1.52.06l-17.24-.94,23.98,46.32-26,46-.8,2.74,19.9.82Z"/>
          <path class="cls-17" d="m807.29,931.8c-.71-11.07-3.81-21-8.46-28.5-.55-.89-1.12-1.74-1.71-2.56-1.69-2.32-3.54-4.35-5.53-6.04-1.3-1.11-2.67-2.07-4.09-2.86-.11-.06-.21-.12-.32-.17-2.63-1.41-5.42-2.27-8.31-2.47-.12,0-.23-.01-.35-.02-.32-.01-.63-.02-.95-.02h-.01c-2.78,0-5.46.6-8.01,1.74-1.8.79-3.53,1.85-5.18,3.14-1.97,1.54-3.81,3.41-5.51,5.58-5.93,7.58-10.01,18.7-10.96,31.35-.15,1.88-.22,3.79-.22,5.73,0,25.27,12.4,45.95,28.05,47.45.61.06,1.22.09,1.83.09.49,0,.98-.02,1.46-.05,2.64-.2,5.19-.95,7.6-2.17,1.25-.63,2.47-1.39,3.65-2.28,3.97-2.97,7.46-7.29,10.24-12.59,4.33-8.24,6.94-18.86,6.94-30.45,0-1.66-.05-3.29-.16-4.9Zm-47.38,6.03c0-2.31.18-4.55.51-6.69,1.67-10.56,7.18-18.68,14.03-20.37h0c.87-.23,1.76-.33,2.66-.33,8.16,0,14.99,9.04,16.76,21.17.3,2,.45,4.08.45,6.22,0,15.13-7.71,27.39-17.21,27.39-1.58,0-3.12-.34-4.59-.98h0c-7.27-3.2-12.61-13.81-12.61-26.41Z"/>
          <ellipse class="cls-20" cx="777" cy="937.5" rx="18" ry="28.5"/>
          <path class="cls-22" d="m785.47,929.01c1.39,2.33,2.26,5.52,2.26,9.04,0,3.29-.76,6.29-2,8.57h0c-1.45,2.69-3.59,4.38-5.97,4.38-2.03,0-3.9-1.25-5.31-3.29h0c-1.63-2.38-2.66-5.83-2.66-9.66,0-7.15,3.57-12.95,7.97-12.95,2.23,0,4.25,1.49,5.71,3.91h0Z"/>
        </g>
        <path class="cls-46" d="m711.26,979.4l.22.02c.49.04.98.06,1.47.06s.98-.02,1.46-.05c4.01-.31,7.81-1.87,11.25-4.45,3.97-2.97,7.46-7.29,10.24-12.59,1.24-2.36,2.34-4.92,3.26-7.63,2.35-6.77,3.68-14.55,3.68-22.82,0-13.02-3.29-24.81-8.62-33.4-3.14-5.08-7.01-9.04-11.33-11.46-3.11-1.74-6.45-2.69-9.93-2.69h0c-.51,0-1.01.02-1.52.06l-17.24-.94,23.98,46.32-26,46-.8,2.74,19.9.82Z"/>
        <path class="cls-17" d="m723.1,930.62c-.06-12.47-3.14-23.79-8.15-32.2-.14-.26-.3-.52-.46-.78-1.08-1.74-2.25-3.36-3.49-4.82-1.52-1.81-3.17-3.39-4.9-4.7-.95-.73-1.93-1.38-2.94-1.94-2.62-1.46-5.41-2.37-8.31-2.62-.02-.01-.04-.01-.06-.01h-.03l-.58-.03h0c-.31,0-.63-.03-.95-.03h-.01c-4.04,0-7.87,1.27-11.38,3.56-3.65,2.4-6.93,5.91-9.69,10.28-.34.52-.66,1.06-.98,1.62-4.87,8.45-7.83,19.72-7.83,32.09,0,4.2.34,8.27.99,12.15,3.22,19.47,14.01,34.05,27.06,35.3.6.06,1.22.09,1.83.09.49,0,.98-.02,1.46-.06,2.64-.19,5.19-.94,7.6-2.16,1.25-.63,2.47-1.39,3.65-2.28,3.96-2.97,7.46-7.29,10.24-12.59,4.33-8.24,6.94-18.86,6.94-30.45,0-.14,0-.28-.01-.42Zm-47.54,1.55c0-13.69,6.31-25.03,14.55-27.06h0c.87-.23,1.76-.34,2.66-.34,9.5,0,17.21,12.27,17.21,27.4s-7.71,27.39-17.21,27.39c-1.58,0-3.12-.34-4.59-.98h0c-7.27-3.2-12.62-13.81-12.62-26.41Z"/>
        <ellipse class="cls-20" cx="692.66" cy="931.84" rx="18" ry="28.5"/>
        <path class="cls-22" d="m701.13,923.35c1.39,2.33,2.26,5.52,2.26,9.04,0,3.29-.76,6.29-2,8.57h0c-1.45,2.69-3.59,4.38-5.97,4.38-2.03,0-3.9-1.25-5.31-3.29h0c-1.63-2.38-2.66-5.83-2.66-9.66,0-7.15,3.57-12.95,7.97-12.95,2.23,0,4.25,1.49,5.71,3.91h0Z"/>
        <g>
          <path class="cls-41" d="m1089.6,964h5.48s15.19-74.38,42.55-63.38,27.85,24.31,27.85,24.31l-6.41-42.83-32.59-4.4-33.46,9.46-15.66,55.68,7.94,18.12c.82,1.86,2.47,3.04,4.27,3.04Z"/>
          <g>
            <path class="cls-46" d="m1140.99,1006.92l.23.02c.51.04,1.02.07,1.52.07s1.02-.02,1.51-.06c4.16-.32,8.1-1.94,11.68-4.62,4.12-3.08,7.75-7.57,10.63-13.07,1.29-2.45,2.43-5.1,3.38-7.93,2.43-7.03,3.82-15.11,3.82-23.69,0-13.52-3.41-25.76-8.95-34.67-3.26-5.27-7.28-9.38-11.76-11.89-3.22-1.81-6.69-2.79-10.3-2.79h0c-.53,0-1.05.02-1.58.07l-17.9-.98,24.89,48.08-26.99,47.76-.83,2.84,20.66.86Z"/>
            <path class="cls-17" d="m1144.33,922.03c-1.26-2.03-2.64-3.9-4.1-5.57-2.33-2.64-4.91-4.78-7.66-6.32-2.78-1.57-5.78-2.53-8.87-2.75h-.07c-.13-.01-.26-.02-.38-.02-.33-.02-.65-.03-.98-.03h-.01c-1.57,0-3.1.18-4.61.54-2.02.48-3.98,1.27-5.85,2.34-11.99,6.83-20.57,25.07-20.57,46.48,0,2.48.11,4.92.34,7.3,2.12,22.82,14.07,40.55,28.78,41.97.63.06,1.27.09,1.91.09.51,0,1.01-.02,1.51-.06,2.74-.2,5.39-.97,7.89-2.24,1.3-.66,2.57-1.45,3.79-2.37,4.12-3.09,7.74-7.57,10.63-13.07,4.49-8.56,7.2-19.58,7.2-31.62,0-13.52-3.41-25.76-8.95-34.67Zm-40.4,35.85c0-14.22,6.54-25.99,15.09-28.09h0c.91-.24,1.83-.35,2.77-.35,9.86,0,17.86,12.73,17.86,28.44s-8,28.44-17.86,28.44c-1.65,0-3.25-.36-4.77-1.03h0c-7.55-3.32-13.09-14.34-13.09-27.41Z"/>
            <ellipse class="cls-20" cx="1121.67" cy="957.54" rx="18.69" ry="29.59"/>
            <path class="cls-22" d="m1130.47,948.72c1.45,2.42,2.35,5.73,2.35,9.38,0,3.41-.79,6.53-2.08,8.9h0c-1.51,2.79-3.72,4.55-6.2,4.55-2.11,0-4.04-1.29-5.51-3.41h0c-1.7-2.47-2.76-6.05-2.76-10.03,0-7.43,3.7-13.45,8.28-13.45,2.32,0,4.42,1.55,5.93,4.05h0Z"/>
          </g>
          <g>
            <path class="cls-46" d="m1292.34,996.23l.23.02c.51.04,1.02.07,1.52.07s1.02-.02,1.51-.06c4.16-.32,8.1-1.94,11.68-4.62,4.12-3.08,7.75-7.57,10.63-13.07,1.29-2.45,2.43-5.1,3.38-7.93,2.43-7.03,3.82-15.11,3.82-23.69,0-13.52-3.41-25.76-8.95-34.67-3.26-5.27-7.28-9.38-11.76-11.89-3.22-1.81-6.69-2.79-10.3-2.79h0c-.53,0-1.05.02-1.58.07l-17.9-.98,24.89,48.08-26.99,47.76-.83,2.84,20.66.86Z"/>
            <path class="cls-17" d="m1304.63,945.26c-.04-4.42-.45-8.7-1.17-12.76-.43-2.4-.97-4.71-1.61-6.94-.7-2.47-1.54-4.83-2.48-7.06-.65-1.56-1.37-3.05-2.14-4.47-.49-.92-1-1.82-1.54-2.68-3.26-5.28-7.28-9.39-11.76-11.9-2.83-1.57-5.84-2.53-8.96-2.74-.12,0-.24-.02-.36-.02-.33-.02-.66-.03-.99-.03h-.01c-6.66,0-12.84,3.34-17.89,9.03-1.66,1.86-3.2,3.98-4.59,6.32-.1.15-.19.3-.28.46-.52.9-1.03,1.83-1.51,2.8-2.24,4.47-4,9.57-5.16,15.11-.28,1.35-.53,2.72-.74,4.12-.56,3.7-.85,7.55-.85,11.52s.3,7.96.87,11.71c.03.11.04.22.06.33.58,3.71,1.43,7.25,2.51,10.57.02.07.04.13.07.2,1.21,3.72,2.72,7.16,4.48,10.25,5.27,9.31,12.75,15.4,21.13,16.21.63.06,1.26.09,1.9.09.51,0,1.02-.02,1.52-.06,2.73-.21,5.38-.98,7.88-2.25,1.3-.65,2.57-1.44,3.79-2.37,3.39-2.54,6.45-6.02,9.04-10.25.55-.89,1.08-1.83,1.59-2.79,0-.01.01-.01.01-.02,1.76-3.36,3.25-7.1,4.4-11.14,0-.05.03-.09.04-.14.68-2.37,1.24-4.84,1.68-7.4.3-1.78.55-3.59.72-5.45.24-2.44.36-4.95.36-7.49,0-.25,0-.51-.01-.76Zm-43.65,22.75c-1.47-2.16-2.7-4.71-3.64-7.54h0c-.31-.96-.6-1.94-.85-2.95-.78-3.2-1.21-6.69-1.21-10.33,0-1.75.1-3.47.29-5.13.36-3.12,1.04-6.07,1.98-8.74,1.2-3.42,2.83-6.41,4.79-8.77,2.3-2.79,5.05-4.71,8.04-5.45h0c.9-.23,1.82-.34,2.76-.34,4.27,0,8.19,2.38,11.25,6.35,1.61,2.07,2.98,4.57,4.05,7.39,1.51,3.97,2.43,8.57,2.55,13.49.01.4.02.8.02,1.2,0,2.68-.23,5.28-.67,7.74-.31,1.76-.73,3.45-1.24,5.05-.82,2.6-1.89,4.96-3.15,7.02-.04.06-.07.12-.11.17-3.23,5.22-7.73,8.46-12.7,8.46-1.64,0-3.24-.35-4.76-1.02h0c-2.75-1.21-5.22-3.43-7.27-6.41-.04-.06-.09-.13-.13-.19Z"/>
            <ellipse class="cls-23" cx="1273.03" cy="946.85" rx="18.69" ry="29.59"/>
            <path class="cls-22" d="m1281.82,938.04c1.45,2.42,2.35,5.73,2.35,9.38,0,3.41-.79,6.53-2.08,8.9h0c-1.51,2.79-3.72,4.55-6.2,4.55-2.11,0-4.04-1.29-5.51-3.41h0c-1.7-2.47-2.76-6.05-2.76-10.03,0-7.43,3.7-13.45,8.28-13.45,2.32,0,4.42,1.55,5.93,4.05h0Z"/>
          </g>
          <path class="cls-44" d="m1101.5,787.67s-1.78,8.72-3.67,18.85h0c-.08.45-.16.89-.24,1.33-1.19,6.39-2.38,13.2-3.19,18.66-.75,5.1-1.16,9.01-.9,10.31.06.28.1.62.14,1.01.52,5.43-.88,20.49-4.71,29.64-.72,1.73-1.53,3.25-2.43,4.45l-1.37,5.97-4.52,19.62-.11.49h-81.07s-.05-.07-.13-.2c-.01-.01-.02-.02-.02-.03-.69-1.03-3.5-5.4-5.95-11.04-.46-1.06-.91-2.17-1.33-3.31-.52-1.42-1-2.89-1.4-4.38-.54-2.02-.93-4.08-1.1-6.11-.34-4.11-.22-22.13.1-44.08.02-1.61.05-3.24.07-4.88.48-31.88,1.29-70.21,1.65-86.51.11-5.03.18-7.96.18-7.96h87.93l3.38,8.9.14.37,18.55,48.9Z"/>
          <path class="cls-26" d="m1232.96,729.5l-86.16-1.49-45.3-.78-110-1.73s2-15,5-21,13-15,20-14l17.86.48,111.73,3,19.41.52s42.91,3,67.46,35Z"/>
          <path class="cls-44" d="m1101.5,727.23l-110-1.73s2-15,5-21,13-15,20-14l17.86.48c20.35,6.81,62.6,22.45,67.14,36.25Z"/>
          <polygon class="cls-44" points="1232.96 729.5 1240.21 741.03 991.32 737.46 991.5 725.5 1232.96 729.5"/>
          <path class="cls-31" d="m1272.5,799.5c.38.38-20.15-.25-45.81-1.17-42.16-1.51-98.19-3.83-98.19-3.83,0,0-21,2-20-11l-17-47s2-5,7-5l134.46,3.22s7.54,4.78,8.54,8.78,30,55,31,56Z"/>
          <path class="cls-30" d="m1026.5,785.5v-40.56s.66-7.25,9.33-6.84l34.41.49s6.26-.09,9.26,8.91,13.54,38,13.54,38v16.29s-56.54-5.29-59.54-6.29-7-3-7-10Z"/>
          <path class="cls-41" d="m1086.5,815.5s1.85-14.43-7.07-13.71c0,0-.93-23.29-2.93-28.29s-21.5-3.57-21.5-3.57l-1.5,39.57s13.74,11,31.37,6h1.63Z"/>
          <path class="cls-54" d="m1349.5,964.5s-156,6-164,7c-2.89.36-5,.07-6.51-.45-2.67-.92-3.49-2.55-3.49-2.55-7-4-17-53-17-53-.36-1.04-.86-2.41-1.49-4-.53-1.34-1.45-3.67-2.77-6.41-.93-1.94-2.31-4.76-4.53-8.2-1.58-2.45-3.2-4.55-4.84-6.33-.4-.44-.81-.86-1.22-1.27-21.86-21.56-47.15,10.21-47.15,10.21l-16-2,17.29-90.95,20.39-12.66s148.32,8.61,154.32,5.61,52,29,57.14,33.19c5.14,4.2,9.58,19.22,9.58,19.22,0,0,2.28,11.59,13.28,21.59s11.52,53.22,11.52,53.22c3.52,21.23-14.52,37.78-14.52,37.78Z"/>
          <path class="cls-25" d="m1118.18,793.89v36.5s94.32,21.12,119.32,41.12c0,0-6-29-3-32s-116.32-45.61-116.32-45.61Z"/>
          <path class="cls-26" d="m1329.64,832.69s-49.14-37.19-57.14-33.19l-154.32-5.61s113.32,41.61,116.32,45.61c0,0,4.51-8.61,12.76-6.81h82.38Z"/>
          <path class="cls-5" d="m1242.5,890.5l6,23s5,12,12,11l78,2s5-5,5-9-2-56-2-56c0,0-5.72-28.61-11.86-28.81s-82.38,0-82.38,0c0,0-11.76-.19-12.76,6.81s3,32,3,32l5,19Z"/>
          <path class="cls-1" d="m1251.5,841.5h67.93s15.07,1,13.07,12c0,0,5,56,3,60s-7,5-9,5h-60.18s-10.82-6-10.82-15l-11-50s-3-14,7-12Z"/>
          <polygon class="cls-28" points="1029.38 832.69 1039.6 832.69 1039.6 856.6 1029.38 855.23 1029.38 832.69"/>
          <path class="cls-31" d="m1006.02,959.47l83.97,3.93s-11.55-44.49,5.01-65.02l-95.26-1.39s-24.75,42.32,6.28,62.47Z"/>
          <path class="cls-40" d="m1231.85,904.5s-22.47,3.29-41.57-.57l-8.96-30.37c9.09.51,21.75,2.7,37,9.21,0,0,11.88,9.73,13.53,21.73Z"/>
          <path class="cls-42" d="m1190.28,903.93c-1.97-.39-3.91-.87-5.78-1.43-20-6-19-28-19-28,0,0,5.71-1.51,15.82-.94l8.96,30.37Z"/>
          <path class="cls-40" d="m1346.47,878.34c.02-.51.34-.97.81-1.16,1.79-.72,6.79-1.9,7.71-1.18,1.13.88,8.11,19.55,7.71,28.74-.03.62-.48,1.12-1.09,1.22l-14.57,2.29c-.8.13-1.52-.51-1.49-1.32l.92-28.6Z"/>
          <path class="cls-47" d="m1258.5,932.5h80.84s6.1,8.96-3.37,10.48-76.07,4.52-75.27,4.52-12.2-7-2.2-15Z"/>
          <path class="cls-14" d="m1154.24,905.09s31.87,26.91,42.81,45.91,170.58-5.66,170.58-5.66c0,0-22.54,31.54-22.09,31.1s-167.71,4.93-167.71,4.93l-23.6-44.67-.74-25.2c33.33.33,66.67.67,100,1"/>
          <line class="cls-14" x1="1340.11" y1="912" x2="1363.03" y2="909.79"/>
          <path class="cls-14" d="m1198.67,930.1l56.03.36-2.43,4.05h-53.61s-3.83-.81,0-4.4Z"/>
          <path class="cls-14" d="m1343.5,930.45l19.22-2.28s1.22,1.93,0,4.13-19.22,2.2-19.22,2.2v-4.05Z"/>
          <path class="cls-41" d="m1254.7,768.51s9.81-12.15,17.8,1.42v29.57s-17.8-30.99-17.8-30.99Z"/>
          <polygon class="cls-44" points="1075.47 739.08 1092.57 737.5 1119 795 1091.5 811.5 1090.5 778.5 1075.47 739.08"/>
          <path class="cls-44" d="m1075.62,962.91l.02.09-73.17-3.75c-4.27-3.04-7.33-6.61-9.46-10.46-11.31-20.51,3.98-49.13,3.98-49.13l83.01,1.32c-9.2,12.49-8.44,34.27-6.68,48.41v.07c.93,7.4,2.12,12.69,2.3,13.45Z"/>
          <path class="cls-50" d="m988.8,879.08s115.99-2.72,122.93-.01,4.27,3.97,4.27,3.97l-18.27,17.96-101.15,1.41-7.78-23.33Z"/>
          <path class="cls-50" d="m1075.64,963l-73.17-3.75c-4.27-3.04-7.33-6.61-9.46-10.46l80.31.6v.07s2.3,13.45,2.3,13.45l.02.09Z"/>
          <path class="cls-34" d="m1240.21,798.33h-13.52c-42.16-1.51-98.19-3.83-98.19-3.83,0,0-21,2-20-11l-17-47s35.13,38.99,41.32,45.25c6.18,6.25,107.39,16.58,107.39,16.58Z"/>
        </g>
        <polygon class="cls-11" points="1019.89 739.02 1019.89 873.09 1075.47 873.56 1098.72 801.8 1097.23 781.51 1075.47 731.5 1019.89 731.5 1019.89 739.02"/>
        <path class="cls-3" d="m1217.48,864.05c-1.01-.25-30.34-7.45-68.16-15.39-17.4-3.66-36.61-7.47-55.68-10.83-.58-.1-1.16-.2-1.74-.3-41.87-7.31-82.8-12.35-102.3-8.68.02-1.61.05-3.24.07-4.88,4.49-.44,49.25-4.49,104.33,2.49.13.02.27.04.4.05,7.75,1,15.71,2.21,23.78,3.68,10.16,1.85,20.52,4.11,30.89,6.88,10.6,2.8,21.22,6.13,31.68,10.07h.01c12.57,4.71,24.9,10.3,36.72,16.91Z"/>
        <path class="cls-43" d="m1159.65,920.85s69.56,39.88,103.96,40.02,94.62-7.53,94.62-7.53l-8.72,11.17-168.27,7.05s-6.83-2.55-9.03-7.55-12.56-43.15-12.56-43.15Z"/>
        <path class="cls-9" d="m894.41,879.99c-6.54-.16-13.42-.31-20.55-.48"/>
        <text class="cls-36" transform="translate(716.83 798.79) rotate(-1.7) scale(.72 1)"><tspan class="cls-38" x="0" y="0">A</tspan><tspan class="cls-52" x="51.1" y="0">m</tspan><tspan class="cls-48" x="121.08" y="0">p</tspan><tspan class="cls-37" x="168.24" y="0">w</tspan><tspan class="cls-35" x="229.66" y="0">a</tspan><tspan class="cls-52" x="269.44" y="0">y</tspan></text>
        <path class="cls-29" d="m661.32,827.14l7.68-44.5h-23.29c-1.95,0-3.18-2.4-2.22-4.34l33.62-68.14c1.42-2.88,5.29-1.26,4.73,1.99l-7.68,44.5h23.29c1.95,0,3.18,2.4,2.22,4.34l-33.62,68.14c-1.42,2.88-5.29,1.26-4.73-1.99Z"/>
      </g>
    </g>
    <rect class="cls-14" width="1920" height="1080"/>
  </g>
</svg>