<svg width="1920" height="1450" viewBox="0 0 1920 1450" fill="none" xmlns="http://www.w3.org/2000/svg">
<g clip-path="url(#clip0_11_54)">
<path d="M1918.87 1250.16H3.3783V1325.95C3.3783 1325.95 204.947 1371.5 337.83 1373.64C487.597 1376.04 566.401 1326.63 716.199 1325.95C803.154 1325.55 851.101 1341.68 938.041 1340.43C1009.22 1339.4 1048.16 1326.94 1119.34 1325.95C1269.12 1323.87 1348.35 1382.32 1497.71 1373.64C1600.23 1367.68 1650.72 1321.06 1753.34 1325.95C1820.09 1329.13 1918.87 1359.16 1918.87 1359.16V1250.16Z" fill="url(#paint0_linear_11_54)" fill-opacity="0.83"/>
<g filter="url(#filter0_d_11_54)">
<path d="M1920 1165.01V1302.96C1920 1302.96 1851.58 1268.34 1801.76 1257.83C1686.04 1233.4 1619.93 1298.03 1499.96 1302.96C1349.53 1309.13 1267.64 1262.79 1117.09 1267.19C1038.28 1269.5 995.501 1287.21 916.645 1285.93C833.157 1284.56 789.554 1259.15 706.065 1257.83C611.297 1256.32 560.962 1287.77 466.205 1285.93C384.889 1284.35 342.598 1258.01 261.255 1257.83C156.601 1257.58 0 1302.96 0 1302.96V1165.01C0 1165.01 197.539 1162.94 326.569 1165.01C476.053 1167.4 749.127 1163.29 898.628 1165.01H1272.49C1392.23 1160.27 1536.59 1164.9 1656.49 1165.01C1777.71 1165.12 1920 1165.01 1920 1165.01Z" fill="url(#paint1_linear_11_54)"/>
</g>
<path d="M1917.75 1079H0V1170.97C0 1170.97 195.941 1236.54 358.1 1236.54C520.258 1236.54 605.842 1199.92 727.46 1199.92C849.079 1199.92 1023.62 1256.12 1164.39 1220.36C1305.15 1184.59 1472.94 1220.36 1593.43 1220.36C1713.92 1220.36 1700.41 1190.55 1917.75 1199.92V1079Z" fill="url(#paint2_linear_11_54)"/>
<path d="M1590.5 1119L1615.5 709L1627.5 710.5L1632.5 1119H1590.5Z" fill="#D1F0F2"/>
<path d="M1609.5 704.5V703.5V704.5ZM1609.5 703.5C1592.23 711.45 1583 720 1565 725C1547 730 1444 730 1444 730C1475.5 718.59 1493.22 713.32 1525 706.5L1607 692C1607.5 697.5 1607 695 1609.5 703.5Z" fill="#D5EEF2"/>
<path d="M1623 710.5C1631.56 710.5 1638.5 703.56 1638.5 695C1638.5 686.44 1631.56 679.5 1623 679.5C1614.44 679.5 1607.5 686.44 1607.5 695C1607.5 703.56 1614.44 710.5 1623 710.5Z" fill="#D0EFF1"/>
<path d="M1626 631C1620.88 649.36 1620.5 679.5 1620.5 679.5C1625.17 679.27 1628.1 679.97 1634 683C1634 683 1683 531 1680.5 527.5C1678 524 1638 588 1626 631Z" fill="#D5EEF2"/>
<path d="M1643 737C1641.5 735.5 1628.5 710 1628.5 710L1636 704C1636 704 1665 725.5 1668.5 729C1672 732.5 1749.5 855 1733 840C1721.35 829.41 1704.5 811.5 1704.5 811.5C1704.5 811.5 1644.5 738.5 1643 737Z" fill="#D5EEF2"/>
<path d="M1623 701.5C1626.59 701.5 1629.5 698.59 1629.5 695C1629.5 691.41 1626.59 688.5 1623 688.5C1619.41 688.5 1616.5 691.41 1616.5 695C1616.5 698.59 1619.41 701.5 1623 701.5Z" fill="#DDF4EC"/>
<path d="M314.4 1119.51L319.4 711.01L331.4 709.51L356.4 1119.51H314.4Z" fill="#D1F0F2"/>
<path d="M337.4 704.01V705.01V704.01ZM339.9 692.51L421.9 707.01C453.68 713.83 471.4 719.1 502.9 730.51C502.9 730.51 399.9 730.51 381.9 725.51C363.9 720.51 354.67 711.96 337.4 704.01C339.9 695.51 339.4 698.01 339.9 692.51Z" fill="#D5EEF2"/>
<path d="M323.9 711.01C332.46 711.01 339.4 704.07 339.4 695.51C339.4 686.95 332.46 680.01 323.9 680.01C315.34 680.01 308.4 686.95 308.4 695.51C308.4 704.07 315.34 711.01 323.9 711.01Z" fill="#D0EFF1"/>
<path d="M266.4 528.01C263.9 531.51 312.9 683.51 312.9 683.51C318.8 680.48 321.73 679.78 326.4 680.01C326.4 680.01 326.02 649.87 320.9 631.51C308.9 588.51 268.9 524.51 266.4 528.01Z" fill="#D5EEF2"/>
<path d="M242.4 812.01C242.4 812.01 225.55 829.92 213.9 840.51C197.4 855.51 274.9 733.01 278.4 729.51C281.9 726.01 310.9 704.51 310.9 704.51L318.4 710.51C318.4 710.51 305.4 736.01 303.9 737.51C302.4 739.01 242.4 812.01 242.4 812.01Z" fill="#D5EEF2"/>
<path d="M323.9 702.01C327.49 702.01 330.4 699.1 330.4 695.51C330.4 691.92 327.49 689.01 323.9 689.01C320.31 689.01 317.4 691.92 317.4 695.51C317.4 699.1 320.31 702.01 323.9 702.01Z" fill="#DDF4EC"/>
<path d="M823.65 978.56L814.36 1016.29L1106.08 1015.2L1098.19 977.86L823.65 978.56Z" fill="#FFBB34"/>
<path d="M827.31 960.68C828.97 919.05 810.65 895.44 790.5 858H1128C1133 858 1093.25 902.5 1093.25 955.25M827.31 960.68C827.24 962.42 827.14 964.2 827 966L827.31 960.68ZM827.31 960.68C824.55 977.11 821.42 993.68 817 1008L827.31 960.68ZM827.31 960.68C834.42 918.4 838.63 879.5 857 879.5H1063C1078 879.5 1080 896 1082.5 902.5C1085 909 1093.25 955.25 1093.25 955.25M1104 1008L1093.25 955.25L1104 1008Z" fill="#DD8A08"/>
<path d="M1098 979C1098 979 1068 1004.5 1065.5 1008.5C1063 1012.5 1055.5 1085 1055.5 1085H870C870 1085 864 1017.5 856.5 1008.5C849 999.5 824.5 979 824.5 979C830.15 942.09 833.37 922.16 840 898.5C845.19 882.18 851.19 879.75 864 880H1061.5C1072.86 880.05 1076.72 885.16 1081.5 898.5L1098 979Z" fill="#FFAC20"/>
<path d="M1063.5 1165.93C1049.36 1168.91 1045.85 1161.3 1045 1136.39H1070.5L1063.5 1165.93Z" fill="#0E2E3B"/>
<path d="M1117.84 1179.31C1117.41 1186.99 1111.06 1193 1103.37 1193H1079.92C1072.82 1193 1066.77 1187.87 1065.61 1180.87L1061.9 1158.46C1060.33 1149.01 1066.66 1140.06 1076.09 1138.37L1104.93 1133.23C1112.63 1131.85 1118.64 1125.78 1119.93 1118.05L1121.98 1105.66L1117.84 1179.31Z" fill="#0E2E3B"/>
<path d="M876.91 1136.38L874.34 1158.54C873.78 1163.33 869.77 1166.88 865.09 1166.73L857.9 1166.49L859.44 1136.38H876.91Z" fill="#0E2E3B"/>
<path d="M860.97 1124L858.28 1177.78C857.85 1186.38 850.88 1193.21 842.27 1193.45L823.59 1193.98C813.52 1194.26 805.08 1186.45 804.59 1176.39L802.02 1124H860.97Z" fill="#0E2E3B"/>
<path d="M1025.15 906.74C1034.11 906.71 1041.75 906.71 1047.44 906.76C1053.15 906.8 1056.85 906.88 1057.94 907C1062.27 907.48 1064.38 909.62 1065.43 911.61C1065.97 912.62 1066.23 913.6 1066.37 914.32C1066.43 914.68 1066.47 914.98 1066.48 915.19C1066.49 915.29 1066.5 915.37 1066.5 915.43V915.6H1066.51V915.62C1066.51 915.62 1066.52 915.66 1066.53 915.69C1066.54 915.76 1066.56 915.85 1066.59 915.98C1066.64 916.23 1066.72 916.61 1066.81 917.09C1067 918.05 1067.27 919.44 1067.6 921.15C1068.26 924.56 1069.13 929.21 1070.01 934.2C1071.76 944.21 1073.5 955.54 1073.5 960.99C1073.5 963.73 1073.31 965.58 1072.98 966.84C1072.66 968.09 1072.21 968.69 1071.73 969.01C1071.23 969.33 1070.61 969.41 1069.78 969.42C1068.98 969.42 1067.98 969.36 1066.94 969.49H1066.93H1066.91C1066.91 969.49 1066.88 969.49 1066.86 969.49C1066.82 969.49 1066.77 969.49 1066.7 969.5C1066.56 969.5 1066.38 969.51 1066.15 969.52C1065.69 969.53 1065.04 969.55 1064.23 969.56C1062.6 969.58 1060.29 969.61 1057.4 969.62C1051.63 969.65 1043.54 969.67 1033.88 969.69C1014.56 969.71 988.98 969.69 963.2 969.67C911.64 969.61 859.26 969.48 854.51 969.48C852.18 969.48 850.61 969.14 849.55 968.62C848.52 968.11 847.96 967.41 847.66 966.62C847.35 965.81 847.3 964.88 847.34 963.89C847.36 963.4 847.4 962.91 847.44 962.42C847.48 961.93 847.51 961.45 847.51 960.99C847.51 960.59 847.61 959.6 847.81 958.12C848 956.66 848.27 954.75 848.6 952.56C849.26 948.18 850.13 942.67 851 937.26C851.88 931.85 852.75 926.56 853.41 922.61C853.74 920.64 854.01 919 854.2 917.86C854.3 917.29 854.37 916.84 854.42 916.54C854.45 916.39 854.47 916.27 854.48 916.19C854.48 916.15 854.49 916.12 854.49 916.1C854.49 916.09 854.49 916.08 854.49 916.08V916.04V915.99C854.49 915.99 854.49 915.96 854.49 915.94C854.49 915.89 854.49 915.82 854.51 915.72C854.53 915.53 854.56 915.25 854.63 914.92C854.77 914.25 855.05 913.35 855.6 912.45C856.7 910.66 858.92 908.74 863.51 908.5C868.25 908.25 914.61 907.63 960.93 907.19C984.09 906.97 1007.23 906.8 1025.14 906.74H1025.15Z" stroke="black"/>
<path d="M792 834.5H1128C1128.83 834.5 1129.5 835.17 1129.5 836V856C1129.5 856.83 1128.83 857.5 1128 857.5H792C791.17 857.5 790.5 856.83 790.5 856V836C790.5 835.17 791.17 834.5 792 834.5Z" fill="#FFAC20"/>
<path d="M1074 976.5H849.5C846.05 976.5 843.63 975.72 842.23 974.22C840.84 972.74 840.33 970.43 840.99 967.1V967.08V967.06L840.5 966.99C840.827 967.037 840.99 967.06 840.99 967.06C840.99 967.06 840.99 967.04 840.99 967.03C840.99 967.01 840.99 966.97 841.01 966.92C841.02 966.82 841.04 966.68 841.07 966.49C841.12 966.11 841.2 965.56 841.3 964.84C841.5 963.42 841.78 961.38 842.12 958.9C842.81 953.96 843.74 947.29 844.74 940.38C846.74 926.55 848.99 911.84 849.98 908.13C850.95 904.49 852.62 902.76 854.52 901.89C856.47 901 858.73 901 861 901C863.27 901 913.38 900.88 962.94 900.75C987.72 900.69 1012.36 900.63 1030.81 900.58C1040.03 900.56 1047.7 900.54 1053.07 900.52C1055.75 900.52 1057.86 900.51 1059.3 900.5C1060.02 900.5 1060.57 900.5 1060.94 900.5C1061.12 900.5 1061.27 900.5 1061.36 900.5H1061.5C1065.07 900.5 1067.81 902.16 1069.79 904.74C1071.79 907.34 1073.01 910.87 1073.5 914.56C1074.5 922.06 1078.5 957.04 1079 967.02C1079.25 971.92 1077.9 974.25 1076.61 975.37C1075.96 975.94 1075.29 976.22 1074.79 976.36C1074.55 976.43 1074.34 976.47 1074.2 976.48C1074.13 976.48 1074.07 976.49 1074.04 976.49C1074.02 976.49 1074.01 976.49 1074 976.49V976.5Z" fill="#1B3647"/>
<path d="M870 1085H809C803.2 1085 798.5 1080.3 798.5 1074.5V1030C798.5 1018.13 808.13 1008.5 820 1008.5H856.5C864 1017.5 870 1085 870 1085Z" fill="#FFAC20"/>
<path d="M1124.5 1031V1072.5C1124.5 1079.4 1118.9 1085 1112 1085H1055.5C1055.5 1085 1063 1012.5 1065.5 1008.5H1102C1114.43 1008.5 1124.5 1018.57 1124.5 1031Z" fill="#FFAC20"/>
<path d="M1065.5 1008.5C1063 1012.5 1055.5 1085 1055.5 1085H870C870 1085 864 1017.5 856.5 1008.5H1065.5Z" fill="#F59000"/>
<path d="M882.16 1026.5H1042.73C1044.11 1026.5 1045.2 1027.6 1045.23 1028.94V1029.21L1042.28 1063.8C1041.86 1068.72 1037.75 1072.49 1032.81 1072.49H890.98C885.93 1072.49 881.76 1068.54 881.49 1063.5L879.66 1029.13C879.58 1027.7 880.72 1026.5 882.16 1026.5Z" fill="#102A37"/>
<path d="M813 1037.5H850.54C853.38 1037.5 855.75 1039.66 856.02 1042.48L857.88 1061.98C858.19 1065.21 855.65 1068 852.4 1068H813C811.07 1068 809.5 1066.43 809.5 1064.5V1041C809.5 1039.07 811.07 1037.5 813 1037.5Z" fill="#FAE9BE"/>
<path d="M1071 1037.5H1108.54C1111.38 1037.5 1113.75 1039.66 1114.02 1042.48L1115.88 1061.98C1116.18 1065.21 1113.64 1068 1110.4 1068H1071C1069.07 1068 1067.5 1066.43 1067.5 1064.5V1041C1067.5 1039.07 1069.07 1037.5 1071 1037.5Z" fill="#FAE9BE"/>
<path d="M1057.58 906.07C1061.65 906.03 1065.18 908.89 1065.99 912.88L1071 937.58L1073.4 963.5C1073.7 966.72 1071.16 969.51 1067.92 969.51H852.48C849.22 969.51 846.7 966.7 847.01 963.49L847.05 963.18L854.35 915.15C854.98 911.03 858.5 907.97 862.67 907.93L1057.58 906.07Z" fill="#0A505C"/>
<path d="M1043.47 1048.5L1043.16 1054.14C1043.08 1055.46 1041.99 1056.5 1040.66 1056.5H883.71C882.43 1056.5 881.35 1055.53 881.22 1054.25L880.54 1047.5L1043.46 1048.49L1043.47 1048.5Z" fill="#1F444D"/>
<path d="M802.65 1084.99H1118.14C1122.06 1084.99 1125.06 1088.42 1124.59 1092.26L1124.54 1092.63L1118.52 1126.33C1117.11 1134.23 1110.22 1139.97 1102.2 1139.93L822.8 1138.59C812.22 1138.54 803.25 1130.8 801.35 1120.38C799.66 1111.08 797.9 1102.05 796.29 1092.46C795.63 1088.54 798.67 1084.99 802.65 1084.99Z" fill="#0E2A36"/>
<path d="M1052.06 1088.5H1121.55C1123.02 1088.5 1124.16 1089.76 1124.04 1091.21V1091.35L1119.59 1123.02C1118.15 1133.28 1109.28 1140.85 1098.92 1140.67L1045.94 1139.73C1039.72 1139.62 1035.29 1133.67 1036.96 1127.68L1046.76 1092.52C1047.42 1090.14 1049.59 1088.5 1052.06 1088.5Z" fill="#254751"/>
<path d="M869.08 1088.5H798.62C797.1 1088.5 795.94 1089.84 796.14 1091.32L796.16 1091.46L801.81 1121.22C803.61 1130.72 811.81 1137.67 821.48 1137.89L877.07 1139.17C883.7 1139.32 888.44 1132.8 886.26 1126.54L874.26 1092.19C873.49 1089.98 871.41 1088.5 869.07 1088.5H869.08Z" fill="#254751"/>
<path d="M1061.47 1103.5H1103.44C1104.41 1103.5 1105.13 1104.42 1104.89 1105.36L1101.53 1118.81C1100.7 1122.15 1097.7 1124.49 1094.25 1124.49H1056.08C1053.57 1124.49 1051.87 1121.91 1052.87 1119.6L1059.18 1105C1059.57 1104.08 1060.48 1103.49 1061.47 1103.49V1103.5Z" fill="#173744"/>
<path d="M859.53 1103.5H817.57C816.59 1103.5 815.88 1104.42 816.11 1105.36L819.47 1118.81C820.3 1122.15 823.31 1124.49 826.75 1124.49H864.92C867.44 1124.49 869.13 1121.91 868.13 1119.6L861.82 1105C861.42 1104.08 860.52 1103.49 859.52 1103.49L859.53 1103.5Z" fill="#173744"/>
<path d="M1047.83 1089.5L1039.12 1119.5H883.85L872.72 1089.5H1047.83Z" fill="#1C3C47"/>
<path d="M811.14 926.12C816.15 925.61 820.5 929.54 820.5 934.58V965.87C820.5 970.28 816.72 973.74 812.33 973.34L804.83 972.66C800.97 972.31 798 969.07 798 965.19V934.23C798 930.38 800.91 927.16 804.74 926.77L811.14 926.12Z" fill="#10303B"/>
<path d="M1115.45 926.12C1120.35 925.8 1124.5 929.69 1124.5 934.6V964.29C1124.5 968.19 1121.51 971.42 1117.66 971.76L1117.29 971.78L1110.29 972.05C1106.04 972.21 1102.5 968.81 1102.5 964.56V933.99C1102.5 930.16 1105.38 926.97 1109.14 926.54L1109.51 926.51L1115.45 926.12Z" fill="#10303B"/>
<path d="M805.23 973.29C805.62 973.27 806.16 973.29 806.72 973.31C807.27 973.34 807.83 973.39 808.25 973.42C808.35 973.42 808.44 973.44 808.52 973.45C808.52 973.52 808.53 973.61 808.54 973.69C808.59 974.1 808.68 974.67 808.87 975.27C809.24 976.46 810.02 977.89 811.65 978.47C812.43 978.75 813.64 978.87 814.94 978.92C816.26 978.97 817.75 978.94 819.14 978.87C820.54 978.81 821.84 978.71 822.8 978.63C823.13 978.6 823.41 978.58 823.65 978.56L822.74 982.02C822.74 982.02 822.74 982.02 822.73 982.02C822.49 982.03 822.14 982.05 821.72 982.07C820.87 982.11 819.71 982.16 818.47 982.19C815.96 982.25 813.19 982.25 811.91 982.01C810.58 981.76 809.68 981.52 809 981.18C808.34 980.85 807.87 980.41 807.41 979.73C806.95 979.05 806.35 977.49 805.84 975.97C805.59 975.23 805.38 974.52 805.22 973.96C805.15 973.7 805.09 973.48 805.05 973.3C805.1 973.3 805.15 973.29 805.22 973.29H805.23Z" fill="#10303B"/>
<path d="M1114.12 973.29C1113.63 973.27 1112.96 973.29 1112.27 973.31C1111.59 973.34 1110.91 973.39 1110.4 973.43C1110.28 973.43 1110.18 973.45 1110.08 973.46C1110.12 973.82 1110.13 974.3 1110.05 974.82C1109.88 975.88 1109.3 977.12 1107.67 977.7C1106.89 977.98 1105.82 978.1 1104.69 978.15C1103.55 978.2 1102.31 978.17 1101.17 978.1C1100.02 978.04 1098.96 977.94 1098.19 977.86C1098 977.84 1097.83 977.82 1097.67 977.8L1098.58 981.24H1098.59C1098.83 981.25 1099.18 981.27 1099.6 981.29C1100.45 981.33 1101.61 981.37 1102.85 981.41C1105.36 981.47 1108.13 981.47 1109.41 981.23C1110.77 980.98 1111.43 980.81 1111.88 980.55C1112.31 980.31 1112.58 979.97 1113.08 979.22C1113.29 978.91 1113.49 978.41 1113.68 977.78C1113.86 977.16 1114.01 976.46 1114.13 975.78C1114.32 974.74 1114.43 973.8 1114.48 973.31C1114.38 973.3 1114.26 973.29 1114.12 973.28V973.29Z" fill="#10303B"/>
<path d="M806.81 926.21C807.25 926.23 807.86 926.21 808.48 926.19C809.1 926.16 809.72 926.11 810.18 926.07C810.29 926.07 810.39 926.05 810.47 926.04C810.47 925.95 810.47 925.85 810.47 925.74C810.47 925.26 810.49 924.6 810.61 923.9C810.84 922.55 811.47 920.85 813.15 920.25C813.57 920.1 814.22 920.01 814.98 919.95C815.75 919.89 816.7 919.86 817.74 919.84C819.82 919.82 822.33 919.89 824.74 919.98C827.15 920.08 829.48 920.21 831.2 920.31C832.06 920.36 832.77 920.41 833.27 920.44C833.4 920.44 833.51 920.46 833.61 920.46L834.4 916.7C834.33 916.7 834.26 916.7 834.18 916.7C833.66 916.69 832.9 916.67 831.99 916.65C830.17 916.61 827.71 916.56 825.17 916.53C822.63 916.5 820.01 916.48 817.85 916.51C815.67 916.53 814.03 916.6 813.42 916.71C812.09 916.96 811.19 917.2 810.51 917.54C809.85 917.87 809.38 918.31 808.92 919C808.71 919.32 808.44 919.91 808.16 920.67C807.88 921.42 807.61 922.28 807.36 923.13C807.11 923.97 806.9 924.78 806.74 925.41C806.66 925.72 806.6 925.99 806.56 926.19C806.63 926.19 806.72 926.2 806.81 926.21Z" fill="#10303B"/>
<path d="M1115.19 926.21C1114.75 926.23 1114.15 926.21 1113.53 926.19C1112.91 926.17 1112.29 926.11 1111.82 926.07C1111.72 926.07 1111.62 926.05 1111.53 926.04V925.86C1111.54 925.45 1111.51 924.88 1111.39 924.27C1111.15 923.07 1110.5 921.61 1108.85 921.02C1108.44 920.87 1107.78 920.76 1106.98 920.66C1106.17 920.56 1105.17 920.48 1104.06 920.41C1101.84 920.27 1099.14 920.18 1096.55 920.11C1093.95 920.05 1091.44 920.02 1089.57 920C1088.64 920 1087.88 919.99 1087.34 919.99C1087.19 919.99 1087.06 919.99 1086.95 919.99L1086.56 916.72C1086.65 916.72 1086.75 916.72 1086.86 916.72C1087.41 916.72 1088.2 916.74 1089.16 916.76C1091.07 916.79 1093.66 916.84 1096.32 916.91C1098.99 916.98 1101.74 917.06 1103.99 917.16C1106.25 917.26 1107.96 917.37 1108.59 917.48C1109.92 917.73 1110.82 917.97 1111.5 918.31C1112.15 918.64 1112.62 919.08 1113.08 919.76C1113.54 920.44 1114.15 922 1114.65 923.52C1114.9 924.26 1115.11 924.97 1115.27 925.53C1115.34 925.79 1115.4 926.01 1115.44 926.18C1115.37 926.18 1115.29 926.19 1115.19 926.2V926.21Z" fill="#10303B"/>
<g opacity="0.7">
<ellipse cx="49.5269" cy="2.67987" rx="49.5269" ry="2.67987" transform="matrix(-1 0 0 1 221.011 1106.64)" fill="#A6DDD6"/>
<rect width="13.7151" height="59.7228" transform="matrix(-1 0 0 1 174.532 1039.26)" fill="#4C687C"/>
<path d="M199.676 1104.22C199.676 1100.9 196.99 1098.22 193.676 1098.22H144.72C141.406 1098.22 138.72 1100.9 138.72 1104.22V1104.34V1110.47H199.676V1104.22Z" fill="#4D6D80"/>
<path d="M131.388 1036.45L89.525 946.23" stroke="white" stroke-width="3"/>
<path d="M249.58 1028.04C254.25 1027.36 256.927 1022.32 254.889 1018.06L215.264 935.175C213.989 932.507 211.178 930.935 208.241 931.246L57.0318 947.28C52.2915 947.783 49.4206 952.79 51.3765 957.144L90.1082 1043.36C92.1178 1047.83 96.8403 1050.43 101.687 1049.72L249.58 1028.04Z" fill="#BABEBF"/>
<path d="M244.685 1024.18C250.759 1023.36 254.271 1016.82 251.604 1011.3L215.538 936.578C213.891 933.166 210.287 931.159 206.524 931.558L55.4498 947.579C54.0937 947.723 53.2737 949.157 53.8358 950.401L95.5543 1042.76C95.9171 1043.56 96.7616 1044.03 97.6339 1043.91L244.685 1024.18Z" fill="#DFE2E4"/>
<path d="M246.633 1019.34C247.993 1019.16 248.776 1017.69 248.169 1016.46L208.579 936.181C208.207 935.427 207.404 934.988 206.57 935.082L62.7032 951.274C61.3519 951.426 60.5406 952.858 61.1032 954.098L98.8777 1037.34C99.2404 1038.14 100.081 1038.6 100.951 1038.49L246.633 1019.34Z" fill="#0D2E44"/>
<path d="M132.448 1034.24L91.1998 947.958L87.5873 948.432L128.354 1034.52L132.448 1034.24Z" fill="#325970"/>
<path d="M163.523 1030.28L122.605 944.689L118.992 945.164L159.908 1030.75L163.523 1030.28Z" fill="#325970"/>
<path d="M193.581 1025.96L152.989 941.054L149.38 941.537L189.97 1026.44L193.581 1025.96Z" fill="#325970"/>
<path d="M222.265 1022.31L181.847 937.763L178.232 938.234L218.655 1022.79L222.265 1022.31Z" fill="#325970"/>
<path d="M89.9619 1017.71L238.89 997.923L237.068 994.128L88.3055 1014.26L89.9619 1017.71Z" fill="#325970"/>
<path d="M80.0823 995.485L228.332 975.837L226.515 972.042L78.4302 992.035L80.0823 995.485Z" fill="#325970"/>
<path d="M69.8047 973.341L217.393 953.831L215.58 950.034L68.1566 969.89L69.8047 973.341Z" fill="#325970"/>
</g>
<g opacity="0.7">
<ellipse cx="1752.52" cy="1109.32" rx="49.5269" ry="2.67987" fill="#A6DDD6"/>
<rect x="1749.47" y="1039.26" width="13.7151" height="59.7228" fill="#4C687C"/>
<path d="M1724.32 1104.22C1724.32 1100.9 1727.01 1098.22 1730.32 1098.22H1779.28C1782.59 1098.22 1785.28 1100.9 1785.28 1104.22V1104.34V1110.47H1724.32V1104.22Z" fill="#4D6D80"/>
<path d="M1792.61 1036.45L1834.48 946.23" stroke="white" stroke-width="3"/>
<path d="M1674.42 1028.04C1669.75 1027.36 1667.07 1022.32 1669.11 1018.06L1708.74 935.175C1710.01 932.507 1712.82 930.935 1715.76 931.246L1866.97 947.28C1871.71 947.783 1874.58 952.79 1872.62 957.144L1833.89 1043.36C1831.88 1047.83 1827.16 1050.43 1822.31 1049.72L1674.42 1028.04Z" fill="#BABEBF"/>
<path d="M1679.32 1024.18C1673.24 1023.36 1669.73 1016.82 1672.4 1011.3L1708.46 936.578C1710.11 933.166 1713.71 931.159 1717.48 931.558L1868.55 947.579C1869.91 947.723 1870.73 949.157 1870.16 950.401L1828.45 1042.76C1828.08 1043.56 1827.24 1044.03 1826.37 1043.91L1679.32 1024.18Z" fill="#DFE2E4"/>
<path d="M1677.37 1019.34C1676.01 1019.16 1675.22 1017.69 1675.83 1016.46L1715.42 936.181C1715.79 935.427 1716.6 934.988 1717.43 935.082L1861.3 951.274C1862.65 951.426 1863.46 952.858 1862.9 954.098L1825.12 1037.34C1824.76 1038.14 1823.92 1038.6 1823.05 1038.49L1677.37 1019.34Z" fill="#0D2E44"/>
<path d="M1791.55 1034.24L1832.8 947.958L1836.41 948.432L1795.65 1034.52L1791.55 1034.24Z" fill="#325970"/>
<path d="M1760.48 1030.28L1801.4 944.689L1805.01 945.164L1764.09 1030.75L1760.48 1030.28Z" fill="#325970"/>
<path d="M1730.42 1025.96L1771.01 941.054L1774.62 941.537L1734.03 1026.44L1730.42 1025.96Z" fill="#325970"/>
<path d="M1701.74 1022.31L1742.15 937.763L1745.77 938.234L1705.35 1022.79L1701.74 1022.31Z" fill="#325970"/>
<path d="M1834.04 1017.71L1685.11 997.923L1686.93 994.128L1835.69 1014.26L1834.04 1017.71Z" fill="#325970"/>
<path d="M1843.92 995.485L1695.67 975.837L1697.49 972.042L1845.57 992.035L1843.92 995.485Z" fill="#325970"/>
<path d="M1854.2 973.341L1706.61 953.831L1708.42 950.034L1855.84 969.89L1854.2 973.341Z" fill="#325970"/>
</g>
<path d="M692.11 1035.92C680.86 1013.77 636.29 1004.67 612.99 1026.58C598.12 1040.57 592.68 1066.46 603.18 1080.14C620.04 1102.1 678.07 1092.59 691.8 1063.64C692.32 1062.55 698.62 1048.72 692.12 1035.93L692.11 1035.92Z" fill="#0F2F3C"/>
<path d="M645.34 1055.53C650.77 1055.58 655.8 1059.46 659.51 1065.95C663.24 1072.47 665.56 1081.51 665.56 1091.52C665.56 1101.53 663.63 1111.1 660.3 1118.13C656.94 1125.2 652.26 1129.52 646.83 1129.52C641.4 1129.52 635.4 1125.33 631.03 1118.39C626.67 1111.48 623.96 1101.96 624.89 1091.56C625.69 1082.57 627.02 1075.27 630.06 1069.36C633.07 1063.5 637.76 1058.97 645.35 1055.52L645.34 1055.53Z" fill="#1B3B46"/>
<path d="M644.92 1055.53C645.78 1055.53 646.53 1055.55 647.16 1055.57C641.45 1058.23 636.89 1061.87 633.55 1067.37C629.85 1073.46 627.66 1081.76 626.99 1093.4V1093.43C626.99 1101.42 628.51 1109.89 632.26 1116.77C635.44 1122.6 640.22 1127.28 647.01 1129.54H624.94C620.72 1127.41 617.79 1124.87 615.44 1120.88C613.05 1116.84 611.24 1111.28 609.3 1103.08C609.3 1103.08 609.3 1103.06 609.3 1103.05C609.3 1103.01 609.28 1102.95 609.27 1102.87C609.25 1102.71 609.21 1102.48 609.17 1102.18C609.09 1101.58 608.98 1100.7 608.88 1099.6C608.68 1097.4 608.5 1094.32 608.58 1090.78C608.75 1083.69 609.96 1074.84 614.13 1067.63C618.24 1060.52 626.92 1057.5 634.74 1056.28C638.63 1055.67 642.26 1055.52 644.91 1055.52L644.92 1055.53Z" fill="#0A2C38"/>
<path d="M646.82 1074.53C649 1074.53 651.59 1076.07 653.51 1079.89C655.37 1083.59 656.57 1089.36 656.12 1097.68L656.07 1098.49C655.72 1103.83 654.92 1108.38 653.38 1111.58C652.61 1113.17 651.67 1114.41 650.54 1115.24C649.41 1116.07 648.06 1116.53 646.44 1116.53C645.39 1116.53 644.24 1115.99 643.07 1114.93C641.91 1113.87 640.78 1112.34 639.79 1110.47C637.88 1106.84 636.55 1102 636.57 1097.03V1096.55C636.77 1087.12 638.23 1081.6 640.19 1078.46C641.16 1076.9 642.26 1075.92 643.38 1075.34C644.5 1074.75 645.67 1074.54 646.83 1074.54L646.82 1074.53Z" fill="#48666E"/>
<path d="M688.85 909.08C694.3 910.46 698.16 915.32 698.27 920.94L700.55 1032.01L533.56 1024.55V869.67L688.84 909.08H688.85Z" fill="#E3E3E3"/>
<path d="M670.07 977.53H700.07C709.73 977.53 717.57 985.37 717.57 995.03V1155.53H652.57V995.03C652.57 985.37 660.41 977.53 670.07 977.53Z" fill="#000E16"/>
<path d="M556.23 989.55L563.85 964.55L556.26 963.03C555.62 962.9 555.5 961.45 556.03 960.4L574.82 923.56C575.62 922 576.69 923.19 576.13 925.01L568.51 950.01L576.1 951.53C576.74 951.66 576.86 953.11 576.33 954.16L557.54 991C556.74 992.56 555.67 991.37 556.23 989.55Z" fill="#34A97C"/>
<path d="M588.754 981.449L586.561 981.066L586 934.621L588.159 934.999L601.409 983.661L599.215 983.277L588.24 942.345L588.105 942.321L588.754 981.449ZM586.867 963.015L595.708 964.56L596.45 969.669L587.608 968.123L586.867 963.015Z" fill="black"/>
<path d="M603.83 984.084L598.651 948.419L600.575 948.755L601.384 954.328L601.553 954.357C601.546 952.5 601.767 951.098 602.216 950.151C602.663 949.188 603.308 948.78 604.152 948.928C605.007 949.077 605.796 949.736 606.519 950.903C607.245 952.056 607.907 953.612 608.504 955.572L608.639 955.596C608.704 953.812 608.989 952.436 609.495 951.468C609.999 950.485 610.715 950.075 611.643 950.237C612.802 950.439 613.895 951.603 614.921 953.729C615.946 955.839 616.763 958.992 617.372 963.187L620.838 987.056L618.847 986.708L615.381 962.839C614.999 960.207 614.464 958.281 613.777 957.059C613.09 955.838 612.392 955.165 611.683 955.041C610.772 954.882 610.176 955.517 609.896 956.947C609.614 958.361 609.64 960.221 609.975 962.528L613.346 985.747L611.322 985.393L607.775 960.966C607.48 958.939 607.004 957.264 606.346 955.942C605.686 954.604 604.979 953.87 604.225 953.738C603.708 953.648 603.279 953.942 602.94 954.622C602.605 955.303 602.398 956.293 602.318 957.591C602.242 958.875 602.33 960.392 602.584 962.141L605.821 984.432L603.83 984.084Z" fill="black"/>
<path d="M626.42 1001.07L619.299 952.028L621.223 952.364L622.046 958.029L622.282 958.07C622.338 957.477 622.426 956.723 622.545 955.808C622.668 954.879 622.919 954.078 623.298 953.405C623.681 952.718 624.294 952.448 625.137 952.595C626.229 952.786 627.299 953.705 628.35 955.352C629.4 956.999 630.359 959.241 631.226 962.078C632.093 964.915 632.798 968.206 633.342 971.952C633.891 975.729 634.133 978.962 634.068 981.651C634.001 984.325 633.665 986.348 633.058 987.721C632.45 989.078 631.605 989.662 630.525 989.473C629.693 989.328 628.971 988.832 628.361 987.986C627.748 987.125 627.235 986.183 626.824 985.16C626.41 984.123 626.083 983.266 625.842 982.59L625.674 982.561L628.411 1001.41L626.42 1001.07ZM623.846 970.202C624.237 972.895 624.726 975.297 625.311 977.406C625.895 979.499 626.547 981.174 627.266 982.432C627.984 983.673 628.742 984.364 629.541 984.504C630.373 984.649 630.98 984.167 631.361 983.057C631.746 981.932 631.93 980.365 631.912 978.355C631.898 976.331 631.706 974.05 631.338 971.511C630.973 969.004 630.505 966.719 629.931 964.658C629.361 962.582 628.71 960.906 627.976 959.631C627.246 958.342 626.46 957.624 625.616 957.476C624.806 957.335 624.208 957.781 623.821 958.815C623.431 959.833 623.242 961.324 623.253 963.287C623.262 965.234 623.459 967.54 623.846 970.202Z" fill="black"/>
<path d="M641.45 990.658L632.323 954.304L634.415 954.669L641.181 982.465L641.316 982.488L640.118 955.666L642.244 956.037L648.929 983.728L649.064 983.752L647.914 957.028L650.006 957.394L651.236 992.369L649.279 992.027L642.466 964.133L642.264 964.097L643.407 991L641.45 990.658Z" fill="black"/>
<path d="M661.752 995.021C660.93 994.878 660.123 994.322 659.33 993.353C658.535 992.369 657.823 991.03 657.193 989.336C656.561 987.627 656.077 985.611 655.739 983.289C655.443 981.246 655.348 979.615 655.457 978.397C655.562 977.163 655.807 976.225 656.191 975.583C656.575 974.941 657.036 974.494 657.575 974.241C658.117 973.974 658.673 973.784 659.244 973.673C659.99 973.532 660.598 973.434 661.068 973.38C661.54 973.312 661.863 973.12 662.036 972.803C662.215 972.487 662.24 971.888 662.112 971.006L662.085 970.82C661.753 968.529 661.266 966.709 660.627 965.36C659.992 964.012 659.217 963.258 658.3 963.098C657.35 962.932 656.687 963.374 656.314 964.425C655.94 965.477 655.738 966.633 655.708 967.895L653.548 965.707C653.571 963.599 653.776 961.99 654.163 960.881C654.553 959.758 655.049 959.014 655.648 958.652C656.251 958.274 656.879 958.142 657.531 958.256C657.947 958.329 658.446 958.552 659.026 958.925C659.61 959.284 660.216 959.925 660.843 960.849C661.476 961.775 662.084 963.11 662.667 964.857C663.249 966.603 663.746 968.892 664.157 971.725L667.569 995.223L665.578 994.875L664.877 990.046L664.776 990.028C664.753 990.778 664.649 991.567 664.462 992.394C664.275 993.222 663.965 993.899 663.532 994.427C663.099 994.955 662.505 995.153 661.752 995.021ZM661.34 990.152C662.128 990.289 662.73 989.98 663.146 989.223C663.568 988.466 663.819 987.439 663.899 986.141C663.985 984.843 663.92 983.451 663.704 981.965L662.975 976.95C662.932 977.214 662.783 977.437 662.53 977.619C662.28 977.786 661.982 977.923 661.636 978.028C661.293 978.119 660.956 978.196 660.625 978.259C660.298 978.307 660.033 978.352 659.83 978.392C659.34 978.487 658.9 978.704 658.511 979.044C658.125 979.368 657.854 979.917 657.697 980.689C657.544 981.447 657.569 982.522 657.771 983.916C658.047 985.82 658.512 987.304 659.166 988.368C659.823 989.419 660.547 990.013 661.34 990.152Z" fill="black"/>
<path d="M673.964 1009.38C673.626 1009.32 673.314 1009.19 673.027 1008.99C672.743 1008.8 672.54 1008.63 672.418 1008.47L672.223 1003.73C672.756 1004.16 673.202 1004.35 673.559 1004.33C673.917 1004.3 674.18 1003.9 674.348 1003.13C674.523 1002.37 674.6 1001.11 674.579 999.345L674.546 996.623L664.548 959.935L666.708 960.313L674.412 989.358L674.547 989.382L673.997 961.587L676.157 961.964L676.59 1001.87C676.61 1003.67 676.525 1005.14 676.335 1006.28C676.147 1007.44 675.854 1008.27 675.455 1008.78C675.063 1009.28 674.566 1009.48 673.964 1009.38Z" fill="black"/>
<path d="M670.07 981.53H700.07C707.53 981.53 713.57 987.57 713.57 995.03V1155.53H656.57V995.03C656.57 987.57 662.61 981.53 670.07 981.53Z" fill="#C6E0E1"/>
<path d="M730.07 1155.53H640.07C639.794 1155.53 639.57 1155.75 639.57 1156.03V1159.03C639.57 1159.31 639.794 1159.53 640.07 1159.53H730.07C730.346 1159.53 730.57 1159.31 730.57 1159.03V1156.03C730.57 1155.75 730.346 1155.53 730.07 1155.53Z" fill="#000E16"/>
<path d="M676.07 999.53H693.57C698.26 999.53 702.07 1003.34 702.07 1008.03V1046.53C702.07 1051.22 698.26 1055.03 693.57 1055.03H676.07C671.38 1055.03 667.57 1051.22 667.57 1046.53V1008.03C667.57 1003.34 671.38 999.53 676.07 999.53Z" fill="#39968B"/>
<path d="M689.57 1100.53H685.57V1155.53H689.57V1100.53Z" fill="#183543"/>
<path d="M690.07 1075.53H683.07C680.033 1075.53 677.57 1077.99 677.57 1081.03V1095.03C677.57 1098.07 680.033 1100.53 683.07 1100.53H690.07C693.108 1100.53 695.57 1098.07 695.57 1095.03V1081.03C695.57 1077.99 693.108 1075.53 690.07 1075.53Z" fill="#183543"/>
<path d="M549.14 1059.75C537.89 1037.6 493.32 1028.5 470.02 1050.41C455.15 1064.4 449.71 1090.29 460.21 1103.97C477.07 1125.93 535.1 1116.42 548.83 1087.47C549.35 1086.38 555.65 1072.55 549.15 1059.76L549.14 1059.75Z" fill="#0F2F3C"/>
<path d="M675.07 1030.53L686.57 1010.03V1026.03L694.07 1024.53L681.57 1045.03V1030.53H675.07Z" fill="#BCDEDF"/>
<path d="M489.19 863.02C501.06 859.82 512.33 861.82 520.65 864.63C524.81 866.03 528.22 867.64 530.59 868.89C531.78 869.52 532.7 870.05 533.33 870.43C533.64 870.62 533.88 870.77 534.04 870.87C534.04 870.87 534.05 870.87 534.06 870.87V1031.76C534.06 1035.42 531.09 1038.35 527.49 1038.36H527.14C518.71 1037.93 512.05 1037.84 506.7 1038.3C501.35 1038.76 497.27 1039.76 494 1041.54C487.51 1045.09 484.37 1051.64 480.68 1062.53L447.03 1064.5C444.32 993.09 448.95 944.29 457.22 912.54C461.37 896.63 466.43 885.02 471.92 877C477.24 869.23 482.96 864.86 488.63 863.16L489.18 863L489.19 863.02Z" fill="#6AC0CF"/>
<path d="M610.29 1101.54L540.03 1106.02H540.01H539.99L459.49 1118.02L449.42 1119.14C451.89 1117.99 453.9 1116.63 455.19 1114.31C456.95 1111.15 457.34 1106.31 456.13 1098.01H477.12L549.09 1088.22L621.07 1086.25L610.28 1101.53L610.29 1101.54Z" fill="#12323F"/>
<path d="M461.58 914.9C462.07 909.36 467.19 905.42 472.67 906.37L511.82 913.16C513.81 913.5 515.31 915.1 515.5 917.08V917.27C515.86 923.5 516.49 936.18 516.57 948.08C516.61 954.03 516.5 959.77 516.16 964.4C515.99 966.72 515.76 968.75 515.45 970.38C515.15 972.03 514.78 973.23 514.36 973.91C514.03 974.46 513.3 975.03 512.16 975.59C511.03 976.15 509.55 976.67 507.79 977.15C504.28 978.12 499.71 978.92 494.73 979.59C486.01 980.75 476.06 981.48 468.3 981.92L465.12 982.09C460.06 982.35 456.01 978.05 456.46 972.99L461.58 914.88V914.9Z" fill="#08505E"/>
<path d="M447.99 908.52C448.8 908.52 449.41 909.13 449.44 909.91V910.07C449.06 915.52 447.96 930.77 446.35 945.23C445.55 952.46 444.61 959.49 443.59 965C443.08 967.76 442.54 970.12 441.98 971.93C441.7 972.84 441.42 973.6 441.15 974.2C440.9 974.73 440.67 975.11 440.45 975.35L440.36 975.45C440.28 975.53 440.05 975.67 439.59 975.83C439.15 975.98 438.57 976.14 437.84 976.29C436.38 976.6 434.39 976.91 431.93 977.21C427.01 977.81 420.27 978.39 412.31 978.93C396.39 980 375.65 980.91 354.97 981.58C334.29 982.25 313.69 982.67 298.08 982.77C290.27 982.82 283.71 982.79 279.01 982.67C276.66 982.61 274.78 982.53 273.45 982.42C272.78 982.37 272.26 982.31 271.89 982.25C271.7 982.22 271.56 982.19 271.47 982.16C271.43 982.15 271.4 982.14 271.39 982.13C271.38 982.11 271.35 982.06 271.32 981.97C271.27 981.83 271.23 981.63 271.2 981.36C271.14 980.82 271.13 980.08 271.18 979.15C271.27 977.29 271.57 974.75 272.02 971.73C272.92 965.7 274.44 957.81 276.14 949.8C277.84 941.79 279.72 933.67 281.35 927.15C282.16 923.89 282.92 921.04 283.55 918.81C284.19 916.57 284.7 914.98 285.04 914.23C285.04 914.23 285.06 914.2 285.12 914.14C285.19 914.08 285.3 914.02 285.45 913.94C285.75 913.79 286.19 913.63 286.77 913.47C287.93 913.16 289.57 912.86 291.65 912.58C295.8 912.02 301.61 911.53 308.59 911.11C322.55 910.27 341.11 909.71 360.19 909.32C398.34 908.55 438.54 908.52 448 908.52H447.99Z" stroke="black"/>
<path d="M258.56 929.95C264.15 928.13 269.86 932.41 269.68 938.29L268.79 968.13C268.67 972.18 265.35 975.41 261.29 975.41H258.56C254.42 975.41 251.06 972.05 251.06 967.91V937.84C251.06 934.69 253.02 931.89 255.96 930.81L256.25 930.71L258.56 929.96V929.95Z" fill="#0F313D"/>
<path d="M487.34 917.34C481.8 915.66 476.23 919.9 476.38 925.69L477.35 964.32C477.46 968.71 481.3 972.06 485.66 971.59L492.81 970.81C496.65 970.39 499.54 967.14 499.5 963.28L499.13 926.4C499.1 923.12 496.94 920.25 493.81 919.3L487.35 917.34H487.34Z" fill="#0F313D"/>
<path d="M382.78 861.52C406.25 859.52 431.24 859.06 452.85 859.36C474.46 859.65 492.69 860.69 502.63 861.65C505.11 861.89 507.08 862.12 508.44 862.34C508.5 862.35 508.56 862.36 508.62 862.37C507.33 862.45 505.41 862.5 502.81 862.5C491.08 862.5 481.95 869.09 474.86 878.86C467.78 888.62 462.71 901.61 459.08 914.55C455.45 927.5 453.27 940.45 452 950.15C451.36 955 450.95 959.05 450.7 961.88C450.57 963.3 450.49 964.41 450.43 965.17C450.4 965.55 450.38 965.84 450.37 966.04C450.37 966.14 450.36 966.21 450.36 966.26C450.36 966.29 450.36 966.3 450.36 966.32V966.33C450.36 966.33 450.36 966.33 450.86 966.36L450.36 966.33V966.35L448.5 1064.72L264.66 1067.23C264.66 1066.91 264.64 1066.43 264.64 1065.8C264.62 1064.54 264.6 1062.69 264.6 1060.32C264.6 1055.59 264.66 1048.8 264.92 1040.59C265.46 1024.15 266.82 1002 270.12 979.1C273.42 956.2 278.67 932.59 286.96 913.23C295.13 894.16 306.2 879.31 321.2 873.26L321.92 872.98C337.41 867.07 359.32 863.51 382.8 861.51L382.78 861.52Z" fill="#8BD4E3"/>
<path d="M258.8 975.54C259.19 975.52 259.73 975.54 260.29 975.56C260.84 975.59 261.4 975.64 261.82 975.67C261.92 975.68 262.01 975.69 262.09 975.7C262.09 975.77 262.1 975.85 262.11 975.94C262.16 976.35 262.25 976.92 262.44 977.52C262.81 978.71 263.59 980.14 265.22 980.72C266.71 981.25 268.2 981.32 269.31 981.26C269.74 981.24 270.12 981.19 270.42 981.15L269.66 984.55C269.44 984.56 269.13 984.57 268.74 984.57C267.93 984.57 266.79 984.49 265.48 984.25C264.15 984 263.25 983.76 262.57 983.42C261.91 983.09 261.44 982.65 260.98 981.96C260.52 981.28 259.92 979.72 259.41 978.2C259.16 977.46 258.95 976.75 258.79 976.19C258.72 975.93 258.66 975.71 258.62 975.53C258.67 975.53 258.72 975.52 258.79 975.52L258.8 975.54Z" fill="#0F313D"/>
<path d="M481.91 971.53C481.86 971.66 481.8 971.83 481.72 972.02C481.51 972.52 481.21 973.19 480.81 973.9C480.41 974.61 479.92 975.36 479.33 976.01C478.74 976.65 478.04 977.22 477.23 977.5C475.78 978.01 473.5 978.52 471.6 978.89C470.65 979.08 469.78 979.24 469.16 979.35C468.87 979.4 468.63 979.44 468.45 979.47L467.73 981.83C467.94 981.84 468.21 981.85 468.51 981.87C469.38 981.91 470.56 981.96 471.82 981.99C474.38 982.05 477.19 982.05 478.47 981.81C479.75 981.57 480.68 981.16 481.4 980.64C482.13 980.12 482.67 979.48 483.14 978.76C483.61 978.05 484.6 976.08 485.41 974.27C485.81 973.37 486.17 972.52 486.39 971.91C486.44 971.77 486.48 971.65 486.51 971.54H481.9L481.91 971.53Z" fill="#0F313D"/>
<path d="M257.67 930.16C258.02 930.14 258.52 930.06 259.06 929.95C260.02 929.76 261.05 929.49 261.48 929.37C261.49 929.32 261.5 929.25 261.51 929.15C261.53 928.87 261.54 928.37 261.62 927.89C261.7 927.39 261.85 926.83 262.21 926.31C262.57 925.79 263.11 925.35 263.91 925.06C264.32 924.91 264.91 924.81 265.6 924.73C266.3 924.65 267.14 924.58 268.05 924.54C269.88 924.45 272.05 924.41 274.13 924.41C276.21 924.41 278.2 924.44 279.67 924.47C280.4 924.49 281.01 924.5 281.43 924.51C281.55 924.51 281.66 924.51 281.75 924.52L283.31 921.01C283.31 921.01 283.28 921.01 283.27 921.01C282.76 921 282.04 920.98 281.16 920.96C279.4 920.92 277.03 920.87 274.57 920.84C272.11 920.81 269.58 920.79 267.49 920.82C265.38 920.84 263.78 920.91 263.16 921.02C261.87 921.26 261.07 921.61 260.49 922.05C259.9 922.49 259.48 923.06 258.99 923.8C258.79 924.1 258.59 924.63 258.4 925.31C258.22 925.97 258.07 926.74 257.94 927.48C257.76 928.59 257.64 929.62 257.59 930.15C257.61 930.15 257.64 930.15 257.67 930.15V930.16Z" fill="#0F313D"/>
<path d="M485.81 917.22C485.26 917.16 484.35 917.03 483.07 917.03C482.81 917.03 482.66 916.99 482.58 916.94C482.5 916.9 482.44 916.83 482.39 916.74C482.27 916.51 482.24 916.16 482.19 915.62C482.15 915.13 482.09 914.51 481.83 913.95C481.55 913.36 481.07 912.86 480.24 912.56C479.84 912.42 479.25 912.3 478.56 912.21C477.86 912.11 477.03 912.03 476.11 911.96C474.28 911.82 472.11 911.73 470.03 911.66C467.95 911.6 465.96 911.57 464.49 911.55C463.9 911.55 463.39 911.55 463 911.54L464.84 908.76C464.94 908.76 465.06 908.76 465.21 908.76C465.62 908.76 466.21 908.78 466.92 908.8C468.35 908.83 470.28 908.88 472.3 908.95C474.32 909.02 476.42 909.1 478.18 909.19C479.96 909.29 481.35 909.4 481.98 909.52C483.24 909.75 484 910.21 484.51 910.8C485.03 911.4 485.34 912.18 485.58 913.15C486 914.82 486.05 916.49 486.06 917.24C485.99 917.24 485.91 917.23 485.81 917.22Z" fill="#0F313D"/>
<path d="M370.81 902.55C391.23 901.81 411.61 901.43 427.03 901.55C434.74 901.61 441.21 901.79 445.82 902.12C448.13 902.28 449.96 902.48 451.24 902.71C451.88 902.82 452.37 902.95 452.71 903.07C452.88 903.13 452.99 903.19 453.07 903.23C453.1 903.25 453.12 903.27 453.13 903.27C453.24 903.5 453.35 903.97 453.44 904.73C453.53 905.48 453.58 906.45 453.6 907.61C453.65 909.93 453.58 912.99 453.4 916.54C453.05 923.65 452.3 932.75 451.32 941.89C450.34 951.03 449.12 960.21 447.83 967.5C447.19 971.15 446.53 974.31 445.88 976.76C445.56 977.99 445.23 979.03 444.92 979.85C444.6 980.69 444.3 981.27 444.04 981.61C443.97 981.7 443.75 981.86 443.3 982.05C442.87 982.23 442.28 982.42 441.54 982.61C440.06 982.99 438.02 983.36 435.5 983.73C430.45 984.46 423.49 985.15 415.27 985.79C398.83 987.07 377.34 988.16 355.92 988.96C334.51 989.76 313.17 990.29 297.04 990.46C288.97 990.55 282.21 990.54 277.38 990.44C274.97 990.39 273.05 990.31 271.69 990.21C271.01 990.16 270.49 990.1 270.12 990.04C269.93 990.01 269.8 989.98 269.71 989.95C269.7 989.95 269.69 989.95 269.68 989.94C269.67 989.91 269.65 989.86 269.64 989.79C269.61 989.62 269.58 989.38 269.57 989.06C269.55 988.43 269.59 987.55 269.7 986.45C269.91 984.26 270.34 981.24 270.95 977.65C272.16 970.48 274.06 961.09 276.16 951.56C278.26 942.04 280.56 932.39 282.59 924.72C283.6 920.89 284.55 917.56 285.36 914.98C286.18 912.38 286.86 910.62 287.32 909.88C287.37 909.81 287.53 909.66 287.93 909.47C288.32 909.29 288.85 909.1 289.53 908.91C290.9 908.53 292.8 908.15 295.18 907.77C299.93 907.03 306.51 906.32 314.32 905.66C329.93 904.35 350.39 903.25 370.82 902.52L370.81 902.55Z" fill="#0A4F5E"/>
<path d="M411.61 1015.11C415.92 1015.07 419.38 1018.65 419.18 1022.95L417.91 1050.47C417.73 1054.43 414.49 1057.57 410.52 1057.62L282.89 1059.41C278.81 1059.47 275.43 1056.25 275.29 1052.17L274.34 1024.2C274.2 1019.99 277.55 1016.49 281.76 1016.44L411.61 1015.11Z" fill="#294751"/>
<path d="M360.22 1063.03C384.25 1062.65 408.29 1062.41 426.31 1062.5C435.32 1062.55 442.82 1062.68 448.07 1062.92C450.7 1063.04 452.74 1063.19 454.13 1063.37C454.83 1063.46 455.33 1063.56 455.66 1063.65C455.75 1063.68 455.81 1063.7 455.86 1063.72C455.93 1067.32 457.53 1092.04 458.56 1107.5C458.99 1114.06 453.82 1119.63 447.18 1119.73C425.93 1120.03 381.63 1120.53 342.13 1120.12C322.37 1119.91 303.82 1119.48 289.94 1118.68C283 1118.28 277.24 1117.79 273.09 1117.19C271.01 1116.89 269.35 1116.57 268.16 1116.22C267.56 1116.05 267.09 1115.87 266.75 1115.7C266.49 1115.57 266.33 1115.45 266.24 1115.36L266.17 1115.28C265.59 1114.37 265.1 1112.9 264.71 1110.97C264.33 1109.06 264.05 1106.75 263.85 1104.18C263.46 1099.05 263.41 1092.94 263.52 1087.07C263.63 1081.2 263.89 1075.58 264.13 1071.42C264.25 1069.34 264.36 1067.63 264.45 1066.44C264.49 1065.85 264.52 1065.38 264.55 1065.06C264.55 1065.05 264.55 1065.04 264.55 1065.03C264.58 1065.03 264.61 1065.03 264.65 1065.03C265.01 1065.02 265.55 1065.01 266.26 1064.99C267.67 1064.95 269.73 1064.9 272.36 1064.84C277.62 1064.71 285.13 1064.53 294.14 1064.33C312.17 1063.92 336.2 1063.42 360.23 1063.05L360.22 1063.03Z" fill="#24677A"/>
<path d="M275.07 1027.53H418.51C418.76 1027.53 418.97 1027.71 419 1027.95V1028.05L418.83 1031.05C418.81 1031.32 418.59 1031.52 418.33 1031.52H275.06C274.78 1031.52 274.56 1031.3 274.56 1031.02V1028.02C274.56 1027.78 274.73 1027.58 274.96 1027.53H275.06H275.07Z" stroke="black"/>
<path d="M418.51 1041.53L418.11 1045.53L275.06 1045.03V1041.53H418.51Z" stroke="black"/>
<path d="M302.04 1081.12L376.93 1082.43C379.83 1082.48 382.19 1084.77 382.33 1087.67L382.5 1091.19C382.79 1097.3 377.82 1102.36 371.7 1102.18L304.38 1100.21C301.05 1100.11 298.34 1097.52 298.09 1094.2L297.47 1085.96C297.28 1083.4 299.26 1081.22 301.79 1081.13H302.04V1081.12Z" fill="#113945"/>
<path d="M272.75 1071.53C277.88 1071.53 282.26 1075.24 283.11 1080.3L284.88 1090.95C284.93 1091.25 284.7 1091.53 284.39 1091.53H263.57V1071.53H272.75Z" fill="#DDF4EC"/>
<path d="M437.88 1071.66C441 1071.59 443.56 1074.1 443.56 1077.21V1088.02C443.56 1092.16 440.2 1095.52 436.06 1095.52H404.29C402.26 1095.52 400.58 1093.97 400.4 1091.97V1091.78C399.95 1081.2 408.28 1072.32 418.86 1072.09L437.88 1071.67V1071.66Z" fill="#DDF4EC"/>
<path d="M511.03 1060.54C518.14 1060.54 524.69 1065.5 529.49 1073.76C534.28 1082 537.26 1093.41 537.26 1106.04C537.26 1118.67 534.28 1130.09 529.49 1138.32C524.69 1146.57 518.14 1151.54 511.03 1151.54C503.92 1151.54 497.37 1146.58 492.57 1138.32C487.78 1130.08 484.8 1118.67 484.8 1106.04C484.8 1093.41 487.78 1081.99 492.57 1073.76C497.37 1065.51 503.92 1060.54 511.03 1060.54Z" fill="#1B3B46"/>
<path d="M520.07 1010.53H507.07C505.689 1010.53 504.57 1011.65 504.57 1013.03V1015.03C504.57 1016.41 505.689 1017.53 507.07 1017.53H520.07C521.451 1017.53 522.57 1016.41 522.57 1015.03V1013.03C522.57 1011.65 521.451 1010.53 520.07 1010.53Z" fill="#0E3441"/>
<path d="M552.51 1059.46C560.93 1059.4 572.35 1059.47 583.78 1059.62C595.21 1059.77 606.66 1060 615.11 1060.25C619.34 1060.38 622.82 1060.51 625.18 1060.64C626.27 1060.7 627.12 1060.76 627.68 1060.82C627.54 1061.07 627.4 1061.38 627.26 1061.73C626.94 1062.52 626.6 1063.58 626.26 1064.81C625.57 1067.27 624.84 1070.45 624.17 1073.58C623.5 1076.72 622.9 1079.82 622.46 1082.14C622.24 1083.3 622.07 1084.26 621.94 1084.94C621.89 1085.21 621.85 1085.43 621.82 1085.6L548.94 1088.01C548.89 1087.81 548.82 1087.54 548.73 1087.22C548.53 1086.47 548.25 1085.39 547.91 1084.09C547.22 1081.49 546.27 1078.01 545.25 1074.48C544.23 1070.95 543.13 1067.37 542.15 1064.57C541.66 1063.17 541.19 1061.96 540.77 1061.05C540.56 1060.59 540.35 1060.2 540.16 1059.89C540.14 1059.87 540.13 1059.84 540.11 1059.82C540.65 1059.76 541.46 1059.7 542.53 1059.66C544.85 1059.56 548.31 1059.5 552.52 1059.47L552.51 1059.46Z" stroke="black"/>
<path d="M507.15 1060.34C508.32 1060.34 509.32 1060.37 510.1 1060.4C503.49 1063.68 498.24 1068.2 494.42 1075.08C490.27 1082.53 487.82 1092.72 487.07 1107V1107.03C487.07 1116.83 488.78 1127.22 492.98 1135.65C496.64 1142.98 502.2 1148.85 510.18 1151.53H484.7C479.94 1148.9 476.64 1145.78 473.98 1140.85C471.29 1135.86 469.24 1129.02 467.06 1118.94C467.06 1118.93 467.06 1118.91 467.06 1118.89C467.06 1118.84 467.04 1118.77 467.03 1118.67C467 1118.48 466.96 1118.19 466.92 1117.82C466.83 1117.08 466.71 1116 466.6 1114.65C466.38 1111.94 466.17 1108.15 466.27 1103.8C466.46 1095.08 467.83 1084.17 472.52 1075.27C477.16 1066.48 486.95 1062.77 495.72 1061.28C500.09 1060.54 504.17 1060.35 507.16 1060.35L507.15 1060.34Z" fill="#0E303C"/>
<path d="M514.56 1082.68C520.4 1082.68 529.75 1089.09 528.62 1108.7L528.56 1109.64C528.11 1115.83 526.62 1121.36 524.17 1125.34C521.72 1129.3 518.34 1131.68 514.06 1131.68C511.11 1131.68 507.8 1129.61 505.23 1125.95C502.76 1122.42 501.03 1117.48 501.05 1111.75V1111.19C501.31 1100.23 503.21 1093.08 505.79 1088.68C508.36 1084.3 511.59 1082.68 514.55 1082.68H514.56Z" fill="#466770"/>
<path d="M514.07 1096.53C514.43 1096.53 514.83 1096.72 515.26 1097.19C515.68 1097.66 516.09 1098.37 516.44 1099.28C517.14 1101.11 517.58 1103.67 517.58 1106.53C517.58 1109.39 517.14 1111.95 516.44 1113.78C516.09 1114.7 515.69 1115.4 515.26 1115.87C514.84 1116.34 514.44 1116.53 514.07 1116.53C513.7 1116.53 513.31 1116.34 512.88 1115.87C512.46 1115.4 512.05 1114.69 511.7 1113.78C511 1111.95 510.56 1109.39 510.56 1106.53C510.56 1103.67 511 1101.11 511.7 1099.28C512.05 1098.36 512.45 1097.66 512.88 1097.19C513.3 1096.72 513.7 1096.53 514.07 1096.53Z" fill="#0B2732"/>
<path d="M647.34 1085.47C647.63 1085.47 647.96 1085.62 648.33 1086.03C648.69 1086.44 649.04 1087.05 649.35 1087.86C649.96 1089.47 650.34 1091.72 650.34 1094.24C650.34 1096.76 649.95 1099.01 649.35 1100.62C649.05 1101.43 648.7 1102.04 648.33 1102.45C647.97 1102.86 647.63 1103.01 647.34 1103.01C647.05 1103.01 646.72 1102.86 646.35 1102.45C645.99 1102.04 645.64 1101.42 645.33 1100.62C644.72 1099.01 644.34 1096.76 644.34 1094.24C644.34 1091.72 644.73 1089.47 645.33 1087.86C645.63 1087.05 645.98 1086.44 646.35 1086.03C646.71 1085.62 647.05 1085.47 647.34 1085.47Z" fill="#0B2732"/>
<path d="M477.57 1097.53H455.57L453.07 1063.03L480.07 1060.53C486.57 1042.53 492.07 1032.53 524.07 1036.53C532.72 1036.87 534.52 1033.95 534.07 1025.03L651.07 1030.03L650.57 1048.53H639.57C634.57 1048.53 622.59 1062.96 621.57 1086.53L548.57 1088.53L543.07 1068.03C539.83 1054.37 533.01 1047.17 515.57 1047.53C502.31 1046.43 492.07 1051.53 485.07 1068.03C481.57 1079.53 480.07 1089.03 477.57 1097.53Z" fill="#164A58"/>
<path d="M319.57 1144.42C310.89 1141.22 304.74 1133.94 300.07 1117.89L364.57 1119.48C360.57 1131.88 357.07 1138.58 350.57 1142.82C344.07 1147.06 331.68 1146.98 319.57 1144.41V1144.42Z" fill="#0E303C"/>
<path d="M1531.5 900.44L1457.43 900.81C1457.35 900.71 1457.26 900.61 1457.17 900.51C1455.98 899.1 1454.47 897.95 1452.74 897.02L1526.49 900.26L1531.5 900.44Z" fill="#19865C"/>
<path d="M1445.59 1061.45C1434.34 1039.3 1389.77 1030.2 1366.47 1052.11C1351.6 1066.1 1346.16 1091.99 1356.66 1105.67C1373.52 1127.63 1431.55 1118.12 1445.28 1089.17C1445.8 1088.08 1452.1 1074.25 1445.6 1061.46L1445.59 1061.45Z" fill="#0E2A36"/>
<path d="M1414.61 893.02L1407.88 895.05L1361.55 893.02H1414.61Z" fill="#19865C"/>
<path d="M1630.02 914.12L1586.06 951.32L1475.24 1073.69L1466 1083.9L1436.52 1081.84L1426.74 1059.57L1386.91 1051.7L1374.32 978.21L1385 901.96L1407.88 895.05L1452.74 897.02L1463.24 897.48H1463.28L1526.49 900.26L1531.5 900.44L1616.28 903.52L1627.08 903.91L1627.53 903.93L1628.5 907.91L1630.02 914.12Z" fill="#19865C"/>
<path d="M1308.34 1045.31C1297.09 1023.16 1252.52 1014.06 1229.22 1035.97C1214.35 1049.96 1208.91 1075.85 1219.41 1089.53C1236.27 1111.49 1294.3 1101.98 1308.03 1073.03C1308.55 1071.94 1314.85 1058.11 1308.35 1045.32L1308.34 1045.31Z" fill="#0F2F3C"/>
<path d="M1441.5 1107.7H1463.5L1466 1073.2L1439 1070.7C1432.5 1052.7 1427 1042.7 1395 1046.7C1386.35 1047.03 1384.55 1044.12 1385 1035.2L1268 1040.2L1268.5 1058.7H1279.5C1284.5 1058.7 1296.48 1073.13 1297.5 1096.7L1370.5 1098.7L1376 1078.2C1379.24 1064.54 1386.06 1057.34 1403.5 1057.7C1416.76 1056.6 1427 1061.7 1434 1078.2C1437.5 1089.7 1439 1099.2 1441.5 1107.7Z" fill="#142634"/>
<path d="M1463.56 900.78C1465.04 917.95 1467.97 951.93 1469.6 970.9L1469.26 971.05C1469.15 967.81 1465.29 921.94 1463.52 900.78C1463.42 899.6 1463.33 898.5 1463.24 897.48C1462.84 892.61 1462.6 889.77 1462.65 890.26C1462.67 890.47 1462.9 893.15 1463.28 897.48C1463.36 898.49 1463.46 899.6 1463.56 900.78Z" fill="#279E74"/>
<path d="M1469.22 971.07L1469.26 971.05C1469.26 971.27 1469.25 971.29 1469.22 971.07Z" fill="#279E74"/>
<path d="M1654.48 1069.72C1654.48 1071.84 1654.46 1073.49 1654.44 1074.62C1654.43 1075.18 1654.42 1075.61 1654.41 1075.9L1475.24 1073.69L1472.69 1073.66L1470.94 989.76V989.72L1470.85 985.58L1470.79 985.57H1470.85V985.55C1470.85 985.55 1470.85 985.52 1470.85 985.5C1470.85 985.45 1470.85 985.38 1470.84 985.3C1470.83 985.12 1470.81 984.86 1470.78 984.52C1470.77 984.36 1470.3 979 1469.61 970.9L1616.29 903.52L1627.09 903.91C1627.56 905.14 1628.03 906.48 1628.51 907.91C1636.4 931.3 1646.18 979.1 1649.03 997C1652.29 1017.5 1653.64 1037.34 1654.17 1052.05C1654.43 1059.41 1654.5 1065.48 1654.49 1069.72H1654.48Z" fill="#279E74"/>
<path d="M1548.25 912.72C1527.83 911.98 1507.46 911.6 1492.04 911.72C1484.33 911.78 1477.86 911.96 1473.25 912.29C1470.94 912.45 1469.11 912.65 1467.83 912.88C1467.18 913 1466.69 913.12 1466.36 913.24C1466.19 913.3 1466.07 913.36 1466 913.4C1465.97 913.42 1465.95 913.44 1465.94 913.44C1465.83 913.67 1465.72 914.14 1465.63 914.9C1465.55 915.65 1465.49 916.62 1465.47 917.78C1465.42 920.1 1465.49 923.16 1465.67 926.71C1466.01 933.83 1466.76 942.92 1467.75 952.06C1468.73 961.2 1469.95 970.38 1471.24 977.67C1471.88 981.32 1472.54 984.48 1473.19 986.93C1473.51 988.16 1473.83 989.2 1474.15 990.02C1474.47 990.86 1474.77 991.44 1475.03 991.78C1475.11 991.87 1475.32 992.03 1475.77 992.22C1476.2 992.4 1476.79 992.59 1477.53 992.78C1479.01 993.16 1481.05 993.53 1483.57 993.9C1488.62 994.63 1495.58 995.32 1503.8 995.96C1520.25 997.24 1541.73 998.33 1563.15 999.13C1584.56 999.93 1605.89 1000.46 1622.03 1000.63C1630.1 1000.72 1636.86 1000.71 1641.69 1000.61C1644.1 1000.56 1646.02 1000.48 1647.37 1000.38C1648.05 1000.33 1648.58 1000.27 1648.95 1000.21C1649.13 1000.18 1649.27 1000.15 1649.36 1000.12C1649.37 1000.12 1649.38 1000.12 1649.39 1000.11C1649.4 1000.08 1649.41 1000.03 1649.43 999.96C1649.46 999.79 1649.49 999.55 1649.5 999.23C1649.51 998.6 1649.47 997.72 1649.37 996.62C1649.16 994.43 1648.73 991.41 1648.12 987.82C1646.91 980.65 1645.01 971.26 1642.91 961.73C1640.81 952.21 1638.51 942.56 1636.48 934.89C1635.47 931.06 1634.52 927.73 1633.71 925.15C1632.89 922.55 1632.21 920.79 1631.75 920.05C1631.71 919.98 1631.54 919.83 1631.14 919.64C1630.75 919.46 1630.22 919.27 1629.54 919.08C1628.17 918.7 1626.26 918.32 1623.89 917.94C1619.14 917.2 1612.55 916.49 1604.75 915.83C1589.14 914.52 1568.67 913.42 1548.25 912.69V912.72Z" fill="#1B3647"/>
<path d="M1308.92 1110.29L1380.18 1115.14H1380.2H1380.22L1461.87 1128.11L1472.08 1129.32C1469.57 1128.07 1467.54 1126.61 1466.23 1124.1C1464.43 1120.69 1464.05 1115.45 1465.27 1106.48H1443.98L1370.98 1095.89L1297.97 1093.76L1308.91 1110.28L1308.92 1110.29Z" fill="#0F2F3C"/>
<path d="M1457.49 925.08C1457 919.54 1451.88 915.6 1446.4 916.55L1407.25 923.34C1405.27 923.68 1403.77 925.28 1403.57 927.26V927.45C1403.21 933.68 1402.58 946.36 1402.51 958.26C1402.47 964.21 1402.57 969.95 1402.92 974.58C1403.09 976.9 1403.32 978.93 1403.62 980.56C1403.93 982.21 1404.3 983.41 1404.71 984.09C1405.05 984.64 1405.77 985.21 1406.91 985.77C1408.05 986.33 1409.52 986.85 1411.28 987.33C1414.79 988.3 1419.36 989.1 1424.34 989.77C1433.06 990.93 1443.01 991.66 1450.77 992.1L1453.96 992.27C1459.02 992.53 1463.06 988.23 1462.62 983.17L1457.49 925.06V925.08Z" fill="#1A3644"/>
<path d="M1471.08 918.7C1470.27 918.7 1469.66 919.31 1469.63 920.09V920.25C1470.01 925.7 1471.11 940.95 1472.72 955.41C1473.53 962.64 1474.46 969.67 1475.49 975.18C1476 977.94 1476.54 980.3 1477.09 982.11C1477.37 983.02 1477.65 983.78 1477.93 984.38C1478.17 984.91 1478.41 985.29 1478.62 985.53L1478.71 985.63C1478.79 985.71 1479.02 985.85 1479.48 986.01C1479.92 986.16 1480.5 986.32 1481.23 986.47C1482.69 986.78 1484.68 987.09 1487.14 987.39C1492.06 987.99 1498.8 988.57 1506.76 989.11C1522.67 990.18 1543.42 991.09 1564.1 991.76C1584.77 992.43 1605.37 992.85 1620.99 992.95C1628.8 993 1635.36 992.97 1640.06 992.85C1642.41 992.79 1644.29 992.71 1645.62 992.6C1646.29 992.55 1646.81 992.49 1647.18 992.43C1647.37 992.4 1647.51 992.37 1647.6 992.34C1647.65 992.33 1647.67 992.32 1647.69 992.31C1647.7 992.29 1647.73 992.24 1647.76 992.15C1647.81 992.01 1647.85 991.81 1647.88 991.54C1647.94 991 1647.94 990.26 1647.9 989.33C1647.81 987.47 1647.51 984.93 1647.06 981.91C1646.16 975.88 1644.64 967.99 1642.94 959.98C1641.25 951.97 1639.37 943.85 1637.73 937.33C1636.92 934.07 1636.17 931.22 1635.53 928.99C1634.89 926.75 1634.38 925.16 1634.04 924.41C1634.04 924.41 1634.03 924.38 1633.96 924.32C1633.89 924.26 1633.78 924.19 1633.63 924.12C1633.33 923.97 1632.89 923.81 1632.31 923.65C1631.15 923.34 1629.51 923.04 1627.43 922.76C1623.28 922.2 1617.47 921.71 1610.49 921.29C1596.53 920.45 1577.97 919.88 1558.89 919.5C1520.74 918.73 1480.54 918.7 1471.08 918.7Z" fill="#0A505C"/>
<path d="M1660.5 940.13C1654.91 938.31 1649.2 942.59 1649.38 948.47L1650.27 978.31C1650.39 982.36 1653.71 985.59 1657.77 985.59H1660.5C1664.64 985.59 1668 982.23 1668 978.09V948.02C1668 944.87 1666.04 942.07 1663.1 940.99L1662.82 940.89L1660.5 940.14V940.13Z" fill="#162A33"/>
<path d="M1431.72 927.52C1437.27 925.84 1442.83 930.08 1442.69 935.87L1441.72 974.5C1441.61 978.89 1437.77 982.24 1433.41 981.77L1426.26 980.99C1422.43 980.57 1419.53 977.32 1419.57 973.46L1419.94 936.58C1419.97 933.3 1422.13 930.43 1425.26 929.48L1431.72 927.52Z" fill="#162A33"/>
<path d="M1660.27 985.71C1659.88 985.69 1659.34 985.71 1658.78 985.73C1658.22 985.76 1657.67 985.81 1657.25 985.84C1657.15 985.84 1657.06 985.86 1656.98 985.87C1656.97 985.94 1656.96 986.02 1656.95 986.11C1656.91 986.52 1656.81 987.09 1656.62 987.69C1656.25 988.88 1655.48 990.31 1653.85 990.89C1652.36 991.42 1650.87 991.49 1649.76 991.43C1649.33 991.41 1648.95 991.36 1648.65 991.32L1649.41 994.72C1649.63 994.73 1649.94 994.74 1650.33 994.74C1651.14 994.74 1652.28 994.66 1653.59 994.42C1654.92 994.17 1655.82 993.93 1656.5 993.59C1657.15 993.26 1657.62 992.82 1658.08 992.13C1658.54 991.45 1659.15 989.89 1659.65 988.37C1659.9 987.63 1660.11 986.92 1660.27 986.36C1660.34 986.1 1660.4 985.88 1660.44 985.7C1660.39 985.7 1660.33 985.7 1660.27 985.69V985.71Z" fill="#162A33"/>
<path d="M1437.15 981.7C1437.2 981.83 1437.27 982 1437.35 982.19C1437.55 982.69 1437.86 983.36 1438.26 984.07C1438.66 984.78 1439.15 985.53 1439.74 986.18C1440.32 986.82 1441.02 987.39 1441.83 987.68C1443.28 988.19 1445.56 988.7 1447.46 989.07C1448.41 989.26 1449.28 989.42 1449.9 989.53C1450.2 989.58 1450.44 989.62 1450.61 989.65L1451.33 992.01C1451.12 992.02 1450.86 992.03 1450.56 992.05C1449.69 992.09 1448.51 992.14 1447.24 992.17C1444.69 992.23 1441.87 992.23 1440.59 991.99C1439.31 991.75 1438.38 991.34 1437.66 990.82C1436.94 990.3 1436.4 989.66 1435.92 988.94C1435.44 988.23 1434.46 986.27 1433.64 984.45C1433.24 983.55 1432.89 982.7 1432.67 982.09C1432.62 981.95 1432.58 981.83 1432.54 981.72H1437.15V981.7Z" fill="#162A33"/>
<path d="M1559.99 1073.2C1536.24 1072.82 1512.5 1072.58 1494.69 1072.67C1485.79 1072.72 1478.37 1072.85 1473.19 1073.1C1470.59 1073.22 1468.57 1073.37 1467.2 1073.55C1466.51 1073.64 1466.01 1073.74 1465.69 1073.83C1465.6 1073.86 1465.54 1073.88 1465.5 1073.9C1465.43 1077.5 1463.84 1102.22 1462.83 1117.68C1462.4 1124.24 1467.51 1129.81 1474.08 1129.91C1495.07 1130.21 1538.84 1130.71 1577.88 1130.3C1597.41 1130.09 1615.74 1129.66 1629.45 1128.86C1636.31 1128.46 1642 1127.97 1646.1 1127.37C1648.15 1127.07 1649.79 1126.75 1650.98 1126.4C1651.57 1126.23 1652.03 1126.05 1652.37 1125.88C1652.63 1125.74 1652.79 1125.63 1652.87 1125.54L1652.94 1125.46C1653.51 1124.55 1653.99 1123.08 1654.38 1121.15C1654.76 1119.24 1655.03 1116.93 1655.23 1114.36C1655.61 1109.23 1655.66 1103.12 1655.55 1097.25C1655.45 1091.38 1655.18 1085.76 1654.95 1081.6C1654.83 1079.52 1654.72 1077.81 1654.64 1076.62C1654.59 1076.03 1654.56 1075.56 1654.54 1075.24V1075.2C1654.54 1075.2 1654.47 1075.2 1654.44 1075.2C1654.08 1075.2 1653.55 1075.18 1652.85 1075.16C1651.46 1075.12 1649.42 1075.07 1646.82 1075.01C1641.63 1074.88 1634.21 1074.7 1625.3 1074.5C1607.49 1074.09 1583.74 1073.59 1559.99 1073.22V1073.2Z" fill="#142634"/>
<path d="M1661.4 940.33C1661.05 940.31 1660.55 940.23 1660.01 940.12C1659.05 939.93 1658.02 939.66 1657.59 939.54C1657.58 939.49 1657.57 939.42 1657.56 939.32C1657.54 939.04 1657.53 938.54 1657.45 938.06C1657.38 937.56 1657.22 937 1656.87 936.48C1656.51 935.96 1655.96 935.52 1655.17 935.23C1654.76 935.09 1654.17 934.98 1653.48 934.9C1652.78 934.82 1651.94 934.75 1651.02 934.7C1649.19 934.61 1647.02 934.57 1644.94 934.57C1642.86 934.57 1640.87 934.6 1639.41 934.63C1638.67 934.65 1638.07 934.66 1637.64 934.67C1637.52 934.67 1637.41 934.67 1637.32 934.68L1635.76 931.17C1635.76 931.17 1635.79 931.17 1635.8 931.17C1636.31 931.16 1637.04 931.14 1637.92 931.12C1639.67 931.08 1642.05 931.03 1644.5 931C1646.96 930.97 1649.49 930.95 1651.58 930.98C1653.69 931 1655.29 931.07 1655.91 931.18C1657.2 931.42 1657.99 931.77 1658.58 932.21C1659.17 932.66 1659.59 933.22 1660.08 933.96C1660.29 934.26 1660.49 934.79 1660.67 935.47C1660.86 936.13 1661.01 936.9 1661.13 937.64C1661.32 938.75 1661.43 939.78 1661.48 940.32C1661.45 940.32 1661.43 940.32 1661.4 940.32V940.33Z" fill="#162A33"/>
<path d="M1433.26 927.39C1433.81 927.33 1434.72 927.2 1436 927.2C1436.26 927.2 1436.41 927.16 1436.49 927.11C1436.58 927.07 1436.63 927.01 1436.68 926.91C1436.81 926.68 1436.84 926.33 1436.88 925.79C1436.92 925.3 1436.98 924.68 1437.24 924.12C1437.52 923.53 1438 923.03 1438.83 922.73C1439.24 922.59 1439.82 922.47 1440.51 922.38C1441.21 922.28 1442.05 922.2 1442.96 922.13C1444.79 921.99 1446.96 921.89 1449.04 921.83C1451.12 921.77 1453.11 921.74 1454.58 921.72C1455.17 921.72 1455.68 921.72 1456.07 921.71L1454.23 918.93C1454.14 918.93 1454.01 918.93 1453.87 918.93C1453.46 918.93 1452.87 918.95 1452.15 918.97C1450.72 919 1448.79 919.05 1446.77 919.12C1444.75 919.19 1442.65 919.27 1440.89 919.36C1439.12 919.46 1437.72 919.57 1437.09 919.69C1435.84 919.92 1435.07 920.38 1434.56 920.97C1434.03 921.57 1433.73 922.35 1433.49 923.32C1433.07 924.99 1433.01 926.66 1433 927.41C1433.07 927.41 1433.15 927.4 1433.26 927.39Z" fill="#162A33"/>
<path d="M1558.78 864.3V901.96H1385L1385.5 855L1558.78 864.3Z" fill="#ADADAD"/>
<path d="M1507.46 1025.29C1503.15 1025.25 1499.69 1028.83 1499.89 1033.13L1501.15 1060.65C1501.34 1064.61 1504.57 1067.75 1508.54 1067.81L1636.17 1069.59C1640.25 1069.65 1643.63 1066.43 1643.77 1062.35L1644.72 1034.38C1644.86 1030.17 1641.51 1026.67 1637.3 1026.62L1507.46 1025.29Z" fill="#1D3541"/>
<path d="M1644 1037.7H1500.56C1500.31 1037.7 1500.1 1037.88 1500.07 1038.12V1038.22L1500.23 1041.22C1500.25 1041.49 1500.47 1041.69 1500.73 1041.69H1644C1644.28 1041.69 1644.5 1041.47 1644.5 1041.19V1038.19C1644.5 1037.95 1644.33 1037.75 1644.1 1037.7H1644Z" fill="#1F444D"/>
<path d="M1500.55 1051.7L1500.95 1055.7L1644 1055.2V1051.7H1500.55Z" fill="#1F444D"/>
<path d="M1617.03 1091.3L1542.13 1092.61C1539.23 1092.66 1536.87 1094.95 1536.73 1097.85L1536.56 1101.37C1536.27 1107.48 1541.25 1112.54 1547.36 1112.36L1614.68 1110.39C1618.01 1110.29 1620.72 1107.7 1620.97 1104.38L1621.59 1096.14C1621.78 1093.58 1619.8 1091.4 1617.27 1091.31H1617.03V1091.3Z" fill="#1D3541"/>
<path d="M1646.32 1081.7C1641.19 1081.7 1636.8 1085.41 1635.96 1090.47L1634.19 1101.12C1634.14 1101.42 1634.37 1101.7 1634.68 1101.7H1655.5V1081.7H1646.32Z" fill="#E2E1DD"/>
<path d="M1480.22 1081.84C1477.63 1081.77 1475.5 1084.28 1475.5 1087.39V1098.2C1475.5 1102.34 1478.29 1105.7 1481.74 1105.7H1508.16C1509.85 1105.7 1511.25 1104.15 1511.4 1102.15L1511.42 1101.96C1511.79 1091.38 1504.86 1082.5 1496.05 1082.27L1480.23 1081.85L1480.22 1081.84Z" fill="#E2E1DD"/>
<path d="M1412 1020.7H1399C1397.62 1020.7 1396.5 1021.82 1396.5 1023.2V1025.2C1396.5 1026.58 1397.62 1027.7 1399 1027.7H1412C1413.38 1027.7 1414.5 1026.58 1414.5 1025.2V1023.2C1414.5 1021.82 1413.38 1020.7 1412 1020.7Z" stroke="black"/>
<path d="M1366.56 1069.63C1358.14 1069.57 1346.72 1069.64 1335.29 1069.79C1323.85 1069.94 1312.41 1070.17 1303.95 1070.42C1299.72 1070.55 1296.24 1070.68 1293.89 1070.81C1292.79 1070.87 1291.95 1070.93 1291.39 1070.99C1291.53 1071.24 1291.67 1071.55 1291.81 1071.9C1292.13 1072.69 1292.47 1073.75 1292.81 1074.98C1293.5 1077.44 1294.23 1080.62 1294.9 1083.75C1295.56 1086.89 1296.17 1089.99 1296.6 1092.31C1296.82 1093.47 1297 1094.43 1297.12 1095.11C1297.17 1095.38 1297.21 1095.6 1297.24 1095.77L1370.12 1098.18C1370.17 1097.98 1370.24 1097.72 1370.32 1097.39C1370.52 1096.64 1370.8 1095.56 1371.15 1094.26C1371.84 1091.66 1372.79 1088.18 1373.81 1084.65C1374.83 1081.12 1375.93 1077.54 1376.91 1074.75C1377.41 1073.35 1377.88 1072.14 1378.3 1071.23C1378.51 1070.77 1378.71 1070.38 1378.91 1070.07C1378.92 1070.05 1378.94 1070.02 1378.96 1070C1378.42 1069.94 1377.6 1069.88 1376.54 1069.84C1374.22 1069.74 1370.77 1069.68 1366.56 1069.65V1069.63Z" fill="#214859"/>
<path d="M1411.91 1070.51C1410.75 1070.51 1409.75 1070.54 1408.96 1070.57C1415.57 1073.85 1420.82 1078.37 1424.65 1085.25C1428.8 1092.7 1431.25 1102.89 1432 1117.17V1117.2C1432 1127 1430.29 1137.39 1426.09 1145.82C1422.43 1153.15 1416.86 1159.02 1408.89 1161.7H1434.37C1439.12 1159.07 1442.43 1155.95 1445.09 1151.02C1447.78 1146.03 1449.83 1139.18 1452.01 1129.11C1452.01 1129.1 1452.01 1129.08 1452.02 1129.06C1452.02 1129.01 1452.03 1128.94 1452.05 1128.84C1452.07 1128.65 1452.11 1128.36 1452.16 1127.99C1452.25 1127.25 1452.37 1126.17 1452.48 1124.82C1452.7 1122.11 1452.91 1118.32 1452.81 1113.97C1452.63 1105.25 1451.25 1094.34 1446.56 1085.44C1441.92 1076.65 1432.12 1072.94 1423.35 1071.45C1418.98 1070.71 1414.9 1070.52 1411.91 1070.52V1070.51Z" fill="#132229"/>
<path d="M1407.79 1070.72C1400.75 1070.72 1394.26 1075.68 1389.5 1083.93C1384.75 1092.17 1381.8 1103.58 1381.8 1116.22C1381.8 1128.86 1384.75 1140.27 1389.5 1148.5C1394.26 1156.75 1400.75 1161.72 1407.79 1161.72C1414.83 1161.72 1421.33 1156.76 1426.09 1148.5C1430.83 1140.26 1433.78 1128.85 1433.78 1116.22C1433.78 1103.59 1430.83 1092.17 1426.09 1083.93C1421.33 1075.68 1414.84 1070.72 1407.79 1070.72Z" fill="#152F3C"/>
<path d="M1404.51 1092.86C1398.67 1092.86 1389.31 1099.27 1390.44 1118.88L1390.51 1119.82C1390.96 1126 1392.45 1131.54 1394.9 1135.52C1397.35 1139.48 1400.73 1141.86 1405.01 1141.86C1407.96 1141.86 1411.27 1139.79 1413.83 1136.13C1416.31 1132.6 1418.03 1127.66 1418.01 1121.93V1121.37C1417.76 1110.41 1415.85 1103.26 1413.27 1098.86C1410.7 1094.48 1407.47 1092.86 1404.51 1092.86Z" fill="#636F6F"/>
<path d="M1405 1106.7C1404.64 1106.7 1404.24 1106.89 1403.81 1107.36C1403.39 1107.83 1402.99 1108.54 1402.64 1109.45C1401.94 1111.28 1401.5 1113.84 1401.5 1116.7C1401.5 1119.56 1401.94 1122.12 1402.64 1123.95C1402.99 1124.87 1403.39 1125.57 1403.81 1126.04C1404.24 1126.51 1404.64 1126.7 1405 1126.7C1405.36 1126.7 1405.76 1126.51 1406.19 1126.04C1406.61 1125.57 1407.01 1124.86 1407.36 1123.95C1408.06 1122.12 1408.5 1119.56 1408.5 1116.7C1408.5 1113.84 1408.06 1111.28 1407.36 1109.45C1407.01 1108.53 1406.61 1107.83 1406.19 1107.36C1405.76 1106.89 1405.36 1106.7 1405 1106.7Z" fill="#1D313C"/>
<path d="M1274.15 1065.7C1273.29 1065.7 1272.54 1065.72 1271.91 1065.74C1277.62 1068.4 1282.17 1072.04 1285.52 1077.54C1289.22 1083.63 1291.4 1091.93 1292.07 1103.57V1103.6C1292.07 1111.59 1290.55 1120.06 1286.8 1126.94C1283.62 1132.76 1278.84 1137.45 1272.05 1139.71H1294.12C1298.34 1137.58 1301.27 1135.04 1303.62 1131.05C1306.01 1127.01 1307.83 1121.45 1309.77 1113.25V1113.22C1309.77 1113.22 1309.79 1113.12 1309.8 1113.04C1309.82 1112.88 1309.86 1112.65 1309.9 1112.35C1309.98 1111.75 1310.08 1110.87 1310.18 1109.77C1310.38 1107.57 1310.56 1104.49 1310.48 1100.95C1310.31 1093.86 1309.09 1085.01 1304.93 1077.8C1300.83 1070.69 1292.14 1067.67 1284.33 1066.45C1280.44 1065.85 1276.81 1065.69 1274.15 1065.69V1065.7Z" fill="#132229"/>
<path d="M1273.35 1065.7C1268.02 1065.75 1263.08 1069.63 1259.43 1076.12C1255.77 1082.64 1253.49 1091.68 1253.49 1101.69C1253.49 1111.7 1255.38 1121.27 1258.66 1128.3C1261.95 1135.37 1266.55 1139.69 1271.88 1139.69C1277.21 1139.69 1283.1 1135.5 1287.39 1128.56C1291.67 1121.65 1294.34 1112.13 1293.42 1101.73C1292.63 1092.74 1291.33 1085.44 1288.34 1079.53C1285.4 1073.67 1280.78 1069.14 1273.33 1065.69L1273.35 1065.7Z" fill="#152F3C"/>
<path d="M1272.25 1084.7C1270.06 1084.7 1267.48 1086.24 1265.56 1090.06C1263.7 1093.76 1262.5 1099.53 1262.95 1107.85L1263 1108.66C1263.35 1114 1264.15 1118.55 1265.69 1121.75C1266.46 1123.34 1267.4 1124.58 1268.53 1125.41C1269.66 1126.24 1271.01 1126.7 1272.63 1126.7C1273.68 1126.7 1274.83 1126.16 1276 1125.1C1277.17 1124.04 1278.3 1122.51 1279.28 1120.64C1281.19 1117.01 1282.52 1112.16 1282.51 1107.2V1106.72C1282.31 1097.29 1280.84 1091.77 1278.88 1088.63C1277.91 1087.07 1276.82 1086.09 1275.7 1085.51C1274.58 1084.92 1273.41 1084.71 1272.25 1084.71V1084.7Z" fill="#636F6F"/>
<path d="M1271.73 1095.64C1271.44 1095.64 1271.1 1095.79 1270.74 1096.2C1270.37 1096.61 1270.02 1097.22 1269.72 1098.03C1269.11 1099.64 1268.73 1101.89 1268.73 1104.41C1268.73 1106.93 1269.11 1109.18 1269.72 1110.79C1270.02 1111.6 1270.37 1112.21 1270.74 1112.62C1271.1 1113.03 1271.44 1113.18 1271.73 1113.18C1272.02 1113.18 1272.35 1113.03 1272.71 1112.62C1273.08 1112.21 1273.43 1111.6 1273.73 1110.79C1274.34 1109.18 1274.72 1106.93 1274.72 1104.41C1274.72 1101.89 1274.34 1099.64 1273.73 1098.03C1273.43 1097.23 1273.08 1096.61 1272.71 1096.2C1272.35 1095.79 1272.02 1095.64 1271.73 1095.64Z" fill="#1D313C"/>
<path d="M1230.22 900.44C1224.77 902.03 1220.91 907.63 1220.8 914.11L1218.51 1042.17L1385.5 1033.57V854.99L1230.22 900.43V900.44Z" fill="#DBDBDB"/>
<path d="M1599.5 1154.51C1608.18 1151.15 1614.33 1143.52 1619 1126.7L1554.5 1128.37C1558.5 1141.37 1562 1148.39 1568.5 1152.84C1575 1157.29 1587.39 1157.2 1599.5 1154.51Z" fill="#132229"/>
<path d="M1245.28 993.73L1247.88 966.14H1240.01C1239.35 966.14 1238.93 964.65 1239.26 963.45L1250.63 921.2C1251.11 919.41 1252.42 920.42 1252.23 922.43L1249.63 950.02H1257.5C1258.16 950.02 1258.58 951.51 1258.25 952.71L1246.88 994.96C1246.4 996.75 1245.09 995.74 1245.28 993.73Z" fill="#34A97C"/>
<path d="M1321.31 1069.7C1320.45 1069.7 1319.7 1069.72 1319.07 1069.74C1324.78 1072.4 1329.33 1076.04 1332.68 1081.54C1336.38 1087.63 1338.56 1095.93 1339.23 1107.57V1107.6C1339.23 1115.59 1337.71 1124.06 1333.96 1130.94C1330.78 1136.76 1326 1141.45 1319.21 1143.71H1341.28C1345.5 1141.58 1348.43 1139.04 1350.78 1135.05C1353.17 1131.01 1354.99 1125.45 1356.93 1117.25V1117.22C1356.93 1117.22 1356.95 1117.12 1356.96 1117.04C1356.98 1116.88 1357.02 1116.65 1357.06 1116.35C1357.14 1115.75 1357.24 1114.87 1357.34 1113.77C1357.54 1111.57 1357.72 1108.49 1357.64 1104.95C1357.47 1097.86 1356.25 1089.01 1352.09 1081.8C1347.99 1074.69 1339.3 1071.67 1331.49 1070.45C1327.6 1069.85 1323.97 1069.69 1321.31 1069.69V1069.7Z" fill="#132229"/>
<path d="M1320.42 1069.7C1315.11 1069.75 1310.2 1073.63 1306.57 1080.12C1302.93 1086.64 1300.66 1095.68 1300.66 1105.69C1300.66 1115.7 1302.54 1125.27 1305.81 1132.3C1309.09 1139.37 1313.67 1143.69 1318.97 1143.69C1324.27 1143.69 1330.15 1139.5 1334.41 1132.56C1338.67 1125.65 1341.33 1116.13 1340.42 1105.73C1339.64 1096.74 1338.34 1089.44 1335.37 1083.53C1332.44 1077.67 1327.85 1073.14 1320.43 1069.69L1320.42 1069.7Z" fill="#152F3C"/>
<path d="M1319.41 1088.7C1317.22 1088.7 1314.64 1090.24 1312.72 1094.06C1310.86 1097.76 1309.66 1103.53 1310.11 1111.85L1310.16 1112.66C1310.51 1118 1311.31 1122.55 1312.85 1125.75C1313.62 1127.34 1314.56 1128.58 1315.69 1129.41C1316.82 1130.24 1318.17 1130.7 1319.79 1130.7C1320.84 1130.7 1321.99 1130.16 1323.16 1129.1C1324.33 1128.04 1325.46 1126.51 1326.44 1124.64C1328.35 1121.01 1329.68 1116.16 1329.67 1111.2V1110.72C1329.47 1101.29 1328 1095.77 1326.04 1092.63C1325.07 1091.07 1323.98 1090.09 1322.86 1089.51C1321.74 1088.92 1320.57 1088.71 1319.41 1088.71V1088.7Z" fill="#636F6F"/>
<path d="M1318.89 1099.64C1318.6 1099.64 1318.26 1099.79 1317.9 1100.2C1317.53 1100.61 1317.18 1101.22 1316.88 1102.03C1316.27 1103.64 1315.89 1105.89 1315.89 1108.41C1315.89 1110.93 1316.27 1113.18 1316.88 1114.79C1317.18 1115.6 1317.53 1116.21 1317.9 1116.62C1318.26 1117.03 1318.6 1117.18 1318.89 1117.18C1319.18 1117.18 1319.51 1117.03 1319.87 1116.62C1320.24 1116.21 1320.59 1115.6 1320.89 1114.79C1321.5 1113.18 1321.88 1110.93 1321.88 1108.41C1321.88 1105.89 1321.5 1103.64 1320.89 1102.03C1320.59 1101.23 1320.24 1100.61 1319.87 1100.2C1319.51 1099.79 1319.18 1099.64 1318.89 1099.64Z" fill="#1D313C"/>
<path d="M1220.5 979.5H1250.5C1260.16 979.5 1268 987.34 1268 997V1157.5H1203V997C1203 987.34 1210.84 979.5 1220.5 979.5Z" fill="#000E16"/>
<path d="M1220.5 983.5H1250.5C1257.96 983.5 1264 989.54 1264 997V1157.5H1207V997C1207 989.54 1213.04 983.5 1220.5 983.5Z" fill="#C6E0E1"/>
<path d="M1280.5 1157.5H1190.5C1190.22 1157.5 1190 1157.72 1190 1158V1161C1190 1161.28 1190.22 1161.5 1190.5 1161.5H1280.5C1280.78 1161.5 1281 1161.28 1281 1161V1158C1281 1157.72 1280.78 1157.5 1280.5 1157.5Z" fill="#000E16"/>
<path d="M1226.5 1001.5H1244C1248.69 1001.5 1252.5 1005.31 1252.5 1010V1048.5C1252.5 1053.19 1248.69 1057 1244 1057H1226.5C1221.81 1057 1218 1053.19 1218 1048.5V1010C1218 1005.31 1221.81 1001.5 1226.5 1001.5Z" fill="#39968B"/>
<path d="M1240 1102.5H1236V1157.5H1240V1102.5Z" fill="#183543"/>
<path d="M1240.5 1077.5H1233.5C1230.46 1077.5 1228 1079.96 1228 1083V1097C1228 1100.04 1230.46 1102.5 1233.5 1102.5H1240.5C1243.54 1102.5 1246 1100.04 1246 1097V1083C1246 1079.96 1243.54 1077.5 1240.5 1077.5Z" fill="#183543"/>
<path d="M1225.5 1032.5L1237 1012V1028L1244.5 1026.5L1232 1047V1032.5H1225.5Z" fill="#BCDEDF"/>
<path d="M1264.46 981.314L1262 981.806L1267.57 931.664L1269.98 931.179L1278.63 978.474L1276.17 978.967L1269.09 939.114L1268.94 939.144L1264.46 981.314ZM1264.76 962.101L1274.67 960.117L1274.83 965.351L1264.93 967.335L1264.76 962.101Z" fill="black"/>
<path d="M1281.34 977.931L1280.19 941.392L1282.34 940.96L1282.52 946.669L1282.71 946.632C1282.95 944.62 1283.39 943.008 1284.03 941.795C1284.67 940.565 1285.46 939.856 1286.41 939.667C1287.37 939.475 1288.18 939.862 1288.85 940.829C1289.53 941.779 1290.08 943.193 1290.5 945.072L1290.65 945.041C1290.96 943.08 1291.47 941.469 1292.18 940.21C1292.89 938.935 1293.76 938.194 1294.8 937.986C1296.1 937.726 1297.19 938.536 1298.08 940.416C1298.97 942.281 1299.48 945.362 1299.62 949.66L1300.39 974.115L1298.16 974.561L1297.39 950.107C1297.3 947.411 1296.95 945.543 1296.33 944.502C1295.71 943.462 1295 943.021 1294.2 943.18C1293.18 943.385 1292.42 944.32 1291.91 945.987C1291.39 947.637 1291.18 949.644 1291.25 952.007L1292 975.796L1289.73 976.25L1288.94 951.224C1288.88 949.147 1288.56 947.527 1287.98 946.366C1287.41 945.189 1286.69 944.685 1285.85 944.854C1285.27 944.97 1284.74 945.467 1284.26 946.345C1283.79 947.222 1283.42 948.381 1283.16 949.822C1282.9 951.247 1282.79 952.855 1282.85 954.647L1283.57 977.484L1281.34 977.931Z" fill="black"/>
<path d="M1304.9 987L1303.32 936.758L1305.47 936.327L1305.65 942.131L1305.92 942.078C1306.06 941.411 1306.26 940.557 1306.52 939.516C1306.79 938.457 1307.18 937.484 1307.7 936.598C1308.23 935.694 1308.97 935.147 1309.92 934.958C1311.14 934.713 1312.24 935.266 1313.22 936.618C1314.2 937.969 1315 940.004 1315.61 942.722C1316.22 945.44 1316.59 948.718 1316.71 952.556C1316.83 956.426 1316.68 959.832 1316.24 962.776C1315.81 965.704 1315.15 968.037 1314.28 969.777C1313.4 971.501 1312.36 972.484 1311.15 972.726C1310.21 972.913 1309.46 972.674 1308.87 972.009C1308.28 971.329 1307.83 970.519 1307.49 969.581C1307.16 968.626 1306.9 967.832 1306.71 967.199L1306.52 967.237L1307.13 986.553L1304.9 987ZM1306.09 954.589C1306.17 957.348 1306.41 959.751 1306.8 961.795C1307.19 963.825 1307.71 965.372 1308.36 966.438C1309.02 967.488 1309.79 967.923 1310.69 967.744C1311.62 967.557 1312.38 966.783 1312.96 965.421C1313.55 964.041 1313.97 962.266 1314.22 960.093C1314.47 957.904 1314.56 955.509 1314.48 952.908C1314.4 950.339 1314.16 948.055 1313.78 946.056C1313.41 944.041 1312.89 942.493 1312.22 941.414C1311.56 940.318 1310.75 939.864 1309.81 940.054C1308.9 940.235 1308.16 940.967 1307.58 942.248C1307 943.514 1306.58 945.209 1306.33 947.334C1306.08 949.443 1306 951.861 1306.09 954.589Z" fill="black"/>
<path d="M1323.48 969.489L1317.9 933.836L1320.25 933.367L1324.27 960.713L1324.42 960.683L1326.63 932.087L1329.02 931.61L1332.96 958.877L1333.11 958.846L1335.37 930.338L1337.71 929.868L1334.44 967.293L1332.25 967.733L1328.19 940.298L1327.96 940.344L1325.67 969.05L1323.48 969.489Z" fill="black"/>
<path d="M1346.11 965.817C1345.19 966.002 1344.34 965.733 1343.57 965.011C1342.79 964.273 1342.15 963.115 1341.66 961.539C1341.16 959.946 1340.88 957.96 1340.8 955.581C1340.74 953.488 1340.85 951.758 1341.13 950.392C1341.42 949.01 1341.83 947.892 1342.35 947.036C1342.87 946.181 1343.46 945.505 1344.11 945.008C1344.77 944.493 1345.43 944.058 1346.1 943.7C1346.97 943.238 1347.68 942.881 1348.22 942.628C1348.77 942.359 1349.17 942.016 1349.41 941.601C1349.65 941.185 1349.76 940.524 1349.73 939.62L1349.73 939.43C1349.65 937.083 1349.34 935.31 1348.79 934.112C1348.24 932.913 1347.46 932.416 1346.43 932.621C1345.37 932.835 1344.55 933.589 1343.98 934.883C1343.41 936.178 1343.03 937.516 1342.83 938.898L1340.65 937.419C1340.96 935.123 1341.41 933.293 1342 931.93C1342.59 930.549 1343.26 929.538 1343.99 928.897C1344.73 928.238 1345.47 927.835 1346.2 927.689C1346.66 927.595 1347.2 927.631 1347.82 927.795C1348.44 927.942 1349.04 928.387 1349.64 929.13C1350.24 929.871 1350.76 931.069 1351.19 932.722C1351.62 934.375 1351.88 936.652 1351.97 939.554L1352.74 963.628L1350.51 964.075L1350.35 959.127L1350.24 959.15C1350.11 959.973 1349.88 960.872 1349.56 961.847C1349.24 962.821 1348.79 963.684 1348.23 964.436C1347.66 965.188 1346.95 965.648 1346.11 965.817ZM1346.29 960.706C1347.17 960.529 1347.9 959.944 1348.48 958.951C1349.06 957.956 1349.49 956.738 1349.75 955.297C1350.02 953.854 1350.14 952.371 1350.09 950.849L1349.93 945.71C1349.84 946.015 1349.64 946.318 1349.33 946.62C1349.02 946.905 1348.66 947.177 1348.25 947.435C1347.84 947.675 1347.45 947.898 1347.06 948.103C1346.68 948.291 1346.37 948.449 1346.14 948.576C1345.56 948.883 1345.03 949.3 1344.54 949.829C1344.06 950.341 1343.67 951.049 1343.39 951.951C1343.11 952.836 1343 953.993 1343.04 955.42C1343.1 957.371 1343.44 958.788 1344.04 959.672C1344.65 960.539 1345.4 960.884 1346.29 960.706Z" fill="black"/>
<path d="M1358.16 976.331C1357.78 976.407 1357.44 976.395 1357.14 976.296C1356.84 976.213 1356.63 976.111 1356.51 975.991L1356.92 970.929C1357.47 971.17 1357.96 971.201 1358.37 971.022C1358.78 970.844 1359.14 970.302 1359.43 969.397C1359.73 968.507 1359.99 967.107 1360.2 965.197L1360.53 962.259L1354 926.605L1356.42 926.12L1361.34 954.435L1361.49 954.405L1364.58 924.485L1367 924L1362.16 967.102C1361.94 969.045 1361.65 970.676 1361.28 971.995C1360.91 973.33 1360.46 974.353 1359.94 975.064C1359.43 975.774 1358.83 976.196 1358.16 976.331Z" fill="black"/>
</g>
<defs>
<filter id="filter0_d_11_54" x="-53" y="1113.88" width="2026" height="246.649" filterUnits="userSpaceOnUse" color-interpolation-filters="sRGB">
<feFlood flood-opacity="0" result="BackgroundImageFix"/>
<feColorMatrix in="SourceAlpha" type="matrix" values="0 0 0 0 0 0 0 0 0 0 0 0 0 0 0 0 0 0 127 0" result="hardAlpha"/>
<feOffset dy="4"/>
<feGaussianBlur stdDeviation="26.5"/>
<feComposite in2="hardAlpha" operator="out"/>
<feColorMatrix type="matrix" values="0 0 0 0 0 0 0 0 0 0 0 0 0 0 0 0 0 0 0.25 0"/>
<feBlend mode="normal" in2="BackgroundImageFix" result="effect1_dropShadow_11_54"/>
<feBlend mode="normal" in="SourceGraphic" in2="effect1_dropShadow_11_54" result="shape"/>
</filter>
<linearGradient id="paint0_linear_11_54" x1="961.126" y1="1250.16" x2="961.126" y2="1374.52" gradientUnits="userSpaceOnUse">
<stop stop-color="#A1D0C6"/>
<stop offset="1" stop-color="#C7E6E0" stop-opacity="0.5"/>
</linearGradient>
<linearGradient id="paint1_linear_11_54" x1="1921.13" y1="1233.98" x2="-33.783" y2="1233.98" gradientUnits="userSpaceOnUse">
<stop stop-color="#84C0B4"/>
<stop offset="1" stop-color="#68AAA0"/>
</linearGradient>
<linearGradient id="paint2_linear_11_54" x1="0" y1="1157.77" x2="1917.75" y2="1157.77" gradientUnits="userSpaceOnUse">
<stop stop-color="#518D8D"/>
<stop offset="1" stop-color="#4B8084"/>
</linearGradient>
<clipPath id="clip0_11_54">
<rect width="1920" height="1450" fill="white"/>
</clipPath>
</defs>
</svg>
