<?xml version="1.0" encoding="UTF-8"?>
<svg id="Layer_1" data-name="Layer 1" xmlns="http://www.w3.org/2000/svg" xmlns:xlink="http://www.w3.org/1999/xlink" viewBox="0 0 1920 1080">
  <defs>
    <style>
      .cls-1 {
        fill: #1d3541;
      }

      .cls-2 {
        fill: #19865c;
      }

      .cls-3 {
        letter-spacing: 0em;
      }

      .cls-4 {
        fill: #8bd4e3;
      }

      .cls-5 {
        fill: #0a4f5e;
      }

      .cls-6 {
        fill: #dbdbdb;
      }

      .cls-7 {
        fill: #aae4d5;
      }

      .cls-8 {
        letter-spacing: 0em;
      }

      .cls-9 {
        fill: #0e2a36;
      }

      .cls-10 {
        fill: #152f3c;
      }

      .cls-11 {
        fill: #636f6f;
      }

      .cls-12 {
        fill: #6ac0cf;
      }

      .cls-13 {
        fill: #142634;
      }

      .cls-14 {
        fill: #0f2f3c;
      }

      .cls-15 {
        fill: #1d313c;
      }

      .cls-16 {
        fill: #ffbb34;
      }

      .cls-17 {
        fill: #d7f3e5;
      }

      .cls-18 {
        letter-spacing: 0em;
      }

      .cls-19 {
        fill: #1b3b46;
      }

      .cls-20 {
        fill: #fae9be;
      }

      .cls-21 {
        fill: #bcdedf;
      }

      .cls-22 {
        fill: #000e16;
      }

      .cls-23 {
        fill: #1c3c47;
      }

      .cls-24 {
        fill: #0e2e3b;
      }

      .cls-25 {
        letter-spacing: 0em;
      }

      .cls-26 {
        fill: #d0eff1;
      }

      .cls-27 {
        fill: #34a97c;
      }

      .cls-28 {
        fill: #1f444d;
      }

      .cls-29 {
        fill: #48666e;
      }

      .cls-30 {
        fill: #466770;
      }

      .cls-31 {
        fill: #0a505c;
      }

      .cls-32 {
        fill: #1a3644;
      }

      .cls-33 {
        fill: #214859;
      }

      .cls-34 {
        fill: #113945;
      }

      .cls-35 {
        fill: #0a2c38;
      }

      .cls-36 {
        fill: #08505e;
      }

      .cls-37 {
        font-size: 52.03px;
      }

      .cls-37, .cls-38 {
        font-family: MyriadPro-Regular, 'Myriad Pro';
      }

      .cls-39 {
        fill: #f59000;
      }

      .cls-40 {
        fill: #0b2732;
      }

      .cls-41 {
        fill: #0e3441;
      }

      .cls-42 {
        fill: #dd8a08;
      }

      .cls-43 {
        fill: #1b3647;
      }

      .cls-44 {
        fill: #ddf4ec;
      }

      .cls-45 {
        fill: #10303b;
      }

      .cls-46 {
        letter-spacing: 0em;
      }

      .cls-47 {
        letter-spacing: 0em;
      }

      .cls-48 {
        fill: #164a58;
      }

      .cls-49 {
        fill: #183543;
      }

      .cls-50 {
        clip-path: url(#clippath);
      }

      .cls-51 {
        letter-spacing: 0em;
      }

      .cls-52 {
        fill: #24677a;
      }

      .cls-53 {
        fill: #adadad;
      }

      .cls-54 {
        fill: #39968b;
      }

      .cls-55, .cls-56 {
        fill: none;
      }

      .cls-57 {
        fill: #e2e1dd;
      }

      .cls-58 {
        fill: #0f313d;
      }

      .cls-59 {
        fill: #173744;
      }

      .cls-60 {
        fill: #162a33;
      }

      .cls-61 {
        fill: #294751;
      }

      .cls-62 {
        fill: #12323f;
      }

      .cls-63 {
        fill: #254751;
      }

      .cls-38 {
        font-size: 49.04px;
      }

      .cls-64 {
        fill: #0e303c;
      }

      .cls-65 {
        fill: #ffac20;
      }

      .cls-66 {
        fill: #132229;
      }

      .cls-67 {
        letter-spacing: 0em;
      }

      .cls-68 {
        fill: #d1f0f2;
      }

      .cls-69 {
        fill: #102a37;
      }

      .cls-70 {
        fill: #d5eef2;
      }

      .cls-56 {
        stroke: #000;
      }

      .cls-71 {
        fill: #c6e0e1;
      }

      .cls-72 {
        letter-spacing: 0em;
      }

      .cls-73 {
        fill: #e3e3e3;
      }

      .cls-74 {
        fill: #279e74;
      }
    </style>
    <clipPath id="clippath">
      <rect class="cls-55" width="1920" height="1080"/>
    </clipPath>
  </defs>
  <g class="cls-50">
    <path class="cls-17" d="m372.31,808s-300.14,102.54-151.03,163.74,429.95,27.24,429.95,27.24c0,0,149.22,70.72,287.55,66.64s165.93-55.15,272.64-55.15,199.32,42.89,299.06,36.77,177.35-81.26,183.48-93.73,38.81-83.8-46.98-101.8-1274.67-43.7-1274.67-43.7Z"/>
    <path class="cls-7" d="m317.6,944s452.09-67.87,480.18-15-465.56,50.66-480.18,15Z"/>
    <g>
      <path class="cls-68" d="m1467.5,849l25-410,12,1.5,5,408.5h-42Z"/>
      <path class="cls-70" d="m1486.5,434.5v-1m0,0c-17.27,7.95-26.5,16.5-44.5,21.5s-121,5-121,5c31.5-11.41,49.22-16.68,81-23.5l82-14.5c.5,5.5,0,3,2.5,11.5Z"/>
      <circle class="cls-26" cx="1500" cy="425" r="15.5"/>
      <path class="cls-70" d="m1503,361c-5.12,18.36-5.5,48.5-5.5,48.5,4.67-.23,7.6.47,13.5,3.5,0,0,49-152,46.5-155.5s-42.5,60.5-54.5,103.5Z"/>
      <path class="cls-70" d="m1520,467c-1.5-1.5-14.5-27-14.5-27l7.5-6s29,21.5,32.5,25,81,126,64.5,111c-11.65-10.59-28.5-28.5-28.5-28.5,0,0-60-73-61.5-74.5Z"/>
      <circle class="cls-44" cx="1500" cy="425" r="6.5"/>
    </g>
    <g>
      <path class="cls-68" d="m420.4,919.51l5-408.5,12-1.5,25,410h-42Z"/>
      <path class="cls-70" d="m443.4,504.01v1m2.5-12.5l82,14.5c31.78,6.82,49.5,12.09,81,23.5,0,0-103,0-121-5s-27.23-13.55-44.5-21.5c2.5-8.5,2-6,2.5-11.5Z"/>
      <circle class="cls-26" cx="429.9" cy="495.51" r="15.5"/>
      <path class="cls-70" d="m372.4,328.01c-2.5,3.5,46.5,155.5,46.5,155.5,5.9-3.03,8.83-3.73,13.5-3.5,0,0-.38-30.14-5.5-48.5-12-43-52-107-54.5-103.5Z"/>
      <path class="cls-70" d="m348.4,612.01s-16.85,17.91-28.5,28.5c-16.5,15,61-107.5,64.5-111s32.5-25,32.5-25l7.5,6s-13,25.5-14.5,27-61.5,74.5-61.5,74.5Z"/>
      <circle class="cls-44" cx="429.9" cy="495.51" r="6.5"/>
    </g>
    <polygon class="cls-16" points="832.65 783.56 823.36 821.29 1115.08 820.2 1107.19 782.86 832.65 783.56"/>
    <path class="cls-2" d="m1484.5,696.44l-74.07.37c-.08-.1-.17-.2-.26-.3-1.19-1.41-2.7-2.56-4.43-3.49l73.75,3.24,5.01.18Z"/>
    <path class="cls-9" d="m1398.59,857.45c-11.25-22.15-55.82-31.25-79.12-9.34-14.87,13.99-20.31,39.88-9.81,53.56,16.86,21.96,74.89,12.45,88.62-16.5.52-1.09,6.82-14.92.32-27.71Z"/>
    <path class="cls-14" d="m754.05,838.9c-11.25-22.15-55.82-31.25-79.12-9.34-14.87,13.99-20.31,39.88-9.81,53.56,16.86,21.96,74.89,12.45,88.62-16.5.52-1.09,6.82-14.92.32-27.71Z"/>
    <path class="cls-19" d="m707.28,858.5c5.43.05,10.46,3.93,14.17,10.42,3.73,6.52,6.05,15.56,6.05,25.57s-1.93,19.58-5.26,26.61c-3.36,7.07-8.04,11.39-13.47,11.39s-11.43-4.19-15.8-11.13c-4.36-6.91-7.07-16.43-6.14-26.83.8-8.99,2.13-16.29,5.17-22.2,3.01-5.86,7.7-10.39,15.29-13.84Z"/>
    <path class="cls-35" d="m706.85,858.5c.86,0,1.61.02,2.24.04-5.71,2.66-10.27,6.3-13.61,11.8-3.7,6.09-5.89,14.39-6.56,26.03v.03c0,7.99,1.52,16.46,5.27,23.34,3.18,5.83,7.96,10.51,14.75,12.77h-22.07c-4.22-2.13-7.15-4.67-9.5-8.66-2.39-4.04-4.2-9.6-6.14-17.8,0,0,0-.02,0-.03,0-.04-.02-.1-.03-.18-.02-.16-.06-.39-.1-.69-.08-.6-.19-1.48-.29-2.58-.2-2.2-.38-5.28-.3-8.82.17-7.09,1.38-15.94,5.55-23.15,4.11-7.11,12.79-10.13,20.61-11.35,3.89-.61,7.52-.76,10.17-.76Z"/>
    <path class="cls-29" d="m708.75,877.5c2.18,0,4.77,1.54,6.69,5.36,1.86,3.7,3.06,9.47,2.61,17.79l-.05.81c-.35,5.34-1.15,9.89-2.69,13.09-.77,1.59-1.71,2.83-2.84,3.66-1.13.83-2.48,1.29-4.1,1.29-1.05,0-2.2-.54-3.37-1.6-1.16-1.06-2.29-2.59-3.28-4.46-1.91-3.63-3.24-8.47-3.22-13.44v-.48c.2-9.43,1.66-14.95,3.62-18.09.97-1.56,2.07-2.54,3.19-3.12,1.12-.59,2.29-.8,3.45-.8Z"/>
    <path class="cls-73" d="m750.78,712.05c5.45,1.38,9.31,6.24,9.42,11.86l2.28,111.07-166.99-7.46v-154.88l155.28,39.41Z"/>
    <polygon class="cls-2" points="1367.61 689.02 1360.88 691.05 1314.55 689.02 1367.61 689.02"/>
    <path class="cls-7" d="m1126.09,974.34c18.28,54.66-302.98,52.38-312.5,15.51,0,0,294.22-70.17,312.5-15.51"/>
    <polygon class="cls-2" points="1583.02 710.12 1539.06 747.32 1428.24 869.69 1419 879.9 1389.52 877.84 1379.74 855.57 1339.91 847.7 1327.32 774.21 1338 697.96 1360.88 691.05 1405.74 693.02 1416.24 693.48 1416.28 693.48 1479.49 696.26 1484.5 696.44 1569.28 699.52 1580.08 699.91 1580.53 699.93 1581.5 703.91 1583.02 710.12"/>
    <path class="cls-22" d="m732,780.5h30c9.66,0,17.5,7.84,17.5,17.5v160.5h-65v-160.5c0-9.66,7.84-17.5,17.5-17.5Z"/>
    <path class="cls-27" d="m618.17,792.52l7.62-25-7.59-1.52c-.64-.13-.76-1.58-.23-2.63l18.79-36.84c.8-1.56,1.87-.37,1.31,1.45l-7.62,25,7.59,1.52c.64.13.76,1.58.23,2.63l-18.79,36.84c-.8,1.56-1.87.37-1.31-1.45Z"/>
    <text class="cls-38" transform="translate(643.25 771.33) rotate(7.36) scale(.53 1)"><tspan class="cls-46" x="0" y="0">A</tspan><tspan x="29.86" y="0">m</tspan><tspan class="cls-18" x="70.76" y="0">p</tspan><tspan class="cls-72" x="98.32" y="0">w</tspan><tspan class="cls-51" x="134.22" y="0">a</tspan><tspan x="157.46" y="0">y</tspan></text>
    <path class="cls-71" d="m732,784.5h30c7.46,0,13.5,6.04,13.5,13.5v160.5h-57v-160.5c0-7.46,6.04-13.5,13.5-13.5Z"/>
    <rect class="cls-22" x="701.5" y="958.5" width="91" height="4" rx=".5" ry=".5"/>
    <path class="cls-54" d="m738,802.5h17.5c4.69,0,8.5,3.81,8.5,8.5v38.5c0,4.69-3.81,8.5-8.5,8.5h-17.5c-4.69,0-8.5-3.81-8.5-8.5v-38.5c0-4.69,3.81-8.5,8.5-8.5Z"/>
    <rect class="cls-49" x="747.5" y="903.5" width="4" height="55"/>
    <rect class="cls-49" x="739.5" y="878.5" width="18" height="25" rx="5.5" ry="5.5"/>
    <path class="cls-14" d="m611.08,862.72c-11.25-22.15-55.82-31.25-79.12-9.34-14.87,13.99-20.31,39.88-9.81,53.56,16.86,21.96,74.89,12.45,88.62-16.5.52-1.09,6.82-14.92.32-27.71Z"/>
    <path class="cls-21" d="m737,833.5l11.5-20.5v16l7.5-1.5-12.5,20.5v-14.5h-6.5Z"/>
    <path class="cls-42" d="m836.31,765.68c1.66-41.63-16.66-65.24-36.81-102.68h337.5c5,0-34.75,44.5-34.75,97.25m-265.94,5.43c-.07,1.74-.17,3.52-.31,5.32m.31-5.32c-2.76,16.43-5.89,33-10.31,47.32m10.31-47.32c7.11-42.28,11.32-81.18,29.69-81.18h206c15,0,17,16.5,19.5,23s10.75,52.75,10.75,52.75m10.75,52.75l-10.75-52.75"/>
    <path class="cls-65" d="m1107,784s-30,25.5-32.5,29.5-10,76.5-10,76.5h-185.5s-6-67.5-13.5-76.5-32-29.5-32-29.5c5.65-36.91,8.87-56.84,15.5-80.5,5.19-16.32,11.19-18.75,24-18.5h197.5c11.36.05,15.22,5.16,20,18.5l16.5,80.5Z"/>
    <path class="cls-24" d="m1072.5,971c-14.14,2.62-17.65-4.07-18.5-26h25.5l-7,26Z"/>
    <path class="cls-24" d="m1126.84,984.31c-.43,7.68-6.78,13.69-14.47,13.69h-23.45c-7.1,0-13.15-5.13-14.31-12.13l-3.71-22.41c-1.57-9.45,4.76-18.4,14.19-20.09l28.84-5.14c7.7-1.38,13.71-7.45,15-15.18l2.05-12.39-4.14,73.65Z"/>
    <path class="cls-24" d="m885.91,944l-2.43,20.25c-.52,4.38-4.31,7.63-8.71,7.48l-6.77-.22,1.45-27.52h16.46Z"/>
    <path class="cls-24" d="m869.97,929l-2.69,53.78c-.43,8.6-7.4,15.43-16.01,15.67l-18.68.53c-10.07.28-18.51-7.53-19-17.59l-2.57-52.39h58.95Z"/>
    <path class="cls-55" d="m836.31,765.68c1.66-41.63-16.66-65.24-36.81-102.68h337.5c5,0-34.75,44.5-34.75,97.25,0,0-8.25-46.25-10.75-52.75s-4.5-23-19.5-23h-206c-18.36,0-22.58,38.9-29.69,81.18Z"/>
    <path class="cls-56" d="m1034.15,711.74c8.96-.03,16.6-.03,22.29.02,5.71.04,9.41.12,10.5.24,4.33.48,6.44,2.62,7.49,4.61.54,1.01.8,1.99.94,2.71.06.36.1.66.11.87.01.1.02.18.02.24v.17s.01,0,.01,0h0v.02s.01.04.02.07c.01.07.03.16.06.29.05.25.13.63.22,1.11.19.96.46,2.35.79,4.06.66,3.41,1.53,8.06,2.41,13.05,1.75,10.01,3.49,21.34,3.49,26.79,0,2.74-.19,4.59-.52,5.85-.32,1.25-.77,1.85-1.25,2.17-.5.32-1.12.4-1.95.41-.8,0-1.8-.06-2.84.07h0s-.01,0-.01,0h-.02s-.03,0-.05,0c-.04,0-.09,0-.16.01-.14,0-.32.01-.55.02-.46.01-1.11.03-1.92.04-1.63.02-3.94.05-6.83.06-5.77.03-13.86.05-23.52.07-19.32.02-44.9,0-70.68-.02-51.56-.06-103.94-.19-108.69-.19-2.33,0-3.9-.34-4.96-.86-1.03-.51-1.59-1.21-1.89-2-.31-.81-.36-1.74-.32-2.73.02-.49.06-.98.1-1.47.04-.49.07-.97.07-1.43,0-.4.1-1.39.3-2.87.19-1.46.46-3.37.79-5.56.66-4.38,1.53-9.89,2.4-15.3.88-5.41,1.75-10.7,2.41-14.65.33-1.97.6-3.61.79-4.75.1-.57.17-1.02.22-1.32.03-.15.05-.27.06-.35,0-.04.01-.07.01-.09,0-.01,0-.02,0-.02,0,0,0,0,0,0h0s0-.04,0-.04v-.05s0-.03,0-.05c0-.05,0-.12.02-.22.02-.19.05-.47.12-.8.14-.67.42-1.57.97-2.47,1.1-1.79,3.32-3.71,7.91-3.95,4.74-.25,51.1-.87,97.42-1.31,23.16-.22,46.3-.39,64.21-.45Z"/>
    <path class="cls-65" d="m801,639.5h336c.83,0,1.5.67,1.5,1.5v20c0,.83-.67,1.5-1.5,1.5h-336c-.83,0-1.5-.67-1.5-1.5v-20c0-.83.67-1.5,1.5-1.5Z"/>
    <path class="cls-43" d="m1083,781.5h-224.5c-3.45,0-5.87-.78-7.27-2.28-1.39-1.48-1.9-3.79-1.24-7.12v-.02s0-.02,0-.02l-.49-.07q.49.07.49.07h0s0,0,0,0c0,0,0-.02,0-.03,0-.02,0-.06.02-.11.01-.1.03-.24.06-.43.05-.38.13-.93.23-1.65.2-1.42.48-3.46.82-5.94.69-4.94,1.62-11.61,2.62-18.52,2-13.83,4.25-28.54,5.24-32.25.97-3.64,2.64-5.37,4.54-6.24,1.95-.89,4.21-.89,6.48-.89s52.38-.12,101.94-.25c24.78-.06,49.42-.12,67.87-.17,9.22-.02,16.89-.04,22.26-.06,2.68,0,4.79-.01,6.23-.02.72,0,1.27,0,1.64,0,.18,0,.33,0,.42,0h.14v-.5.5c3.57,0,6.31,1.66,8.29,4.24,2,2.6,3.22,6.13,3.71,9.82,1,7.5,5,42.48,5.5,52.46.25,4.9-1.1,7.23-2.39,8.35-.65.57-1.32.85-1.82.99-.24.07-.45.11-.59.12-.07,0-.13.01-.16.01-.02,0-.03,0-.04,0h0v.5-.5Z"/>
    <path class="cls-65" d="m879,890h-61c-5.8,0-10.5-4.7-10.5-10.5v-44.5c0-11.87,9.63-21.5,21.5-21.5h36.5c7.5,9,13.5,76.5,13.5,76.5Z"/>
    <path class="cls-65" d="m1133.5,836v41.5c0,6.9-5.6,12.5-12.5,12.5h-56.5s7.5-72.5,10-76.5h36.5c12.43,0,22.5,10.07,22.5,22.5Z"/>
    <path class="cls-39" d="m1074.5,813.5c-2.5,4-10,76.5-10,76.5h-185.5s-6-67.5-13.5-76.5h209Z"/>
    <path class="cls-69" d="m891.16,831.5h160.57c1.38,0,2.47,1.1,2.5,2.44v.27s-2.95,34.59-2.95,34.59c-.42,4.92-4.53,8.69-9.47,8.69h-141.83c-5.05,0-9.22-3.95-9.49-8.99l-1.83-34.37c-.08-1.43,1.06-2.63,2.5-2.63Z"/>
    <path class="cls-20" d="m822,842.5h37.54c2.84,0,5.21,2.16,5.48,4.98l1.86,19.5c.31,3.23-2.23,6.02-5.48,6.02h-39.4c-1.93,0-3.5-1.57-3.5-3.5v-23.5c0-1.93,1.57-3.5,3.5-3.5Z"/>
    <path class="cls-20" d="m1080,842.5h37.54c2.84,0,5.21,2.16,5.48,4.98l1.86,19.5c.3,3.23-2.24,6.02-5.48,6.02h-39.4c-1.93,0-3.5-1.57-3.5-3.5v-23.5c0-1.93,1.57-3.5,3.5-3.5Z"/>
    <path class="cls-31" d="m1066.58,711.07c4.07-.04,7.6,2.82,8.41,6.81l5.01,24.7,2.4,25.92c.3,3.22-2.24,6.01-5.48,6.01h-215.44c-3.26,0-5.78-2.81-5.47-6.02l.04-.31,7.3-48.03c.63-4.12,4.15-7.18,8.32-7.22l194.91-1.86Z"/>
    <path class="cls-28" d="m1052.47,853.5l-.31,5.64c-.08,1.32-1.17,2.36-2.5,2.36h-156.95c-1.28,0-2.36-.97-2.49-2.25l-.68-6.75,162.92.99Z"/>
    <path class="cls-9" d="m811.65,889.99h315.49c3.92,0,6.92,3.43,6.45,7.27l-.05.37-6.02,33.7c-1.41,7.9-8.3,13.64-16.32,13.6l-279.4-1.34c-10.58-.05-19.55-7.79-21.45-18.21-1.69-9.3-3.45-18.33-5.06-27.92-.66-3.92,2.38-7.47,6.36-7.47Z"/>
    <path class="cls-63" d="m1061.06,893.5h69.49c1.47,0,2.61,1.26,2.49,2.71v.14s-4.45,31.67-4.45,31.67c-1.44,10.26-10.31,17.83-20.67,17.65l-52.98-.94c-6.22-.11-10.65-6.06-8.98-12.05l9.8-35.16c.66-2.38,2.83-4.02,5.3-4.02Z"/>
    <path class="cls-63" d="m878.08,893.5h-70.46c-1.52,0-2.68,1.34-2.48,2.82l.02.14,5.65,29.76c1.8,9.5,10,16.45,19.67,16.67l55.59,1.28c6.63.15,11.37-6.37,9.19-12.63l-12-34.35c-.77-2.21-2.85-3.69-5.19-3.69Z"/>
    <path class="cls-59" d="m1070.47,908.5h41.97c.97,0,1.69.92,1.45,1.86l-3.36,13.45c-.83,3.34-3.83,5.68-7.28,5.68h-38.17c-2.51,0-4.21-2.58-3.21-4.89l6.31-14.6c.39-.92,1.3-1.51,2.29-1.51Z"/>
    <path class="cls-59" d="m868.53,908.5h-41.96c-.98,0-1.69.92-1.46,1.86l3.36,13.45c.83,3.34,3.84,5.68,7.28,5.68h38.17c2.52,0,4.21-2.58,3.21-4.89l-6.31-14.6c-.4-.92-1.3-1.51-2.3-1.51Z"/>
    <path class="cls-23" d="m1056.83,894.5l-8.71,30h-155.27l-11.13-30h175.11Z"/>
    <path class="cls-14" d="m1261.34,841.31c-11.25-22.15-55.82-31.25-79.12-9.34-14.87,13.99-20.31,39.88-9.81,53.56,16.86,21.96,74.89,12.45,88.62-16.5.52-1.09,6.82-14.92.32-27.71Z"/>
    <path class="cls-45" d="m820.14,731.12c5.01-.51,9.36,3.42,9.36,8.46v31.29c0,4.41-3.78,7.87-8.17,7.47l-7.5-.68c-3.86-.35-6.83-3.59-6.83-7.47v-30.96c0-3.85,2.91-7.07,6.74-7.46l6.4-.65Z"/>
    <path class="cls-45" d="m1124.45,731.12c4.9-.32,9.05,3.57,9.05,8.48v29.69c0,3.9-2.99,7.13-6.84,7.47l-.37.02-7,.27c-4.25.16-7.79-3.24-7.79-7.49v-30.57c0-3.83,2.88-7.02,6.64-7.45l.37-.03,5.94-.39Z"/>
    <path class="cls-45" d="m814.23,778.29c.39-.02.93,0,1.49.02.55.03,1.11.08,1.53.11.1,0,.19.02.27.03,0,.07.01.16.02.24.05.41.14.98.33,1.58.37,1.19,1.15,2.62,2.78,3.2.78.28,1.99.4,3.29.45,1.32.05,2.81.02,4.2-.05,1.4-.06,2.7-.16,3.66-.24.33-.03.61-.05.85-.07l-.91,3.46s0,0-.01,0c-.24.01-.59.03-1.01.05-.85.04-2.01.09-3.25.12-2.51.06-5.28.06-6.56-.18-1.33-.25-2.23-.49-2.91-.83-.66-.33-1.13-.77-1.59-1.45-.46-.68-1.06-2.24-1.57-3.76-.25-.74-.46-1.45-.62-2.01-.07-.26-.13-.48-.17-.66.05,0,.1-.01.17-.01Z"/>
    <path class="cls-45" d="m1123.12,778.29c-.49-.02-1.16,0-1.85.02-.68.03-1.36.08-1.87.12-.12,0-.22.02-.32.03h0c.04.36.05.84-.03,1.36-.17,1.06-.75,2.3-2.38,2.88-.78.28-1.85.4-2.98.45-1.14.05-2.38.02-3.52-.05-1.15-.06-2.21-.16-2.98-.24-.19-.02-.36-.04-.52-.06l.91,3.44h.01c.24.01.59.03,1.01.05.85.04,2.01.08,3.25.12,2.51.06,5.28.06,6.56-.18,1.36-.25,2.02-.42,2.47-.68.43-.24.7-.58,1.2-1.33.21-.31.41-.81.6-1.44.18-.62.33-1.32.45-2,.19-1.04.3-1.98.35-2.47-.1-.01-.22-.02-.36-.03Z"/>
    <path class="cls-45" d="m815.81,731.21c.44.02,1.05,0,1.67-.02.62-.03,1.24-.08,1.7-.12.11,0,.21-.02.29-.03,0-.09,0-.19,0-.3,0-.48.02-1.14.14-1.84.23-1.35.86-3.05,2.54-3.65.42-.15,1.07-.24,1.83-.3.77-.06,1.72-.09,2.76-.11,2.08-.02,4.59.05,7,.14,2.41.1,4.74.23,6.46.33.86.05,1.57.1,2.07.13.13,0,.24.02.34.02l.79-3.76c-.07,0-.14,0-.22,0-.52-.01-1.28-.03-2.19-.05-1.82-.04-4.28-.09-6.82-.12-2.54-.03-5.16-.05-7.32-.02-2.18.02-3.82.09-4.43.2-1.33.25-2.23.49-2.91.83-.66.33-1.13.77-1.59,1.46-.21.32-.48.91-.76,1.67-.28.75-.55,1.61-.8,2.46-.25.84-.46,1.65-.62,2.28-.08.31-.14.58-.18.78,0,0,0,0,0,0,.07,0,.16.01.25.02Z"/>
    <path class="cls-12" d="m551.13,666c11.87-3.2,23.14-1.2,31.46,1.61,4.16,1.4,7.57,3.01,9.94,4.26,1.19.63,2.11,1.16,2.74,1.54.31.19.55.34.71.44,0,0,.01,0,.02,0v160.89c0,3.66-2.97,6.59-6.57,6.6h-.35c-8.43-.43-15.09-.52-20.44-.06-5.35.46-9.43,1.46-12.7,3.24-6.49,3.55-9.63,10.1-13.32,20.99l-33.65,1.97c-2.71-71.41,1.92-120.21,10.19-151.96,4.15-15.91,9.21-27.52,14.7-35.54,5.32-7.77,11.04-12.14,16.71-13.84l.55-.16Z"/>
    <path class="cls-45" d="m1124.19,731.21c-.44.02-1.04,0-1.66-.02s-1.24-.08-1.71-.12c-.1,0-.2-.02-.29-.03v-.18c.01-.41-.02-.98-.14-1.59-.24-1.2-.89-2.66-2.54-3.25-.41-.15-1.07-.26-1.87-.36-.81-.1-1.81-.18-2.92-.25-2.22-.14-4.92-.23-7.51-.3-2.6-.06-5.11-.09-6.98-.11-.93,0-1.69-.01-2.23-.01-.15,0-.28,0-.39,0l-.39-3.27c.09,0,.19,0,.3,0,.55,0,1.34.02,2.3.04,1.91.03,4.5.08,7.16.15,2.67.07,5.42.15,7.67.25,2.26.1,3.97.21,4.6.32,1.33.25,2.23.49,2.91.83.65.33,1.12.77,1.58,1.45.46.68,1.07,2.24,1.57,3.76.25.74.46,1.45.62,2.01.07.26.13.48.17.65-.07,0-.15.01-.25.02Z"/>
    <path class="cls-62" d="m672.23,904.52l-70.26,4.48h-.02s-.02,0-.02,0l-80.5,12-10.07,1.12c2.47-1.15,4.48-2.51,5.77-4.83,1.76-3.16,2.15-8,.94-16.3h20.99s71.97-9.79,71.97-9.79l71.98-1.97-10.79,15.28Z"/>
    <path class="cls-36" d="m523.51,717.88c.49-5.54,5.61-9.48,11.09-8.53l39.15,6.79c1.99.34,3.49,1.94,3.68,3.92v.19c.36,6.23.99,18.91,1.07,30.81.04,5.95-.07,11.69-.41,16.32-.17,2.32-.4,4.35-.71,5.98-.3,1.65-.67,2.85-1.09,3.53-.33.55-1.06,1.12-2.2,1.68-1.13.56-2.61,1.08-4.37,1.56-3.51.97-8.08,1.77-13.06,2.44-8.72,1.16-18.67,1.89-26.43,2.33l-3.18.17c-5.06.26-9.11-4.04-8.66-9.1l5.12-58.11Z"/>
    <path class="cls-56" d="m509.92,711.5c.81,0,1.42.61,1.45,1.39v.16c-.38,5.45-1.48,20.7-3.09,35.16-.8,7.23-1.74,14.26-2.76,19.77-.51,2.76-1.05,5.12-1.61,6.93-.28.91-.56,1.67-.83,2.27-.25.53-.48.91-.7,1.15l-.09.1c-.08.08-.31.22-.77.38-.44.15-1.02.31-1.75.46-1.46.31-3.45.62-5.91.92-4.92.6-11.66,1.18-19.62,1.72-15.92,1.07-36.66,1.98-57.34,2.65-20.68.67-41.28,1.09-56.89,1.19-7.81.05-14.37.02-19.07-.1-2.35-.06-4.23-.14-5.56-.25-.67-.05-1.19-.11-1.56-.17-.19-.03-.33-.06-.42-.09-.04-.01-.07-.02-.08-.03-.01-.02-.04-.07-.07-.16-.05-.14-.09-.34-.12-.61-.06-.54-.07-1.28-.02-2.21.09-1.86.39-4.4.84-7.42.9-6.03,2.42-13.92,4.12-21.93,1.7-8.01,3.58-16.13,5.21-22.65.81-3.26,1.57-6.11,2.2-8.34.64-2.24,1.15-3.83,1.49-4.58,0,0,.02-.03.08-.09.07-.06.18-.12.33-.2.3-.15.74-.31,1.32-.47,1.16-.31,2.8-.61,4.88-.89,4.15-.56,9.96-1.05,16.94-1.47,13.96-.84,32.52-1.4,51.6-1.79,38.15-.77,78.35-.8,87.81-.8Z"/>
    <path class="cls-58" d="m320.5,732.93c5.59-1.82,11.3,2.46,11.12,8.34l-.89,29.84c-.12,4.05-3.44,7.28-7.5,7.28h-2.73c-4.14,0-7.5-3.36-7.5-7.5v-30.07c0-3.15,1.96-5.95,4.9-7.03l.29-.1,2.31-.75Z"/>
    <path class="cls-58" d="m549.28,720.32c-5.54-1.68-11.11,2.56-10.96,8.35l.97,38.63c.11,4.39,3.95,7.74,8.31,7.27l7.15-.78c3.84-.42,6.73-3.67,6.69-7.53l-.37-36.88c-.03-3.28-2.19-6.15-5.32-7.1l-6.46-1.96Z"/>
    <path class="cls-4" d="m444.72,664.49c23.47-2,48.46-2.46,70.07-2.16,21.61.29,39.84,1.33,49.78,2.29,2.48.24,4.45.47,5.81.69.06.01.12.02.18.03-1.29.08-3.21.13-5.81.13-11.73,0-20.86,6.59-27.95,16.36-7.08,9.76-12.15,22.75-15.78,35.69-3.63,12.95-5.81,25.9-7.08,35.6-.64,4.85-1.05,8.9-1.3,11.73-.13,1.42-.21,2.53-.27,3.29-.03.38-.05.67-.06.87,0,.1-.01.17-.01.22,0,.03,0,.04,0,.06,0,0,0,.01,0,.01,0,0,0,0,0,0,0,0,0,0,.5.03l-.5-.03v.02l-1.86,98.37-183.84,2.51c0-.32-.02-.8-.02-1.43-.02-1.26-.04-3.11-.04-5.48,0-4.73.06-11.52.32-19.73.54-16.44,1.9-38.59,5.2-61.49,3.3-22.9,8.55-46.51,16.84-65.87,8.17-19.07,19.24-33.92,34.24-39.97l.72-.28c15.49-5.91,37.4-9.47,60.88-11.47Z"/>
    <path class="cls-13" d="m1394.5,903.7h22l2.5-34.5-27-2.5c-6.5-18-12-28-44-24-8.65.33-10.45-2.58-10-11.5l-117,5,.5,18.5h11c5,0,16.98,14.43,18,38l73,2,5.5-20.5c3.24-13.66,10.06-20.86,27.5-20.5,13.26-1.1,23.5,4,30.5,20.5,3.5,11.5,5,21,7.5,29.5Z"/>
    <path class="cls-58" d="m320.73,778.51c.39-.02.93,0,1.49.02.55.03,1.11.08,1.53.11.1.01.19.02.27.03,0,.07.01.15.02.24.05.41.14.98.33,1.58.37,1.19,1.15,2.62,2.78,3.2,1.49.53,2.98.6,4.09.54.43-.02.81-.07,1.11-.11l-.76,3.4c-.22.01-.53.02-.92.02-.81,0-1.95-.08-3.26-.32-1.33-.25-2.23-.49-2.91-.83-.66-.33-1.13-.77-1.59-1.46-.46-.68-1.06-2.24-1.57-3.76-.25-.74-.46-1.45-.62-2.01-.07-.26-.13-.48-.17-.66.05,0,.1-.01.17-.01Z"/>
    <path class="cls-58" d="m543.85,774.5c-.05.13-.11.3-.19.49-.21.5-.51,1.17-.91,1.88-.4.71-.89,1.46-1.48,2.11-.59.64-1.29,1.21-2.1,1.49-1.45.51-3.73,1.02-5.63,1.39-.95.19-1.82.35-2.44.46-.29.05-.53.09-.71.12l-.72,2.36c.21.01.48.02.78.04.87.04,2.05.09,3.31.12,2.56.06,5.37.06,6.65-.18,1.28-.24,2.21-.65,2.93-1.17.73-.52,1.27-1.16,1.74-1.88.47-.71,1.46-2.68,2.27-4.49.4-.9.76-1.75.98-2.36.05-.14.09-.26.12-.37h-4.61Z"/>
    <path class="cls-58" d="m319.6,733.13c.35-.02.85-.1,1.39-.21.96-.19,1.99-.46,2.42-.58.01-.05.02-.12.03-.22.02-.28.03-.78.11-1.26.08-.5.23-1.06.59-1.58.36-.52.9-.96,1.7-1.25.41-.15,1-.25,1.69-.33.7-.08,1.54-.15,2.45-.19,1.83-.09,4-.13,6.08-.13s4.07.03,5.54.06c.73.02,1.34.03,1.76.04.12,0,.23,0,.32.01l1.56-3.51s-.03,0-.04,0c-.51-.01-1.23-.03-2.11-.05-1.76-.04-4.13-.09-6.59-.12-2.46-.03-4.99-.05-7.08-.02-2.11.02-3.71.09-4.33.2-1.29.24-2.09.59-2.67,1.03-.59.44-1.01,1.01-1.5,1.75-.2.3-.4.83-.59,1.51-.18.66-.33,1.43-.46,2.17-.18,1.11-.3,2.14-.35,2.67.02,0,.05,0,.08,0Z"/>
    <path class="cls-58" d="m547.74,720.19c-.55-.06-1.46-.19-2.74-.19-.26,0-.41-.04-.49-.09-.08-.04-.14-.11-.19-.2-.12-.23-.15-.58-.2-1.12-.04-.49-.1-1.11-.36-1.67-.28-.59-.76-1.09-1.59-1.39-.4-.14-.99-.26-1.68-.35-.7-.1-1.53-.18-2.45-.25-1.83-.14-4-.23-6.08-.3-2.08-.06-4.07-.09-5.54-.11-.59,0-1.1,0-1.49-.01l1.84-2.78c.1,0,.22,0,.37,0,.41,0,1,.02,1.71.04,1.43.03,3.36.08,5.38.15,2.02.07,4.12.15,5.88.24,1.78.1,3.17.21,3.8.33,1.26.23,2.02.69,2.53,1.28.52.6.83,1.38,1.07,2.35.42,1.67.47,3.34.48,4.09-.07,0-.15-.01-.25-.02Z"/>
    <path class="cls-5" d="m432.75,705.52c20.42-.74,40.8-1.12,56.22-1,7.71.06,14.18.24,18.79.57,2.31.16,4.14.36,5.42.59.64.11,1.13.24,1.47.36.17.06.28.12.36.16.03.02.05.04.06.04.11.23.22.7.31,1.46.09.75.14,1.72.16,2.88.05,2.32-.02,5.38-.2,8.93-.35,7.11-1.1,16.21-2.08,25.35-.98,9.14-2.2,18.32-3.49,25.61-.64,3.65-1.3,6.81-1.95,9.26-.32,1.23-.65,2.27-.96,3.09-.32.84-.62,1.42-.88,1.76-.07.09-.29.25-.74.44-.43.18-1.02.37-1.76.56-1.48.38-3.52.75-6.04,1.12-5.05.73-12.01,1.42-20.23,2.06-16.44,1.28-37.93,2.37-59.35,3.17-21.41.8-42.75,1.33-58.88,1.5-8.07.09-14.83.08-19.66-.02-2.41-.05-4.33-.13-5.69-.23-.68-.05-1.2-.11-1.57-.17-.19-.03-.32-.06-.41-.09-.01,0-.02,0-.03-.01-.01-.03-.03-.08-.04-.15-.03-.17-.06-.41-.07-.73-.02-.63.02-1.51.13-2.61.21-2.19.64-5.21,1.25-8.8,1.21-7.17,3.11-16.56,5.21-26.09,2.1-9.52,4.4-19.17,6.43-26.84,1.01-3.83,1.96-7.16,2.77-9.74.82-2.6,1.5-4.36,1.96-5.1.05-.07.21-.22.61-.41.39-.18.92-.37,1.6-.56,1.37-.38,3.27-.76,5.65-1.14,4.75-.74,11.33-1.45,19.14-2.11,15.61-1.31,36.07-2.41,56.5-3.14Z"/>
    <path class="cls-61" d="m473.54,818.09c4.31-.04,7.77,3.54,7.57,7.84l-1.27,27.52c-.18,3.96-3.42,7.1-7.39,7.15l-127.63,1.79c-4.08.06-7.46-3.16-7.6-7.24l-.95-27.97c-.14-4.21,3.21-7.71,7.42-7.76l129.85-1.33Z"/>
    <path class="cls-52" d="m422.15,866c24.03-.38,48.07-.62,66.09-.53,9.01.05,16.51.18,21.76.42,2.63.12,4.67.27,6.06.45.7.09,1.2.19,1.53.28.09.03.15.05.2.07.07,3.6,1.67,28.32,2.7,43.78.43,6.56-4.74,12.13-11.38,12.23-21.25.3-65.55.8-105.05.39-19.76-.21-38.31-.64-52.19-1.44-6.94-.4-12.7-.89-16.85-1.49-2.08-.3-3.74-.62-4.93-.97-.6-.17-1.07-.35-1.41-.52-.26-.13-.42-.25-.51-.34l-.07-.08c-.58-.91-1.07-2.38-1.46-4.31-.38-1.91-.66-4.22-.86-6.79-.39-5.13-.44-11.24-.33-17.11.11-5.87.37-11.49.61-15.65.12-2.08.23-3.79.32-4.98.04-.59.07-1.06.1-1.38,0-.01,0-.02,0-.03.03,0,.06,0,.1,0,.36-.01.9-.02,1.61-.04,1.41-.04,3.47-.09,6.1-.15,5.26-.13,12.77-.31,21.78-.51,18.03-.41,42.06-.91,66.09-1.28Z"/>
    <path class="cls-56" d="m337,830.5h143.44c.25,0,.46.18.49.42v.1s-.17,3-.17,3c-.02.27-.24.47-.5.47h-143.27c-.28,0-.5-.22-.5-.5v-3c0-.24.17-.44.4-.49h.1Z"/>
    <path class="cls-56" d="m480.45,844.5l-.4,4-143.05-.5v-3.5h143.45Z"/>
    <path class="cls-34" d="m363.98,884.1l74.89,1.31c2.9.05,5.26,2.34,5.4,5.24l.17,3.52c.29,6.11-4.68,11.17-10.8,10.99l-67.32-1.97c-3.33-.1-6.04-2.69-6.29-6.01l-.62-8.24c-.19-2.56,1.79-4.74,4.32-4.83h.25Z"/>
    <path class="cls-44" d="m334.68,874.5c5.13,0,9.51,3.71,10.36,8.77l1.77,10.65c.05.3-.18.58-.49.58h-20.82v-20h9.18Z"/>
    <path class="cls-44" d="m499.82,874.64c3.12-.07,5.68,2.44,5.68,5.55v10.81c0,4.14-3.36,7.5-7.5,7.5h-31.77c-2.03,0-3.71-1.55-3.89-3.55v-.19c-.45-10.58,7.88-19.46,18.46-19.69l19.02-.42Z"/>
    <path class="cls-19" d="m572.96,863.52c7.11,0,13.66,4.96,18.46,13.22,4.79,8.24,7.77,19.65,7.77,32.28s-2.98,24.05-7.77,32.28c-4.8,8.25-11.35,13.22-18.46,13.22s-13.66-4.96-18.46-13.22c-4.79-8.24-7.77-19.65-7.77-32.28s2.98-24.05,7.77-32.28c4.8-8.25,11.35-13.22,18.46-13.22Z"/>
    <rect class="cls-41" x="566.5" y="813.5" width="18" height="7" rx="2.5" ry="2.5"/>
    <path class="cls-56" d="m614.44,862.43c8.42-.06,19.84.01,31.27.16,11.43.15,22.88.38,31.33.63,4.23.13,7.71.26,10.07.39,1.09.06,1.94.12,2.5.18-.14.25-.28.56-.42.91-.32.79-.66,1.85-1,3.08-.69,2.46-1.42,5.64-2.09,8.77-.67,3.14-1.27,6.24-1.71,8.56-.22,1.16-.39,2.12-.52,2.8-.05.27-.09.49-.12.66l-72.88,2.41c-.05-.2-.12-.47-.21-.79-.2-.75-.48-1.83-.82-3.13-.69-2.6-1.64-6.08-2.66-9.61-1.02-3.53-2.12-7.11-3.1-9.91-.49-1.4-.96-2.61-1.38-3.52-.21-.46-.42-.85-.61-1.16-.02-.02-.03-.05-.05-.07.54-.06,1.35-.12,2.42-.16,2.32-.1,5.78-.16,9.99-.19Z"/>
    <path class="cls-64" d="m569.09,863.31c1.17,0,2.17.03,2.95.06-6.61,3.28-11.86,7.8-15.68,14.68-4.15,7.45-6.6,17.64-7.35,31.92h0v.03c0,9.8,1.71,20.19,5.91,28.62,3.66,7.33,9.22,13.2,17.2,15.88h-25.48c-4.76-2.63-8.06-5.75-10.72-10.68-2.69-4.99-4.74-11.83-6.92-21.91,0-.01,0-.03,0-.05,0-.05-.02-.12-.03-.22-.03-.19-.07-.48-.11-.85-.09-.74-.21-1.82-.32-3.17-.22-2.71-.43-6.5-.33-10.85.19-8.72,1.56-19.63,6.25-28.53,4.64-8.79,14.43-12.5,23.2-13.99,4.37-.74,8.45-.93,11.44-.93Z"/>
    <path class="cls-30" d="m576.49,885.66c5.84,0,15.19,6.41,14.06,26.02l-.06.94c-.45,6.19-1.94,11.72-4.39,15.7-2.45,3.96-5.83,6.34-10.11,6.34-2.95,0-6.26-2.07-8.83-5.73-2.47-3.53-4.2-8.47-4.18-14.2v-.56c.26-10.96,2.16-18.11,4.74-22.51,2.57-4.38,5.8-6,8.76-6Z"/>
    <path class="cls-40" d="m576,899.5c.36,0,.76.19,1.19.66.42.47.83,1.18,1.18,2.09.7,1.83,1.14,4.39,1.14,7.25s-.44,5.42-1.14,7.25c-.35.92-.75,1.62-1.18,2.09-.42.47-.82.66-1.19.66s-.76-.19-1.19-.66c-.42-.47-.83-1.18-1.18-2.09-.7-1.83-1.14-4.39-1.14-7.25s.44-5.42,1.14-7.25c.35-.92.75-1.62,1.18-2.09.42-.47.82-.66,1.19-.66Z"/>
    <path class="cls-74" d="m1416.56,696.78c1.48,17.17,4.41,51.15,6.04,70.12l-.34.15c-.11-3.24-3.97-49.11-5.74-70.27-.1-1.18-.19-2.28-.28-3.3-.4-4.87-.64-7.71-.59-7.22.02.21.25,2.89.63,7.22.08,1.01.18,2.12.28,3.3Z"/>
    <path class="cls-74" d="m1422.22,767.07l.04-.02c0,.22-.01.24-.04.02Z"/>
    <path class="cls-74" d="m1607.48,865.72c0,2.12-.02,3.77-.04,4.9-.01.56-.02.99-.03,1.28l-179.17-2.21-2.55-.03-1.75-83.9v-.04l-.09-4.14h0s-.06-.01-.06-.01h.06v-.02s0-.03,0-.05c0-.05,0-.12-.01-.2-.01-.18-.03-.44-.06-.78-.01-.16-.48-5.52-1.17-13.62l146.68-67.38,10.8.39c.47,1.23.94,2.57,1.42,4,7.89,23.39,17.67,71.19,20.52,89.09,3.26,20.5,4.61,40.34,5.14,55.05.26,7.36.33,13.43.32,17.67Z"/>
    <path class="cls-40" d="m709.28,888.44c.29,0,.62.15.99.56.36.41.71,1.02,1.02,1.83.61,1.61.99,3.86.99,6.38s-.39,4.77-.99,6.38c-.3.81-.65,1.42-1.02,1.83-.36.41-.7.56-.99.56s-.62-.15-.99-.56c-.36-.41-.71-1.03-1.02-1.83-.61-1.61-.99-3.86-.99-6.38s.39-4.77.99-6.38c.3-.81.65-1.42,1.02-1.83.36-.41.7-.56.99-.56Z"/>
    <path class="cls-48" d="m539.5,900.5h-22l-2.5-34.5,27-2.5c6.5-18,12-28,44-24,8.65.34,10.45-2.58,10-11.5l117,5-.5,18.5h-11c-5,0-16.98,14.43-18,38l-73,2-5.5-20.5c-3.24-13.66-10.06-20.86-27.5-20.5-13.26-1.1-23.5,4-30.5,20.5-3.5,11.5-5,21-7.5,29.5Z"/>
    <path class="cls-43" d="m1501.25,708.72c-20.42-.74-40.79-1.12-56.21-1-7.71.06-14.18.24-18.79.57-2.31.16-4.14.36-5.42.59-.65.12-1.14.24-1.47.36-.17.06-.29.12-.36.16-.03.02-.05.04-.06.04-.11.23-.22.7-.31,1.46-.08.75-.14,1.72-.16,2.88-.05,2.32.02,5.38.2,8.93.34,7.12,1.09,16.21,2.08,25.35.98,9.14,2.2,18.32,3.49,25.61.64,3.65,1.3,6.81,1.95,9.26.32,1.23.64,2.27.96,3.09.32.84.62,1.42.88,1.76.08.09.29.25.74.44.43.18,1.02.37,1.76.56,1.48.38,3.52.75,6.04,1.12,5.05.73,12.01,1.42,20.23,2.06,16.45,1.28,37.93,2.37,59.35,3.17,21.41.8,42.74,1.33,58.88,1.5,8.07.09,14.83.08,19.66-.02,2.41-.05,4.33-.13,5.68-.23.68-.05,1.21-.11,1.58-.17.18-.03.32-.06.41-.09.01,0,.02,0,.03-.01.01-.03.02-.08.04-.15.03-.17.06-.41.07-.73.01-.63-.03-1.51-.13-2.61-.21-2.19-.64-5.21-1.25-8.8-1.21-7.17-3.11-16.56-5.21-26.09-2.1-9.52-4.4-19.17-6.43-26.84-1.01-3.83-1.96-7.16-2.77-9.74-.82-2.6-1.5-4.36-1.96-5.1-.04-.07-.21-.22-.61-.41-.39-.18-.92-.37-1.6-.56-1.37-.38-3.28-.76-5.65-1.14-4.75-.74-11.34-1.45-19.14-2.11-15.61-1.31-36.08-2.41-56.5-3.14Z"/>
    <path class="cls-7" d="m1161.68,916.76s436.5-22.43,459.59,25.04c23.09,47.47-448.15,6.64-459.59-25.04Z"/>
    <path class="cls-64" d="m381.5,947.5c-8.68-3.02-14.83-9.88-19.5-25l64.5,1.5c-4,11.69-7.5,18-14,22s-18.89,3.92-31,1.5Z"/>
    <path class="cls-14" d="m1261.77,907.72l70.26,4.49h.02s.02,0,.02,0l80.5,12,10.07,1.12c-2.47-1.15-4.48-2.51-5.77-4.82-1.77-3.16-2.15-8-.95-16.3h-20.99s-71.97-9.79-71.97-9.79l-71.98-1.97,10.79,15.28Z"/>
    <path class="cls-32" d="m1410.49,721.08c-.49-5.54-5.61-9.48-11.09-8.53l-39.15,6.79c-1.98.34-3.48,1.94-3.68,3.92v.19c-.36,6.23-.99,18.91-1.06,30.81-.04,5.95.06,11.69.41,16.32.17,2.32.4,4.35.7,5.98.31,1.65.68,2.85,1.09,3.53.34.55,1.06,1.12,2.2,1.68,1.14.56,2.61,1.08,4.37,1.56,3.51.97,8.08,1.77,13.06,2.44,8.72,1.16,18.67,1.89,26.43,2.33l3.19.17c5.06.26,9.1-4.04,8.66-9.1l-5.13-58.11Z"/>
    <path class="cls-31" d="m1424.08,714.7c-.81,0-1.42.61-1.45,1.39v.16c.38,5.45,1.48,20.7,3.09,35.16.81,7.23,1.74,14.26,2.77,19.77.51,2.76,1.05,5.12,1.6,6.93.28.91.56,1.67.84,2.27.24.53.48.91.69,1.15l.09.1c.08.08.31.22.77.38.44.15,1.02.31,1.75.46,1.46.31,3.45.62,5.91.92,4.92.6,11.66,1.18,19.62,1.72,15.91,1.07,36.66,1.98,57.34,2.65,20.67.67,41.27,1.09,56.89,1.19,7.81.05,14.37.02,19.07-.1,2.35-.06,4.23-.14,5.56-.25.67-.05,1.19-.11,1.56-.17.19-.03.33-.06.42-.09.05-.01.07-.02.09-.03.01-.02.04-.07.07-.16.05-.14.09-.34.12-.61.06-.54.06-1.28.02-2.21-.09-1.86-.39-4.4-.84-7.42-.9-6.03-2.42-13.92-4.12-21.93-1.69-8.01-3.57-16.13-5.21-22.65-.81-3.26-1.56-6.11-2.2-8.34-.64-2.24-1.15-3.83-1.49-4.58,0,0-.01-.03-.08-.09-.07-.06-.18-.13-.33-.2-.3-.15-.74-.31-1.32-.47-1.16-.31-2.8-.61-4.88-.89-4.15-.56-9.96-1.05-16.94-1.47-13.96-.84-32.52-1.41-51.6-1.79-38.15-.77-78.35-.8-87.81-.8Z"/>
    <path class="cls-60" d="m1613.5,736.13c-5.59-1.82-11.3,2.46-11.12,8.34l.89,29.84c.12,4.05,3.44,7.28,7.5,7.28h2.73c4.14,0,7.5-3.36,7.5-7.5v-30.07c0-3.15-1.96-5.95-4.9-7.03l-.28-.1-2.32-.75Z"/>
    <path class="cls-60" d="m1384.72,723.52c5.55-1.68,11.11,2.56,10.97,8.35l-.97,38.63c-.11,4.39-3.95,7.74-8.31,7.27l-7.15-.78c-3.83-.42-6.73-3.67-6.69-7.53l.37-36.88c.03-3.28,2.19-6.15,5.32-7.1l6.46-1.96Z"/>
    <path class="cls-60" d="m1613.27,781.71c-.39-.02-.93,0-1.49.02-.56.03-1.11.08-1.53.11-.1,0-.19.02-.27.03-.01.07-.02.15-.03.24-.04.41-.14.98-.33,1.58-.37,1.19-1.14,2.62-2.77,3.2-1.49.53-2.98.6-4.09.54-.43-.02-.81-.07-1.11-.11l.76,3.4c.22.01.53.02.92.02.81,0,1.95-.08,3.26-.32,1.33-.25,2.23-.49,2.91-.83.65-.33,1.12-.77,1.58-1.46.46-.68,1.07-2.24,1.57-3.76.25-.74.46-1.45.62-2.01.07-.26.13-.48.17-.66-.05,0-.11,0-.17-.01Z"/>
    <path class="cls-60" d="m1390.15,777.7c.05.13.12.3.2.49.2.5.51,1.17.91,1.88.4.71.89,1.46,1.48,2.11.58.64,1.28,1.21,2.09,1.5,1.45.51,3.73,1.02,5.63,1.39.95.19,1.82.35,2.44.46.3.05.54.09.71.12l.72,2.36c-.21.01-.47.02-.77.04-.87.04-2.05.09-3.32.12-2.55.06-5.37.06-6.65-.18-1.28-.24-2.21-.65-2.93-1.17-.72-.52-1.26-1.16-1.74-1.88-.48-.71-1.46-2.67-2.28-4.49-.4-.9-.75-1.75-.97-2.36-.05-.14-.09-.26-.13-.37h4.61Z"/>
    <path class="cls-13" d="m1512.99,869.2c-23.75-.38-47.49-.62-65.3-.53-8.9.05-16.32.18-21.5.43-2.6.12-4.62.27-5.99.45-.69.09-1.19.19-1.51.28-.09.03-.15.05-.19.07-.07,3.6-1.66,28.32-2.67,43.78-.43,6.56,4.68,12.13,11.25,12.23,20.99.3,64.76.8,103.8.39,19.53-.21,37.86-.64,51.57-1.44,6.86-.4,12.55-.89,16.65-1.49,2.05-.3,3.69-.62,4.88-.97.59-.17,1.05-.35,1.39-.52.26-.14.42-.25.5-.34l.07-.08c.57-.91,1.05-2.38,1.44-4.31.38-1.91.65-4.22.85-6.79.38-5.13.43-11.24.32-17.11-.1-5.87-.37-11.49-.6-15.65-.12-2.08-.23-3.79-.31-4.98-.05-.59-.08-1.06-.1-1.38v-.04s-.07,0-.1,0c-.36,0-.89-.02-1.59-.04-1.39-.04-3.43-.09-6.03-.15-5.19-.13-12.61-.31-21.52-.51-17.81-.41-41.56-.91-65.31-1.28Z"/>
    <path class="cls-60" d="m1614.4,736.33c-.35-.02-.85-.1-1.39-.21-.96-.19-1.99-.46-2.42-.58-.01-.05-.02-.12-.03-.22-.02-.28-.03-.78-.11-1.26-.07-.5-.23-1.06-.58-1.58-.36-.52-.91-.96-1.7-1.25-.41-.14-1-.25-1.69-.33-.7-.08-1.54-.15-2.46-.2-1.83-.09-4-.13-6.08-.13s-4.07.03-5.53.06c-.74.02-1.34.03-1.77.04-.12,0-.23,0-.32.01l-1.56-3.51s.03,0,.04,0c.51-.01,1.24-.03,2.12-.05,1.75-.04,4.13-.09,6.58-.12,2.46-.03,4.99-.05,7.08-.02,2.11.02,3.71.09,4.33.2,1.29.24,2.08.59,2.67,1.03.59.45,1.01,1.01,1.5,1.75.21.3.41.83.59,1.51.19.66.34,1.43.46,2.17.19,1.11.3,2.14.35,2.68-.03,0-.05,0-.08,0Z"/>
    <path class="cls-60" d="m1386.26,723.39c.55-.06,1.46-.19,2.74-.19.26,0,.41-.04.49-.09.09-.04.14-.1.19-.2.13-.23.16-.58.2-1.12.04-.49.1-1.11.36-1.67.28-.59.76-1.09,1.59-1.39.41-.14.99-.26,1.68-.35.7-.1,1.54-.18,2.45-.25,1.83-.14,4-.24,6.08-.3,2.08-.06,4.07-.09,5.54-.11.59,0,1.1,0,1.49-.01l-1.84-2.78c-.09,0-.22,0-.36,0-.41,0-1,.02-1.72.04-1.43.03-3.36.08-5.38.15-2.02.07-4.12.15-5.88.24-1.77.1-3.17.21-3.8.33-1.25.23-2.02.69-2.53,1.28-.53.6-.83,1.38-1.07,2.35-.42,1.67-.48,3.34-.49,4.09.07,0,.15-.01.26-.02Z"/>
    <polygon class="cls-53" points="1511.78 660.3 1511.78 697.96 1338 697.96 1338.5 651 1511.78 660.3"/>
    <path class="cls-1" d="m1460.46,821.29c-4.31-.04-7.77,3.54-7.57,7.84l1.26,27.52c.19,3.96,3.42,7.1,7.39,7.16l127.63,1.78c4.08.06,7.46-3.16,7.6-7.24l.95-27.97c.14-4.21-3.21-7.71-7.42-7.76l-129.84-1.33Z"/>
    <path class="cls-28" d="m1597,833.7h-143.44c-.25,0-.46.18-.49.42v.1s.16,3,.16,3c.02.27.24.47.5.47h143.27c.28,0,.5-.22.5-.5v-3c0-.24-.17-.44-.4-.49h-.1Z"/>
    <path class="cls-28" d="m1453.55,847.7l.4,4,143.05-.5v-3.5h-143.45Z"/>
    <path class="cls-1" d="m1570.03,887.3l-74.9,1.31c-2.9.05-5.26,2.34-5.4,5.24l-.17,3.52c-.29,6.11,4.69,11.17,10.8,10.99l67.32-1.97c3.33-.1,6.04-2.69,6.29-6.01l.62-8.24c.19-2.56-1.79-4.74-4.32-4.83h-.24Z"/>
    <path class="cls-57" d="m1599.32,877.7c-5.13,0-9.52,3.71-10.36,8.77l-1.77,10.65c-.05.3.18.58.49.58h20.82v-20h-9.18Z"/>
    <path class="cls-57" d="m1433.22,877.84c-2.59-.07-4.72,2.44-4.72,5.55v10.81c0,4.14,2.79,7.5,6.24,7.5h26.42c1.69,0,3.09-1.55,3.24-3.55l.02-.19c.37-10.58-6.56-19.46-15.37-19.69l-15.82-.42Z"/>
    <rect class="cls-56" x="1349.5" y="816.7" width="18" height="7" rx="2.5" ry="2.5"/>
    <path class="cls-33" d="m1319.56,865.63c-8.42-.06-19.84.01-31.27.16-11.44.15-22.88.38-31.34.63-4.23.13-7.71.26-10.06.39-1.1.06-1.94.12-2.5.18.14.25.28.56.42.91.32.79.66,1.85,1,3.08.69,2.46,1.42,5.64,2.09,8.77.66,3.14,1.27,6.24,1.7,8.56.22,1.16.4,2.12.52,2.8.05.27.09.49.12.66l72.88,2.41c.05-.2.12-.46.2-.79.2-.75.48-1.83.83-3.13.69-2.6,1.64-6.08,2.66-9.61,1.02-3.53,2.12-7.11,3.1-9.9.5-1.4.97-2.61,1.39-3.52.21-.46.41-.85.61-1.16.01-.02.03-.05.05-.07-.54-.06-1.36-.12-2.42-.16-2.32-.1-5.77-.16-9.98-.19Z"/>
    <path class="cls-66" d="m1364.91,866.51c-1.16,0-2.16.03-2.95.06,6.61,3.28,11.86,7.8,15.69,14.68,4.15,7.45,6.6,17.64,7.35,31.92h0v.03c0,9.8-1.71,20.19-5.91,28.62-3.66,7.33-9.23,13.2-17.2,15.88h25.48c4.75-2.63,8.06-5.75,10.72-10.68,2.69-4.99,4.74-11.84,6.92-21.91,0-.01,0-.03.01-.05,0-.05.01-.12.03-.22.02-.19.06-.48.11-.85.09-.74.21-1.82.32-3.17.22-2.71.43-6.5.33-10.85-.18-8.72-1.56-19.63-6.25-28.53-4.64-8.79-14.44-12.5-23.21-13.99-4.37-.74-8.45-.93-11.44-.93Z"/>
    <path class="cls-10" d="m1359.8,866.72c-6.77,0-13.01,4.96-17.59,13.21-4.57,8.24-7.41,19.65-7.41,32.29s2.84,24.05,7.41,32.28c4.58,8.25,10.82,13.22,17.59,13.22s13.02-4.96,17.6-13.22c4.56-8.24,7.4-19.65,7.4-32.28s-2.84-24.05-7.4-32.29c-4.58-8.25-10.82-13.21-17.6-13.21Z"/>
    <path class="cls-11" d="m1357.51,888.86c-5.84,0-15.2,6.41-14.07,26.02l.07.94c.45,6.18,1.94,11.72,4.39,15.7,2.45,3.96,5.83,6.34,10.11,6.34,2.95,0,6.26-2.07,8.82-5.73,2.48-3.53,4.2-8.47,4.18-14.2v-.56c-.25-10.96-2.16-18.11-4.74-22.51-2.57-4.38-5.8-6-8.76-6Z"/>
    <path class="cls-15" d="m1358,902.7c-.36,0-.76.19-1.19.66-.42.47-.82,1.18-1.17,2.09-.7,1.83-1.14,4.39-1.14,7.25s.44,5.42,1.14,7.25c.35.92.75,1.62,1.17,2.09.43.47.83.66,1.19.66s.76-.19,1.19-.66c.42-.47.82-1.18,1.17-2.09.7-1.83,1.14-4.39,1.14-7.25s-.44-5.42-1.14-7.25c-.35-.92-.75-1.62-1.17-2.09-.43-.47-.83-.66-1.19-.66Z"/>
    <path class="cls-66" d="m1227.15,861.7c-.86,0-1.61.02-2.24.04,5.71,2.66,10.26,6.3,13.61,11.8,3.7,6.09,5.88,14.39,6.55,26.03v.03c0,7.99-1.52,16.46-5.27,23.34-3.18,5.82-7.96,10.51-14.75,12.77h22.07c4.22-2.13,7.15-4.67,9.5-8.66,2.39-4.04,4.21-9.6,6.15-17.8v-.03s.02-.1.03-.18c.02-.16.06-.39.1-.69.08-.6.18-1.48.28-2.58.2-2.2.38-5.28.3-8.82-.17-7.09-1.39-15.94-5.55-23.15-4.1-7.11-12.79-10.13-20.6-11.35-3.89-.6-7.52-.76-10.18-.76Z"/>
    <path class="cls-10" d="m1225.39,861.7c-5.07.05-9.77,3.93-13.24,10.42-3.48,6.52-5.65,15.56-5.65,25.57s1.8,19.58,4.92,26.61c3.13,7.07,7.51,11.39,12.58,11.39s10.68-4.19,14.76-11.13c4.07-6.91,6.61-16.43,5.74-26.83-.75-8.99-1.99-16.29-4.83-22.2-2.8-5.86-7.19-10.39-14.28-13.84Z"/>
    <path class="cls-11" d="m1225.25,880.7c-2.19,0-4.77,1.54-6.69,5.36-1.86,3.7-3.06,9.47-2.61,17.79l.05.81c.35,5.34,1.15,9.89,2.69,13.09.77,1.59,1.71,2.83,2.84,3.66,1.13.83,2.48,1.29,4.1,1.29,1.05,0,2.2-.54,3.37-1.6,1.17-1.06,2.3-2.59,3.28-4.46,1.91-3.63,3.24-8.48,3.23-13.44v-.48c-.2-9.43-1.67-14.95-3.63-18.09-.97-1.56-2.06-2.54-3.18-3.12-1.12-.59-2.29-.8-3.45-.8Z"/>
    <path class="cls-15" d="m1224.73,891.64c-.29,0-.63.15-.99.56-.37.41-.72,1.02-1.02,1.83-.61,1.61-.99,3.86-.99,6.38s.38,4.77.99,6.38c.3.81.65,1.42,1.02,1.83.36.41.7.56.99.56s.62-.15.98-.56c.37-.41.72-1.02,1.02-1.83.61-1.61.99-3.86.99-6.38s-.38-4.77-.99-6.38c-.3-.8-.65-1.42-1.02-1.83-.36-.41-.69-.56-.98-.56Z"/>
    <path class="cls-6" d="m1183.22,696.44c-5.45,1.59-9.31,7.19-9.42,13.67l-2.29,128.06,166.99-8.6v-178.58l-155.28,45.44Z"/>
    <path class="cls-66" d="m1552.5,950.7c8.68-3.02,14.83-9.88,19.5-25l-64.5,1.5c4,11.69,7.5,18,14,22s18.89,3.92,31,1.5Z"/>
    <path class="cls-27" d="m1198.28,789.73l2.6-27.59h-7.87c-.66,0-1.08-1.49-.75-2.69l11.37-42.25c.48-1.79,1.79-.78,1.6,1.23l-2.6,27.59h7.87c.66,0,1.08,1.49.75,2.69l-11.37,42.25c-.48,1.79-1.79.78-1.6-1.23Z"/>
    <path class="cls-66" d="m1274.31,865.7c-.86,0-1.61.02-2.24.04,5.71,2.66,10.26,6.3,13.61,11.8,3.7,6.09,5.88,14.39,6.55,26.03v.03c0,7.99-1.52,16.46-5.27,23.34-3.18,5.82-7.96,10.51-14.75,12.77h22.07c4.22-2.13,7.15-4.67,9.5-8.66,2.39-4.04,4.21-9.6,6.15-17.8v-.03s.02-.1.03-.18c.02-.16.06-.39.1-.69.08-.6.18-1.48.28-2.58.2-2.2.38-5.28.3-8.82-.17-7.09-1.39-15.94-5.55-23.15-4.1-7.11-12.79-10.13-20.6-11.35-3.89-.6-7.52-.76-10.18-.76Z"/>
    <path class="cls-10" d="m1272.55,865.7c-5.07.05-9.77,3.93-13.24,10.42-3.48,6.52-5.65,15.56-5.65,25.57s1.8,19.58,4.92,26.61c3.13,7.07,7.51,11.39,12.58,11.39s10.68-4.19,14.76-11.13c4.07-6.91,6.61-16.43,5.74-26.83-.75-8.99-1.99-16.29-4.83-22.2-2.8-5.86-7.19-10.39-14.28-13.84Z"/>
    <path class="cls-11" d="m1272.41,884.7c-2.19,0-4.77,1.54-6.69,5.36-1.86,3.7-3.06,9.47-2.61,17.79l.05.81c.35,5.34,1.15,9.89,2.69,13.09.77,1.59,1.71,2.83,2.84,3.66,1.13.83,2.48,1.29,4.1,1.29,1.05,0,2.2-.54,3.37-1.6,1.17-1.06,2.3-2.59,3.28-4.46,1.91-3.63,3.24-8.48,3.23-13.44v-.48c-.2-9.43-1.67-14.95-3.63-18.09-.97-1.56-2.06-2.54-3.18-3.12-1.12-.59-2.29-.8-3.45-.8Z"/>
    <path class="cls-15" d="m1271.89,895.64c-.29,0-.63.15-.99.56-.37.41-.72,1.02-1.02,1.83-.61,1.61-.99,3.86-.99,6.38s.38,4.77.99,6.38c.3.81.65,1.42,1.02,1.83.36.41.7.56.99.56s.62-.15.98-.56c.37-.41.72-1.02,1.02-1.83.61-1.61.99-3.86.99-6.38s-.38-4.77-.99-6.38c-.3-.8-.65-1.42-1.02-1.83-.36-.41-.69-.56-.98-.56Z"/>
    <path class="cls-22" d="m1173.5,775.5h30c9.66,0,17.5,7.84,17.5,17.5v160.5h-65v-160.5c0-9.66,7.84-17.5,17.5-17.5Z"/>
    <path class="cls-71" d="m1173.5,779.5h30c7.46,0,13.5,6.04,13.5,13.5v160.5h-57v-160.5c0-7.46,6.04-13.5,13.5-13.5Z"/>
    <rect class="cls-22" x="1143" y="953.5" width="91" height="4" rx=".5" ry=".5"/>
    <path class="cls-54" d="m1179.5,797.5h17.5c4.69,0,8.5,3.81,8.5,8.5v38.5c0,4.69-3.81,8.5-8.5,8.5h-17.5c-4.69,0-8.5-3.81-8.5-8.5v-38.5c0-4.69,3.81-8.5,8.5-8.5Z"/>
    <rect class="cls-49" x="1189" y="898.5" width="4" height="55"/>
    <rect class="cls-49" x="1181" y="873.5" width="18" height="25" rx="5.5" ry="5.5"/>
    <path class="cls-21" d="m1178.5,828.5l11.5-20.5v16l7.5-1.5-12.5,20.5v-14.5h-6.5Z"/>
    <text class="cls-37" transform="translate(1215.61 768.34) rotate(-4.55) scale(.57 1)"><tspan class="cls-3" x="0" y="0">A</tspan><tspan x="31.68" y="0">m</tspan><tspan class="cls-67" x="75.08" y="0">p</tspan><tspan class="cls-8" x="104.31" y="0">w</tspan><tspan class="cls-25" x="142.4" y="0">a</tspan><tspan class="cls-47" x="167.06" y="0">y</tspan></text>
  </g>
</svg>